<?xml version="1.0" encoding="UTF-8"?>
<svg id="_レイヤー_1" data-name="レイヤー_1" xmlns="http://www.w3.org/2000/svg" version="1.1" viewBox="0 0 146 91">
  <!-- Generator: Adobe Illustrator 29.0.1, SVG Export Plug-In . SVG Version: 2.1.0 Build 192)  -->
  <defs>
    <style>
      .st0 {
        fill: #141414;
      }

      .st1 {
        fill: #9c8334;
      }
    </style>
  </defs>
  <g>
    <path class="st0" d="M58.056,42.548c-.96,0-1.439-.432-1.439-1.296,0-.192.031-1.376.096-3.552.063-2.176.12-5.12.168-8.832.048-3.711.072-7.968.072-12.768h-.48c-1.056,0-1.984.017-2.783.048-.801.032-1.617.096-2.448.192l-.576-2.064c1.6.192,3.535.32,5.808.384h.48V4.388c0-1.375-.112-2.224-.336-2.544-.129-.224-.145-.432-.048-.624.096-.16.271-.24.527-.24.448,0,1.104.048,1.969.144.863.096,1.735.208,2.615.336.88.128,1.528.256,1.944.384.447.096.64.384.576.864-.032.416-.288.656-.769.72-.641.096-.96.449-.96,1.056v10.176h5.568V3.524c0-1.216-.096-1.984-.288-2.304-.128-.192-.144-.367-.048-.528.063-.16.224-.24.479-.24.416,0,1.057.048,1.92.144.864.096,1.736.216,2.616.36.88.144,1.513.264,1.896.36.352.064.527.32.527.768-.032.384-.271.608-.72.672-.576.096-.864.4-.864.912v10.992h5.761V3.524c0-1.216-.113-1.984-.336-2.304-.097-.192-.113-.367-.049-.528.097-.16.256-.24.48-.24.415,0,1.063.048,1.944.144.88.096,1.759.216,2.64.36.88.144,1.512.264,1.896.36.352.064.527.32.527.768-.032.384-.272.608-.72.672-.576.096-.864.4-.864.912,0,1.28.016,2.896.048,4.848.032,1.953.064,4,.097,6.144h.672c.319,0,.56-.024.72-.072s.304-.184.432-.408c.224-.319.536-.784.937-1.392.399-.607.696-1.039.888-1.296.288-.416.672-.496,1.152-.24.415.224.919.56,1.512,1.008.592.449,1.159.912,1.704,1.392.544.48.943.896,1.2,1.248.224.256.288.521.191.792-.096.272-.271.408-.527.408h-8.88c.031,2.208.063,4.32.096,6.336.031,2.016.056,3.704.072,5.064.016,1.36.023,2.152.023,2.376,0,.608-.432,1.088-1.296,1.44-.864.353-1.904.528-3.12.528-.96,0-1.439-.448-1.439-1.344v-.912h-5.761v1.056c0,.608-.432,1.088-1.296,1.44-.863.353-1.904.528-3.12.528-.96,0-1.439-.448-1.439-1.344,0-.127.016-.727.048-1.8.031-1.072.072-2.383.12-3.936.048-1.552.088-3.168.12-4.848.031-1.68.048-3.208.048-4.584h-5.568v21.408h19.584c.353,0,.607-.024.769-.072.159-.048.336-.184.527-.408.16-.192.392-.496.696-.912.304-.416.601-.823.888-1.224.288-.399.496-.679.624-.84.192-.256.392-.392.601-.408.208-.016.439.024.696.12.511.192,1.119.544,1.823,1.056.704.512,1.376,1.032,2.017,1.56.64.528,1.087.953,1.344,1.272.256.256.336.544.24.864-.097.32-.288.48-.576.48h-29.232v1.584c0,.608-.432,1.088-1.296,1.44-.864.352-1.904.528-3.12.528ZM73.559,28.148h5.761v-12.048h-5.761v12.048Z"/>
    <path class="st0" d="M51.192,90.548c-.161-.128-.249-.288-.265-.48-.017-.192.04-.353.168-.48,2.305-.32,4.248-1.097,5.832-2.328s2.815-2.792,3.696-4.68c.88-1.888,1.368-4,1.464-6.336v-.432c-1.76.8-3.561,1.44-5.399,1.92-1.841.48-3.673.848-5.496,1.104-.161-.127-.265-.288-.312-.48-.048-.192-.008-.352.12-.48,3.712-1.088,6.952-2.72,9.72-4.896,2.768-2.176,5.017-4.832,6.744-7.968h-5.855v.768c0,.576-.488,1.04-1.465,1.392-.976.353-2.072.528-3.287.528-.929,0-1.393-.448-1.393-1.344,0-.192.016-.664.048-1.416.032-.751.072-1.664.12-2.736.048-1.072.088-2.2.12-3.384.031-1.184.048-2.32.048-3.408,0-1.728-.023-3.288-.072-4.68-.048-1.392-.136-2.344-.264-2.856-.032-.224,0-.384.096-.48.128-.128.288-.16.48-.096.447.096,1.039.288,1.776.576.735.288,1.503.6,2.304.936.8.336,1.488.632,2.063.888h19.776c.319,0,.576-.112.768-.336.128-.224.305-.511.528-.864.224-.352.384-.624.48-.816.224-.352.543-.448.96-.288.384.096.912.288,1.584.576s1.352.593,2.04.912c.688.32,1.239.592,1.655.816.48.256.696.6.648,1.032-.048.432-.28.728-.696.888-.096.032-.191.081-.288.144-.096.064-.176.128-.239.192-.225.161-.401.377-.528.648-.128.272-.192.632-.192,1.08,0,.96.024,2.088.072,3.384s.096,2.584.145,3.864c.048,1.28.096,2.369.144,3.264.048.896.072,1.392.072,1.488,0,.608-.504,1.088-1.513,1.44-1.008.352-2.12.528-3.336.528-.928,0-1.392-.448-1.392-1.344v-1.296h-7.776c1.088,1.728,2.664,3.081,4.729,4.056,2.063.977,4.416,1.664,7.056,2.064,2.64.4,5.368.6,8.185.6-.801.544-1.545,1.232-2.232,2.064-.688.833-1.28,1.672-1.776,2.52-.496.848-.856,1.592-1.08,2.232-2.72-.799-5.136-1.808-7.248-3.024-.16.16-.239.448-.239.864,0,1.152.023,2.4.071,3.744.049,1.344.112,2.632.192,3.864.079,1.232.145,2.272.192,3.12s.071,1.352.071,1.512c0,.607-.504,1.08-1.512,1.416s-2.12.504-3.336.504c-.96,0-1.44-.432-1.44-1.296v-13.056c0-.799-.032-1.44-.096-1.92-.064-.48-.144-.832-.24-1.056-.096-.224-.08-.384.049-.48.096-.096.255-.127.479-.096.256.033.584.072.984.12.399.048.823.104,1.271.168-1.088-.991-2.063-2.095-2.928-3.312-.864-1.216-1.568-2.575-2.112-4.08-.992,1.536-2.08,2.912-3.264,4.128-1.185,1.216-2.433,2.288-3.744,3.216.544.128,1.048.24,1.512.336.464.096.841.192,1.128.288.385.096.544.353.48.768-.032.384-.272.608-.72.672-.417.032-.704.112-.864.24s-.272.416-.336.864c-.448,3.424-1.473,6.2-3.072,8.328-1.601,2.128-3.608,3.688-6.023,4.68-2.417.992-5.097,1.488-8.04,1.488ZM61.608,56.42h7.872v-5.232h-7.872v5.232ZM61.608,63.572h7.872v-5.712h-7.872v5.712ZM75.24,56.42h7.632v-5.232h-7.632v5.232ZM75.24,63.572h7.632v-5.712h-7.632v5.712Z"/>
  </g>
  <g>
    <path class="st1" d="M28.163,7.14c0-.08.074-.144.221-.19.047-.014.178-.054.395-.12s.49-.148.82-.245.691-.203,1.085-.319c.394-.117.79-.233,1.19-.351.4-.116.779-.229,1.14-.335s.671-.196.935-.27.452-.127.565-.16c.294-.08.488-.187.585-.32.097-.133.145-.286.145-.46,0-.033.016-.063.045-.09.031-.026.062-.04.096-.04.106,0,.16.043.16.13,0,.073-.007.196-.02.37-.014.174-.021.387-.021.64,0,.193.003.392.01.596.007.203.013.381.021.535.006.153.01.25.01.29,0,.053-.018.091-.051.114s-.069.035-.109.035c-.033,0-.064-.014-.096-.04-.029-.026-.045-.063-.045-.109,0-.154-.061-.273-.185-.36s-.321-.097-.595-.03c-.08.021-.229.057-.445.11-.217.053-.47.116-.76.189s-.59.152-.9.235c-.31.083-.604.163-.885.24-.279.076-.52.143-.72.2-.2.056-.33.098-.39.125-.101.046-.11.079-.031.1.041.014.147.042.32.085.174.043.391.099.65.165s.535.137.825.21.575.145.854.215c.28.07.529.135.745.195.217.06.378.104.485.13.287.08.529.05.73-.09.199-.141.299-.344.299-.61,0-.047.016-.083.045-.109.031-.027.062-.04.096-.04.106,0,.16.05.16.149,0,.04-.004.13-.01.271-.008.14-.014.303-.021.489s-.01.367-.01.54c0,.193.003.386.01.575.007.19.013.354.021.49.006.137.01.222.01.255,0,.094-.054.14-.16.14-.033,0-.064-.01-.096-.029-.029-.021-.045-.057-.045-.11,0-.267-.055-.445-.164-.535-.11-.09-.312-.102-.605-.035-.073.021-.222.059-.445.115-.223.057-.488.125-.795.205s-.623.163-.949.25c-.327.087-.634.17-.92.25-.287.08-.522.146-.705.195-.184.05-.282.078-.295.085-.041.013-.064.031-.07.055-.007.023.006.038.039.045.061.007.184.031.371.075.186.043.408.097.664.16.258.063.529.13.815.2.286.069.563.138.83.205.267.066.501.126.705.18.203.053.352.09.444.109.294.074.52.092.676.056.156-.037.264-.11.32-.22.057-.11.084-.239.084-.386,0-.047.016-.083.045-.109.031-.027.062-.04.096-.04.106,0,.16.05.16.149,0,.066-.007.203-.02.41-.014.207-.021.403-.021.59,0,.334.007.582.021.745.013.163.02.278.02.345,0,.047-.018.082-.051.105s-.069.035-.109.035c-.033,0-.064-.014-.096-.04-.029-.027-.045-.061-.045-.101,0-.307-.074-.54-.225-.699-.15-.16-.381-.29-.695-.391-.047-.013-.184-.052-.41-.114-.227-.063-.512-.143-.854-.235-.343-.094-.717-.193-1.12-.3-.403-.107-.807-.214-1.21-.32s-.774-.207-1.114-.3c-.34-.094-.621-.169-.84-.226-.221-.057-.348-.092-.381-.104-.066-.021-.121-.044-.165-.07-.043-.026-.065-.087-.065-.18,0-.047.016-.082.045-.105.031-.023.092-.052.186-.085.04-.013.164-.052.37-.114.206-.063.47-.143.79-.235.32-.094.665-.193,1.035-.3.369-.107.738-.214,1.105-.32.365-.106.701-.205,1.004-.295.304-.09.549-.163.735-.22s.28-.089.28-.096v-.01c.02-.04.014-.066-.02-.08.039.007-.011-.01-.15-.05-.141-.04-.342-.097-.605-.17s-.562-.155-.9-.245c-.336-.09-.686-.184-1.049-.28s-.709-.188-1.035-.274c-.414-.113-.77-.21-1.065-.29-.297-.08-.472-.127-.524-.141-.061-.02-.109-.041-.146-.064s-.056-.082-.056-.175Z"/>
    <path class="st1" d="M28.163,19.87c0-.646.157-1.219.471-1.715.312-.497.752-.885,1.314-1.165.564-.28,1.219-.42,1.965-.42.761,0,1.42.146,1.98.439.561.294.995.688,1.305,1.186.311.496.465,1.055.465,1.675s-.154,1.179-.465,1.675c-.31.497-.744.892-1.305,1.186-.561.293-1.22.439-1.98.439-.746,0-1.4-.142-1.965-.425-.562-.283-1.002-.672-1.314-1.165-.313-.493-.471-1.063-.471-1.71ZM28.534,19.87c0,.36.104.684.314.97.21.287.562.514,1.055.681.494.166,1.164.25,2.01.25.854,0,1.527-.084,2.021-.25.493-.167.847-.394,1.06-.681.214-.286.32-.609.32-.97s-.106-.684-.32-.97c-.213-.287-.566-.514-1.06-.681-.493-.166-1.167-.25-2.021-.25-.846,0-1.516.084-2.01.25-.493.167-.845.394-1.055.681-.21.286-.314.609-.314.97Z"/>
    <path class="st1" d="M28.204,31.51c0-.26.064-.472.195-.635.129-.163.301-.297.514-.4.214-.104.447-.188.701-.255.253-.066.506-.128.76-.185.253-.057.486-.125.699-.205.214-.08.385-.186.516-.315.13-.13.195-.302.195-.515v-.78c0-.087-.041-.13-.121-.13h-2.479c-.134,0-.247.019-.34.055-.093.037-.161.115-.205.235s-.065.304-.065.55c0,.087-.049.13-.149.13-.034,0-.065-.012-.095-.034-.03-.023-.045-.056-.045-.096,0-.066.004-.231.015-.495.01-.263.015-.578.015-.944,0-.347-.005-.646-.015-.896-.011-.25-.015-.411-.015-.484,0-.087.046-.13.14-.13.101,0,.149.043.149.13,0,.246.023.423.07.529s.115.174.205.2.201.04.335.04h5.479c.121,0,.225-.015.311-.045s.155-.097.205-.2.075-.271.075-.505c0-.047.015-.082.045-.104.03-.023.062-.035.095-.035.1,0,.15.046.15.14,0,.047-.006.198-.016.455s-.015.559-.015.905c0,.553.005,1.013.015,1.38.01.366.016.67.016.91,0,.406-.062.778-.186,1.114-.123.337-.318.608-.584.815-.268.207-.617.31-1.051.31-.287,0-.529-.057-.73-.17-.199-.113-.364-.256-.494-.43-.131-.174-.235-.358-.315-.555-.08-.197-.144-.382-.19-.556-.02-.066-.047-.102-.08-.104-.033-.004-.057.008-.069.035-.08.246-.208.444-.386.595-.176.15-.376.269-.6.355-.223.086-.451.158-.685.215s-.448.111-.646.165c-.196.053-.354.12-.475.199-.12.08-.18.19-.18.33,0,.061.015.12.045.181.029.06.082.123.154.189.041.033.066.063.08.09.014.027.004.061-.029.101-.027.033-.057.048-.09.045-.033-.004-.074-.015-.121-.035-.146-.066-.301-.201-.465-.405-.163-.203-.244-.455-.244-.755ZM32.114,28.219v.94c0,.493.133.87.399,1.13s.67.39,1.21.39c.447,0,.811-.108,1.09-.324.28-.217.42-.546.42-.985v-1.07c0-.054-.012-.102-.035-.145-.023-.044-.081-.065-.174-.065h-2.771c-.026,0-.058.014-.091.04s-.049.057-.049.09Z"/>
    <path class="st1" d="M28.284,35.45c0-.094.043-.141.129-.141.107,0,.16.047.16.141,0,.359.044.606.131.74.086.133.242.199.47.199h5.51c.193,0,.339-.052.435-.154.098-.104.146-.339.146-.705,0-.087.054-.13.16-.13.087,0,.13.043.13.13,0,.06-.004.229-.01.51-.007.28-.01.6-.01.96,0,.24,0,.467.004.68.004.214.008.396.011.545.003.15.005.242.005.275,0,.093-.043.14-.13.14-.106,0-.16-.047-.16-.14,0-.367-.048-.608-.146-.725-.096-.117-.241-.176-.435-.176h-5.89c-.134,0-.2.07-.2.21v1.551c0,.326.093.614.28.864.186.25.418.464.695.641.275.177.548.314.814.415.053.02.088.046.105.08.016.033.021.062.015.09-.007.053-.025.086-.056.1-.029.014-.061.021-.095.021h-.25c-.146,0-.321-.002-.524-.005-.203-.004-.398-.007-.586-.011-.186-.003-.326-.008-.42-.015-.086-.007-.156-.033-.209-.08-.055-.047-.08-.117-.08-.21,0-.047,0-.17.004-.37.004-.2.006-.5.006-.9v-3.05c0-.427-.002-.769-.006-1.024-.003-.257-.004-.409-.004-.455Z"/>
    <path class="st1" d="M28.284,44.269c0-.093.046-.14.14-.14.093,0,.14.047.14.14,0,.347.052.58.155.7.103.12.255.18.455.18h5.489c.193,0,.342-.057.445-.17s.155-.356.155-.729c0-.087.046-.13.14-.13s.141.043.141.13c0,.06-.006.231-.016.515s-.015.615-.015.995c0,.44.005.788.015,1.045s.016.452.016.585c0,.42-.065.83-.195,1.23-.13.399-.338.76-.625,1.08-.287.319-.662.574-1.125.765s-1.028.285-1.695.285c-.64,0-1.189-.095-1.649-.285s-.835-.446-1.125-.771c-.29-.323-.503-.683-.64-1.079-.137-.397-.205-.806-.205-1.226,0-.133.003-.33.01-.59.006-.26.01-.613.01-1.06,0-.374-.004-.695-.01-.966-.007-.27-.01-.438-.01-.505ZM28.594,46.569v.591c0,.272.052.54.155.8s.279.496.529.71c.25.213.589.383,1.016.51.426.127.963.19,1.609.19.674,0,1.227-.056,1.66-.165.434-.11.771-.262,1.016-.455.242-.193.413-.412.51-.655.096-.243.145-.498.145-.765v-.761c0-.046-.012-.091-.035-.135-.023-.043-.081-.064-.174-.064h-6.23c-.146,0-.214.066-.2.199Z"/>
  </g>
</svg>