<?xml version="1.0" encoding="UTF-8"?>
<svg id="_レイヤー_1" data-name="レイヤー_1" xmlns="http://www.w3.org/2000/svg" version="1.1" viewBox="0 0 146 92">
  <!-- Generator: Adobe Illustrator 29.0.1, SVG Export Plug-In . SVG Version: 2.1.0 Build 192)  -->
  <defs>
    <style>
      .st0 {
        fill: #141414;
      }

      .st1 {
        fill: #9c8334;
      }
    </style>
  </defs>
  <g>
    <path class="st0" d="M55.056,43.744c-.064-1.408-.232-2.488-.504-3.24-.272-.751-.704-1.304-1.296-1.656-.592-.352-1.4-.592-2.424-.72-.288-.384-.257-.72.096-1.008h4.272c.512,0,.848-.087,1.008-.264.16-.176.24-.456.24-.84v-8.64c-.768.48-1.392.88-1.872,1.2-.384.288-.512.624-.384,1.008.063.256-.048.432-.336.528-.128.032-.257.048-.384.048s-.224-.063-.288-.192c-.032-.064-.176-.384-.432-.96-.257-.576-.544-1.231-.864-1.968-.32-.735-.616-1.416-.888-2.04-.272-.624-.44-1.032-.504-1.224-.064-.16-.064-.288,0-.384.032-.127.144-.208.336-.24.096-.032.399-.104.912-.216.512-.111,1.096-.24,1.752-.384.656-.144,1.264-.28,1.824-.408.56-.127.936-.208,1.128-.24v-9.12h-1.632c-1.536.032-2.832.096-3.888.192l-.528-1.968c1.375.161,2.848.272,4.416.336h1.632v-7.296c0-.864-.032-1.52-.096-1.968-.065-.448-.144-.768-.24-.96-.128-.223-.144-.432-.048-.624.127-.127.288-.192.48-.192.48,0,1.111.048,1.896.144.784.096,1.576.208,2.376.336.799.128,1.423.256,1.872.384.384.096.543.336.48.72-.032.384-.257.608-.672.672-.64.032-.96.384-.96,1.056v7.728h.096c.352,0,.624-.144.816-.432.16-.223.36-.567.6-1.032.24-.464.472-.856.696-1.176.192-.256.416-.367.672-.336-.128-.64-.041-1.279.264-1.92.304-.64.824-1.104,1.56-1.392.928-.352,1.648-.864,2.16-1.536.511-.672.832-1.552.96-2.64.319-.384.655-.4,1.008-.048.192.737.336,1.424.432,2.064h15.168c.319,0,.544-.111.672-.336.127-.16.296-.399.504-.72.208-.32.375-.576.504-.768.223-.352.528-.432.912-.24.352.161.896.44,1.632.84.736.4,1.464.824,2.184,1.272.72.448,1.255.833,1.608,1.152.256.192.319.528.192,1.008-.032.161-.12.312-.264.456-.144.144-.328.216-.552.216-.608,0-1.2.048-1.776.144-2.016.384-3.824,1.424-5.424,3.12-.192.064-.368.048-.528-.048-.161-.096-.272-.224-.336-.384.063-.256.16-.656.288-1.2.127-.544.271-1.111.432-1.704.16-.592.271-1.048.336-1.368h-2.4v7.008c0,.32.08.544.24.672.16.128.463.192.912.192.799,0,1.479-.016,2.04-.048.559-.031,1-.096,1.32-.192.448-.16.76-.304.936-.432.175-.127.343-.399.504-.816.224-.544.48-1.255.768-2.136.288-.88.496-1.576.624-2.088.16-.127.336-.168.528-.12.192.048.336.152.432.312,0,.288-.008.688-.024,1.2-.017.512-.032,1.016-.048,1.512-.016.497-.024.872-.024,1.128-.032.512.144.848.528,1.008.48.224.855.536,1.128.936.271.4.408.809.408,1.224,0,.608-.176,1.136-.528,1.584-.353.448-1.008.785-1.968,1.008-.864.192-1.92.344-3.168.456-1.248.113-2.52.161-3.816.144-1.296-.016-2.424-.056-3.384-.12-.896-.063-1.512-.255-1.848-.576-.336-.32-.504-.784-.504-1.392V4.336h-1.344c-.384,2.976-1.145,5.392-2.28,7.248-1.136,1.856-2.568,3.344-4.296,4.464-1.728,1.121-3.712,2.096-5.952,2.928-.48-.16-.624-.448-.432-.864,2.528-1.408,4.4-3.208,5.616-5.4,1.216-2.192,1.984-4.984,2.304-8.376h-1.68c.096,1.76-.192,3.184-.864,4.272-.672,1.088-1.76,1.632-3.264,1.632.576.512,1.04.977,1.392,1.392.223.256.288.512.192.768-.096.256-.288.384-.576.384h-6.288v8.016c1.504-.352,2.904-.672,4.2-.96s2.28-.496,2.952-.624c.416.161.543.464.384.912-.8.384-1.889.96-3.264,1.728-1.376.768-2.8,1.584-4.272,2.448,0,.833.008,1.833.024,3,.016,1.168.031,2.36.048,3.576.016,1.216.031,2.368.048,3.456.016,1.088.032,1.984.048,2.688.016.704.024,1.12.024,1.248,0,1.568-.561,2.784-1.68,3.648-1.121.864-2.784,1.471-4.992,1.824ZM76.368,43.744c-.833,0-1.248-.384-1.248-1.152,0-.192.024-.888.072-2.088.048-1.2.088-2.68.12-4.44.031-1.76.048-3.52.048-5.28-1.696,2.24-3.641,4.289-5.832,6.144-2.192,1.856-4.472,3.376-6.84,4.56-.449-.064-.624-.336-.528-.816,1.44-1.056,2.815-2.432,4.128-4.128,1.312-1.696,2.504-3.528,3.576-5.496,1.072-1.968,1.96-3.896,2.664-5.784h-1.488c-.705-.031-1.088-.031-1.152,0-1.056,0-1.984.017-2.784.048-.8.033-1.632.096-2.496.192l-.576-2.112c1.6.192,3.536.32,5.808.384h5.52v-2.592c0-.832-.041-1.512-.12-2.04-.08-.528-.168-.903-.264-1.128-.128-.223-.144-.399-.048-.528.064-.192.224-.288.48-.288.416,0,1.04.048,1.872.144.832.096,1.664.208,2.496.336.832.128,1.44.24,1.824.336.416.096.592.368.528.816-.032.384-.272.608-.72.672-.576.096-.864.416-.864.96v3.312h5.904c.512,0,.864-.144,1.056-.432.16-.256.432-.655.816-1.2.384-.543.655-.928.816-1.152.096-.16.224-.256.384-.288.16-.063.367-.016.624.144.384.192.832.497,1.344.912.512.416,1.008.848,1.488,1.296.48.449.832.816,1.056,1.104.192.224.248.464.168.72-.08.256-.232.384-.456.384h-12.48c.96,1.472,2.216,2.864,3.768,4.176,1.552,1.312,3.24,2.464,5.064,3.456,1.824.993,3.568,1.793,5.232,2.4-.736.353-1.472.848-2.208,1.488-.736.641-1.384,1.328-1.944,2.064-.56.737-.984,1.408-1.272,2.016-1.376-.96-2.664-2.191-3.864-3.696-1.2-1.504-2.273-3.168-3.216-4.992-.944-1.824-1.704-3.696-2.28-5.616v3.936c0,1.824.031,3.569.096,5.232.064,1.665.12,3.072.168,4.224.048,1.152.072,1.855.072,2.112,0,.319-.232.607-.696.864-.464.256-1.04.456-1.728.6-.689.144-1.385.216-2.088.216Z"/>
    <path class="st0" d="M69.888,73.744c-.576.353-1.184.488-1.824.408-.641-.08-1.104-.472-1.392-1.176-.704-1.759-1.56-3.175-2.568-4.248-1.008-1.072-2.328-2.056-3.96-2.952-.096-.192-.104-.384-.024-.576.08-.192.216-.304.408-.336,1.408.128,2.728.329,3.96.6,1.231.272,2.312.632,3.24,1.08.127-.672.231-1.4.312-2.184.079-.784.12-1.528.12-2.232v-.672h-9.696c.16,1.985-.152,3.641-.936,4.968-.785,1.328-2.008,1.992-3.672,1.992-.96,0-1.697-.208-2.208-.624-.512-.415-.824-.919-.936-1.512-.113-.592-.024-1.184.264-1.776.288-.592.768-1.063,1.44-1.416,1.215-.64,2.167-1.464,2.856-2.472.688-1.008,1.096-2.2,1.224-3.576.288-.384.608-.432.96-.144.384,1.025.672,2.064.864,3.12h11.136v-4.848h-9.6c-1.056,0-1.992.024-2.808.072s-1.64.12-2.472.216l-.576-2.112c1.6.192,3.535.32,5.808.384h9.648v-1.152c0-.928-.041-1.672-.12-2.232-.081-.56-.185-.952-.312-1.176-.096-.224-.113-.432-.048-.624.127-.192.304-.271.528-.24.48,0,1.184.048,2.112.144.928.096,1.855.208,2.784.336.928.128,1.615.256,2.064.384.256.032.416.128.48.288.064.161.096.353.096.576-.032.449-.305.704-.816.768-.353.032-.592.128-.72.288-.128.16-.192.4-.192.72v1.92h7.44c.543,0,.928-.16,1.152-.48.192-.288.504-.744.936-1.368s.728-1.048.888-1.272c.288-.416.672-.496,1.152-.24.416.224.919.568,1.512,1.032.592.464,1.152.936,1.68,1.416s.919.864,1.176,1.152c.223.256.288.521.192.792-.096.272-.272.408-.528.408h-15.6v4.848h9.552c.448,0,.736-.144.864-.432.127-.224.271-.48.432-.768.16-.288.288-.528.384-.72.256-.48.655-.592,1.2-.336.448.224,1.063.6,1.848,1.128.784.528,1.584,1.08,2.4,1.656.816.576,1.464,1.04,1.944,1.392.319.288.399.72.24,1.296-.064.192-.185.36-.36.504-.176.144-.393.2-.648.168-.608-.064-1.232-.064-1.872,0-1.184.096-2.424.344-3.72.744-1.296.4-2.408.888-3.336,1.464-.48,0-.72-.224-.72-.672.16-.384.416-.976.768-1.776.352-.799.672-1.536.96-2.208h-13.728c.16.032.52.128,1.08.288.56.161,1.12.32,1.68.48.56.161.904.272,1.032.336.352.161.463.417.336.768-.064.288-.257.432-.576.432-.32.032-.592.104-.816.216-.224.113-.497.296-.816.552-.641.512-1.32,1.032-2.04,1.56-.72.528-1.4,1-2.04,1.416.992.8,1.6,1.744,1.824,2.832.16.8.104,1.488-.168,2.064-.272.576-.648,1.024-1.128,1.344ZM51.264,91.6c-.48-.224-.608-.528-.384-.912,1.375-.737,2.688-1.649,3.936-2.736s2.376-2.271,3.384-3.552c1.008-1.28,1.8-2.544,2.376-3.792l.432-1.008c.064-.16.144-.255.24-.288.127,0,.24.017.336.048.416.16,1.047.432,1.896.816.847.384,1.68.76,2.496,1.128.816.368,1.399.665,1.752.888.223.192.288.416.192.672-.096.32-.305.464-.624.432-.353-.032-.648-.008-.888.072-.24.08-.536.281-.888.6-2.048,1.76-4.337,3.28-6.864,4.56-2.528,1.279-4.992,2.304-7.392,3.072ZM70.512,91.696c-.833,0-1.248-.384-1.248-1.152,0-.161.016-.641.048-1.44.031-.8.055-1.744.072-2.832.016-1.088.04-2.16.072-3.216.031-1.056.048-1.903.048-2.544v-2.784c-2.208.353-4.217.681-6.024.984-1.809.304-3.128.552-3.96.744-.512.096-.824.216-.936.36-.113.144-.168.392-.168.744,0,.225-.096.369-.288.432-.32.192-.561.144-.72-.144-.224-.384-.544-.967-.96-1.752-.416-.784-.816-1.56-1.2-2.328-.384-.768-.672-1.344-.864-1.728-.096-.16-.096-.288,0-.384.064-.096.192-.144.384-.144h.72c.256,0,.544-.016.864-.048,1.12-.032,2.496-.056,4.128-.072,1.632-.016,3.416-.04,5.352-.072,1.936-.032,3.896-.064,5.88-.096.896-1.248,1.776-2.728,2.64-4.44.864-1.711,1.519-3.271,1.968-4.68.064-.255.136-.487.216-.696.08-.208.136-.424.168-.648,0-.127.064-.224.192-.288.063,0,.12.008.168.024.048.017.104.024.168.024.48.161,1.159.449,2.04.864.879.416,1.752.833,2.616,1.248.864.416,1.488.752,1.872,1.008.319.224.384.497.192.816-.128.353-.336.497-.624.432-.416-.063-.76-.063-1.032,0-.272.064-.584.256-.936.576-1.28,1.184-2.472,2.225-3.576,3.12-1.104.896-2.264,1.76-3.48,2.592,2.176-.032,4.2-.056,6.072-.072,1.872-.016,3.432-.024,4.68-.024-1.024-1.152-2.256-2.127-3.696-2.928-.161-.416-.032-.72.384-.912,2.08.224,3.944.6,5.592,1.128,1.647.528,2.968,1.256,3.96,2.184.991.929,1.504,2.081,1.536,3.456.063,1.056-.144,1.896-.624,2.52s-1.041,1.016-1.68,1.176c-.544.128-1.072.081-1.584-.144-.512-.223-.864-.64-1.056-1.248-.256-.768-.544-1.495-.864-2.184-.32-.688-.704-1.336-1.152-1.944-1.185.161-2.721.384-4.608.672-1.888.288-3.904.608-6.048.96v3.696c0,.608.016,1.409.048,2.4.032.992.056,2,.072,3.024.016,1.025.04,1.913.072,2.664.032.751.048,1.208.048,1.368,0,.352-.257.655-.768.912-.512.255-1.152.456-1.92.6-.768.144-1.521.216-2.256.216ZM90.96,90.784c-.512.288-1.049.392-1.608.312-.561-.08-1.017-.392-1.368-.936-.8-1.216-1.745-2.472-2.832-3.768-1.088-1.296-2.249-2.488-3.48-3.576-1.232-1.088-2.472-1.952-3.72-2.592-.224-.416-.096-.72.384-.912,2.08.32,4.12.768,6.12,1.344,2,.576,3.727,1.32,5.184,2.232,1.456.912,2.408,2.04,2.856,3.384.352,1.088.344,2.023-.024,2.808-.368.784-.872,1.352-1.512,1.704Z"/>
  </g>
  <g>
    <path class="st1" d="M28.02,5.678c0-.087.053-.13.16-.13.086,0,.13.043.13.13,0,.373.046.625.14.755.093.13.25.195.47.195h5.48c.2,0,.35-.061.45-.18.1-.12.15-.36.15-.721,0-.087.05-.13.15-.13.087,0,.13.043.13.13,0,.054-.003.309-.01.766-.007.456-.01,1.128-.01,2.015,0,.84.003,1.477.01,1.91.006.433.01.68.01.74,0,.153-.077.232-.23.239-.06.014-.158.023-.295.03s-.282.014-.435.021c-.153.006-.29.011-.41.015-.12.003-.197.005-.23.005-.027,0-.055-.007-.085-.02-.03-.014-.045-.044-.045-.091,0-.046.005-.081.015-.104.01-.023.039-.045.085-.065.18-.08.372-.182.575-.305.203-.123.378-.287.525-.49s.22-.468.22-.795v-1.55c0-.061-.014-.11-.04-.15-.027-.04-.083-.06-.17-.06h-2.74c-.027,0-.055.013-.085.04-.03.026-.045.057-.045.09v.51c0,.28.06.493.18.641.12.146.26.255.42.324.16.07.296.129.41.176.053.02.092.038.115.055.023.017.035.052.035.104,0,.047-.017.079-.05.096s-.067.024-.1.024c-.053,0-.148,0-.285-.005-.137-.003-.285-.007-.445-.01-.16-.004-.307-.005-.44-.005-.126,0-.278,0-.455.005-.177.003-.336.007-.48.01-.144.004-.238.005-.285.005-.1,0-.15-.04-.15-.12,0-.073.043-.123.13-.149.126-.047.275-.106.445-.18.17-.074.32-.184.45-.33.13-.147.195-.36.195-.641v-.51c0-.087-.05-.13-.15-.13h-2.89c-.127,0-.19.066-.19.2v1.35c0,.32.058.59.175.811.117.22.263.401.44.545.177.143.354.255.53.335.176.08.325.14.445.18.06.02.093.042.1.065.006.022.006.058,0,.104v.01c-.007.054-.023.084-.05.09-.027.007-.057.011-.09.011-.026,0-.11-.002-.25-.005-.14-.004-.302-.007-.485-.011-.184-.003-.354-.007-.51-.01-.156-.003-.265-.005-.325-.005-.087,0-.16-.025-.22-.075s-.09-.121-.09-.215c0-.047.003-.15.01-.31.007-.16.012-.424.015-.79.003-.367.005-.881.005-1.54,0-.813-.005-1.482-.015-2.005-.01-.523-.015-.822-.015-.896Z"/>
    <path class="st1" d="M28.02,14.308c0-.093.043-.14.13-.14.106,0,.16.047.16.14,0,.193.03.368.09.525.06.156.17.316.33.479.16.164.394.349.7.556.06.04.168.113.325.22s.333.225.53.354c.196.131.385.257.565.381.18.123.323.218.43.284.067.04.14.037.22-.01.46-.26.874-.502,1.24-.725.366-.224.661-.405.885-.545.223-.141.352-.221.385-.24.32-.187.563-.363.73-.53.167-.167.25-.354.25-.56,0-.04.015-.072.045-.096.03-.023.062-.034.095-.034.1,0,.15.043.15.13,0,.046-.003.138-.01.274-.007.137-.012.295-.015.476-.003.18-.005.356-.005.529,0,.193.001.382.005.565s.008.34.015.47c.006.13.01.212.01.245,0,.094-.05.141-.15.141-.033,0-.065-.012-.095-.035-.03-.023-.045-.059-.045-.105,0-.26-.04-.406-.12-.439-.08-.034-.21,0-.39.1-.027.021-.128.083-.305.19-.176.106-.4.243-.67.409-.27.167-.562.351-.875.551-.073.046-.073.097,0,.149.24.16.468.313.685.46s.4.271.55.37c.15.101.238.156.265.17.213.12.41.134.59.04.18-.093.27-.28.27-.56,0-.047.015-.084.045-.11.03-.026.062-.04.095-.04.1,0,.15.05.15.15,0,.06-.005.185-.015.375-.01.189-.015.444-.015.765,0,.293.005.526.015.7.01.173.015.293.015.36,0,.093-.05.14-.15.14-.033,0-.065-.012-.095-.035-.03-.023-.045-.059-.045-.104,0-.228-.082-.45-.245-.671-.164-.22-.378-.416-.645-.59-.12-.08-.34-.222-.66-.425-.32-.203-.71-.462-1.17-.774-.087-.061-.167-.063-.24-.011-.38.24-.75.469-1.11.686-.36.216-.68.413-.96.59-.28.177-.493.312-.64.405-.267.18-.501.359-.705.54-.204.18-.305.366-.305.56,0,.1-.054.15-.16.15-.086,0-.13-.051-.13-.15,0-.066.003-.22.01-.46.007-.24.01-.486.01-.74,0-.193-.002-.392-.005-.595-.003-.203-.007-.379-.01-.525s-.005-.236-.005-.27c0-.094.043-.141.13-.141.106,0,.16.047.16.141,0,.246.043.388.13.425.086.036.217.002.39-.104.173-.101.367-.217.58-.351s.423-.264.63-.39c.207-.127.388-.238.545-.335s.265-.162.325-.195c.033-.02.048-.047.045-.08s-.019-.06-.045-.08c-.327-.227-.645-.441-.955-.645-.31-.204-.545-.358-.705-.465-.173-.114-.332-.154-.475-.12-.144.033-.257.109-.34.229-.083.12-.125.257-.125.41,0,.1-.054.15-.16.15-.086,0-.13-.051-.13-.15,0-.06.003-.191.01-.395.007-.204.01-.462.01-.775,0-.294-.003-.557-.01-.79-.006-.233-.01-.384-.01-.45Z"/>
    <path class="st1" d="M28.02,23.768c0-.1.046-.149.14-.149.1,0,.15.05.15.149,0,.28.017.486.05.62s.095.222.185.265c.09.044.215.065.375.065h5.48c.146,0,.263-.019.35-.055.086-.037.148-.124.185-.261s.055-.354.055-.654c0-.033.015-.063.045-.09.03-.027.062-.04.095-.04.1,0,.15.043.15.13,0,.06-.005.227-.015.5-.01.273-.015.633-.015,1.08,0,.553.005,1.028.015,1.425.01.396.015.715.015.955,0,.76-.173,1.35-.52,1.77-.347.42-.837.63-1.47.63-.62,0-1.102-.175-1.445-.524-.344-.351-.515-.925-.515-1.726v-1.8c0-.08-.043-.12-.13-.12h-2.28c-.24,0-.402.073-.485.221-.083.146-.125.439-.125.88,0,.086-.05.13-.15.13-.094,0-.14-.044-.14-.13,0-.067.005-.252.015-.556.01-.303.015-.688.015-1.154,0-.447-.005-.802-.015-1.065-.01-.264-.015-.429-.015-.495ZM31.66,26.058v1.311c0,.433.15.77.45,1.01.3.24.693.36,1.18.36.307,0,.586-.046.84-.136s.457-.246.61-.47c.153-.224.23-.535.23-.935v-1.051c0-.06-.012-.109-.035-.149s-.082-.061-.175-.061h-2.97c-.027,0-.055.012-.085.035-.03.023-.045.052-.045.085Z"/>
    <path class="st1" d="M28.02,32.798c0-.094.043-.141.13-.141.106,0,.16.047.16.141,0,.359.043.606.13.74.086.133.243.199.47.199h5.51c.193,0,.338-.052.435-.154.097-.104.145-.339.145-.705,0-.087.053-.13.16-.13.086,0,.13.043.13.13,0,.06-.003.229-.01.51-.006.28-.01.6-.01.96,0,.24.001.467.005.68.003.214.007.396.01.545.003.15.005.242.005.275,0,.093-.043.14-.13.14-.107,0-.16-.047-.16-.14,0-.367-.048-.608-.145-.725-.097-.117-.242-.176-.435-.176h-5.89c-.133,0-.2.07-.2.21v1.551c0,.326.093.614.28.864s.418.464.695.641c.276.177.548.314.815.415.053.02.088.046.105.08.017.033.021.062.015.09-.007.053-.025.086-.055.1-.03.014-.062.021-.095.021h-.25c-.146,0-.322-.002-.525-.005-.203-.004-.398-.007-.585-.011-.187-.003-.327-.008-.42-.015-.087-.007-.157-.033-.21-.08-.054-.047-.08-.117-.08-.21,0-.047.001-.17.005-.37s.005-.5.005-.9v-3.05c0-.427-.001-.769-.005-1.024-.003-.257-.005-.409-.005-.455Z"/>
    <path class="st1" d="M27.9,45.068c0-.646.157-1.219.47-1.715.313-.497.751-.885,1.315-1.165s1.218-.42,1.965-.42c.76,0,1.42.146,1.98.439.56.294.995.688,1.305,1.186.31.496.465,1.055.465,1.675s-.155,1.179-.465,1.675c-.31.497-.745.892-1.305,1.186-.56.293-1.22.439-1.98.439-.747,0-1.401-.142-1.965-.425s-1.002-.672-1.315-1.165c-.313-.493-.47-1.063-.47-1.71ZM28.27,45.068c0,.36.105.684.315.97.21.287.562.514,1.055.681.493.166,1.163.25,2.01.25.854,0,1.527-.084,2.02-.25.493-.167.847-.394,1.06-.681.213-.286.32-.609.32-.97s-.106-.684-.32-.97c-.213-.287-.567-.514-1.06-.681-.493-.166-1.167-.25-2.02-.25-.847,0-1.517.084-2.01.25-.494.167-.845.394-1.055.681-.21.286-.315.609-.315.97Z"/>
    <path class="st1" d="M27.94,56.707c0-.26.065-.472.195-.635.13-.163.301-.297.515-.4s.447-.188.7-.255.506-.128.76-.185.487-.125.7-.205.385-.186.515-.315c.13-.13.195-.302.195-.515v-.78c0-.087-.04-.13-.12-.13h-2.48c-.133,0-.247.019-.34.055-.093.037-.162.115-.205.235s-.065.304-.065.55c0,.087-.05.13-.15.13-.034,0-.065-.012-.095-.034-.03-.023-.045-.056-.045-.096,0-.066.005-.231.015-.495.01-.263.015-.578.015-.944,0-.347-.005-.646-.015-.896-.01-.25-.015-.411-.015-.484,0-.087.046-.13.14-.13.1,0,.15.043.15.13,0,.246.023.423.07.529.047.106.115.174.205.2s.202.04.335.04h5.48c.12,0,.224-.015.31-.045s.155-.097.205-.2.075-.271.075-.505c0-.047.015-.082.045-.104.03-.023.062-.035.095-.035.1,0,.15.046.15.14,0,.047-.005.198-.015.455-.01.257-.015.559-.015.905,0,.553.005,1.013.015,1.38.01.366.015.67.015.91,0,.406-.062.778-.185,1.114-.124.337-.319.608-.585.815-.267.207-.617.31-1.05.31-.287,0-.53-.057-.73-.17s-.365-.256-.495-.43c-.13-.174-.235-.358-.315-.555-.08-.197-.144-.382-.19-.556-.02-.066-.047-.102-.08-.104-.033-.004-.057.008-.07.035-.08.246-.208.444-.385.595s-.376.269-.6.355c-.224.086-.452.158-.685.215-.233.057-.449.111-.645.165-.197.053-.355.12-.475.199-.12.08-.18.19-.18.33,0,.061.015.12.045.181.03.06.082.123.155.189.04.033.066.063.08.09.013.027.003.061-.03.101-.026.033-.057.048-.09.045-.033-.004-.073-.015-.12-.035-.146-.066-.302-.201-.465-.405-.164-.203-.245-.455-.245-.755ZM31.85,53.417v.94c0,.493.133.87.4,1.13s.67.39,1.21.39c.447,0,.81-.108,1.09-.324.28-.217.42-.546.42-.985v-1.07c0-.054-.012-.102-.035-.145-.023-.044-.082-.065-.175-.065h-2.77c-.027,0-.057.014-.09.04s-.05.057-.05.09Z"/>
    <path class="st1" d="M28.02,60.638c0-.087.053-.131.16-.131.086,0,.13.044.13.131,0,.373.046.625.14.755.093.13.25.194.47.194h5.48c.2,0,.35-.06.45-.18s.15-.36.15-.72c0-.087.05-.13.15-.13.087,0,.13.043.13.13,0,.053-.003.308-.01.765-.007.457-.01,1.128-.01,2.015,0,.841.003,1.477.01,1.91.006.434.01.681.01.74,0,.153-.077.233-.23.24-.06.013-.158.023-.295.03-.137.006-.282.013-.435.02s-.29.012-.41.015c-.12.004-.197.005-.23.005-.027,0-.055-.006-.085-.02-.03-.014-.045-.043-.045-.09s.005-.082.015-.105c.01-.023.039-.045.085-.064.18-.08.372-.182.575-.306.203-.123.378-.286.525-.489.146-.204.22-.469.22-.795v-1.551c0-.06-.014-.109-.04-.149-.027-.04-.083-.061-.17-.061h-2.74c-.027,0-.055.014-.085.04-.03.027-.045.057-.045.09v.511c0,.279.06.493.18.64.12.146.26.255.42.325.16.07.296.128.41.175.053.021.092.038.115.055.023.017.035.052.035.105,0,.047-.017.078-.05.095s-.067.025-.1.025c-.053,0-.148-.002-.285-.005-.137-.004-.285-.007-.445-.011-.16-.003-.307-.005-.44-.005-.126,0-.278.002-.455.005-.177.004-.336.007-.48.011-.144.003-.238.005-.285.005-.1,0-.15-.04-.15-.12,0-.073.043-.123.13-.15.126-.047.275-.106.445-.18s.32-.184.45-.33c.13-.146.195-.36.195-.64v-.511c0-.086-.05-.13-.15-.13h-2.89c-.127,0-.19.067-.19.2v1.351c0,.319.058.59.175.81s.263.401.44.545.354.255.53.335c.176.08.325.14.445.18.06.021.093.042.1.065.006.023.006.059,0,.105v.01c-.007.053-.023.083-.05.09-.027.007-.057.01-.09.01-.026,0-.11-.002-.25-.005-.14-.003-.302-.007-.485-.01-.184-.004-.354-.007-.51-.01-.156-.004-.265-.006-.325-.006-.087,0-.16-.024-.22-.074-.06-.051-.09-.122-.09-.216,0-.046.003-.149.01-.31.007-.16.012-.424.015-.79s.005-.88.005-1.54c0-.813-.005-1.481-.015-2.005-.01-.523-.015-.821-.015-.895Z"/>
  </g>
</svg>