<?xml version="1.0" encoding="UTF-8"?>
<svg id="_レイヤー_1" data-name="レイヤー_1" xmlns="http://www.w3.org/2000/svg" version="1.1" viewBox="0 0 146 185">
  <!-- Generator: Adobe Illustrator 29.0.1, SVG Export Plug-In . SVG Version: 2.1.0 Build 192)  -->
  <defs>
    <style>
      .st0 {
        fill: #141414;
      }

      .st1 {
        fill: #9c8334;
      }
    </style>
  </defs>
  <g>
    <path class="st0" d="M84.909,43.762c-.833,0-1.248-.384-1.248-1.152,0-.128.016-.656.048-1.584.031-.928.072-2.119.12-3.575.048-1.456.104-3.049.168-4.776.063-1.729.112-3.439.144-5.136.031-1.696.048-3.248.048-4.656v-3.12c-.96,1.217-1.928,2.36-2.904,3.432-.977,1.073-1.961,2.04-2.952,2.904-.192.032-.36-.016-.504-.144s-.216-.288-.216-.48c1.024-1.472,1.984-3.168,2.88-5.088.896-1.92,1.704-3.936,2.424-6.048.72-2.112,1.32-4.208,1.8-6.288s.816-4.016,1.008-5.808c.031-.32.048-.576.048-.769v-.479c-.032-.288-.017-.464.048-.528.064-.096.24-.128.528-.096.607.096,1.392.271,2.352.527.96.257,1.927.528,2.904.816.976.288,1.752.544,2.328.768.16.032.264.145.312.336.048.192.04.368-.024.528-.065.384-.257.576-.576.576-.417,0-.712.064-.888.191-.176.129-.344.385-.504.769-.768,2.24-1.68,4.353-2.736,6.336v30.816c0,.352-.24.655-.72.911s-1.072.456-1.776.601c-.704.144-1.409.216-2.112.216ZM90.957,41.602l-.576-2.063c1.6.191,3.536.32,5.808.384h6v-13.776h-4.8c-1.025,0-1.889.017-2.592.048-.704.032-1.36.097-1.968.192l-.576-2.064c.832.129,1.632.217,2.4.265s1.664.088,2.688.12h4.848v-12.192h-5.712c-1.024,0-1.889.017-2.592.048-.704.032-1.36.097-1.968.192l-.576-2.064c.832.129,1.632.216,2.4.265.768.048,1.664.088,2.688.119h16.08c.288,0,.512-.023.672-.071.16-.048.319-.184.48-.408.127-.16.328-.424.6-.792.271-.367.544-.735.816-1.104.271-.367.472-.615.6-.743.256-.385.64-.464,1.152-.24.448.16.984.464,1.608.912s1.224.92,1.8,1.416c.576.496.992.92,1.248,1.271.224.257.288.521.192.792-.096.272-.272.408-.528.408h-13.056v12.192h3.072c.288,0,.511-.024.672-.072.16-.048.319-.184.48-.408.16-.191.376-.463.648-.815.271-.353.544-.712.816-1.08.271-.368.456-.632.552-.792.288-.353.672-.433,1.152-.24.448.191.984.512,1.608.96s1.224.92,1.8,1.416c.576.496.991.92,1.248,1.271.223.257.295.521.216.792-.08.272-.248.408-.504.408h-11.76v13.776h4.944c.576,0,.976-.176,1.2-.528.16-.224.368-.535.624-.936.256-.4.52-.8.792-1.2.271-.399.472-.68.6-.84.319-.448.768-.528,1.344-.24.48.225,1.039.584,1.68,1.08.64.496,1.248,1,1.824,1.512.576.513.991.929,1.248,1.248.255.288.336.584.24.888-.096.304-.288.456-.576.456h-25.824c-1.056,0-1.984.017-2.784.049-.8.031-1.616.096-2.448.191ZM106.461,10.018c-.704.288-1.392.329-2.064.12-.672-.208-1.136-.664-1.392-1.368-.576-1.695-1.296-3.159-2.16-4.392-.864-1.231-1.952-2.232-3.264-3-.192-.416-.096-.736.288-.96,1.503,0,3,.16,4.488.479,1.488.32,2.792.849,3.912,1.584,1.12.736,1.84,1.713,2.16,2.929.352,1.184.295,2.176-.168,2.976s-1.064,1.344-1.8,1.632Z"/>
    <path class="st0" d="M78.189,91.762c-.449-.225-.56-.545-.336-.96,3.295-1.536,6.056-3.544,8.28-6.024,2.224-2.479,3.992-5.359,5.304-8.64,1.312-3.279,2.256-6.92,2.832-10.92.576-4,.864-8.271.864-12.816,0-.735-.041-1.287-.12-1.655-.081-.368-.152-.712-.216-1.032-.096-.352-.112-.607-.048-.769.063-.319.271-.447.624-.384.576.064,1.352.177,2.328.336.976.161,1.959.329,2.952.504.992.177,1.776.345,2.352.504.544.097.784.433.72,1.009-.032.224-.137.424-.312.6-.176.177-.376.264-.6.264-.512-.063-.864.081-1.056.433-.192.353-.288.848-.288,1.487,0,3.809.416,7.2,1.248,10.177.832,2.976,1.968,5.6,3.408,7.872s3.08,4.264,4.92,5.976c1.84,1.712,3.775,3.185,5.808,4.416,2.032,1.232,4.04,2.312,6.024,3.24-.929.32-1.824.809-2.688,1.464-.864.656-1.632,1.375-2.304,2.16-.672.783-1.216,1.512-1.632,2.184-2.048-1.151-4.048-2.808-6-4.968-1.952-2.16-3.68-4.672-5.184-7.536-1.504-2.863-2.64-5.959-3.408-9.288-.768-3.327-1.025-6.735-.768-10.224-.576,4.96-1.457,9.232-2.64,12.815-1.184,3.585-2.705,6.624-4.56,9.12-1.856,2.496-4.072,4.593-6.648,6.288-2.576,1.696-5.528,3.151-8.856,4.368Z"/>
    <path class="st0" d="M100.029,137.506c-2.72,0-5.112-.264-7.176-.792s-3.68-1.416-4.848-2.664c-1.168-1.248-1.752-2.943-1.752-5.088,0-1.567.512-3.04,1.536-4.416,1.023-1.376,2.416-2.656,4.176-3.84,1.76-1.184,3.728-2.224,5.904-3.12-.993-.544-1.785-1.384-2.376-2.521-.593-1.135-.888-2.632-.888-4.487,0-.832.024-1.792.072-2.881.048-1.087.104-2.167.168-3.239.064-1.072.096-1.976.096-2.712,0-.64-.041-1.168-.12-1.584-.08-.416-.248-.736-.504-.96-.128-.128-.296-.217-.504-.265-.208-.048-.44-.088-.696-.12-.353-.352-.353-.672,0-.96.735-.159,1.615-.216,2.64-.168,1.024.048,1.984.312,2.88.792,1.024.513,1.656,1.169,1.896,1.969.24.8.136,1.648-.312,2.544-.48.96-.833,2.159-1.056,3.6-.224,1.44-.336,2.896-.336,4.368,0,1.568.184,2.832.552,3.792.368.96.84,1.521,1.416,1.68.992-.352,1.928-.688,2.808-1.008.88-.319,1.608-.64,2.184-.96.448-.256.904-.408,1.368-.456s1.032.057,1.704.312c1.248.449,2.056,1.025,2.424,1.729.367.704.319,1.344-.144,1.92-.464.576-1.32.929-2.568,1.056-2.4.225-4.712.608-6.936,1.152-2.224.545-4.208,1.232-5.952,2.064-1.745.832-3.128,1.792-4.152,2.88-1.024,1.088-1.536,2.304-1.536,3.647,0,1.568.784,2.633,2.352,3.192,1.567.56,3.936.84,7.104.84,1.248,0,2.583-.072,4.008-.216,1.423-.145,2.768-.319,4.032-.528,1.264-.208,2.232-.408,2.904-.6.352-.097.696-.151,1.032-.168.336-.016.711.088,1.128.312,1.087.513,1.776,1.128,2.064,1.849.288.72.216,1.392-.216,2.016-.432.624-1.208,1.048-2.328,1.271-.512.097-1.289.192-2.328.288-1.041.097-2.177.184-3.408.265-1.232.079-2.408.136-3.528.168-1.121.031-2.048.048-2.784.048Z"/>
    <path class="st0" d="M98.445,184.642c-.16-.16-.248-.344-.264-.552-.017-.208.04-.376.168-.504,3.168-.48,5.911-1.567,8.232-3.265,2.32-1.695,4.111-3.815,5.376-6.359,1.264-2.544,1.879-5.304,1.848-8.28-.032-3.104-.624-5.768-1.776-7.992-1.152-2.224-2.768-3.936-4.848-5.136-2.081-1.2-4.56-1.783-7.44-1.752.704.832,1.168,1.809,1.392,2.928.224,1.121.271,2.385.144,3.792-.192,2.592-.616,5.033-1.272,7.32-.656,2.288-1.448,4.36-2.376,6.216s-1.889,3.464-2.88,4.824c-.992,1.36-1.92,2.424-2.784,3.191-.992.864-2.024,1.361-3.096,1.488-1.073.129-2.072-.415-3-1.632-.512-.703-1.064-1.352-1.656-1.944-.592-.592-1.145-1.231-1.656-1.92-.512-.688-.936-1.495-1.272-2.424-.336-.928-.521-2.063-.552-3.408-.064-2.719.384-5.279,1.344-7.68s2.312-4.52,4.056-6.36c1.744-1.84,3.768-3.312,6.072-4.416,2.304-1.104,4.768-1.72,7.392-1.848,2.751-.128,5.328.216,7.728,1.032,2.4.815,4.503,2.009,6.312,3.576,1.808,1.568,3.216,3.416,4.224,5.544,1.008,2.128,1.512,4.456,1.512,6.983,0,3.425-.809,6.497-2.424,9.216-1.616,2.721-3.984,4.904-7.104,6.553-3.12,1.648-6.92,2.583-11.4,2.808ZM89.949,174.13c.704-.48,1.496-1.312,2.376-2.496.879-1.184,1.728-2.616,2.544-4.296.816-1.68,1.527-3.52,2.136-5.521.607-1.999,1.008-4.056,1.2-6.168,0-.063.016-.159.048-.288.064-1.023.112-1.888.144-2.592.031-.703-.048-1.327-.24-1.872-1.888.225-3.632.856-5.232,1.896-1.601,1.04-2.992,2.384-4.176,4.032-1.184,1.648-2.081,3.536-2.688,5.663-.608,2.129-.864,4.409-.768,6.841.096,1.92.384,3.296.864,4.128s1.063,1.271,1.752,1.319c.688.049,1.368-.168,2.04-.647Z"/>
    <path class="st0" d="M23.613,11.218l-.576-2.064c1.568.192,3.504.32,5.808.385h12.096v-3.792c0-.769-.032-1.504-.096-2.208-.064-.704-.176-1.216-.336-1.536-.096-.224-.112-.416-.048-.576.096-.16.271-.24.528-.24.352,0,.864.032,1.536.096.672.064,1.399.145,2.184.24.784.097,1.519.192,2.208.288.688.096,1.191.177,1.512.24.448.128.64.432.576.912-.032.416-.288.656-.768.72-.736.096-1.104.448-1.104,1.056v4.801h9.12c.319,0,.567-.032.744-.097.176-.063.344-.207.504-.432.16-.192.391-.487.696-.888.304-.4.607-.8.912-1.2.304-.4.52-.68.648-.84.288-.416.704-.512,1.248-.288.511.191,1.12.536,1.824,1.031.704.497,1.375,1.009,2.016,1.536.64.528,1.104.953,1.392,1.272.256.288.328.584.216.888-.112.305-.312.456-.6.456H28.845c-1.056,0-1.984.017-2.784.048-.8.032-1.616.097-2.448.192ZM23.372,44.626c-.384-.288-.432-.608-.144-.96,3.936-.833,7.471-2.097,10.608-3.792,3.136-1.696,5.872-3.76,8.208-6.192-1.697-1.888-3.089-4.032-4.176-6.432-1.088-2.4-1.76-5.088-2.016-8.064-1.824,1.536-3.72,2.904-5.688,4.104-1.968,1.199-3.96,2.216-5.976,3.048-.449-.16-.593-.448-.432-.864,1.279-.96,2.512-2.088,3.696-3.384,1.184-1.296,2.256-2.695,3.216-4.2.96-1.504,1.711-3.04,2.256-4.608.063-.159.12-.319.168-.479s.088-.319.12-.48c.031-.191.16-.336.384-.432.096-.063.24-.063.432,0,.576.128,1.328.336,2.256.624.928.288,1.832.584,2.712.888.88.305,1.56.553,2.04.744.32.096.416.336.288.72-.064.288-.224.433-.48.433-.353,0-.648.056-.888.168-.24.112-.552.376-.936.792-.705.704-1.424,1.376-2.16,2.016.416,2.688,1.303,5.057,2.664,7.104,1.359,2.048,3.063,3.824,5.112,5.328,1.087-1.504,2.047-3.072,2.88-4.704.832-1.632,1.52-3.344,2.064-5.137.224-.64.36-1.151.408-1.535.048-.385.072-.688.072-.912,0-.288.048-.48.144-.576.127-.128.288-.16.48-.096.352.096.848.256,1.488.479.64.225,1.32.48,2.04.769.72.287,1.392.552,2.016.792.624.239,1.096.439,1.416.6.352.16.464.432.336.816-.064.384-.305.575-.72.575-.608,0-1.008.104-1.2.312-.192.208-.416.647-.672,1.32-1.568,3.872-3.632,7.216-6.192,10.031,2.72,1.28,5.616,2.249,8.688,2.904,3.072.656,6.064,1.064,8.976,1.224-.672.48-1.328,1.097-1.968,1.849s-1.192,1.56-1.656,2.424c-.464.864-.792,1.663-.984,2.399-3.008-.64-5.96-1.56-8.856-2.76-2.896-1.2-5.544-2.743-7.944-4.632-2.816,2.177-6.064,3.896-9.744,5.16-3.681,1.264-7.792,2.136-12.336,2.616ZM63.261,22.402c-.512.192-1.064.225-1.656.097-.593-.128-1.097-.416-1.512-.864-1.376-1.6-3.104-3.151-5.184-4.656-2.081-1.504-4.496-2.703-7.248-3.6-.192-.416-.096-.736.288-.96,2.016.064,3.976.232,5.88.504,1.904.272,3.648.656,5.232,1.151,1.584.497,2.888,1.112,3.912,1.849,1.024.736,1.664,1.601,1.92,2.592.256,1.024.208,1.864-.144,2.52-.352.656-.848,1.112-1.488,1.368Z"/>
    <path class="st0" d="M28.989,69.442c-.544.129-1.064.08-1.56-.144-.497-.224-.824-.672-.984-1.344-.256-1.12-.624-2.2-1.104-3.24s-1.217-1.864-2.208-2.473c-.224-.447-.128-.751.288-.911,2.176-.064,3.936.248,5.28.936,1.344.688,2.176,1.784,2.496,3.288.192,1.056.04,1.92-.456,2.592-.497.672-1.08,1.104-1.752,1.296ZM28.077,91.954c-.704,0-1.312-.129-1.824-.385-.512-.256-.768-.736-.768-1.439,0-.32.024-.672.072-1.057.048-.384.12-.783.216-1.199.096-.736.192-1.536.288-2.4.096-.864.096-1.728,0-2.592-.128-.928-.424-1.744-.888-2.448-.464-.703-1.145-1.248-2.04-1.632-.161-.448-.017-.752.432-.912.928.32,1.656.425,2.184.312.528-.112.952-.521,1.272-1.225.255-.544.664-1.344,1.224-2.399.56-1.057,1.184-2.216,1.872-3.48.688-1.264,1.384-2.527,2.088-3.792.704-1.264,1.344-2.407,1.92-3.432.576-1.024,1.008-1.792,1.296-2.305.448-.224.751-.111.912.336-.224.545-.568,1.393-1.032,2.544-.464,1.152-.968,2.473-1.512,3.961-.544,1.487-1.056,3-1.536,4.535-.48,1.536-.881,2.977-1.2,4.32-.32,1.344-.48,2.448-.48,3.312,0,1.056.151,2.12.456,3.191.304,1.072.6,2.081.888,3.024.288.944.432,1.769.432,2.472,0,.864-.44,1.527-1.32,1.992-.88.463-1.865.696-2.952.696ZM32.54,58.21c-.512.128-1.016.104-1.512-.072-.497-.176-.856-.552-1.08-1.128-.384-1.152-.929-2.208-1.632-3.168-.705-.96-1.568-1.696-2.592-2.208-.224-.48-.144-.8.24-.96,2.176-.224,4.056,0,5.64.672s2.536,1.664,2.856,2.976c.255,1.057.16,1.92-.288,2.593-.449.672-.992,1.104-1.632,1.296ZM31.965,92.674c-.449-.161-.608-.448-.48-.864,1.216-.832,2.28-1.928,3.192-3.288.912-1.359,1.648-3.12,2.208-5.28.56-2.159.888-4.871.984-8.136.032-1.119,0-1.976-.096-2.567-.096-.592-.192-1-.288-1.225-.128-.256-.144-.447-.048-.576.064-.159.208-.223.432-.191.448,0,1.087.056,1.92.168.832.112,1.656.24,2.472.384s1.416.264,1.8.36c.224.032.368.128.432.288.064.16.096.32.096.479-.032.384-.272.608-.72.672-.544.097-.816.4-.816.912-.128,2.944-.456,5.44-.984,7.488-.528,2.048-1.265,3.768-2.208,5.16-.944,1.392-2.072,2.567-3.384,3.527-1.312.96-2.816,1.855-4.512,2.688ZM39.405,70.113c-.288.064-.497-.031-.624-.288-.192-.415-.48-1.039-.864-1.871-.384-.832-.752-1.656-1.104-2.473-.353-.815-.593-1.399-.72-1.752-.064-.191-.048-.336.048-.432.064-.096.192-.145.384-.145l1.152-.048c.64-.031,1.423-.056,2.352-.072.928-.016,1.92-.039,2.976-.071.319-.769.648-1.664.984-2.688.336-1.023.616-1.936.84-2.735h-4.272c-1.056,0-1.984.016-2.784.048-.8.032-1.632.096-2.496.191l-.576-2.063c1.6.191,3.536.32,5.808.384h5.232v-3.312c0-.832-.064-1.48-.192-1.944-.128-.464-.224-.76-.288-.888-.096-.192-.096-.368,0-.528.064-.16.224-.24.48-.24.416,0,1.087.048,2.016.145.928.096,1.848.216,2.76.359.912.145,1.576.265,1.992.36.352.064.528.336.528.815-.032.385-.272.608-.72.673-.672.096-1.008.416-1.008.96v3.6h6.528c.543,0,.928-.16,1.152-.479.127-.192.312-.473.552-.841.24-.367.488-.728.744-1.08.256-.352.432-.607.528-.768.288-.415.672-.48,1.152-.192.416.225.919.561,1.512,1.009.592.448,1.152.911,1.68,1.392s.919.881,1.176,1.2c.224.256.288.521.192.792-.096.272-.272.408-.528.408h-14.208c-1.024.96-2.136,1.912-3.336,2.855-1.2.944-2.312,1.784-3.336,2.521,1.888-.064,3.768-.112,5.64-.145,1.872-.031,3.448-.063,4.728-.096-.48-.448-1.008-.872-1.584-1.272-.576-.399-1.185-.76-1.824-1.08-.192-.479-.064-.799.384-.96,1.824.192,3.52.48,5.088.864,1.567.384,2.887.944,3.96,1.68,1.072.737,1.735,1.745,1.992,3.024.192.896.12,1.648-.216,2.256-.336.608-.776,1.04-1.32,1.296-.512.225-1.041.272-1.584.145-.544-.128-.96-.464-1.248-1.008-.641-1.345-1.472-2.593-2.496-3.744-1.056.288-2.336.641-3.84,1.056-1.504.416-3.041.856-4.608,1.32-1.568.464-3.017.896-4.344,1.296-1.328.4-2.328.712-3,.936-.353.129-.592.265-.72.408-.128.144-.208.377-.24.696,0,.288-.161.464-.48.527ZM46.173,92.482c-.8,0-1.2-.368-1.2-1.104,0-.192.032-.912.096-2.16.063-1.248.12-2.775.168-4.584.048-1.808.072-3.624.072-5.448v-5.616c0-.831-.041-1.495-.12-1.991-.081-.496-.168-.856-.264-1.08-.128-.224-.144-.416-.048-.576.096-.16.255-.24.48-.24.416,0,1.023.048,1.824.144.8.097,1.608.209,2.424.337.816.128,1.416.239,1.8.336.352.064.528.32.528.768-.032.384-.272.608-.72.672-.576.096-.864.4-.864.912v6.384c0,1.664.016,3.345.048,5.04.031,1.696.063,3.152.096,4.368.032,1.216.048,1.951.048,2.208,0,.319-.224.607-.672.864-.448.256-1.008.447-1.68.576-.672.127-1.344.191-2.016.191ZM55.677,91.618c-.833-.097-1.433-.305-1.8-.624-.369-.32-.552-.816-.552-1.488v-17.232c0-.544-.056-1.023-.168-1.439-.112-.416-.2-.688-.264-.816-.096-.224-.112-.415-.048-.576.096-.159.256-.239.48-.239.416,0,1.032.048,1.848.144s1.632.2,2.448.312c.816.113,1.416.217,1.8.312.416.096.592.368.528.816-.032.384-.272.607-.72.672-.545.032-.816.336-.816.912v13.248c0,.287.064.479.192.575.127.097.367.161.72.192.352.032.72.024,1.104-.024.384-.048.72-.104,1.008-.168.256-.096.48-.231.672-.407s.367-.473.528-.889c.16-.447.352-1.096.576-1.943.223-.848.448-1.664.672-2.448.224-.784.368-1.304.432-1.561.448-.288.784-.239,1.008.145-.032.191-.064.568-.096,1.128-.033.561-.057,1.16-.072,1.8-.017.641-.041,1.217-.072,1.729-.032.512-.048.832-.048.96-.032.32.016.552.144.695.127.145.288.249.48.312.544.224.976.568,1.296,1.032s.48.968.48,1.512c0,1.439-.912,2.399-2.736,2.88-.672.16-1.577.288-2.712.384-1.136.097-2.28.151-3.432.168-1.152.016-2.112-.008-2.88-.071Z"/>
  </g>
  <g>
    <path class="st1" d="M1.861,6.778c0-.087.053-.13.16-.13.086,0,.13.043.13.13,0,.373.046.625.14.755.093.13.25.195.47.195h5.48c.2,0,.35-.06.45-.18.1-.12.15-.36.15-.72,0-.087.05-.13.15-.13.087,0,.13.043.13.13,0,.053-.003.308-.01.765-.007.457-.01,1.128-.01,2.015,0,.84.003,1.477.01,1.91.006.433.01.68.01.74,0,.153-.077.233-.23.24-.06.013-.158.023-.295.03-.137.006-.282.013-.435.02-.153.006-.29.011-.41.015-.12.003-.197.005-.23.005-.027,0-.055-.006-.085-.02-.03-.014-.045-.043-.045-.09,0-.046.005-.082.015-.105.01-.023.039-.045.085-.065.18-.08.372-.182.575-.305.203-.123.378-.287.525-.49.146-.204.22-.468.22-.795v-1.55c0-.06-.014-.11-.04-.15-.027-.04-.083-.06-.17-.06h-2.74c-.027,0-.055.013-.085.04-.03.027-.045.057-.045.09v.51c0,.28.06.493.18.64.12.146.26.255.42.325.16.07.296.128.41.175.053.02.092.038.115.055.023.017.035.052.035.105,0,.047-.017.079-.05.095s-.067.025-.1.025c-.053,0-.148-.001-.285-.005-.137-.003-.285-.007-.445-.01-.16-.003-.307-.005-.44-.005-.126,0-.278.001-.455.005s-.336.007-.48.01-.238.005-.285.005c-.1,0-.15-.04-.15-.12,0-.073.043-.123.13-.15.126-.047.275-.106.445-.18.17-.074.32-.184.45-.33.13-.147.195-.36.195-.64v-.51c0-.086-.05-.13-.15-.13h-2.89c-.127,0-.19.067-.19.2v1.35c0,.32.058.59.175.81.117.22.263.401.44.545.177.143.354.255.53.335.176.08.325.14.445.18.06.02.093.042.1.065.006.023.006.058,0,.105v.01c-.007.053-.023.083-.05.09-.027.007-.057.01-.09.01-.026,0-.11-.002-.25-.005-.14-.003-.302-.007-.485-.01-.184-.003-.354-.007-.51-.01-.156-.003-.265-.005-.325-.005-.087,0-.16-.025-.22-.075-.06-.05-.09-.122-.09-.215,0-.046.003-.15.01-.31.007-.16.012-.424.015-.79.003-.367.005-.88.005-1.54,0-.813-.005-1.482-.015-2.005-.01-.523-.015-.822-.015-.895Z"/>
    <path class="st1" d="M1.861,15.408c0-.093.043-.14.13-.14.106,0,.16.047.16.14,0,.193.03.368.09.525s.17.316.33.48.394.348.7.555c.06.04.168.113.325.22.157.107.333.225.53.355.196.13.385.257.565.38.18.123.323.218.43.285.067.04.14.037.22-.01.46-.26.874-.502,1.24-.725.366-.224.661-.405.885-.545.223-.14.352-.22.385-.24.32-.187.563-.363.73-.53.167-.167.25-.354.25-.56,0-.04.015-.072.045-.095.03-.023.062-.035.095-.035.1,0,.15.043.15.13,0,.046-.003.138-.01.275-.007.137-.012.295-.015.475s-.005.356-.005.53c0,.193.001.382.005.565.003.183.008.34.015.47.006.13.01.211.01.245,0,.093-.05.14-.15.14-.033,0-.065-.012-.095-.035-.03-.023-.045-.059-.045-.105,0-.26-.04-.407-.12-.44-.08-.034-.21,0-.39.1-.027.02-.128.083-.305.19-.176.106-.4.243-.67.41s-.562.35-.875.55c-.073.046-.073.097,0,.15.24.16.468.313.685.46s.4.27.55.37c.15.1.238.156.265.17.213.12.41.133.59.04.18-.093.27-.28.27-.56,0-.047.015-.083.045-.11.03-.027.062-.04.095-.04.1,0,.15.05.15.15,0,.06-.005.185-.015.375-.01.19-.015.445-.015.765,0,.293.005.526.015.7.01.173.015.293.015.36,0,.093-.05.14-.15.14-.033,0-.065-.012-.095-.035-.03-.023-.045-.059-.045-.105,0-.227-.082-.45-.245-.67-.164-.22-.378-.417-.645-.59-.12-.08-.34-.222-.66-.425-.32-.204-.71-.462-1.17-.775-.087-.06-.167-.063-.24-.01-.38.24-.75.468-1.11.685-.36.216-.68.413-.96.59-.28.177-.493.312-.64.405-.267.18-.501.36-.705.54-.204.18-.305.366-.305.56,0,.1-.054.15-.16.15-.086,0-.13-.05-.13-.15,0-.066.003-.22.01-.46.007-.24.01-.486.01-.74,0-.193-.002-.392-.005-.595-.003-.203-.007-.378-.01-.525s-.005-.237-.005-.27c0-.093.043-.14.13-.14.106,0,.16.047.16.14,0,.247.043.388.13.425.086.036.217.001.39-.105.173-.1.367-.217.58-.35.213-.134.423-.264.63-.39.207-.127.388-.238.545-.335s.265-.162.325-.195c.033-.02.048-.047.045-.08-.003-.034-.019-.06-.045-.08-.327-.227-.645-.442-.955-.645-.31-.204-.545-.358-.705-.465-.173-.114-.332-.154-.475-.12-.144.033-.257.11-.34.23-.083.12-.125.256-.125.41,0,.1-.054.15-.16.15-.086,0-.13-.05-.13-.15,0-.06.003-.192.01-.395.007-.204.01-.462.01-.775,0-.293-.003-.557-.01-.79-.006-.233-.01-.383-.01-.45Z"/>
    <path class="st1" d="M1.741,28.408c0-.673.138-1.269.415-1.785s.691-.92,1.245-1.21c.553-.29,1.243-.435,2.07-.435.807,0,1.49.155,2.05.465.56.31.986.725,1.28,1.245s.44,1.093.44,1.72c0,.353-.066.665-.2.935-.134.27-.247.472-.34.605s-.1.253-.02.36c.06.073.115.133.165.18.05.046.088.09.115.13.053.06.066.126.04.2-.027.073-.08.11-.16.11h-1.88c-.08,0-.13-.047-.15-.14s.003-.157.07-.19c.32-.126.635-.29.945-.49.31-.2.567-.44.77-.72.204-.28.305-.607.305-.98,0-.327-.119-.645-.355-.955-.237-.31-.607-.567-1.11-.77-.503-.204-1.159-.305-1.965-.305-.606,0-1.12.06-1.54.18-.42.12-.756.28-1.01.48-.253.2-.437.425-.55.675s-.17.505-.17.765c0,.613.142,1.115.425,1.505.283.39.708.718,1.275.985.06.033.102.077.125.13s.018.104-.015.15c-.027.047-.063.082-.11.105-.047.023-.097.025-.15.005-.607-.234-1.094-.592-1.46-1.075-.367-.483-.55-1.108-.55-1.875Z"/>
    <path class="st1" d="M1.861,33.947c0-.086.053-.13.16-.13.086,0,.13.043.13.13,0,.287.045.483.135.59.09.106.249.16.475.16h5.48c.193,0,.342-.043.445-.13.103-.087.155-.273.155-.56,0-.093.046-.14.14-.14.073,0,.115.012.125.035.01.023.015.058.015.105,0,.027-.001.092-.005.195-.003.103-.005.223-.005.36s-.002.27-.005.4c-.003.13-.005.235-.005.315s.001.188.005.325c.003.136.005.276.005.42s.001.27.005.38.005.178.005.205c0,.093-.04.14-.12.14-.107,0-.16-.047-.16-.14,0-.287-.052-.474-.155-.56-.104-.087-.252-.13-.445-.13h-2.52c-.033,0-.066.012-.1.035-.033.023-.05.051-.05.085v2.63c0,.033.017.065.05.095.034.03.067.045.1.045h2.52c.193,0,.342-.045.445-.135.103-.09.155-.278.155-.565,0-.087.053-.13.16-.13.08,0,.12.043.12.13,0,.026-.001.091-.005.195s-.005.225-.005.365-.002.275-.005.405c-.003.13-.005.235-.005.315,0,.08.001.188.005.325.003.137.005.276.005.42s.001.27.005.38c.003.11.005.179.005.205,0,.087-.046.13-.14.13-.094,0-.14-.043-.14-.13,0-.287-.052-.477-.155-.57-.104-.093-.252-.14-.445-.14H2.761c-.22,0-.376.053-.47.16-.094.106-.14.303-.14.59,0,.047-.014.08-.04.1-.027.02-.057.03-.09.03-.107,0-.16-.043-.16-.13,0-.033.001-.108.005-.225s.007-.248.01-.395c.003-.146.006-.288.01-.425s.005-.245.005-.325c0-.08-.001-.185-.005-.315-.003-.13-.007-.267-.01-.41-.003-.144-.007-.272-.01-.385s-.005-.187-.005-.22c0-.094.053-.14.16-.14.086,0,.13.046.13.14,0,.293.046.491.14.595.093.104.25.155.47.155h2.33c.033,0,.063-.014.09-.04.027-.027.04-.06.04-.1v-2.63c0-.034-.013-.062-.04-.085-.026-.023-.057-.035-.09-.035h-2.33c-.213,0-.368.048-.465.145s-.145.295-.145.595c0,.04-.014.073-.04.1-.027.027-.057.04-.09.04-.107,0-.16-.047-.16-.14,0-.033.001-.106.005-.22.003-.114.007-.245.01-.395.003-.15.006-.295.01-.435s.005-.25.005-.33-.001-.187-.005-.32c-.003-.134-.007-.272-.01-.415-.003-.144-.007-.27-.01-.38-.003-.11-.005-.182-.005-.215Z"/>
    <path class="st1" d="M1.861,43.427c0-.087.043-.13.13-.13.106,0,.16.043.16.13,0,.233.042.417.125.55.083.133.242.253.475.36.106.053.287.131.54.235.253.103.556.223.91.36s.73.282,1.13.435l1.2.46c.4.153.771.295,1.115.425.343.13.638.24.885.33.247.09.414.152.5.185s.144.072.17.115c.027.043.04.118.04.225s-.013.183-.04.23c-.026.046-.083.086-.17.12-.133.053-.35.139-.65.255-.3.116-.647.251-1.04.405-.394.153-.805.313-1.235.48-.43.167-.849.328-1.255.485-.407.157-.775.298-1.105.425-.33.126-.585.227-.765.3-.307.12-.522.249-.645.385-.124.136-.185.268-.185.395,0,.086-.054.13-.16.13-.086,0-.13-.043-.13-.13,0-.067.001-.204.005-.41s.005-.483.005-.83c0-.287-.001-.56-.005-.82-.003-.26-.005-.424-.005-.49,0-.086.043-.13.13-.13.106,0,.16.043.16.13,0,.213.035.362.105.445.07.083.153.125.25.125s.178-.017.245-.05c.013-.007.071-.027.175-.06s.23-.075.38-.125c.15-.05.303-.102.46-.155.157-.054.295-.1.415-.14.073-.027.117-.053.13-.08.013-.026.02-.063.02-.11v-2.46c0-.034-.003-.06-.01-.08s-.033-.037-.08-.05c-.14-.034-.305-.082-.495-.145-.19-.063-.373-.119-.55-.165-.177-.047-.322-.07-.435-.07-.247,0-.41.062-.49.185s-.12.295-.12.515c0,.086-.054.13-.16.13-.086,0-.13-.043-.13-.13,0-.067.001-.192.005-.375.003-.184.005-.422.005-.715,0-.26-.001-.49-.005-.69-.003-.2-.005-.337-.005-.41ZM4.66,45.577v2.17c0,.027.005.055.015.085.01.03.048.035.115.015.16-.053.355-.12.585-.2.23-.08.471-.167.725-.26.253-.093.496-.182.73-.265.233-.083.437-.157.61-.22.173-.063.29-.105.35-.125.033-.014.053-.032.06-.055.006-.023-.007-.042-.04-.055-.047-.013-.162-.057-.345-.13-.184-.073-.403-.162-.66-.265-.256-.103-.52-.208-.79-.315-.27-.106-.513-.202-.73-.285-.216-.083-.375-.142-.475-.175-.1-.026-.15,0-.15.08Z"/>
    <path class="st1" d="M1.831,59.107v-.13c-.007-.126-.003-.223.01-.29.014-.066.07-.126.17-.18.14-.08.348-.204.625-.37.277-.167.597-.363.96-.59.363-.227.745-.465,1.145-.715s.793-.497,1.18-.74c.387-.244.742-.469,1.065-.675s.593-.38.81-.52c.216-.14.352-.227.405-.26.014-.007.019-.022.015-.045-.003-.023-.021-.035-.055-.035H3.501c-.507,0-.858.098-1.055.295s-.295.428-.295.695c0,.033-.012.065-.035.095-.023.03-.058.045-.105.045-.046,0-.083-.015-.11-.045-.027-.03-.04-.062-.04-.095,0-.067.005-.204.015-.41.01-.207.015-.457.015-.75,0-.347-.005-.608-.015-.785-.01-.177-.015-.302-.015-.375,0-.086.05-.13.15-.13.093,0,.14.043.14.13,0,.28.1.508.3.685.2.177.547.265,1.04.265h4.66c.24,0,.415-.054.525-.16s.165-.297.165-.57c0-.087.05-.13.15-.13.087,0,.13.043.13.13,0,.053-.003.231-.01.535-.007.304-.01.702-.01,1.195,0,.113-.017.196-.05.25-.033.053-.09.103-.17.15-.047.026-.173.106-.38.24-.207.133-.465.3-.775.5-.31.2-.645.417-1.005.65-.36.233-.72.466-1.08.7-.36.233-.693.448-1,.645s-.558.36-.755.49-.312.205-.345.225c-.06.04-.08.078-.06.115s.057.055.11.055h3.89c.486,0,.835-.092,1.045-.275.21-.184.315-.435.315-.755,0-.086.05-.13.15-.13.087,0,.13.043.13.13,0,.073-.005.217-.015.43-.01.213-.015.467-.015.76,0,.287.005.534.015.74.01.207.015.343.015.41,0,.1-.043.15-.13.15-.1,0-.15-.05-.15-.15,0-.253-.102-.472-.305-.655-.203-.183-.555-.275-1.055-.275h-3.8c-.353,0-.651.013-.895.04-.243.026-.472.046-.685.06-.074.006-.135-.019-.185-.075-.05-.057-.079-.222-.085-.495Z"/>
    <path class="st1" d="M1.741,66.838c0-.64.14-1.21.42-1.71.28-.5.702-.894,1.265-1.18s1.265-.43,2.105-.43c.58,0,1.098.097,1.555.29.457.193.845.454,1.165.78.32.326.565.691.735,1.095s.255.818.255,1.245c0,.293-.042.57-.125.83-.083.26-.151.437-.205.53-.046.073-.068.138-.065.195.003.056.015.108.035.155.013.033.043.097.09.19.047.093.073.157.08.19.02.06.015.128-.015.205-.03.077-.085.115-.165.115h-1.82c-.067,0-.108-.045-.125-.135s.005-.148.065-.175c.313-.153.615-.327.905-.52s.528-.417.715-.67c.187-.253.28-.557.28-.91,0-.247-.058-.488-.175-.725s-.307-.452-.57-.645c-.264-.193-.61-.348-1.04-.465-.43-.117-.955-.175-1.575-.175-.86,0-1.54.083-2.04.25-.5.167-.855.397-1.065.69-.21.293-.315.626-.315,1,0,.546.151.93.455,1.15.303.22.695.33,1.175.33h.44c.173,0,.307-.043.4-.13.093-.086.14-.28.14-.58,0-.047.015-.083.045-.11.03-.026.062-.04.095-.04.1,0,.15.05.15.15,0,.046-.003.141-.01.285-.007.144-.014.307-.02.49-.007.183-.01.358-.01.525,0,.253.007.506.02.76s.02.423.02.51c0,.046-.013.088-.04.125-.026.037-.063.055-.11.055-.04,0-.073-.019-.1-.055s-.04-.079-.04-.125c0-.187-.035-.34-.105-.46-.07-.12-.225-.18-.465-.18-.567,0-1.039.01-1.415.03-.377.02-.588.03-.635.03-.074,0-.119-.039-.135-.115-.017-.077-.005-.132.035-.165.033-.027.091-.072.175-.135s.164-.124.24-.18c.076-.057.118-.092.125-.105.086-.086.09-.167.01-.24-.207-.173-.394-.414-.56-.72s-.25-.68-.25-1.12Z"/>
    <path class="st1" d="M1.861,73.108c0-.087.053-.13.16-.13.086,0,.13.043.13.13,0,.373.046.625.14.755.093.13.25.195.47.195h5.48c.2,0,.35-.06.45-.18.1-.12.15-.36.15-.72,0-.087.05-.13.15-.13.087,0,.13.043.13.13,0,.053-.003.308-.01.765-.007.457-.01,1.128-.01,2.015,0,.84.003,1.477.01,1.91.006.433.01.68.01.74,0,.153-.077.233-.23.24-.06.013-.158.023-.295.03-.137.006-.282.013-.435.02-.153.006-.29.011-.41.015-.12.003-.197.005-.23.005-.027,0-.055-.006-.085-.02-.03-.014-.045-.043-.045-.09,0-.046.005-.082.015-.105.01-.023.039-.045.085-.065.18-.08.372-.182.575-.305.203-.123.378-.287.525-.49.146-.204.22-.468.22-.795v-1.55c0-.06-.014-.11-.04-.15-.027-.04-.083-.06-.17-.06h-2.74c-.027,0-.055.013-.085.04-.03.027-.045.057-.045.09v.51c0,.28.06.493.18.64.12.146.26.255.42.325.16.07.296.128.41.175.053.02.092.038.115.055.023.017.035.052.035.105,0,.047-.017.079-.05.095s-.067.025-.1.025c-.053,0-.148-.001-.285-.005-.137-.003-.285-.007-.445-.01-.16-.003-.307-.005-.44-.005-.126,0-.278.001-.455.005s-.336.007-.48.01-.238.005-.285.005c-.1,0-.15-.04-.15-.12,0-.073.043-.123.13-.15.126-.047.275-.106.445-.18.17-.074.32-.184.45-.33.13-.147.195-.36.195-.64v-.51c0-.086-.05-.13-.15-.13h-2.89c-.127,0-.19.067-.19.2v1.35c0,.32.058.59.175.81.117.22.263.401.44.545.177.143.354.255.53.335.176.08.325.14.445.18.06.02.093.042.1.065.006.023.006.058,0,.105v.01c-.007.053-.023.083-.05.09-.027.007-.057.01-.09.01-.026,0-.11-.002-.25-.005-.14-.003-.302-.007-.485-.01-.184-.003-.354-.007-.51-.01-.156-.003-.265-.005-.325-.005-.087,0-.16-.025-.22-.075-.06-.05-.09-.122-.09-.215,0-.046.003-.15.01-.31.007-.16.012-.424.015-.79.003-.367.005-.88.005-1.54,0-.813-.005-1.482-.015-2.005-.01-.523-.015-.822-.015-.895Z"/>
  </g>
</svg>