<?xml version="1.0" encoding="UTF-8"?>
<svg id="_レイヤー_1" data-name="レイヤー_1" xmlns="http://www.w3.org/2000/svg" version="1.1" viewBox="0 0 146 287">
  <!-- Generator: Adobe Illustrator 29.0.1, SVG Export Plug-In . SVG Version: 2.1.0 Build 192)  -->
  <defs>
    <style>
      .st0 {
        fill: #141414;
      }

      .st1 {
        fill: #9c8334;
      }
    </style>
  </defs>
  <g>
    <path class="st0" d="M86.089,35.977c-.48-.224-.608-.56-.384-1.008,2.368-1.152,4.704-2.631,7.008-4.44,2.304-1.807,4.456-3.847,6.456-6.12,2-2.272,3.76-4.72,5.28-7.344,1.52-2.624,2.68-5.328,3.48-8.112.288-.992-.032-1.472-.96-1.44-1.856.128-3.72.328-5.592.6-1.872.272-3.544.569-5.016.888-1.473.32-2.592.672-3.36,1.056-.864.416-1.608.768-2.232,1.056-.624.288-1.224.432-1.8.432-.449,0-.936-.175-1.464-.528-.528-.352-1.024-.768-1.488-1.248-.464-.48-.84-.928-1.128-1.344-.353-.48-.552-1.015-.6-1.608-.048-.592.007-1.096.168-1.512.288-.384.607-.432.96-.144.448.608,1.048.952,1.8,1.032.751.081,1.992.056,3.72-.072.704-.064,1.72-.16,3.048-.288,1.328-.127,2.76-.271,4.296-.432,1.536-.16,2.983-.304,4.344-.432,1.36-.127,2.408-.223,3.144-.288.64-.064,1.2-.184,1.68-.36.48-.175.912-.472,1.296-.888.319-.352.655-.52,1.008-.504.352.016.672.12.96.312.384.257.88.6,1.488,1.032.607.432,1.2.864,1.776,1.296.576.432.992.792,1.248,1.08.448.417.616.856.504,1.32-.112.464-.408.84-.888,1.128-.576.353-.977.72-1.2,1.104-.224.384-.56,1.088-1.008,2.112-1.312,3.168-2.96,6.024-4.944,8.568-1.984,2.544-4.168,4.792-6.552,6.744-2.384,1.952-4.865,3.617-7.44,4.992-2.577,1.376-5.112,2.496-7.608,3.36Z"/>
    <path class="st0" d="M106.489,66.361c-.384-.031-.792-.255-1.224-.672-.432-.416-.776-.919-1.032-1.512-.256-.592-.336-1.144-.24-1.656.096-.448.199-1.288.312-2.52.112-1.231.199-2.712.264-4.44.064-1.728.096-3.52.096-5.376v-.792c0-.24-.017-.456-.048-.648-1.952,1.792-4.016,3.424-6.192,4.896-2.177,1.472-4.256,2.672-6.24,3.6-.353-.16-.48-.4-.384-.72,1.312-.896,2.704-2.016,4.176-3.36,1.472-1.344,2.904-2.8,4.296-4.368,1.392-1.567,2.672-3.168,3.84-4.8,1.167-1.632,2.088-3.2,2.76-4.704.256-.607.304-1.056.144-1.344-.064-.16-.168-.279-.312-.36-.144-.08-.296-.168-.456-.264-.192-.288-.128-.496.192-.624.608-.064,1.296.008,2.064.216.768.208,1.496.488,2.184.84.688.353,1.176.752,1.464,1.2.223.32.312.641.264.96-.048.32-.232.576-.552.768-.32.192-.632.448-.936.768-.305.32-.536.608-.696.864-.512.8-1.088,1.592-1.728,2.376-.64.785-1.312,1.544-2.016,2.28.672.192,1.216.48,1.632.864.319.32.352.752.096,1.296-.096.225-.185.544-.264.96-.08.417-.12,1.056-.12,1.92,0,1.184.024,2.464.072,3.84.048,1.376.104,2.688.168,3.936.063,1.248.12,2.312.168,3.192.048.88.072,1.416.072,1.608,0,.512-.185.944-.552,1.296-.368.353-.792.513-1.272.48Z"/>
    <path class="st0" d="M100.249,115.273c-.416,0-.864-.161-1.344-.48-.48-.32-.888-.737-1.224-1.248-.336-.512-.488-1.056-.456-1.632.064-.96.16-3.127.288-6.504.127-3.375.192-7.624.192-12.744v-8.88c0-2.271-.032-4-.096-5.184-.064-1.183-.176-2.023-.336-2.52-.16-.496-.497-.792-1.008-.888-.161-.064-.256-.216-.288-.456-.032-.24.048-.424.24-.552.255-.16.583-.288.984-.384.4-.096.808-.127,1.224-.096,1.312.064,2.688.688,4.128,1.872.703.608.784,1.361.24,2.256-.224.32-.4.712-.528,1.176-.128.464-.224,1.128-.288,1.992-.064.864-.112,2.032-.144,3.504v5.664c0,3.872.048,7.392.144,10.56.096,3.168.192,5.768.288,7.8.096,2.032.144,3.288.144,3.768,0,.991-.224,1.735-.672,2.232-.449.496-.944.744-1.488.744Z"/>
    <path class="st0" d="M79.033,148.825c-.48-.16-.672-.463-.576-.912,2.656-1.984,4.928-4.672,6.816-8.064,1.888-3.392,3.136-7.423,3.744-12.096.096-.864.08-1.495-.048-1.896-.128-.399-.512-.664-1.152-.792-.32-.384-.288-.703.096-.96.832-.288,1.888-.336,3.168-.144,1.279.192,2.527.833,3.744,1.92.288.256.456.568.504.936.048.368-.072.728-.36,1.08-.288.32-.521.632-.696.936-.176.305-.344.776-.504,1.416-.8,3.264-1.904,6.064-3.312,8.4-1.408,2.336-3.072,4.32-4.992,5.952-1.92,1.632-4.064,3.041-6.432,4.224ZM102.361,145.177c-.545-.32-1.193-.784-1.944-1.392-.752-.607-1.304-1.12-1.656-1.536-.48-.607-.561-1.184-.24-1.728.064-.16.136-.367.216-.624.079-.255.151-.528.216-.816.096-.448.184-1.2.264-2.256.079-1.056.144-2.304.192-3.744s.072-2.912.072-4.416c.032-1.567.032-2.719,0-3.456-.032-.735-.16-1.359-.384-1.872-.128-.256-.336-.512-.624-.768-.288-.256-.656-.4-1.104-.432-.353-.352-.353-.672,0-.96.576-.256,1.288-.408,2.136-.456.848-.048,1.736.064,2.664.336.928.272,1.776.761,2.544,1.464.352.32.568.688.648,1.104.079.417-.008.8-.264,1.152-.48.704-.816,1.728-1.008,3.072-.128.896-.208,2.152-.24,3.768-.032,1.616-.048,3.512-.048,5.688,0,.512.136.816.408.912.271.096.664.048,1.176-.144,1.152-.448,2.416-1.087,3.792-1.92,1.375-.832,2.76-1.8,4.152-2.904s2.712-2.288,3.96-3.552c1.248-1.264,2.32-2.552,3.216-3.864.512-.096.816.096.912.576-.672,1.536-1.536,3.104-2.592,4.704-1.056,1.601-2.232,3.168-3.528,4.704-1.296,1.536-2.672,2.944-4.128,4.224-1.457,1.28-2.904,2.352-4.344,3.216-1.024.608-1.776,1.152-2.256,1.632-.32.353-.664.544-1.032.576-.368.032-.761-.064-1.176-.288Z"/>
    <path class="st0" d="M97.513,192.745c-.512,0-1.056-.257-1.632-.768-.576-.512-1.032-1.145-1.368-1.896s-.456-1.448-.36-2.088c.096-.607.192-1.656.288-3.144.096-1.488.184-3.28.264-5.376.08-2.096.144-4.368.192-6.816.048-2.448.072-4.92.072-7.416v-2.352c0-1.568-.008-2.808-.024-3.72-.017-.912-.057-1.656-.12-2.232-.032-.928-.168-1.591-.408-1.992-.24-.399-.76-.664-1.56-.792-.32-.384-.304-.72.048-1.008,1.023-.288,2.16-.336,3.408-.144s2.512.736,3.792,1.632c.384.288.624.648.72,1.08.096.432-.017.84-.336,1.224-.257.32-.464.856-.624,1.608-.161.752-.272,1.841-.336,3.264-.065,1.424-.113,3.304-.144,5.64,1.759.128,3.543.392,5.352.792,1.807.4,3.432.984,4.872,1.752,1.44.768,2.496,1.792,3.168,3.072.64,1.217.808,2.304.504,3.264-.305.96-.809,1.616-1.512,1.968-.512.257-1.024.336-1.536.24-.512-.096-.928-.4-1.248-.912-1.344-2.304-2.784-4.152-4.32-5.544s-3.296-2.392-5.28-3v.384c0,2.145.024,4.361.072,6.648.048,2.289.112,4.433.192,6.432.08,2,.144,3.672.192,5.016.048,1.344.072,2.144.072,2.4,0,.736-.24,1.384-.72,1.944-.48.56-1.04.84-1.68.84ZM114.313,163.945c-.353.161-.712.168-1.08.024-.368-.144-.68-.424-.936-.84-.576-1.12-1.296-2.208-2.16-3.264-.864-1.056-1.824-1.936-2.88-2.64-.096-.416.048-.688.432-.816.928.096,1.888.344,2.88.744.992.401,1.896.888,2.712,1.464.816.576,1.384,1.2,1.704,1.872.384.8.488,1.512.312,2.136-.176.624-.504,1.064-.984,1.32ZM119.017,158.329c-.32.256-.688.376-1.104.36-.416-.016-.8-.216-1.152-.6-.864-.928-1.816-1.744-2.856-2.448-1.041-.704-2.168-1.248-3.384-1.632-.224-.415-.161-.735.192-.96.864-.096,1.8-.087,2.808.024,1.008.112,1.968.312,2.88.6.912.288,1.64.672,2.184,1.152.64.576.968,1.224.984,1.944s-.168,1.241-.552,1.56Z"/>
    <path class="st0" d="M78.697,240.073l-.576-2.064c1.6.192,3.536.32,5.808.384h11.088v-29.904c0-1.92-.032-3.432-.096-4.536-.064-1.104-.16-1.96-.288-2.568-.128-.608-.288-1.104-.48-1.488-.128-.16-.096-.336.096-.528.096-.127.256-.192.48-.192.576.032,1.375.12,2.4.264,1.024.144,2.048.305,3.072.48,1.023.176,1.824.344,2.4.504.224.065.376.192.456.384.08.192.104.384.072.576-.032.48-.272.768-.72.864-.544.096-.92.264-1.128.504-.208.24-.312.632-.312,1.176v12.48h6.864c.544,0,.96-.176,1.248-.528.16-.192.392-.496.696-.912.304-.416.608-.824.912-1.224.304-.4.52-.68.648-.84.352-.384.784-.463,1.296-.24.48.192,1.072.544,1.776,1.056.704.512,1.375,1.024,2.016,1.536.64.512,1.104.929,1.392,1.248.256.288.328.584.216.888-.113.305-.296.456-.552.456h-16.512v20.544h10.128c.352,0,.607-.032.768-.096.16-.063.319-.208.48-.432.192-.224.456-.568.792-1.032.336-.463.664-.919.984-1.368.319-.448.544-.751.672-.912.384-.448.832-.512,1.344-.192.48.288,1.072.705,1.776,1.248.704.544,1.384,1.08,2.04,1.608.655.528,1.128.953,1.416,1.272.256.288.328.583.216.888-.112.304-.312.456-.6.456h-37.056c-1.056,0-1.984.016-2.784.048-.8.032-1.616.096-2.448.192Z"/>
    <path class="st0" d="M98.377,286.681c-.16-.161-.248-.344-.264-.552-.017-.208.04-.375.168-.504,3.168-.48,5.911-1.567,8.232-3.264,2.32-1.696,4.111-3.816,5.376-6.36,1.264-2.544,1.879-5.304,1.848-8.28-.032-3.104-.624-5.768-1.776-7.992-1.152-2.224-2.768-3.936-4.848-5.136-2.081-1.2-4.56-1.784-7.44-1.752.704.833,1.168,1.809,1.392,2.928.224,1.121.271,2.384.144,3.792-.192,2.592-.616,5.033-1.272,7.32-.656,2.289-1.448,4.361-2.376,6.216-.928,1.856-1.889,3.464-2.88,4.824-.992,1.361-1.92,2.424-2.784,3.192-.992.864-2.024,1.361-3.096,1.488-1.073.128-2.072-.416-3-1.632-.512-.704-1.064-1.352-1.656-1.944-.592-.592-1.145-1.231-1.656-1.92-.512-.688-.936-1.496-1.272-2.424-.336-.928-.521-2.064-.552-3.408-.064-2.719.384-5.28,1.344-7.68.96-2.4,2.312-4.52,4.056-6.36,1.744-1.84,3.768-3.312,6.072-4.416,2.304-1.104,4.768-1.72,7.392-1.848,2.751-.128,5.328.216,7.728,1.032,2.4.816,4.503,2.009,6.312,3.576,1.808,1.568,3.216,3.416,4.224,5.544,1.008,2.128,1.512,4.457,1.512,6.984,0,3.424-.809,6.497-2.424,9.216-1.616,2.721-3.984,4.904-7.104,6.552-3.12,1.648-6.92,2.583-11.4,2.808ZM89.881,276.169c.704-.48,1.496-1.312,2.376-2.496.879-1.183,1.728-2.616,2.544-4.296.816-1.68,1.527-3.52,2.136-5.52.607-2,1.008-4.056,1.2-6.168,0-.063.016-.16.048-.288.064-1.023.112-1.888.144-2.592.031-.704-.048-1.328-.24-1.872-1.888.224-3.632.856-5.232,1.896-1.601,1.04-2.992,2.384-4.176,4.032-1.184,1.648-2.081,3.536-2.688,5.664-.608,2.129-.864,4.409-.768,6.84.096,1.92.384,3.296.864,4.128.48.833,1.063,1.272,1.752,1.32.688.048,1.368-.168,2.04-.648Z"/>
    <path class="st0" d="M31.269,42.133c-.798,0-1.196-.368-1.196-1.104,0-.123.015-.644.046-1.564.03-.92.069-2.1.115-3.542.046-1.441.099-3.013.161-4.715.061-1.702.107-3.381.138-5.037.03-1.656.046-3.158.046-4.508v-2.898c-.951,1.135-1.909,2.201-2.875,3.197-.966.997-1.925,1.925-2.875,2.783-.491,0-.736-.214-.736-.644,1.012-1.257,1.978-2.775,2.898-4.554.92-1.778,1.755-3.695,2.507-5.75.751-2.054,1.395-4.132,1.932-6.233.537-2.1.943-4.117,1.219-6.049.03-.153.053-.314.069-.483.015-.168.038-.314.069-.437,0-.123.046-.199.138-.23.061-.03.153-.046.276-.046.583.123,1.334.307,2.254.552.92.246,1.847.499,2.783.759.935.261,1.679.514,2.231.759.153.031.245.131.276.299.03.169.03.33,0,.483-.123.399-.322.598-.598.598-.399-.03-.698.016-.897.138-.2.123-.376.399-.529.828-.89,2.331-1.902,4.478-3.036,6.44v29.302c0,.337-.23.628-.69.874-.46.245-1.028.437-1.702.575-.675.138-1.35.207-2.024.207ZM38.859,39.511l-.506-1.748c1.196.123,2.652.2,4.37.23h6.118v-19.964h-7.498c-1.595.031-2.883.077-3.864.138l-.552-1.748c1.227.123,2.683.2,4.37.23h7.544V6.069c0-1.104-.046-1.985-.138-2.645-.092-.659-.215-1.111-.368-1.357-.092-.245-.092-.444,0-.598.092-.153.26-.23.506-.23.46,0,1.142.054,2.047.161.904.108,1.817.23,2.737.368.92.138,1.594.253,2.024.345.429.123.613.414.552.874-.031.399-.276.629-.736.69-.706.092-1.058.43-1.058,1.012v11.96h3.588c.521,0,.889-.168,1.104-.506.153-.214.36-.513.621-.897.26-.383.521-.766.782-1.15.26-.383.452-.651.575-.805.307-.429.72-.506,1.242-.23.46.215.996.56,1.61,1.035.613.476,1.203.958,1.771,1.449.567.491.973.89,1.219,1.196.245.276.314.56.207.851-.108.292-.284.437-.529.437h-12.19v19.964h2.668c.521,0,.889-.168,1.104-.506l1.978-2.806c.276-.398.659-.475,1.15-.23.429.215.935.568,1.518,1.058.583.491,1.142.989,1.679,1.495.536.506.927.897,1.173,1.173.245.246.314.506.207.782-.108.276-.284.414-.529.414h-22.632c-1.595.03-2.883.076-3.864.138Z"/>
    <path class="st0" d="M28.877,88.087c-.215-1.288-.453-2.292-.713-3.013-.261-.72-.66-1.265-1.196-1.633-.537-.368-1.296-.613-2.277-.736-.307-.368-.276-.69.092-.966h4.048c.49,0,.82-.084.989-.253.168-.168.253-.437.253-.805v-8.602c-.798.521-1.442.951-1.932,1.288-.215.154-.345.299-.391.437-.046.138-.054.314-.023.529.061.246-.046.414-.322.506-.307.123-.521.092-.644-.092-.215-.368-.491-.904-.828-1.61-.338-.705-.667-1.426-.989-2.162-.322-.736-.56-1.303-.713-1.702-.031-.122-.031-.23,0-.322.061-.061.153-.107.276-.138.153-.061.337-.115.552-.161.214-.046.429-.099.644-.161.582-.153,1.249-.322,2.001-.506.751-.184,1.541-.383,2.369-.598v-10.396h-1.564c-1.503.031-2.745.092-3.726.184l-.506-1.84c1.288.123,2.698.215,4.232.276h1.564v-5.566c0-.828-.031-1.456-.092-1.886-.062-.429-.154-.736-.276-.92-.092-.214-.108-.398-.046-.552.092-.153.26-.23.506-.23.46,0,1.05.046,1.771.138.72.092,1.449.2,2.185.322.736.123,1.318.246,1.748.368.337.062.506.292.506.69-.031.215-.108.368-.23.46-.123.092-.261.154-.414.184-.644.031-.966.368-.966,1.012v5.98c.276,0,.49-.122.644-.368.153-.245.353-.59.598-1.035.245-.444.46-.82.644-1.127.306-.398.674-.429,1.104-.092.061.031.122.069.184.115.061.046.122.1.184.161.429.031.981.069,1.656.115.674.046,1.349.069,2.024.069h1.288v-2.852c0-.981-.039-1.748-.115-2.3-.077-.552-.177-.95-.299-1.196-.123-.214-.123-.383,0-.506.092-.123.23-.184.414-.184.398,0,1.012.046,1.84.138.828.092,1.656.2,2.484.322.828.123,1.426.23,1.794.322.368.092.521.338.46.736-.031.337-.246.537-.644.598-.583.092-.874.384-.874.874v4.048h.69c.429,0,.72-.153.874-.46.153-.245.368-.567.644-.966.276-.398.475-.705.598-.92.214-.337.506-.383.874-.138.306.184.659.46,1.058.828.398.368.79.744,1.173,1.127.383.384.667.713.851.989.153.215.191.422.115.621-.077.2-.207.299-.391.299h-6.486v7.682h.828c.429,0,.736-.153.92-.46.153-.245.383-.605.69-1.081.306-.475.536-.82.69-1.035.214-.398.536-.46.966-.184.46.307,1.019.767,1.679,1.38.659.614,1.157,1.135,1.495,1.564v-12.052c0-.981-.039-1.755-.115-2.323-.077-.567-.161-.958-.253-1.173-.123-.184-.123-.368,0-.552.061-.092.199-.138.414-.138.398,0,.996.046,1.794.138.797.092,1.602.2,2.415.322.812.123,1.403.23,1.771.322.337.062.506.292.506.69-.031.215-.107.368-.23.46-.123.092-.261.154-.414.184-.614.092-.92.384-.92.874v11.96c2.238.675,4.017,1.61,5.336,2.806,1.318,1.196,1.947,2.653,1.886,4.37-.031,1.319-.422,2.262-1.173,2.829-.752.568-1.511.821-2.277.759-.491-.03-.92-.207-1.288-.529-.368-.322-.537-.774-.506-1.357.061-1.656-.039-3.151-.299-4.485-.261-1.334-.821-2.384-1.679-3.151v2.254c0,2.423.007,4.884.023,7.383.015,2.5.03,4.8.046,6.9.015,2.101.03,3.818.046,5.152.015,1.334.023,2.077.023,2.231,0,.46-.43.828-1.288,1.104-.859.276-1.748.414-2.668.414-.767,0-1.15-.353-1.15-1.058v-6.256c-.92.276-2.093.644-3.519,1.104s-2.898.943-4.416,1.449c-1.518.506-2.914.974-4.186,1.403-1.273.429-2.231.766-2.875,1.012-.338.122-.568.237-.69.345-.123.107-.154.329-.092.667.061.245-.062.429-.368.552-.123.061-.269.084-.437.069-.169-.016-.284-.1-.345-.253-.123-.276-.307-.69-.552-1.242-.246-.552-.491-1.15-.736-1.794-.246-.644-.476-1.242-.69-1.794-.215-.552-.368-.966-.46-1.242-.031-.092-.016-.199.046-.322.061-.061.153-.092.276-.092l1.748-.138c.705-.061,1.472-.115,2.3-.161s1.717-.099,2.668-.161v-6.808h-2.208c-1.595.031-2.883.077-3.864.138l-.506-1.748c1.196.123,2.652.2,4.37.23h2.208v-2.898c0-.95-.039-1.709-.115-2.277-.077-.567-.177-.958-.299-1.173-.092-.184-.092-.353,0-.506.061-.153.199-.23.414-.23.398,0,1.012.054,1.84.161.828.108,1.656.215,2.484.322.828.107,1.426.207,1.794.299.368.092.521.338.46.736-.031.368-.246.583-.644.644-.583.031-.874.307-.874.828v4.094h.736c.368,0,.659-.153.874-.46.153-.245.368-.575.644-.989s.475-.713.598-.897c.245-.398.536-.444.874-.138.429.307.973.767,1.633,1.38.659.614,1.142,1.12,1.449,1.518.153.215.191.43.115.644-.077.215-.207.322-.391.322h-6.532v6.532c1.472-.092,2.852-.176,4.14-.253,1.288-.076,2.33-.13,3.128-.161v-15.594h-15.594c-1.595.031-2.883.092-3.864.184l-.506-1.794c1.196.123,2.652.2,4.37.23h3.266v-7.682h-2.231c-.322,0-.637.016-.943.046.429.399.766.736,1.012,1.012.245.246.314.491.207.736-.107.246-.299.368-.575.368h-5.796v9.246c1.257-.337,2.407-.636,3.45-.897,1.042-.26,1.855-.452,2.438-.575.398.123.521.399.368.828-.675.368-1.572.874-2.691,1.518-1.12.644-2.308,1.334-3.565,2.07v.368c0,.798.007,1.741.023,2.829.015,1.089.038,2.216.069,3.381.03,1.166.053,2.27.069,3.312.015,1.043.03,1.902.046,2.576.015.675.023,1.074.023,1.196,0,1.503-.499,2.668-1.495,3.496-.997.828-2.538,1.41-4.623,1.748Z"/>
    <path class="st0" d="M36.559,129.349c-.491.276-1.097.345-1.817.207-.721-.138-1.342-.452-1.863-.943-1.135-1.073-2.017-2.576-2.645-4.508-.629-1.932-.943-4.293-.943-7.084,0-1.932.214-3.879.644-5.842.429-1.962.851-3.91,1.265-5.842.414-1.932.621-3.772.621-5.52,0-1.38-.23-2.545-.69-3.496.092-.46.352-.644.782-.552.766.43,1.487.989,2.162,1.679.674.69,1.227,1.434,1.656,2.231.429.798.644,1.564.644,2.3,0,1.135-.177,2.208-.529,3.22-.353,1.012-.759,2.078-1.219,3.197-.46,1.12-.867,2.369-1.219,3.749s-.529,3.006-.529,4.876c0,.859.053,1.641.161,2.346.107.706.237,1.273.391,1.702.123.307.292.453.506.437.214-.015.368-.161.46-.437.337-.92.743-2.016,1.219-3.289.475-1.272.966-2.553,1.472-3.841s.973-2.407,1.403-3.358c.429-.153.72-.03.874.368-.368,1.074-.736,2.323-1.104,3.749-.368,1.426-.69,2.836-.966,4.232s-.46,2.583-.552,3.565c-.154,1.319.092,2.546.736,3.68.306.583.375,1.173.207,1.771-.169.598-.545,1.066-1.127,1.403ZM43.827,133.075c-.46-.215-.583-.537-.368-.966,1.962-.798,3.572-1.87,4.83-3.22,1.257-1.349,2.192-3.143,2.806-5.382.613-2.238.92-5.029.92-8.372v-2.392c0-.766-.016-1.502-.046-2.208-1.104.092-2.162.138-3.174.138-1.626.031-3.029-.368-4.209-1.196-1.181-.828-2.001-2.085-2.461-3.772.153-.429.429-.567.828-.414.552.675,1.257,1.143,2.116,1.403.858.261,1.916.376,3.174.345,1.166-.061,2.392-.153,3.68-.276-.031-2.76-.031-5.351,0-7.774.03-.582,0-1.058-.092-1.426-.092-.368-.307-.659-.644-.874-.154-.092-.353-.161-.598-.207-.246-.046-.491-.069-.736-.069-.338-.398-.322-.72.046-.966.705-.245,1.564-.36,2.576-.345,1.012.016,1.947.238,2.806.667.95.43,1.602.951,1.955,1.564.352.614.314,1.258-.115,1.932-.184.307-.338.683-.46,1.127-.123.445-.215.943-.276,1.495.276.123.697.337,1.265.644.567.307,1.165.591,1.794.851.628.261,1.188.422,1.679.483.736.031,1.288.146,1.656.345.368.2.659.422.874.667.49.614.567,1.273.23,1.978-.338.706-1.028,1.242-2.07,1.61-.859.307-1.733.583-2.622.828-.89.246-1.794.445-2.714.598.061.982.107,1.971.138,2.967.03.997.046,1.971.046,2.921,0,2.791-.315,5.175-.943,7.153-.629,1.978-1.511,3.619-2.645,4.922-1.135,1.304-2.484,2.369-4.048,3.197-1.564.828-3.297,1.502-5.198,2.024ZM56.293,105.935c.398-.092.766-.199,1.104-.322.337-.122.644-.245.92-.368.674-.306.674-.674,0-1.104-.123-.092-.399-.26-.828-.506-.43-.245-.813-.475-1.15-.69-.031.46-.046.943-.046,1.449v1.541Z"/>
  </g>
  <g>
    <path class="st1" d="M1.713,6.156c0-.086.053-.13.16-.13.086,0,.13.043.13.13,0,.407.046.67.14.79.093.12.25.18.47.18h5.48c.12,0,.225-.017.315-.05.09-.034.16-.119.21-.255.05-.137.075-.368.075-.695,0-.087.05-.13.15-.13.087,0,.13.043.13.13,0,.06-.003.354-.01.88-.007.527-.01,1.23-.01,2.11,0,.84.003,1.485.01,1.935.006.45.01.698.01.745,0,.167-.077.253-.23.26-.046,0-.146.005-.3.015-.153.01-.323.019-.51.025-.187.006-.352.013-.495.02-.144.006-.229.01-.255.01-.02,0-.047-.005-.08-.015-.034-.01-.05-.038-.05-.085,0-.046.005-.083.015-.11.01-.027.042-.054.095-.08.106-.047.243-.11.41-.19s.333-.182.5-.305c.167-.123.307-.273.42-.45.113-.177.17-.389.17-.635v-1.71c0-.06-.014-.11-.04-.15-.027-.04-.083-.06-.17-.06h-2.69c-.08,0-.12.043-.12.13v.62c0,.273.056.483.17.63.113.146.248.258.405.335s.305.142.445.195c.04.013.071.03.095.05s.035.053.035.1c0,.046-.017.078-.05.095-.033.016-.07.025-.11.025-.047,0-.138-.002-.275-.005s-.287-.006-.45-.01c-.163-.003-.312-.005-.445-.005h-1.22c-.033,0-.066-.005-.1-.015-.034-.01-.05-.039-.05-.085,0-.047.013-.08.04-.1s.063-.04.11-.06c.12-.046.264-.106.43-.18.167-.074.315-.184.445-.33.13-.147.195-.36.195-.64v-.62c0-.033-.015-.063-.045-.09-.03-.027-.062-.04-.095-.04h-2.56c-.146,0-.265.023-.355.07-.09.047-.155.147-.195.3s-.06.387-.06.7c0,.087-.043.13-.13.13-.107,0-.16-.043-.16-.13,0-.066.005-.258.015-.575.01-.317.015-.682.015-1.095,0-.42-.005-.771-.015-1.055-.01-.284-.015-.458-.015-.525Z"/>
    <path class="st1" d="M1.713,14.707c0-.087.053-.13.16-.13.086,0,.13.043.13.13,0,.346.037.596.11.75.073.153.23.23.47.23h5.54c.22,0,.37-.072.45-.215.08-.143.12-.398.12-.765,0-.087.046-.13.14-.13.093,0,.14.043.14.13,0,.113-.003.261-.01.445-.007.183-.012.378-.015.585s-.005.396-.005.57c0,.167.001.355.005.565.003.21.008.41.015.6.006.19.01.338.01.445,0,.1-.046.15-.14.15-.094,0-.14-.05-.14-.15,0-.354-.04-.605-.12-.755-.08-.15-.23-.225-.45-.225H2.583c-.24,0-.397.08-.47.24s-.11.407-.11.74c0,.1-.043.15-.13.15-.107,0-.16-.05-.16-.15,0-.107.003-.255.01-.445.007-.19.014-.39.02-.6.007-.21.01-.398.01-.565,0-.173-.003-.363-.01-.57-.006-.207-.013-.402-.02-.585-.006-.184-.01-.332-.01-.445Z"/>
    <path class="st1" d="M1.713,20.857c0-.087.053-.13.16-.13.086,0,.13.043.13.13,0,.373.046.625.14.755.093.13.25.195.47.195h5.48c.2,0,.35-.06.45-.18.1-.12.15-.36.15-.72,0-.087.05-.13.15-.13.087,0,.13.043.13.13,0,.053-.003.308-.01.765-.007.457-.01,1.128-.01,2.015,0,.84.003,1.477.01,1.91.006.433.01.68.01.74,0,.153-.077.233-.23.24-.06.013-.158.023-.295.03-.137.006-.282.013-.435.02-.153.006-.29.011-.41.015-.12.003-.197.005-.23.005-.027,0-.055-.006-.085-.02-.03-.014-.045-.043-.045-.09,0-.046.005-.082.015-.105.01-.023.039-.045.085-.065.18-.08.372-.182.575-.305.203-.123.378-.287.525-.49.146-.204.22-.468.22-.795v-1.55c0-.06-.014-.11-.04-.15-.027-.04-.083-.06-.17-.06h-2.74c-.027,0-.055.013-.085.04-.03.027-.045.057-.045.09v.51c0,.28.06.493.18.64.12.146.26.255.42.325.16.07.296.128.41.175.053.02.092.038.115.055.023.017.035.052.035.105,0,.047-.017.079-.05.095s-.067.025-.1.025c-.053,0-.148-.001-.285-.005-.137-.003-.285-.007-.445-.01-.16-.003-.307-.005-.44-.005-.126,0-.278.001-.455.005s-.336.007-.48.01-.238.005-.285.005c-.1,0-.15-.04-.15-.12,0-.073.043-.123.13-.15.126-.047.275-.106.445-.18.17-.074.32-.184.45-.33.13-.147.195-.36.195-.64v-.51c0-.086-.05-.13-.15-.13h-2.89c-.127,0-.19.067-.19.2v1.35c0,.32.058.59.175.81.117.22.263.401.44.545.177.143.354.255.53.335.176.08.325.14.445.18.06.02.093.042.1.065.006.023.006.058,0,.105v.01c-.007.053-.023.083-.05.09-.027.007-.057.01-.09.01-.026,0-.11-.002-.25-.005-.14-.003-.302-.007-.485-.01-.184-.003-.354-.007-.51-.01-.156-.003-.265-.005-.325-.005-.087,0-.16-.025-.22-.075-.06-.05-.09-.122-.09-.215,0-.046.003-.15.01-.31.007-.16.012-.424.015-.79.003-.367.005-.88.005-1.54,0-.813-.005-1.482-.015-2.005-.01-.523-.015-.822-.015-.895Z"/>
    <path class="st1" d="M1.713,29.656c0-.093.043-.14.13-.14.106,0,.16.047.16.14,0,.36.043.606.13.74.086.133.243.2.47.2h5.51c.193,0,.338-.052.435-.155.097-.104.145-.338.145-.705,0-.087.053-.13.16-.13.086,0,.13.043.13.13,0,.06-.003.23-.01.51-.006.28-.01.6-.01.96,0,.24.001.467.005.68s.007.395.01.545c.003.15.005.242.005.275,0,.093-.043.14-.13.14-.107,0-.16-.047-.16-.14,0-.367-.048-.608-.145-.725-.097-.117-.242-.175-.435-.175H2.223c-.133,0-.2.07-.2.21v1.55c0,.327.093.615.28.865s.418.463.695.64c.276.177.548.315.815.415.053.02.088.046.105.08.017.033.021.063.015.09-.007.053-.025.086-.055.1-.03.013-.062.02-.095.02h-.25c-.146,0-.322-.002-.525-.005-.203-.003-.398-.007-.585-.01s-.327-.008-.42-.015c-.087-.006-.157-.033-.21-.08-.054-.047-.08-.117-.08-.21,0-.046.001-.17.005-.37.003-.2.005-.5.005-.9v-3.05c0-.427-.001-.769-.005-1.025-.003-.257-.005-.409-.005-.455Z"/>
    <path class="st1" d="M1.713,38.476c0-.093.046-.14.14-.14.093,0,.14.047.14.14,0,.347.052.58.155.7.103.12.255.18.455.18h5.49c.193,0,.342-.057.445-.17.103-.113.155-.356.155-.73,0-.086.046-.13.14-.13.093,0,.14.043.14.13,0,.06-.005.231-.015.515-.01.283-.015.615-.015.995,0,.44.005.788.015,1.045.01.256.015.452.015.585,0,.42-.065.83-.195,1.23s-.338.76-.625,1.08c-.287.32-.662.575-1.125.765-.463.19-1.028.285-1.695.285-.64,0-1.19-.095-1.65-.285-.46-.19-.835-.446-1.125-.77-.29-.323-.503-.683-.64-1.08-.137-.397-.205-.805-.205-1.225,0-.133.003-.33.01-.59.007-.26.01-.614.01-1.06,0-.374-.003-.695-.01-.965-.006-.27-.01-.438-.01-.505ZM2.023,40.776v.59c0,.273.051.54.155.8.104.26.28.497.53.71s.588.383,1.015.51c.427.126.963.19,1.61.19.673,0,1.227-.055,1.66-.165.434-.11.772-.262,1.015-.455s.414-.412.51-.655c.096-.244.145-.499.145-.765v-.76c0-.046-.012-.091-.035-.135s-.082-.065-.175-.065H2.223c-.146,0-.213.066-.2.2Z"/>
    <path class="st1" d="M1.593,56.126c0-.64.14-1.21.42-1.71.28-.5.702-.894,1.265-1.18s1.265-.43,2.105-.43c.58,0,1.098.097,1.555.29.457.193.845.454,1.165.78.32.326.565.691.735,1.095s.255.818.255,1.245c0,.293-.042.57-.125.83-.083.26-.151.437-.205.53-.046.073-.068.138-.065.195.003.056.015.108.035.155.013.033.043.097.09.19.047.093.073.157.08.19.02.06.015.128-.015.205-.03.077-.085.115-.165.115h-1.82c-.067,0-.108-.045-.125-.135s.005-.148.065-.175c.313-.153.615-.327.905-.52s.528-.417.715-.67c.187-.253.28-.557.28-.91,0-.247-.058-.488-.175-.725s-.307-.452-.57-.645c-.264-.193-.61-.348-1.04-.465-.43-.117-.955-.175-1.575-.175-.86,0-1.54.083-2.04.25-.5.167-.855.397-1.065.69-.21.293-.315.626-.315,1,0,.546.151.93.455,1.15.303.22.695.33,1.175.33h.44c.173,0,.307-.043.4-.13.093-.086.14-.28.14-.58,0-.047.015-.083.045-.11.03-.026.062-.04.095-.04.1,0,.15.05.15.15,0,.046-.003.141-.01.285-.007.144-.014.307-.02.49-.007.183-.01.358-.01.525,0,.253.007.506.02.76s.02.423.02.51c0,.046-.013.088-.04.125-.026.037-.063.055-.11.055-.04,0-.073-.019-.1-.055s-.04-.079-.04-.125c0-.187-.035-.34-.105-.46-.07-.12-.225-.18-.465-.18-.567,0-1.039.01-1.415.03-.377.02-.588.03-.635.03-.074,0-.119-.039-.135-.115-.017-.077-.005-.132.035-.165.033-.027.091-.072.175-.135s.164-.124.24-.18c.076-.057.118-.092.125-.105.086-.086.09-.167.01-.24-.207-.173-.394-.414-.56-.72s-.25-.68-.25-1.12Z"/>
    <path class="st1" d="M1.713,62.376c0-.087.053-.13.16-.13.086,0,.13.043.13.13,0,.346.037.596.11.75.073.153.23.23.47.23h5.54c.22,0,.37-.072.45-.215.08-.143.12-.398.12-.765,0-.087.046-.13.14-.13.093,0,.14.043.14.13,0,.113-.003.261-.01.445-.007.183-.012.378-.015.585s-.005.396-.005.57c0,.167.001.355.005.565.003.21.008.41.015.6.006.19.01.338.01.445,0,.1-.046.15-.14.15-.094,0-.14-.05-.14-.15,0-.354-.04-.605-.12-.755-.08-.15-.23-.225-.45-.225H2.583c-.24,0-.397.08-.47.24s-.11.407-.11.74c0,.1-.043.15-.13.15-.107,0-.16-.05-.16-.15,0-.107.003-.255.01-.445.007-.19.014-.39.02-.6.007-.21.01-.398.01-.565,0-.173-.003-.363-.01-.57-.006-.207-.013-.402-.02-.585-.006-.184-.01-.332-.01-.445Z"/>
    <path class="st1" d="M1.713,68.426c0-.087.053-.13.16-.13.086,0,.13.043.13.13,0,.28.102.506.305.68.203.173.548.26,1.035.26h4.66c.24,0,.415-.055.525-.165s.165-.302.165-.575c0-.086.046-.13.14-.13.093,0,.14.043.14.13,0,.06-.003.267-.01.62-.007.354-.01.773-.01,1.26,0,.227-.087.37-.26.43-.04.013-.173.06-.4.14s-.505.178-.835.295-.677.24-1.04.37-.708.253-1.035.37c-.327.116-.598.215-.815.295s-.338.123-.365.13c-.207.073-.187.16.06.26.04.013.165.058.375.135s.474.17.79.28c.317.11.652.225,1.005.345.353.12.688.235,1.005.345.316.11.586.203.81.28.223.077.358.122.405.135.2.06.3.207.3.44,0,.486.003.893.01,1.22.006.327.01.513.01.56,0,.086-.046.13-.14.13-.094,0-.14-.043-.14-.13,0-.247-.052-.418-.155-.515-.104-.097-.252-.145-.445-.145H2.643c-.213,0-.374.04-.48.12-.107.08-.16.24-.16.48,0,.086-.043.13-.13.13-.107,0-.16-.043-.16-.13,0-.066.005-.198.015-.395.01-.197.015-.448.015-.755,0-.193-.001-.395-.005-.605s-.008-.392-.015-.545c-.006-.153-.01-.253-.01-.3,0-.1.053-.15.16-.15.086,0,.13.05.13.15,0,.307.048.517.145.63.097.113.262.17.495.17h5.63c.046,0,.07-.017.07-.05,0-.033-.013-.057-.04-.07-.02-.007-.146-.052-.38-.135-.233-.083-.537-.19-.91-.32-.373-.13-.782-.271-1.225-.425-.444-.153-.885-.307-1.325-.46-.44-.154-.843-.293-1.21-.42-.367-.127-.777-.267-1.23-.42-.054-.02-.085-.038-.095-.055-.01-.017-.015-.042-.015-.075,0-.053.03-.093.09-.12.013-.006.13-.052.35-.135.22-.083.51-.193.87-.33.36-.137.753-.285,1.18-.445.427-.16.854-.322,1.28-.485.426-.163.818-.313,1.175-.45.356-.137.646-.247.87-.33.223-.083.338-.128.345-.135.02-.006.027-.021.02-.045s-.023-.035-.05-.035H3.353c-.507,0-.858.1-1.055.3s-.295.433-.295.7c0,.1-.043.15-.13.15-.107,0-.16-.05-.16-.15,0-.067.005-.202.015-.405.01-.203.015-.452.015-.745,0-.347-.005-.608-.015-.785-.01-.177-.015-.302-.015-.375Z"/>
    <path class="st1" d="M1.713,79.296c0-.087.053-.13.16-.13.086,0,.13.043.13.13,0,.28.102.506.305.68.203.173.548.26,1.035.26h4.66c.24,0,.415-.055.525-.165s.165-.302.165-.575c0-.086.046-.13.14-.13.093,0,.14.043.14.13,0,.06-.003.267-.01.62-.007.354-.01.773-.01,1.26,0,.227-.087.37-.26.43-.04.013-.173.06-.4.14s-.505.178-.835.295-.677.24-1.04.37-.708.253-1.035.37c-.327.116-.598.215-.815.295s-.338.123-.365.13c-.207.073-.187.16.06.26.04.013.165.058.375.135s.474.17.79.28c.317.11.652.225,1.005.345.353.12.688.235,1.005.345.316.11.586.203.81.28.223.077.358.122.405.135.2.06.3.207.3.44,0,.486.003.893.01,1.22.006.327.01.513.01.56,0,.086-.046.13-.14.13-.094,0-.14-.043-.14-.13,0-.247-.052-.418-.155-.515-.104-.097-.252-.145-.445-.145H2.643c-.213,0-.374.04-.48.12-.107.08-.16.24-.16.48,0,.086-.043.13-.13.13-.107,0-.16-.043-.16-.13,0-.066.005-.198.015-.395.01-.197.015-.448.015-.755,0-.193-.001-.395-.005-.605s-.008-.392-.015-.545c-.006-.153-.01-.253-.01-.3,0-.1.053-.15.16-.15.086,0,.13.05.13.15,0,.307.048.517.145.63.097.113.262.17.495.17h5.63c.046,0,.07-.017.07-.05,0-.033-.013-.057-.04-.07-.02-.007-.146-.052-.38-.135-.233-.083-.537-.19-.91-.32-.373-.13-.782-.271-1.225-.425-.444-.153-.885-.307-1.325-.46-.44-.154-.843-.293-1.21-.42-.367-.127-.777-.267-1.23-.42-.054-.02-.085-.038-.095-.055-.01-.017-.015-.042-.015-.075,0-.053.03-.093.09-.12.013-.006.13-.052.35-.135.22-.083.51-.193.87-.33.36-.137.753-.285,1.18-.445.427-.16.854-.322,1.28-.485.426-.163.818-.313,1.175-.45.356-.137.646-.247.87-.33.223-.083.338-.128.345-.135.02-.006.027-.021.02-.045s-.023-.035-.05-.035H3.353c-.507,0-.858.1-1.055.3s-.295.433-.295.7c0,.1-.043.15-.13.15-.107,0-.16-.05-.16-.15,0-.067.005-.202.015-.405.01-.203.015-.452.015-.745,0-.347-.005-.608-.015-.785-.01-.177-.015-.302-.015-.375Z"/>
    <path class="st1" d="M1.713,90.246c0-.087.053-.13.16-.13.086,0,.13.043.13.13,0,.346.037.596.11.75.073.153.23.23.47.23h5.54c.22,0,.37-.072.45-.215.08-.143.12-.398.12-.765,0-.087.046-.13.14-.13.093,0,.14.043.14.13,0,.113-.003.261-.01.445-.007.183-.012.378-.015.585s-.005.396-.005.57c0,.167.001.355.005.565.003.21.008.41.015.6.006.19.01.338.01.445,0,.1-.046.15-.14.15-.094,0-.14-.05-.14-.15,0-.354-.04-.605-.12-.755-.08-.15-.23-.225-.45-.225H2.583c-.24,0-.397.08-.47.24s-.11.407-.11.74c0,.1-.043.15-.13.15-.107,0-.16-.05-.16-.15,0-.107.003-.255.01-.445.007-.19.014-.39.02-.6.007-.21.01-.398.01-.565,0-.173-.003-.363-.01-.57-.006-.207-.013-.402-.02-.585-.006-.184-.01-.332-.01-.445Z"/>
    <path class="st1" d="M1.593,99.966c0-.673.138-1.269.415-1.785s.691-.92,1.245-1.21c.553-.29,1.243-.435,2.07-.435.807,0,1.49.155,2.05.465.56.31.986.725,1.28,1.245s.44,1.093.44,1.72c0,.353-.066.665-.2.935-.134.27-.247.472-.34.605s-.1.253-.02.36c.06.073.115.133.165.18.05.046.088.09.115.13.053.06.066.126.04.2-.027.073-.08.11-.16.11h-1.88c-.08,0-.13-.047-.15-.14s.003-.157.07-.19c.32-.126.635-.29.945-.49.31-.2.567-.44.77-.72.204-.28.305-.607.305-.98,0-.327-.119-.645-.355-.955-.237-.31-.607-.567-1.11-.77-.503-.204-1.159-.305-1.965-.305-.606,0-1.12.06-1.54.18-.42.12-.756.28-1.01.48-.253.2-.437.425-.55.675s-.17.505-.17.765c0,.613.142,1.115.425,1.505.283.39.708.718,1.275.985.06.033.102.077.125.13s.018.104-.015.15c-.027.047-.063.082-.11.105-.047.023-.097.025-.15.005-.607-.234-1.094-.592-1.46-1.075-.367-.483-.55-1.108-.55-1.875Z"/>
    <path class="st1" d="M1.713,105.506c0-.086.053-.13.16-.13.086,0,.13.043.13.13,0,.287.045.483.135.59.09.106.249.16.475.16h5.48c.193,0,.342-.043.445-.13.103-.087.155-.273.155-.56,0-.1.046-.15.14-.15.093,0,.14.05.14.15,0,.027-.001.093-.005.2-.003.106-.005.23-.005.37s-.002.276-.005.41c-.003.133-.005.24-.005.32,0,.08.001.187.005.32.003.133.005.27.005.41s.001.263.005.37c.003.107.005.173.005.2,0,.093-.046.14-.14.14-.094,0-.14-.047-.14-.14,0-.287-.052-.474-.155-.56-.104-.087-.252-.13-.445-.13h-2.42c-.153,0-.17.057-.05.17l.26.26c.126.127.275.273.445.44.17.167.343.335.52.505.177.17.34.323.49.46s.268.238.355.305c.133.093.249.171.345.235.096.063.188.095.275.095.093,0,.18-.048.26-.145s.12-.231.12-.405c0-.087.046-.13.14-.13.093,0,.14.043.14.13,0,.073-.003.21-.01.41-.007.2-.01.473-.01.82,0,.333.003.602.01.805.006.203.01.338.01.405,0,.1-.046.15-.14.15-.094,0-.14-.05-.14-.15,0-.146-.059-.329-.175-.545-.117-.217-.262-.438-.435-.665s-.354-.437-.54-.63c-.08-.08-.197-.195-.35-.345s-.347-.342-.58-.575c-.1-.1-.213-.11-.34-.03-.074.047-.227.137-.46.27s-.505.287-.815.46-.625.35-.945.53c-.32.18-.611.343-.875.49-.263.146-.458.26-.585.34-.187.12-.322.218-.405.295-.083.076-.135.155-.155.235s-.03.18-.03.3c0,.093-.043.14-.13.14-.107,0-.16-.047-.16-.14,0-.066.005-.203.015-.41.01-.207.015-.48.015-.82,0-.193-.001-.385-.005-.575s-.008-.354-.015-.49c-.006-.137-.01-.229-.01-.275,0-.087.053-.13.16-.13.086,0,.13.043.13.13,0,.327.063.49.19.49.02,0,.068-.019.145-.055s.168-.082.275-.135c.086-.046.222-.118.405-.215.183-.097.388-.205.615-.325.227-.12.455-.242.685-.365.23-.124.435-.232.615-.325.18-.093.31-.16.39-.2.133-.067.202-.13.205-.19s-.035-.127-.115-.2c-.067-.067-.114-.112-.14-.135-.027-.023-.047-.04-.06-.05-.014-.01-.04-.035-.08-.075-.06-.06-.126-.099-.2-.115-.074-.017-.144-.025-.21-.025h-2.11c-.213,0-.368.048-.465.145s-.145.295-.145.595c0,.04-.014.073-.04.1-.027.027-.057.04-.09.04-.107,0-.16-.047-.16-.14,0-.033.001-.106.005-.22.003-.114.007-.242.01-.385.003-.143.006-.283.01-.42s.005-.245.005-.325c0-.08-.001-.188-.005-.325s-.007-.278-.01-.425c-.003-.147-.007-.277-.01-.39s-.005-.187-.005-.22Z"/>
  </g>
</svg>