<?xml version="1.0" encoding="UTF-8"?>
<svg id="_レイヤー_1" data-name="レイヤー_1" xmlns="http://www.w3.org/2000/svg" version="1.1" viewBox="0 0 146 138">
  <!-- Generator: Adobe Illustrator 29.0.1, SVG Export Plug-In . SVG Version: 2.1.0 Build 192)  -->
  <defs>
    <style>
      .st0 {
        fill: #141414;
      }

      .st1 {
        fill: #9c8334;
      }
    </style>
  </defs>
  <g>
    <path class="st0" d="M50.85,40.624l-.576-2.064c1.567.192,3.504.32,5.808.384h12.912v-7.872h-9.744c-1.056,0-1.984.016-2.784.048-.8.032-1.616.096-2.448.192l-.576-2.064c1.567.192,3.488.32,5.76.384h9.792v-7.872h-7.824v1.2c0,.384-.248.712-.744.984-.496.272-1.128.488-1.896.648-.768.161-1.536.24-2.304.24-.929,0-1.392-.432-1.392-1.296,0-.288.04-1.12.12-2.496.08-1.375.16-3.144.24-5.304.08-2.16.12-4.536.12-7.128,0-2.304-.041-4.104-.12-5.4-.08-1.296-.185-2.12-.312-2.472-.032-.16,0-.288.096-.384.096-.127.256-.16.48-.096.48.096,1.12.296,1.92.6.8.305,1.624.632,2.472.984.847.353,1.528.672,2.04.96h19.872c.384,0,.672-.16.864-.48.096-.16.248-.416.456-.768.208-.352.375-.64.504-.864.192-.384.544-.48,1.056-.288.48.128,1.048.344,1.704.648.655.305,1.303.617,1.944.936.64.32,1.167.608,1.584.864.384.224.576.552.576.984s-.24.744-.72.936c-.224.096-.416.192-.576.288-.48.32-.72.944-.72,1.872,0,1.568.024,3.216.072,4.944.048,1.728.104,3.368.168,4.92.064,1.553.12,2.849.168,3.888.048,1.04.072,1.656.072,1.848,0,.384-.256.713-.768.984-.512.272-1.145.488-1.896.648-.752.16-1.512.24-2.28.24-.929,0-1.392-.416-1.392-1.248v-1.392h-7.728v7.872h6.576c.512,0,.912-.16,1.2-.48.16-.192.368-.463.624-.816.256-.352.52-.711.792-1.08.271-.367.456-.616.552-.744.288-.384.672-.464,1.152-.24.448.192.991.521,1.632.984.64.464,1.248.944,1.824,1.44.576.497.991.888,1.248,1.176.223.256.288.521.192.792-.096.272-.272.408-.528.408h-15.264v7.872h9.36c.352,0,.607-.031.768-.096.16-.064.336-.208.528-.432.16-.192.384-.487.672-.888.288-.399.583-.808.888-1.224.304-.416.52-.704.648-.864.352-.384.784-.463,1.296-.24.512.192,1.12.536,1.824,1.032.704.497,1.375,1.008,2.016,1.536.64.528,1.087.953,1.344,1.272.256.288.328.583.216.888-.113.304-.296.456-.552.456h-37.776c-1.056,0-1.984.016-2.784.048-.8.031-1.616.096-2.448.192ZM61.17,11.488h7.824v-7.248h-7.824v7.248ZM61.17,20.32h7.824v-7.392h-7.824v7.392ZM74.85,11.488h7.728v-7.248h-7.728v7.248ZM74.85,20.32h7.728v-7.392h-7.728v7.392Z"/>
    <path class="st0" d="M54.306,90.448c-.353.192-.624.127-.816-.192-.225-.384-.561-.944-1.008-1.68-.448-.737-.88-1.497-1.296-2.28-.417-.784-.72-1.399-.912-1.848-.096-.16-.112-.32-.048-.48.096-.096.208-.16.336-.192l1.104-.288,5.088-1.344v-14.064h-.72c-.32,0-.672-.007-1.056-.024-.384-.016-.688-.008-.912.024-1.408.032-2.561.112-3.456.24l-.576-2.064c1.152.192,2.496.32,4.032.384h2.304c.223,0,.399-.096.528-.288.127-.192.288-.448.48-.768.192-.319.368-.592.528-.816.192-.256.48-.319.864-.192.352.128.816.336,1.392.624.576.288,1.152.592,1.728.912.576.32,1.023.593,1.344.816.288.192.424.472.408.84-.017.368-.2.632-.552.792-.064.032-.136.064-.216.096-.08.032-.152.08-.216.144-.417.288-.624.737-.624,1.344v10.608c0,.896.304,1.648.912,2.256.608.608,1.656,1.064,3.144,1.368,1.488.305,3.544.456,6.168.456,2.752,0,5.504-.04,8.256-.12,2.751-.08,5.335-.199,7.752-.36,2.416-.16,4.488-.352,6.216-.576-.353.384-.704.92-1.056,1.608-.352.688-.656,1.424-.912,2.208-.257.784-.417,1.544-.48,2.28h-19.296c-2.592,0-4.704-.384-6.336-1.152-1.632-.768-2.864-1.728-3.696-2.88-.833-1.152-1.376-2.304-1.632-3.456-.545.576-1.217,1.296-2.016,2.16-.8.864-1.553,1.688-2.256,2.472-.705.784-1.232,1.352-1.584,1.704-.352.384-.528.72-.528,1.008,0,.352-.128.592-.384.72ZM59.586,58.864c-.608.064-1.176-.048-1.704-.336-.528-.288-.872-.784-1.032-1.488-.32-1.632-.761-3.112-1.32-4.44-.56-1.328-1.544-2.456-2.952-3.384-.096-.511.063-.816.48-.912,1.023.128,2.095.336,3.216.624,1.12.288,2.167.688,3.144,1.2.976.512,1.768,1.185,2.376,2.016.607.833.912,1.856.912,3.072,0,1.088-.329,1.944-.984,2.568-.656.624-1.368.984-2.136,1.08ZM63.283,66.304l-.576-2.064c.799.128,1.576.216,2.328.264.751.048,1.639.089,2.664.12h7.392v-8.064h-4.848c-.896,1.504-1.824,2.888-2.784,4.152-.96,1.265-1.889,2.393-2.784,3.384-.192.032-.368,0-.528-.096-.161-.096-.256-.24-.288-.432.512-1.056.984-2.328,1.416-3.816.432-1.488.808-3.08,1.128-4.776.32-1.696.544-3.376.672-5.04,0-.319-.008-.576-.024-.768s-.024-.352-.024-.48c-.032-.224-.032-.384,0-.48.064-.16.224-.208.48-.144.288.064.736.168,1.344.312.607.144,1.264.312,1.968.504.704.192,1.36.376,1.968.552.607.176,1.072.312,1.392.408.352.128.48.401.384.816-.064.32-.305.48-.72.48-.576,0-.992.32-1.248.96-.225.512-.473,1.024-.744,1.536-.272.513-.536,1.008-.792,1.488h4.032v-4.272c0-.832-.041-1.496-.12-1.992-.081-.496-.168-.808-.264-.936-.161-.192-.176-.384-.048-.576.063-.16.223-.24.48-.24.543,0,1.231.048,2.064.144.832.096,1.664.2,2.496.312.832.112,1.503.232,2.016.36.416.096.592.353.528.768-.032.384-.272.608-.72.672-.32.032-.552.128-.696.288-.144.161-.216.417-.216.768v4.704h2.832c.288,0,.512-.024.672-.072.16-.048.32-.184.48-.408.223-.256.511-.616.864-1.08.352-.463.607-.808.768-1.032.319-.416.704-.496,1.152-.24.64.256,1.344.696,2.112,1.32.768.624,1.344,1.208,1.728,1.752.224.257.296.521.216.792-.081.272-.249.408-.504.408h-10.32v8.064h4.608c.288,0,.512-.024.672-.072.16-.048.319-.168.48-.36.223-.255.543-.672.96-1.248.416-.576.704-.976.864-1.2.32-.416.704-.496,1.152-.24.416.161.912.44,1.488.84.576.4,1.128.833,1.656,1.296.528.464.919.872,1.176,1.224.224.288.288.56.192.816-.096.256-.272.384-.528.384h-25.632c-.993,0-1.833.017-2.52.048-.688.033-1.32.096-1.896.192ZM67.938,83.296c-.8,0-1.2-.367-1.2-1.104,0-.255.064-1.08.192-2.472.127-1.392.192-3.24.192-5.544,0-1.696-.024-3.008-.072-3.936-.048-.928-.136-1.584-.264-1.968-.064-.16-.048-.304.048-.432.096-.096.256-.127.48-.096.319.064.808.2,1.464.408.656.208,1.368.44,2.136.696.768.256,1.44.497,2.016.72h9.936c.352,0,.591-.096.72-.288.127-.192.295-.448.504-.768.208-.32.376-.576.504-.768.223-.32.559-.4,1.008-.24.352.096.855.281,1.512.552.656.272,1.312.552,1.968.84.655.288,1.144.544,1.464.768.32.192.463.48.432.864-.032.384-.224.672-.576.864-.032,0-.072.017-.12.048-.048.032-.104.064-.168.096-.512.288-.768.752-.768,1.392,0,1.024.031,2.08.096,3.168.064,1.088.136,2.048.216,2.88.079.833.12,1.376.12,1.632,0,.32-.264.617-.792.888-.528.272-1.168.48-1.92.624-.752.144-1.464.216-2.136.216-.8,0-1.2-.367-1.2-1.104v-.864h-11.184v1.296c0,.32-.24.608-.72.864-.48.257-1.073.449-1.776.576-.704.128-1.408.192-2.112.192ZM72.546,78.928h11.184v-7.872h-11.184v7.872Z"/>
    <path class="st0" d="M65.682,137.776c-.449-.256-.561-.592-.336-1.008,3.936-1.536,6.879-3.936,8.832-7.2,1.951-3.264,3.024-7.552,3.216-12.864.16-4.32-.128-7.36-.864-9.12-.736-1.759-1.872-2.56-3.408-2.4-.768.096-1.496.521-2.184,1.272-.688.752-1.289,1.688-1.8,2.808-.512,1.121-.905,2.28-1.176,3.48-.272,1.2-.408,2.312-.408,3.336.031,1.184.168,2.144.408,2.88.24.737.552,1.457.936,2.16.448.8.52,1.632.216,2.496-.304.864-.936,1.424-1.896,1.68-.896.257-1.648.144-2.256-.336-.608-.48-1.104-1.248-1.488-2.304-.705-2.048-1.104-4.104-1.2-6.168-.096-2.064-.017-4.048.24-5.952.255-1.904.511-3.64.768-5.208.192-.96.343-1.84.456-2.64.112-.799.168-1.504.168-2.112-.032-.704-.12-1.368-.264-1.992s-.504-1.16-1.08-1.608c-.096-.448.08-.736.528-.864.96.128,1.864.377,2.712.744.847.368,1.543.888,2.088,1.56.543.672.816,1.536.816,2.592,0,.384-.08.84-.24,1.368s-.353,1.128-.576,1.8c-.449,1.248-.888,2.704-1.32,4.368-.432,1.665-.536,3.44-.312,5.328.352-1.6.864-3.208,1.536-4.824.672-1.615,1.472-3,2.4-4.152.928-1.152,1.952-1.84,3.072-2.064,1.824-.352,3.504-.104,5.04.744,1.536.848,2.751,2.352,3.648,4.512.896,2.16,1.264,5.033,1.104,8.616-.257,5.792-1.856,10.424-4.8,13.896-2.944,3.473-7.136,5.863-12.576,7.176Z"/>
  </g>
  <g>
    <path class="st1" d="M27.656,4.378c0-.087.053-.13.16-.13.086,0,.13.043.13.13,0,.28.102.507.305.68.203.174.548.261,1.035.261h4.66c.24,0,.415-.056.525-.165.11-.11.165-.302.165-.575,0-.087.046-.13.14-.13.093,0,.14.043.14.13,0,.06-.003.267-.01.62-.007.354-.01.773-.01,1.26,0,.227-.087.37-.26.43-.04.014-.173.061-.4.141s-.505.178-.835.295c-.33.116-.677.24-1.04.37s-.708.253-1.035.37c-.327.116-.598.215-.815.295s-.338.123-.365.13c-.207.073-.187.16.06.26.04.014.165.059.375.135.21.077.474.17.79.28.317.11.652.225,1.005.345.353.12.688.235,1.005.346.316.109.586.203.81.279.223.077.358.122.405.135.2.061.3.207.3.44,0,.486.003.894.01,1.22.006.327.01.514.01.561,0,.086-.046.13-.14.13-.094,0-.14-.044-.14-.13,0-.247-.052-.419-.155-.516-.104-.097-.252-.145-.445-.145h-5.45c-.213,0-.374.04-.48.12-.107.08-.16.24-.16.479,0,.087-.043.13-.13.13-.107,0-.16-.043-.16-.13,0-.066.005-.198.015-.395.01-.197.015-.448.015-.755,0-.193-.001-.396-.005-.605s-.008-.392-.015-.545c-.006-.153-.01-.253-.01-.3,0-.1.053-.15.16-.15.086,0,.13.051.13.15,0,.307.048.517.145.63s.262.17.495.17h5.63c.046,0,.07-.017.07-.05s-.013-.057-.04-.07c-.02-.007-.146-.052-.38-.135s-.537-.19-.91-.32c-.373-.13-.782-.271-1.225-.425-.444-.153-.885-.307-1.325-.46s-.843-.293-1.21-.42-.777-.267-1.23-.42c-.054-.021-.085-.038-.095-.055-.01-.018-.015-.042-.015-.075,0-.054.03-.094.09-.12.013-.007.13-.052.35-.135.22-.084.51-.193.87-.33.36-.137.753-.285,1.18-.445s.854-.321,1.28-.485c.426-.163.818-.313,1.175-.449.356-.137.646-.247.87-.33.223-.084.338-.129.345-.136.02-.006.027-.021.02-.045s-.023-.034-.05-.034h-4.69c-.507,0-.858.1-1.055.3s-.295.433-.295.7c0,.1-.043.149-.13.149-.107,0-.16-.05-.16-.149,0-.067.005-.202.015-.405.01-.203.015-.452.015-.745,0-.347-.005-.608-.015-.785-.01-.177-.015-.302-.015-.375Z"/>
    <path class="st1" d="M27.656,15.188c0-.087.043-.13.13-.13.106,0,.16.043.16.13,0,.233.042.416.125.55.083.133.242.253.475.36.106.053.287.131.54.234.253.104.556.224.91.36s.73.281,1.13.435l1.2.46c.4.153.771.295,1.115.425.343.131.638.24.885.33.247.091.414.152.5.186s.144.071.17.115c.027.043.04.118.04.225s-.013.184-.04.23c-.026.046-.083.086-.17.119-.133.054-.35.139-.65.256-.3.116-.647.251-1.04.404-.394.153-.805.313-1.235.48-.43.166-.849.328-1.255.484-.407.157-.775.299-1.105.426-.33.126-.585.227-.765.3-.307.12-.522.248-.645.385-.124.137-.185.269-.185.396,0,.086-.054.13-.16.13-.086,0-.13-.044-.13-.13,0-.067.001-.204.005-.41.003-.207.005-.483.005-.83,0-.287-.001-.561-.005-.82s-.005-.424-.005-.49c0-.086.043-.13.13-.13.106,0,.16.044.16.13,0,.214.035.362.105.445s.153.125.25.125.178-.017.245-.05c.013-.007.071-.027.175-.061s.23-.074.38-.125c.15-.05.303-.102.46-.154.157-.054.295-.101.415-.141.073-.026.117-.053.13-.08.013-.026.02-.063.02-.109v-2.46c0-.034-.003-.061-.01-.08-.007-.021-.033-.037-.08-.05-.14-.034-.305-.082-.495-.146-.19-.063-.373-.118-.55-.165s-.322-.07-.435-.07c-.247,0-.41.062-.49.186-.08.123-.12.295-.12.515,0,.087-.054.13-.16.13-.086,0-.13-.043-.13-.13,0-.066.001-.191.005-.375s.005-.422.005-.715c0-.26-.001-.49-.005-.689-.003-.2-.005-.337-.005-.41ZM30.455,17.338v2.17c0,.027.005.056.015.085.01.03.048.035.115.016.16-.054.355-.12.585-.2s.471-.167.725-.26c.253-.094.496-.182.73-.266.233-.083.437-.156.61-.22s.29-.104.35-.125c.033-.014.053-.031.06-.055.006-.023-.007-.042-.04-.056-.047-.013-.162-.057-.345-.13-.184-.073-.403-.161-.66-.265-.256-.104-.52-.208-.79-.315-.27-.106-.513-.201-.73-.284-.216-.084-.375-.143-.475-.176-.1-.026-.15,0-.15.08Z"/>
    <path class="st1" d="M27.656,24.968c0-.086.053-.13.16-.13.086,0,.13.044.13.13,0,.287.045.483.135.591.09.106.249.159.475.159h5.48c.193,0,.342-.043.445-.13.103-.087.155-.273.155-.56,0-.101.046-.15.14-.15.093,0,.14.05.14.15,0,.026-.001.093-.005.2-.003.106-.005.229-.005.37,0,.14-.002.276-.005.409-.003.134-.005.24-.005.32s.001.187.005.32c.003.133.005.27.005.41,0,.14.001.263.005.369.003.107.005.174.005.2,0,.094-.046.141-.14.141-.094,0-.14-.047-.14-.141,0-.286-.052-.474-.155-.56-.104-.087-.252-.13-.445-.13h-2.42c-.153,0-.17.057-.05.17.046.046.133.133.26.26s.275.273.445.44c.17.166.343.335.52.505.177.17.34.323.49.46s.268.238.355.305c.133.094.249.172.345.235.096.062.188.095.275.095.093,0,.18-.049.26-.146s.12-.231.12-.404c0-.087.046-.13.14-.13.093,0,.14.043.14.13,0,.073-.003.21-.01.41-.007.199-.01.473-.01.819,0,.334.003.602.01.806.006.203.01.338.01.404,0,.101-.046.15-.14.15-.094,0-.14-.05-.14-.15,0-.146-.059-.328-.175-.545-.117-.217-.262-.438-.435-.665s-.354-.437-.54-.63c-.08-.08-.197-.195-.35-.345-.153-.15-.347-.342-.58-.575-.1-.1-.213-.11-.34-.03-.074.047-.227.137-.46.271-.233.133-.505.286-.815.46-.31.173-.625.35-.945.53-.32.18-.611.343-.875.489-.263.146-.458.261-.585.341-.187.119-.322.218-.405.295-.083.076-.135.154-.155.234s-.03.181-.03.3c0,.094-.043.141-.13.141-.107,0-.16-.047-.16-.141,0-.066.005-.203.015-.409.01-.207.015-.48.015-.82,0-.193-.001-.385-.005-.575-.003-.189-.008-.354-.015-.49-.006-.137-.01-.229-.01-.274,0-.087.053-.13.16-.13.086,0,.13.043.13.13,0,.326.063.49.19.49.02,0,.068-.019.145-.056.077-.036.168-.081.275-.135.086-.047.222-.118.405-.215.183-.097.388-.205.615-.325s.455-.242.685-.365.435-.231.615-.325c.18-.093.31-.159.39-.199.133-.067.202-.13.205-.19.003-.06-.035-.127-.115-.2-.067-.066-.114-.111-.14-.135-.027-.023-.047-.04-.06-.05-.014-.01-.04-.035-.08-.075-.06-.06-.126-.099-.2-.115-.074-.017-.144-.024-.21-.024h-2.11c-.213,0-.368.048-.465.145s-.145.295-.145.595c0,.04-.014.073-.04.101-.027.026-.057.04-.09.04-.107,0-.16-.047-.16-.141,0-.033.001-.106.005-.22s.007-.241.01-.385c.003-.144.006-.283.01-.42s.005-.245.005-.325-.001-.188-.005-.325-.007-.278-.01-.425c-.003-.146-.007-.276-.01-.39s-.005-.188-.005-.221Z"/>
    <path class="st1" d="M27.656,34.218c0-.087.053-.13.16-.13.086,0,.13.043.13.13,0,.373.046.625.14.755.093.13.25.195.47.195h5.48c.2,0,.35-.061.45-.18.1-.12.15-.36.15-.721,0-.087.05-.13.15-.13.087,0,.13.043.13.13,0,.054-.003.309-.01.766-.007.456-.01,1.128-.01,2.015,0,.84.003,1.477.01,1.91.006.433.01.68.01.74,0,.153-.077.232-.23.239-.06.014-.158.023-.295.03s-.282.014-.435.021c-.153.006-.29.011-.41.015-.12.003-.197.005-.23.005-.027,0-.055-.007-.085-.02-.03-.014-.045-.044-.045-.091,0-.046.005-.081.015-.104.01-.023.039-.045.085-.065.18-.08.372-.182.575-.305.203-.123.378-.287.525-.49s.22-.468.22-.795v-1.55c0-.061-.014-.11-.04-.15-.027-.04-.083-.06-.17-.06h-2.74c-.027,0-.055.013-.085.04-.03.026-.045.057-.045.09v.51c0,.28.06.493.18.641.12.146.26.255.42.324.16.07.296.129.41.176.053.02.092.038.115.055.023.017.035.052.035.104,0,.047-.017.079-.05.096s-.067.024-.1.024c-.053,0-.148,0-.285-.005-.137-.003-.285-.007-.445-.01-.16-.004-.307-.005-.44-.005-.126,0-.278,0-.455.005-.177.003-.336.007-.48.01-.144.004-.238.005-.285.005-.1,0-.15-.04-.15-.12,0-.073.043-.123.13-.149.126-.047.275-.106.445-.18.17-.074.32-.184.45-.33.13-.147.195-.36.195-.641v-.51c0-.087-.05-.13-.15-.13h-2.89c-.127,0-.19.066-.19.2v1.35c0,.32.058.59.175.811.117.22.263.401.44.545.177.143.354.255.53.335.176.08.325.14.445.18.06.02.093.042.1.065.006.022.006.058,0,.104v.01c-.007.054-.023.084-.05.09-.027.007-.057.011-.09.011-.026,0-.11-.002-.25-.005-.14-.004-.302-.007-.485-.011-.184-.003-.354-.007-.51-.01-.156-.003-.265-.005-.325-.005-.087,0-.16-.025-.22-.075s-.09-.121-.09-.215c0-.047.003-.15.01-.31.007-.16.012-.424.015-.79.003-.367.005-.881.005-1.54,0-.813-.005-1.482-.015-2.005-.01-.523-.015-.822-.015-.896Z"/>
    <path class="st1" d="M27.535,51.147c0-.12.07-.206.21-.26.027-.007.148-.05.365-.13.216-.08.497-.186.84-.315s.718-.27,1.125-.42c.407-.149.813-.3,1.22-.45.406-.149.783-.29,1.13-.42s.633-.236.86-.319c.227-.084.356-.132.39-.146.373-.133.623-.278.75-.435.126-.157.19-.342.19-.556,0-.033.015-.063.045-.09.03-.026.062-.04.095-.04.106,0,.16.044.16.13,0,.047-.003.139-.01.275-.007.137-.014.293-.02.47-.007.177-.01.349-.01.516,0,.193.003.404.01.635.006.229.013.434.02.61.006.176.01.281.01.314,0,.087-.053.13-.16.13-.034,0-.065-.012-.095-.035-.03-.023-.045-.055-.045-.095,0-.533-.224-.729-.67-.59-.067.02-.222.073-.465.16-.244.086-.535.189-.875.31-.34.12-.695.245-1.065.375-.37.13-.718.252-1.045.365s-.602.21-.825.29c-.224.08-.355.123-.395.13-.02.007-.03.017-.03.03,0,.013.003.023.01.029.06.021.195.063.405.131.21.066.462.147.755.244.293.097.605.2.935.311.33.11.652.215.965.314.313.101.588.188.825.261s.408.123.515.149c.293.073.526.037.7-.109.173-.147.26-.377.26-.69,0-.047.015-.083.045-.11.03-.026.062-.039.095-.039.04,0,.077.013.11.039.033.027.05.063.05.11,0,.061-.006.193-.02.4-.014.206-.02.463-.02.77,0,.294.006.54.02.74.013.2.02.33.02.39,0,.101-.053.15-.16.15-.034,0-.065-.014-.095-.04-.03-.026-.045-.063-.045-.11,0-.279-.087-.501-.26-.665-.174-.163-.42-.305-.74-.425-.093-.033-.262-.094-.505-.18-.244-.087-.535-.188-.875-.305-.34-.117-.702-.242-1.085-.375-.384-.134-.765-.266-1.145-.396s-.73-.25-1.05-.36c-.32-.109-.585-.199-.795-.27s-.338-.115-.385-.135c-.16-.067-.24-.157-.24-.271Z"/>
    <path class="st1" d="M27.656,57.328c0-.087.053-.131.16-.131.086,0,.13.044.13.131,0,.346.037.596.11.75.073.153.23.229.47.229h5.54c.22,0,.37-.071.45-.215s.12-.398.12-.765c0-.087.046-.131.14-.131.093,0,.14.044.14.131,0,.113-.003.261-.01.444-.007.184-.012.379-.015.585-.003.207-.005.396-.005.57,0,.167.001.354.005.565.003.21.008.409.015.6.006.189.01.338.01.445,0,.1-.046.149-.14.149-.094,0-.14-.05-.14-.149,0-.354-.04-.605-.12-.756-.08-.149-.23-.225-.45-.225h-5.54c-.24,0-.397.08-.47.24s-.11.406-.11.74c0,.1-.043.149-.13.149-.107,0-.16-.05-.16-.149,0-.107.003-.256.01-.445.007-.19.014-.39.02-.6.007-.211.01-.398.01-.565,0-.174-.003-.363-.01-.57-.006-.206-.013-.401-.02-.585-.006-.184-.01-.331-.01-.444Z"/>
    <path class="st1" d="M27.656,63.487c0-.093.043-.14.13-.14.106,0,.16.047.16.14,0,.36.043.606.13.74s.243.2.47.2h5.51c.193,0,.338-.052.435-.155s.145-.338.145-.705c0-.087.053-.13.16-.13.086,0,.13.043.13.13,0,.061-.003.23-.01.51-.006.28-.01.601-.01.96,0,.24.001.467.005.681.003.213.007.395.01.545.003.149.005.241.005.274,0,.094-.043.141-.13.141-.107,0-.16-.047-.16-.141,0-.366-.048-.608-.145-.725s-.242-.175-.435-.175h-5.89c-.133,0-.2.07-.2.21v1.55c0,.327.093.615.28.865s.418.463.695.64c.276.177.548.315.815.415.053.021.088.047.105.08s.021.063.015.09c-.007.054-.025.087-.055.101-.03.013-.062.02-.095.02h-.25c-.146,0-.322-.002-.525-.005s-.398-.007-.585-.01c-.187-.004-.327-.009-.42-.016-.087-.006-.157-.033-.21-.079-.054-.047-.08-.117-.08-.211,0-.046.001-.17.005-.369.003-.2.005-.5.005-.9v-3.05c0-.427-.001-.769-.005-1.025s-.005-.408-.005-.455Z"/>
    <path class="st1" d="M27.656,72.327c0-.093.043-.14.13-.14.106,0,.16.047.16.14,0,.36.043.606.13.74s.243.2.47.2h5.51c.193,0,.338-.052.435-.155s.145-.338.145-.705c0-.087.053-.13.16-.13.086,0,.13.043.13.13,0,.061-.003.23-.01.51-.006.28-.01.601-.01.96,0,.24.001.467.005.681.003.213.007.395.01.545.003.149.005.241.005.274,0,.094-.043.141-.13.141-.107,0-.16-.047-.16-.141,0-.366-.048-.608-.145-.725s-.242-.175-.435-.175h-5.89c-.133,0-.2.07-.2.21v1.55c0,.327.093.615.28.865s.418.463.695.64c.276.177.548.315.815.415.053.021.088.047.105.08s.021.063.015.09c-.007.054-.025.087-.055.101-.03.013-.062.02-.095.02h-.25c-.146,0-.322-.002-.525-.005s-.398-.007-.585-.01c-.187-.004-.327-.009-.42-.016-.087-.006-.157-.033-.21-.079-.054-.047-.08-.117-.08-.211,0-.046.001-.17.005-.369.003-.2.005-.5.005-.9v-3.05c0-.427-.001-.769-.005-1.025s-.005-.408-.005-.455Z"/>
    <path class="st1" d="M27.656,80.997c0-.087.043-.13.13-.13.106,0,.16.043.16.13,0,.233.042.417.125.55.083.134.242.254.475.36.106.054.287.132.54.235.253.103.556.223.91.359s.73.282,1.13.436l1.2.46c.4.153.771.295,1.115.425.343.13.638.24.885.33s.414.151.5.185.144.072.17.115c.027.043.04.118.04.226,0,.106-.013.183-.04.229-.026.047-.083.087-.17.12-.133.053-.35.139-.65.255s-.647.252-1.04.405c-.394.153-.805.313-1.235.479-.43.167-.849.328-1.255.485-.407.156-.775.298-1.105.425-.33.127-.585.227-.765.3-.307.12-.522.249-.645.386-.124.136-.185.268-.185.395,0,.087-.054.13-.16.13-.086,0-.13-.043-.13-.13,0-.066.001-.203.005-.41.003-.206.005-.483.005-.83,0-.286-.001-.56-.005-.819-.003-.261-.005-.424-.005-.49,0-.087.043-.13.13-.13.106,0,.16.043.16.13,0,.213.035.361.105.445.07.083.153.125.25.125s.178-.018.245-.051c.013-.007.071-.026.175-.06s.23-.075.38-.125c.15-.05.303-.102.46-.155s.295-.1.415-.14c.073-.027.117-.054.13-.08.013-.026.02-.063.02-.11v-2.46c0-.033-.003-.06-.01-.08-.007-.02-.033-.036-.08-.05-.14-.033-.305-.082-.495-.145-.19-.063-.373-.119-.55-.165-.177-.047-.322-.07-.435-.07-.247,0-.41.062-.49.185-.08.124-.12.295-.12.516,0,.086-.054.13-.16.13-.086,0-.13-.044-.13-.13,0-.067.001-.192.005-.375.003-.184.005-.422.005-.715,0-.261-.001-.49-.005-.69s-.005-.337-.005-.41ZM30.455,83.147v2.17c0,.026.005.055.015.085.01.03.048.035.115.015.16-.053.355-.12.585-.2.23-.079.471-.166.725-.26.253-.093.496-.182.73-.265.233-.084.437-.157.61-.22.173-.063.29-.105.35-.125.033-.014.053-.032.06-.056.006-.023-.007-.041-.04-.055-.047-.014-.162-.057-.345-.13-.184-.073-.403-.162-.66-.266-.256-.103-.52-.208-.79-.314s-.513-.202-.73-.285c-.216-.083-.375-.142-.475-.175-.1-.026-.15,0-.15.08Z"/>
    <path class="st1" d="M27.535,94.348c0-.641.14-1.21.42-1.71.28-.5.702-.894,1.265-1.181.563-.286,1.265-.43,2.105-.43.58,0,1.098.097,1.555.29.457.193.845.453,1.165.78.32.326.565.691.735,1.095s.255.818.255,1.245c0,.293-.042.569-.125.83-.083.26-.151.437-.205.529-.046.073-.068.139-.065.195s.015.108.035.155c.013.033.043.097.09.189.047.094.073.157.08.19.02.06.015.128-.015.205-.03.076-.085.115-.165.115h-1.82c-.067,0-.108-.046-.125-.136s.005-.148.065-.175c.313-.153.615-.326.905-.52s.528-.417.715-.67c.187-.254.28-.558.28-.91,0-.247-.058-.488-.175-.726-.117-.236-.307-.451-.57-.645-.264-.193-.61-.349-1.04-.465-.43-.117-.955-.176-1.575-.176-.86,0-1.54.084-2.04.25-.5.167-.855.397-1.065.69s-.315.627-.315,1c0,.547.151.93.455,1.15.303.22.695.33,1.175.33h.44c.173,0,.307-.044.4-.131.093-.086.14-.279.14-.579,0-.047.015-.084.045-.11.03-.026.062-.04.095-.04.1,0,.15.05.15.15,0,.046-.003.141-.01.284-.007.144-.014.307-.02.49-.007.184-.01.358-.01.525,0,.253.007.506.02.76.013.253.02.423.02.51,0,.047-.013.089-.04.125-.026.037-.063.056-.11.056-.04,0-.073-.019-.1-.056-.027-.036-.04-.078-.04-.125,0-.187-.035-.34-.105-.46-.07-.12-.225-.18-.465-.18-.567,0-1.039.01-1.415.03-.377.02-.588.029-.635.029-.074,0-.119-.038-.135-.114-.017-.077-.005-.132.035-.165.033-.027.091-.072.175-.136s.164-.123.24-.18c.076-.057.118-.092.125-.105.086-.086.09-.166.01-.239-.207-.174-.394-.414-.56-.721s-.25-.68-.25-1.119Z"/>
    <path class="st1" d="M27.656,100.617c0-.087.053-.13.16-.13.086,0,.13.043.13.13,0,.373.046.625.14.755.093.13.25.195.47.195h5.48c.2,0,.35-.061.45-.18.1-.12.15-.36.15-.721,0-.087.05-.13.15-.13.087,0,.13.043.13.13,0,.054-.003.309-.01.766-.007.456-.01,1.128-.01,2.015,0,.84.003,1.477.01,1.91.006.433.01.68.01.74,0,.153-.077.232-.23.239-.06.014-.158.023-.295.03s-.282.014-.435.021c-.153.006-.29.011-.41.015-.12.003-.197.005-.23.005-.027,0-.055-.007-.085-.02-.03-.014-.045-.044-.045-.091,0-.046.005-.081.015-.104.01-.023.039-.045.085-.065.18-.08.372-.182.575-.305.203-.123.378-.287.525-.49s.22-.468.22-.795v-1.55c0-.061-.014-.11-.04-.15-.027-.04-.083-.06-.17-.06h-2.74c-.027,0-.055.013-.085.04-.03.026-.045.057-.045.09v.51c0,.28.06.493.18.641.12.146.26.255.42.324.16.07.296.129.41.176.053.02.092.038.115.055.023.017.035.052.035.104,0,.047-.017.079-.05.096s-.067.024-.1.024c-.053,0-.148,0-.285-.005-.137-.003-.285-.007-.445-.01-.16-.004-.307-.005-.44-.005-.126,0-.278,0-.455.005-.177.003-.336.007-.48.01-.144.004-.238.005-.285.005-.1,0-.15-.04-.15-.12,0-.073.043-.123.13-.149.126-.047.275-.106.445-.18.17-.074.32-.184.45-.33.13-.147.195-.36.195-.641v-.51c0-.087-.05-.13-.15-.13h-2.89c-.127,0-.19.066-.19.2v1.35c0,.32.058.59.175.811.117.22.263.401.44.545.177.143.354.255.53.335.176.08.325.14.445.18.06.02.093.042.1.065.006.022.006.058,0,.104v.01c-.007.054-.023.084-.05.09-.027.007-.057.011-.09.011-.026,0-.11-.002-.25-.005-.14-.004-.302-.007-.485-.011-.184-.003-.354-.007-.51-.01-.156-.003-.265-.005-.325-.005-.087,0-.16-.025-.22-.075s-.09-.121-.09-.215c0-.047.003-.15.01-.31.007-.16.012-.424.015-.79.003-.367.005-.881.005-1.54,0-.813-.005-1.482-.015-2.005-.01-.523-.015-.822-.015-.896Z"/>
  </g>
</svg>