<?xml version="1.0" encoding="UTF-8"?>
<svg id="_レイヤー_1" data-name="レイヤー_1" xmlns="http://www.w3.org/2000/svg" version="1.1" viewBox="0 0 146 123">
  <!-- Generator: Adobe Illustrator 29.0.1, SVG Export Plug-In . SVG Version: 2.1.0 Build 192)  -->
  <defs>
    <style>
      .st0 {
        fill: #141414;
      }

      .st1 {
        fill: #9c8334;
      }
    </style>
  </defs>
  <g>
    <path class="st0" d="M50.85,40.888l-.576-2.064c1.567.192,3.504.32,5.809.384h12.912v-7.872h-9.744c-1.057,0-1.984.016-2.784.048-.801.032-1.616.096-2.448.192l-.576-2.064c1.567.192,3.488.32,5.761.384h9.792v-7.872h-7.824v1.2c0,.384-.248.712-.744.984-.496.272-1.128.488-1.896.648-.768.161-1.535.24-2.304.24-.929,0-1.392-.432-1.392-1.296,0-.288.039-1.12.12-2.496.079-1.375.159-3.144.239-5.304.08-2.16.12-4.536.12-7.128,0-2.304-.04-4.104-.12-5.4s-.185-2.12-.312-2.472c-.032-.16,0-.288.096-.384.097-.127.256-.16.48-.096.479.096,1.119.296,1.92.6.8.305,1.624.632,2.472.984.848.353,1.528.672,2.04.96h19.872c.384,0,.672-.16.864-.48.096-.16.247-.416.456-.768.207-.352.375-.64.504-.864.191-.384.544-.48,1.056-.288.48.128,1.048.344,1.704.648.655.305,1.304.617,1.944.936.64.32,1.167.608,1.584.864.384.224.576.552.576.984s-.24.744-.721.936c-.224.096-.416.192-.576.288-.479.32-.72.944-.72,1.872,0,1.568.024,3.216.072,4.944s.104,3.368.168,4.92c.063,1.553.12,2.849.168,3.888.048,1.04.072,1.656.072,1.848,0,.384-.257.713-.769.984-.512.272-1.145.488-1.896.648-.753.16-1.513.24-2.28.24-.929,0-1.392-.416-1.392-1.248v-1.392h-7.729v7.872h6.576c.512,0,.912-.16,1.2-.48.159-.192.367-.463.624-.816.256-.352.52-.711.792-1.08.271-.367.456-.616.552-.744.288-.384.672-.464,1.152-.24.447.192.991.521,1.632.984.64.464,1.248.944,1.824,1.44.575.497.991.888,1.248,1.176.223.256.287.521.191.792-.096.272-.272.408-.528.408h-15.264v7.872h9.36c.352,0,.607-.031.768-.096.16-.064.336-.208.528-.432.159-.192.384-.487.672-.888.288-.399.584-.808.888-1.224.304-.416.521-.704.648-.864.352-.384.783-.463,1.296-.24.512.192,1.12.536,1.824,1.032.703.497,1.375,1.008,2.016,1.536.64.528,1.088.953,1.344,1.272.256.288.328.583.217.888-.113.304-.297.456-.553.456h-37.775c-1.057,0-1.984.016-2.784.048-.801.031-1.616.096-2.448.192ZM61.171,11.753h7.824v-7.248h-7.824v7.248ZM61.171,20.584h7.824v-7.392h-7.824v7.392ZM74.85,11.753h7.729v-7.248h-7.729v7.248ZM74.85,20.584h7.729v-7.392h-7.729v7.392Z"/>
    <path class="st0" d="M50.562,90.856c-.448-.224-.56-.544-.336-.96,3.296-1.536,6.056-3.543,8.28-6.024,2.224-2.479,3.991-5.359,5.304-8.64,1.312-3.28,2.256-6.92,2.832-10.92.576-4,.864-8.271.864-12.816,0-.736-.041-1.288-.12-1.656-.08-.368-.152-.712-.216-1.032-.096-.352-.112-.607-.048-.768.063-.319.271-.448.624-.384.575.064,1.352.176,2.328.336.976.161,1.959.329,2.951.504.992.176,1.776.344,2.353.504.544.096.783.432.72,1.008-.032.224-.137.424-.312.6-.177.176-.377.264-.601.264-.512-.063-.864.081-1.056.432-.192.353-.288.848-.288,1.488,0,3.809.415,7.2,1.248,10.176.832,2.976,1.968,5.6,3.408,7.872,1.439,2.272,3.079,4.264,4.92,5.976,1.84,1.712,3.775,3.184,5.808,4.416s4.04,2.312,6.024,3.24c-.929.32-1.824.809-2.688,1.464-.863.656-1.632,1.375-2.304,2.16-.672.784-1.217,1.512-1.632,2.184-2.049-1.152-4.049-2.808-6-4.968-1.952-2.16-3.681-4.671-5.185-7.536-1.504-2.864-2.64-5.959-3.407-9.288-.769-3.328-1.025-6.736-.769-10.224-.576,4.96-1.456,9.232-2.64,12.816-1.185,3.584-2.705,6.624-4.561,9.12s-4.072,4.592-6.647,6.288c-2.576,1.696-5.528,3.151-8.856,4.368Z"/>
  </g>
  <g>
    <path class="st1" d="M27.534,8.083c0-.12.07-.207.209-.26.027-.006.148-.05.365-.13s.497-.185.84-.315c.344-.13.719-.27,1.125-.42.407-.15.814-.3,1.221-.45s.783-.29,1.13-.42.634-.237.86-.32c.227-.083.355-.132.39-.145.373-.133.623-.278.75-.435.126-.157.19-.342.19-.555,0-.033.015-.063.045-.09.029-.027.061-.04.095-.04.106,0,.159.043.159.13,0,.047-.003.138-.01.275-.006.137-.014.293-.02.47-.007.177-.01.348-.01.515,0,.193.003.405.01.635.006.23.014.434.02.61.007.176.01.281.01.315,0,.086-.053.13-.159.13-.034,0-.065-.012-.095-.035-.03-.023-.045-.055-.045-.095,0-.534-.225-.73-.67-.59-.067.02-.223.073-.465.16-.244.086-.535.19-.875.31-.341.12-.695.245-1.066.375-.369.13-.718.251-1.045.365-.326.113-.602.21-.824.29-.224.08-.355.124-.395.13-.021.006-.031.016-.031.03,0,.013.004.023.011.03.06.02.194.063.405.13.209.066.461.148.754.245.294.097.605.2.936.31.33.11.652.215.965.315.313.1.588.187.825.26s.408.123.515.15c.294.073.527.037.701-.11.172-.147.26-.377.26-.69,0-.047.015-.083.045-.11.029-.026.061-.04.095-.04.04,0,.077.013.11.04.033.027.049.063.049.11,0,.06-.006.193-.02.4s-.02.463-.02.77c0,.293.006.54.02.74.014.2.02.33.02.39,0,.1-.053.15-.159.15-.034,0-.065-.013-.095-.04-.03-.026-.045-.063-.045-.11,0-.28-.088-.501-.26-.665-.174-.164-.421-.305-.74-.425-.094-.034-.262-.094-.506-.18-.243-.086-.535-.188-.875-.305-.34-.117-.701-.242-1.084-.375-.385-.134-.766-.265-1.146-.395-.38-.13-.729-.25-1.05-.36-.32-.11-.586-.2-.795-.27-.211-.07-.339-.115-.385-.135-.16-.067-.24-.157-.24-.27Z"/>
    <path class="st1" d="M27.653,14.263c0-.087.054-.13.16-.13.087,0,.131.043.131.13,0,.346.036.596.109.75.073.153.23.23.471.23h5.539c.221,0,.37-.072.45-.215.08-.143.12-.398.12-.765,0-.087.047-.13.141-.13.093,0,.139.043.139.13,0,.113-.003.261-.01.445-.006.183-.012.378-.015.585s-.005.396-.005.57c0,.167.002.355.005.565.003.21.009.41.015.6.007.19.01.338.01.445,0,.1-.046.15-.139.15-.094,0-.141-.05-.141-.15,0-.354-.04-.605-.12-.755-.08-.15-.229-.225-.45-.225h-5.539c-.24,0-.397.08-.471.24s-.109.407-.109.74c0,.1-.044.15-.131.15-.106,0-.16-.05-.16-.15,0-.107.004-.255.01-.445.008-.19.014-.39.021-.6.007-.21.011-.398.011-.565,0-.173-.004-.363-.011-.57s-.013-.402-.021-.585c-.006-.184-.01-.332-.01-.445Z"/>
    <path class="st1" d="M27.653,20.423c0-.093.044-.14.131-.14.105,0,.16.047.16.14,0,.36.043.606.129.74.087.133.244.2.471.2h5.51c.193,0,.338-.052.436-.155.096-.104.145-.338.145-.705,0-.087.053-.13.16-.13.086,0,.13.043.13.13,0,.06-.003.23-.011.51-.006.28-.01.6-.01.96,0,.24.002.467.006.68.003.213.006.395.01.545.003.15.005.242.005.275,0,.093-.044.14-.13.14-.107,0-.16-.047-.16-.14,0-.367-.049-.608-.145-.725-.098-.117-.242-.175-.436-.175h-5.891c-.133,0-.199.07-.199.21v1.55c0,.327.094.615.279.865.188.25.419.463.695.64.277.177.549.315.815.415.054.02.089.046.104.08.018.033.021.063.016.09-.007.053-.025.086-.055.1-.031.013-.062.02-.096.02h-.25c-.146,0-.322-.002-.525-.005-.203-.003-.398-.007-.584-.01-.188-.003-.327-.008-.42-.015-.088-.006-.157-.033-.211-.08-.053-.047-.08-.117-.08-.21,0-.046.002-.17.006-.37.003-.2.004-.5.004-.9v-3.05c0-.427,0-.769-.004-1.025-.004-.257-.006-.409-.006-.455Z"/>
    <path class="st1" d="M27.653,29.262c0-.093.044-.14.131-.14.105,0,.16.047.16.14,0,.36.043.606.129.74.087.133.244.2.471.2h5.51c.193,0,.338-.052.436-.155.096-.104.145-.338.145-.705,0-.087.053-.13.16-.13.086,0,.13.043.13.13,0,.06-.003.23-.011.51-.006.28-.01.6-.01.96,0,.24.002.467.006.68.003.213.006.395.01.545.003.15.005.242.005.275,0,.093-.044.14-.13.14-.107,0-.16-.047-.16-.14,0-.367-.049-.608-.145-.725-.098-.117-.242-.175-.436-.175h-5.891c-.133,0-.199.07-.199.21v1.55c0,.327.094.615.279.865.188.25.419.463.695.64.277.177.549.315.815.415.054.02.089.046.104.08.018.033.021.063.016.09-.007.053-.025.086-.055.1-.031.013-.062.02-.096.02h-.25c-.146,0-.322-.002-.525-.005-.203-.003-.398-.007-.584-.01-.188-.003-.327-.008-.42-.015-.088-.006-.157-.033-.211-.08-.053-.047-.08-.117-.08-.21,0-.046.002-.17.006-.37.003-.2.004-.5.004-.9v-3.05c0-.427,0-.769-.004-1.025-.004-.257-.006-.409-.006-.455Z"/>
    <path class="st1" d="M27.653,37.932c0-.087.044-.13.131-.13.105,0,.16.043.16.13,0,.233.041.417.125.55.082.133.241.253.475.36.106.053.287.131.54.235.253.103.556.223.909.36s.73.282,1.131.435.8.307,1.199.46c.4.153.771.295,1.115.425.344.13.639.24.885.33.247.09.414.152.5.185.087.033.145.072.17.115.027.043.041.118.041.225s-.014.183-.041.23c-.025.046-.083.086-.17.12-.133.053-.35.139-.649.255-.3.116-.647.251-1.04.405-.394.153-.805.313-1.234.48-.431.167-.85.328-1.256.485s-.775.298-1.105.425c-.329.126-.584.227-.764.3-.307.12-.522.249-.646.385-.124.136-.185.268-.185.395,0,.086-.055.13-.16.13-.087,0-.131-.043-.131-.13,0-.067.002-.204.006-.41.003-.207.004-.483.004-.83,0-.287,0-.56-.004-.82-.004-.26-.006-.424-.006-.49,0-.086.044-.13.131-.13.105,0,.16.043.16.13,0,.213.035.362.104.445.069.083.153.125.25.125s.179-.017.245-.05c.014-.007.071-.027.175-.06s.229-.075.38-.125c.15-.05.303-.102.46-.155.157-.054.296-.1.415-.14.073-.027.117-.053.131-.08.013-.026.02-.063.02-.11v-2.46c0-.034-.004-.06-.01-.08-.008-.02-.033-.037-.08-.05-.141-.034-.305-.082-.496-.145-.189-.063-.373-.119-.549-.165-.178-.047-.322-.07-.436-.07-.246,0-.41.062-.49.185s-.119.295-.119.515c0,.086-.055.13-.16.13-.087,0-.131-.043-.131-.13,0-.067.002-.192.006-.375.003-.184.004-.422.004-.715,0-.26,0-.49-.004-.69-.004-.2-.006-.337-.006-.41ZM30.454,40.082v2.17c0,.027.005.055.015.085.011.03.048.035.115.015.159-.053.354-.12.585-.2.23-.08.471-.167.725-.26s.496-.182.73-.265c.232-.083.437-.157.609-.22.174-.063.291-.105.351-.125.033-.014.054-.032.06-.055.007-.023-.006-.042-.039-.055-.047-.013-.162-.057-.346-.13s-.403-.162-.66-.265c-.256-.103-.52-.208-.79-.315-.271-.106-.513-.202-.729-.285-.217-.083-.375-.142-.475-.175-.101-.026-.15,0-.15.08Z"/>
    <path class="st1" d="M27.534,51.282c0-.64.14-1.21.42-1.71.279-.5.701-.894,1.265-1.18s1.265-.43,2.104-.43c.58,0,1.099.097,1.556.29.456.193.845.454,1.165.78.32.326.564.691.734,1.095s.256.818.256,1.245c0,.293-.042.57-.125.83-.084.26-.152.437-.205.53-.047.073-.068.138-.065.195.003.056.015.108.035.155.013.033.044.097.09.19.047.093.073.157.08.19.021.06.015.128-.015.205-.03.077-.086.115-.166.115h-1.819c-.067,0-.108-.045-.125-.135s.005-.148.065-.175c.312-.153.615-.327.904-.52.291-.193.529-.417.715-.67.188-.253.28-.557.28-.91,0-.247-.058-.488-.175-.725s-.307-.452-.57-.645-.609-.348-1.039-.465c-.431-.117-.955-.175-1.576-.175-.859,0-1.539.083-2.039.25-.5.167-.855.397-1.065.69-.21.293-.315.626-.315,1,0,.546.152.93.455,1.15.304.22.695.33,1.176.33h.439c.174,0,.307-.043.4-.13.094-.086.14-.28.14-.58,0-.047.015-.083.045-.11.03-.026.062-.04.095-.04.101,0,.15.05.15.15,0,.046-.004.141-.01.285-.007.144-.014.307-.02.49-.008.183-.011.358-.011.525,0,.253.007.506.021.76.013.253.02.423.02.51,0,.046-.014.088-.04.125s-.063.055-.11.055c-.039,0-.072-.019-.1-.055s-.04-.079-.04-.125c0-.187-.034-.34-.104-.46s-.226-.18-.465-.18c-.567,0-1.039.01-1.416.03s-.588.03-.635.03c-.073,0-.118-.039-.135-.115-.017-.077-.005-.132.035-.165.033-.027.092-.072.175-.135s.163-.124.24-.18c.076-.057.118-.092.125-.105.087-.086.09-.167.01-.24-.206-.173-.394-.414-.56-.72-.167-.307-.25-.68-.25-1.12Z"/>
    <path class="st1" d="M27.653,57.552c0-.087.054-.13.16-.13.087,0,.131.043.131.13,0,.373.046.625.14.755.093.13.25.195.47.195h5.48c.199,0,.35-.06.449-.18.101-.12.15-.36.15-.72,0-.087.05-.13.15-.13.086,0,.129.043.129.13,0,.053-.003.308-.01.765-.006.457-.01,1.128-.01,2.015,0,.84.004,1.477.01,1.91.007.433.01.68.01.74,0,.153-.076.233-.229.24-.06.013-.158.023-.295.03-.137.006-.282.013-.435.02-.154.006-.291.011-.41.015-.12.003-.197.005-.23.005-.026,0-.055-.006-.084-.02-.031-.014-.046-.043-.046-.09,0-.046.005-.082.015-.105.011-.023.039-.045.086-.065.18-.08.371-.182.574-.305.203-.123.379-.287.525-.49.146-.204.221-.468.221-.795v-1.55c0-.06-.014-.11-.041-.15-.026-.04-.083-.06-.17-.06h-2.74c-.026,0-.055.013-.084.04-.031.027-.045.057-.045.09v.51c0,.28.06.493.18.64.119.146.26.255.42.325.16.07.297.128.41.175.053.02.092.038.115.055.022.017.034.052.034.105,0,.047-.017.079-.05.095s-.066.025-.1.025c-.054,0-.148-.001-.285-.005s-.285-.007-.445-.01-.307-.005-.439-.005c-.127,0-.279.001-.455.005-.178.003-.337.007-.48.01s-.238.005-.285.005c-.1,0-.15-.04-.15-.12,0-.073.044-.123.131-.15.127-.047.275-.106.445-.18.17-.074.319-.184.449-.33.131-.147.195-.36.195-.64v-.51c0-.086-.051-.13-.15-.13h-2.89c-.127,0-.19.067-.19.2v1.35c0,.32.059.59.176.81.116.22.263.401.439.545.177.143.354.255.53.335s.325.14.444.18c.061.02.094.042.101.065.007.023.007.058,0,.105v.01c-.007.053-.023.083-.05.09-.027.007-.057.01-.09.01-.027,0-.11-.002-.25-.005-.141-.003-.303-.007-.485-.01-.184-.003-.354-.007-.511-.01-.156-.003-.264-.005-.324-.005-.087,0-.16-.025-.221-.075-.06-.05-.09-.122-.09-.215,0-.046.004-.15.01-.31.008-.16.012-.424.016-.79.004-.367.005-.88.005-1.54,0-.813-.005-1.482-.015-2.005-.01-.523-.016-.822-.016-.895Z"/>
    <path class="st1" d="M27.653,71.172c0-.1.047-.15.141-.15.1,0,.15.05.15.15,0,.28.016.486.049.62.033.133.096.222.186.265.09.043.215.065.375.065h5.48c.146,0,.263-.019.35-.055.086-.037.148-.124.186-.26.036-.137.055-.355.055-.655,0-.033.015-.063.045-.09.029-.027.062-.04.095-.04.101,0,.149.043.149.13,0,.06-.004.227-.014.5-.011.273-.016.633-.016,1.08,0,.553.005,1.028.016,1.425.01.396.014.715.014.955,0,.76-.173,1.35-.52,1.77s-.836.63-1.47.63c-.62,0-1.102-.175-1.444-.525-.344-.35-.516-.925-.516-1.725v-1.8c0-.08-.043-.12-.13-.12h-2.28c-.24,0-.402.073-.484.22-.084.146-.125.44-.125.88,0,.086-.051.13-.15.13-.094,0-.141-.043-.141-.13,0-.067.006-.252.016-.555s.015-.688.015-1.155c0-.447-.005-.802-.015-1.065-.01-.264-.016-.429-.016-.495ZM31.294,73.462v1.31c0,.433.15.77.449,1.01.301.24.693.36,1.181.36.307,0,.587-.045.84-.135s.456-.247.61-.47c.152-.224.23-.535.23-.935v-1.05c0-.06-.012-.11-.035-.15s-.082-.06-.176-.06h-2.97c-.026,0-.056.012-.085.035-.03.023-.045.051-.045.085Z"/>
    <path class="st1" d="M27.653,80.192c0-.087.054-.13.16-.13.087,0,.131.043.131.13,0,.373.046.625.14.755.093.13.25.195.47.195h5.48c.199,0,.35-.06.449-.18.101-.12.15-.36.15-.72,0-.087.05-.13.15-.13.086,0,.129.043.129.13,0,.053-.003.308-.01.765-.006.457-.01,1.128-.01,2.015,0,.84.004,1.477.01,1.91.007.433.01.68.01.74,0,.153-.076.233-.229.24-.06.013-.158.023-.295.03-.137.006-.282.013-.435.02-.154.006-.291.011-.41.015-.12.003-.197.005-.23.005-.026,0-.055-.006-.084-.02-.031-.014-.046-.043-.046-.09,0-.046.005-.082.015-.105.011-.023.039-.045.086-.065.18-.08.371-.182.574-.305.203-.123.379-.287.525-.49.146-.204.221-.468.221-.795v-1.55c0-.06-.014-.11-.041-.15-.026-.04-.083-.06-.17-.06h-2.74c-.026,0-.055.013-.084.04-.031.027-.045.057-.045.09v.51c0,.28.06.493.18.64.119.146.26.255.42.325.16.07.297.128.41.175.053.02.092.038.115.055.022.017.034.052.034.105,0,.047-.017.079-.05.095s-.066.025-.1.025c-.054,0-.148-.001-.285-.005s-.285-.007-.445-.01-.307-.005-.439-.005c-.127,0-.279.001-.455.005-.178.003-.337.007-.48.01s-.238.005-.285.005c-.1,0-.15-.04-.15-.12,0-.073.044-.123.131-.15.127-.047.275-.106.445-.18.17-.074.319-.184.449-.33.131-.147.195-.36.195-.64v-.51c0-.086-.051-.13-.15-.13h-2.89c-.127,0-.19.067-.19.2v1.35c0,.32.059.59.176.81.116.22.263.401.439.545.177.143.354.255.53.335s.325.14.444.18c.061.02.094.042.101.065.007.023.007.058,0,.105v.01c-.007.053-.023.083-.05.09-.027.007-.057.01-.09.01-.027,0-.11-.002-.25-.005-.141-.003-.303-.007-.485-.01-.184-.003-.354-.007-.511-.01-.156-.003-.264-.005-.324-.005-.087,0-.16-.025-.221-.075-.06-.05-.09-.122-.09-.215,0-.046.004-.15.01-.31.008-.16.012-.424.016-.79.004-.367.005-.88.005-1.54,0-.813-.005-1.482-.015-2.005-.01-.523-.016-.822-.016-.895Z"/>
    <path class="st1" d="M27.534,92.422c0-.647.156-1.219.47-1.715s.751-.885,1.315-1.165c.562-.28,1.218-.42,1.965-.42.76,0,1.42.146,1.979.44s.995.688,1.306,1.185c.31.497.465,1.055.465,1.675s-.155,1.178-.465,1.675c-.311.497-.746.892-1.306,1.185s-1.22.44-1.979.44c-.747,0-1.402-.142-1.965-.425-.564-.284-1.002-.672-1.315-1.165-.313-.494-.47-1.063-.47-1.71ZM27.903,92.422c0,.36.105.683.315.97s.562.513,1.056.68c.492.167,1.162.25,2.01.25.854,0,1.526-.083,2.02-.25.493-.167.847-.394,1.061-.68.213-.287.319-.61.319-.97s-.106-.684-.319-.97c-.214-.287-.567-.513-1.061-.68-.493-.167-1.166-.25-2.02-.25-.848,0-1.518.083-2.01.25-.494.167-.846.394-1.056.68s-.315.61-.315.97Z"/>
    <path class="st1" d="M27.653,98.792c0-.1.047-.15.141-.15.1,0,.15.05.15.15,0,.28.016.486.049.62.033.133.096.222.186.265.09.043.215.065.375.065h5.48c.146,0,.263-.019.35-.055.086-.037.148-.124.186-.26.036-.137.055-.355.055-.655,0-.033.015-.063.045-.09.029-.027.062-.04.095-.04.101,0,.149.043.149.13,0,.06-.004.227-.014.5-.011.273-.016.633-.016,1.08,0,.553.005,1.028.016,1.425.01.396.014.715.014.955,0,.76-.173,1.35-.52,1.77s-.836.63-1.47.63c-.62,0-1.102-.175-1.444-.525-.344-.35-.516-.925-.516-1.725v-1.8c0-.08-.043-.12-.13-.12h-2.28c-.24,0-.402.073-.484.22-.084.146-.125.44-.125.88,0,.086-.051.13-.15.13-.094,0-.141-.043-.141-.13,0-.067.006-.252.016-.555s.015-.688.015-1.155c0-.447-.005-.802-.015-1.065-.01-.264-.016-.429-.016-.495ZM31.294,101.082v1.31c0,.433.15.77.449,1.01.301.24.693.36,1.181.36.307,0,.587-.045.84-.135s.456-.247.61-.47c.152-.224.23-.535.23-.935v-1.05c0-.06-.012-.11-.035-.15s-.082-.06-.176-.06h-2.97c-.026,0-.056.012-.085.035-.03.023-.045.051-.045.085Z"/>
    <path class="st1" d="M27.653,107.821c0-.093.044-.14.131-.14.105,0,.16.047.16.14,0,.36.043.606.129.74.087.133.244.2.471.2h5.51c.193,0,.338-.052.436-.155.096-.104.145-.338.145-.705,0-.087.053-.13.16-.13.086,0,.13.043.13.13,0,.06-.003.23-.011.51-.006.28-.01.6-.01.96,0,.24.002.467.006.68.003.213.006.395.01.545.003.15.005.242.005.275,0,.093-.044.14-.13.14-.107,0-.16-.047-.16-.14,0-.367-.049-.608-.145-.725-.098-.117-.242-.175-.436-.175h-5.891c-.133,0-.199.07-.199.21v1.55c0,.327.094.615.279.865.188.25.419.463.695.64.277.177.549.315.815.415.054.02.089.046.104.08.018.033.021.063.016.09-.007.053-.025.086-.055.1-.031.013-.062.02-.096.02h-.25c-.146,0-.322-.002-.525-.005-.203-.003-.398-.007-.584-.01-.188-.003-.327-.008-.42-.015-.088-.006-.157-.033-.211-.08-.053-.047-.08-.117-.08-.21,0-.046.002-.17.006-.37.003-.2.004-.5.004-.9v-3.05c0-.427,0-.769-.004-1.025-.004-.257-.006-.409-.006-.455Z"/>
    <path class="st1" d="M27.653,116.652c0-.087.054-.13.16-.13.087,0,.131.043.131.13,0,.373.046.625.14.755.093.13.25.195.47.195h5.48c.199,0,.35-.06.449-.18.101-.12.15-.36.15-.72,0-.087.05-.13.15-.13.086,0,.129.043.129.13,0,.053-.003.308-.01.765-.006.457-.01,1.128-.01,2.015,0,.84.004,1.477.01,1.91.007.433.01.68.01.74,0,.153-.076.233-.229.24-.06.013-.158.023-.295.03-.137.006-.282.013-.435.02-.154.006-.291.011-.41.015-.12.003-.197.005-.23.005-.026,0-.055-.006-.084-.02-.031-.014-.046-.043-.046-.09,0-.046.005-.082.015-.105.011-.023.039-.045.086-.065.18-.08.371-.182.574-.305.203-.123.379-.287.525-.49.146-.204.221-.468.221-.795v-1.55c0-.06-.014-.11-.041-.15-.026-.04-.083-.06-.17-.06h-2.74c-.026,0-.055.013-.084.04-.031.027-.045.057-.045.09v.51c0,.28.06.493.18.64.119.146.26.255.42.325.16.07.297.128.41.175.053.02.092.038.115.055.022.017.034.052.034.105,0,.047-.017.079-.05.095s-.066.025-.1.025c-.054,0-.148-.001-.285-.005s-.285-.007-.445-.01-.307-.005-.439-.005c-.127,0-.279.001-.455.005-.178.003-.337.007-.48.01s-.238.005-.285.005c-.1,0-.15-.04-.15-.12,0-.073.044-.123.131-.15.127-.047.275-.106.445-.18.17-.074.319-.184.449-.33.131-.147.195-.36.195-.64v-.51c0-.086-.051-.13-.15-.13h-2.89c-.127,0-.19.067-.19.2v1.35c0,.32.059.59.176.81.116.22.263.401.439.545.177.143.354.255.53.335s.325.14.444.18c.061.02.094.042.101.065.007.023.007.058,0,.105v.01c-.007.053-.023.083-.05.09-.027.007-.057.01-.09.01-.027,0-.11-.002-.25-.005-.141-.003-.303-.007-.485-.01-.184-.003-.354-.007-.511-.01-.156-.003-.264-.005-.324-.005-.087,0-.16-.025-.221-.075-.06-.05-.09-.122-.09-.215,0-.046.004-.15.01-.31.008-.16.012-.424.016-.79.004-.367.005-.88.005-1.54,0-.813-.005-1.482-.015-2.005-.01-.523-.016-.822-.016-.895Z"/>
  </g>
</svg>