<?xml version="1.0" encoding="UTF-8"?>
<svg id="_レイヤー_1" data-name="レイヤー_1" xmlns="http://www.w3.org/2000/svg" version="1.1" viewBox="0 0 146 226">
  <!-- Generator: Adobe Illustrator 29.0.1, SVG Export Plug-In . SVG Version: 2.1.0 Build 192)  -->
  <defs>
    <style>
      .st0 {
        fill: #141414;
      }

      .st1 {
        fill: #9c8334;
      }
    </style>
  </defs>
  <g>
    <path class="st0" d="M86.157,35.626c-.48-.224-.608-.56-.384-1.008,2.367-1.152,4.704-2.631,7.008-4.44,2.304-1.807,4.456-3.847,6.456-6.12,1.999-2.272,3.76-4.72,5.28-7.344,1.52-2.624,2.68-5.328,3.479-8.112.288-.992-.032-1.472-.96-1.44-1.856.128-3.72.328-5.592.6-1.872.272-3.545.569-5.016.888-1.473.32-2.593.672-3.36,1.056-.864.416-1.608.768-2.232,1.056-.624.288-1.224.432-1.8.432-.448,0-.936-.175-1.464-.528-.528-.352-1.024-.768-1.488-1.248s-.84-.928-1.128-1.344c-.353-.48-.552-1.015-.6-1.608-.048-.592.007-1.096.168-1.512.288-.384.607-.432.96-.144.447.608,1.048.952,1.8,1.032.752.081,1.992.056,3.72-.072.704-.064,1.72-.16,3.048-.288,1.328-.127,2.761-.271,4.297-.432,1.535-.16,2.983-.304,4.344-.432,1.359-.127,2.407-.223,3.144-.288.64-.064,1.2-.184,1.681-.36.479-.175.912-.472,1.296-.888.319-.352.655-.52,1.008-.504.352.016.672.12.96.312.384.257.88.6,1.488,1.032.607.432,1.199.864,1.775,1.296.576.432.992.792,1.248,1.08.448.417.616.856.504,1.32-.112.464-.407.84-.888,1.128-.576.353-.977.72-1.2,1.104-.224.384-.56,1.088-1.008,2.112-1.312,3.168-2.96,6.024-4.944,8.568s-4.168,4.792-6.552,6.744c-2.384,1.952-4.864,3.617-7.439,4.992-2.577,1.376-5.112,2.496-7.608,3.36Z"/>
    <path class="st0" d="M106.557,66.011c-.385-.031-.792-.255-1.225-.672-.432-.416-.776-.919-1.032-1.512-.256-.592-.336-1.144-.239-1.656.096-.448.199-1.288.312-2.52.112-1.231.199-2.712.264-4.44s.097-3.52.097-5.376v-.792c0-.24-.017-.456-.048-.648-1.952,1.792-4.017,3.424-6.192,4.896-2.177,1.472-4.256,2.672-6.24,3.6-.353-.16-.479-.4-.384-.72,1.312-.896,2.704-2.016,4.176-3.36,1.472-1.344,2.904-2.8,4.296-4.368,1.393-1.567,2.672-3.168,3.841-4.8,1.167-1.632,2.088-3.2,2.76-4.704.256-.607.304-1.056.144-1.344-.064-.16-.168-.279-.312-.36-.145-.08-.297-.168-.456-.264-.192-.288-.129-.496.191-.624.608-.064,1.297.008,2.064.216.768.208,1.495.488,2.184.84.688.353,1.177.752,1.465,1.2.223.32.312.641.264.96-.048.32-.232.576-.552.768-.32.192-.633.448-.937.768-.305.32-.536.608-.696.864-.512.8-1.088,1.592-1.728,2.376-.641.785-1.312,1.544-2.016,2.28.672.192,1.216.48,1.632.864.319.32.352.752.096,1.296-.096.225-.185.544-.264.96-.08.417-.12,1.056-.12,1.92,0,1.184.023,2.464.072,3.84.048,1.376.104,2.688.168,3.936.063,1.248.119,2.312.168,3.192.048.88.071,1.416.071,1.608,0,.512-.185.944-.552,1.296-.368.353-.792.513-1.271.48Z"/>
    <path class="st0" d="M100.317,114.922c-.416,0-.864-.161-1.344-.48-.48-.32-.889-.737-1.225-1.248-.336-.512-.488-1.056-.456-1.632.064-.96.16-3.127.288-6.504.128-3.375.192-7.624.192-12.744v-8.88c0-2.271-.032-4-.097-5.184-.064-1.183-.176-2.023-.336-2.52-.16-.496-.496-.792-1.008-.888-.16-.064-.256-.216-.288-.456-.032-.24.048-.424.24-.552.256-.16.584-.288.984-.384.399-.096.808-.127,1.224-.096,1.312.064,2.688.688,4.128,1.872.703.608.784,1.361.24,2.256-.225.32-.4.712-.528,1.176-.128.464-.224,1.128-.288,1.992-.064.864-.112,2.032-.144,3.504v5.664c0,3.872.048,7.392.144,10.56.097,3.168.192,5.768.288,7.8.097,2.032.145,3.288.145,3.768,0,.991-.225,1.735-.672,2.232-.449.496-.944.744-1.488.744Z"/>
    <path class="st0" d="M79.101,148.474c-.48-.16-.672-.463-.576-.912,2.655-1.984,4.928-4.672,6.815-8.064,1.888-3.392,3.136-7.423,3.744-12.096.097-.864.08-1.495-.048-1.896-.128-.399-.512-.664-1.152-.792-.319-.384-.287-.703.097-.96.831-.288,1.888-.336,3.168-.144,1.279.192,2.527.833,3.744,1.92.288.256.456.568.504.936.048.368-.072.728-.36,1.08-.288.32-.521.632-.696.936-.176.305-.344.776-.504,1.416-.8,3.264-1.904,6.064-3.312,8.4-1.408,2.336-3.072,4.32-4.992,5.952-1.92,1.632-4.064,3.041-6.432,4.224ZM102.43,144.826c-.545-.32-1.193-.784-1.944-1.392-.752-.607-1.305-1.12-1.656-1.536-.479-.607-.561-1.184-.24-1.728.064-.16.136-.367.217-.624.079-.255.151-.528.216-.816.096-.448.184-1.2.264-2.256.079-1.056.145-2.304.192-3.744s.071-2.912.071-4.416c.032-1.567.032-2.719,0-3.456-.032-.735-.16-1.359-.384-1.872-.128-.256-.336-.512-.624-.768-.288-.256-.656-.4-1.104-.432-.353-.352-.353-.672,0-.96.576-.256,1.287-.408,2.136-.456.848-.048,1.735.064,2.664.336.928.272,1.776.761,2.544,1.464.352.32.567.688.648,1.104.079.417-.009.8-.265,1.152-.479.704-.815,1.728-1.008,3.072-.128.896-.209,2.152-.24,3.768-.032,1.616-.048,3.512-.048,5.688,0,.512.136.816.408.912.271.096.664.048,1.176-.144,1.152-.448,2.416-1.087,3.792-1.92,1.376-.832,2.76-1.8,4.152-2.904,1.392-1.104,2.712-2.288,3.96-3.552,1.248-1.264,2.319-2.552,3.216-3.864.512-.096.816.096.912.576-.672,1.536-1.536,3.104-2.592,4.704-1.057,1.601-2.232,3.168-3.528,4.704-1.296,1.536-2.672,2.944-4.128,4.224-1.457,1.28-2.904,2.352-4.344,3.216-1.024.608-1.776,1.152-2.257,1.632-.319.353-.664.544-1.031.576-.368.032-.761-.064-1.176-.288Z"/>
    <path class="st0" d="M97.581,192.395c-.512,0-1.056-.257-1.632-.768-.576-.512-1.032-1.145-1.368-1.896s-.456-1.448-.359-2.088c.096-.607.191-1.656.287-3.144.097-1.488.185-3.28.265-5.376.079-2.096.144-4.368.191-6.816.049-2.448.072-4.92.072-7.416v-2.352c0-1.568-.008-2.808-.023-3.72-.017-.912-.057-1.656-.12-2.232-.032-.928-.168-1.591-.408-1.992-.24-.399-.761-.664-1.561-.792-.32-.384-.304-.72.049-1.008,1.023-.288,2.159-.336,3.407-.144s2.512.736,3.792,1.632c.385.288.624.648.721,1.08.096.432-.017.84-.336,1.224-.257.32-.465.856-.624,1.608-.161.752-.272,1.841-.336,3.264-.065,1.424-.113,3.304-.145,5.64,1.76.128,3.544.392,5.353.792,1.807.4,3.432.984,4.871,1.752,1.44.768,2.496,1.792,3.168,3.072.641,1.217.809,2.304.505,3.264-.305.96-.809,1.616-1.513,1.968-.512.257-1.024.336-1.536.24-.512-.096-.928-.4-1.248-.912-1.344-2.304-2.783-4.152-4.319-5.544s-3.297-2.392-5.28-3v.384c0,2.145.024,4.361.072,6.648.048,2.289.111,4.433.191,6.432.08,2,.145,3.672.192,5.016.048,1.344.072,2.144.072,2.4,0,.736-.24,1.384-.721,1.944-.479.56-1.04.84-1.68.84ZM114.381,163.595c-.353.161-.712.168-1.08.024-.368-.144-.68-.424-.936-.84-.576-1.12-1.296-2.208-2.16-3.264-.864-1.056-1.824-1.936-2.88-2.64-.096-.416.048-.688.432-.816.928.096,1.888.344,2.88.744.992.401,1.896.888,2.713,1.464.815.576,1.384,1.2,1.703,1.872.385.8.488,1.512.312,2.136-.177.624-.504,1.064-.984,1.32ZM119.085,157.979c-.32.256-.688.376-1.104.36-.416-.016-.801-.216-1.152-.6-.864-.928-1.816-1.744-2.855-2.448-1.041-.704-2.169-1.248-3.385-1.632-.224-.415-.16-.735.192-.96.864-.096,1.8-.087,2.808.024,1.009.112,1.969.312,2.88.6.912.288,1.64.672,2.185,1.152.64.576.968,1.224.983,1.944.017.72-.168,1.241-.552,1.56Z"/>
    <path class="st0" d="M35.983,34.79c-.706,0-1.059-.322-1.059-.966,0-.276.023-1.15.069-2.622.046-1.472.092-3.358.138-5.658s.069-4.814.069-7.544c0-4.109-.138-6.578-.414-7.406-.031-.184-.016-.306.046-.368.122-.123.276-.153.46-.092.276.062.736.215,1.38.46.645.246,1.312.499,2.001.759.69.261,1.249.499,1.679.713h2.99v-7.038h-12.834c-1.012,0-1.901.016-2.668.046-.767.031-1.549.092-2.346.184l-.552-1.978c1.533.184,3.388.307,5.565.368h27.232c.275,0,.498-.023.667-.069.168-.046.329-.176.482-.391.153-.184.353-.444.599-.782.245-.337.498-.682.759-1.035.26-.353.452-.59.575-.713.245-.368.598-.444,1.058-.23.43.184.95.499,1.564.943.612.445,1.195.905,1.748,1.38.552.476.95.851,1.195,1.127.215.246.276.499.185.759-.092.261-.261.391-.506.391h-17.803v7.038h2.668c.245,0,.43-.107.553-.322.092-.153.214-.368.367-.644.153-.276.292-.521.414-.736.185-.276.43-.352.736-.23.398.123.904.315,1.519.575.612.261,1.226.529,1.84.805.612.276,1.104.537,1.472.782.214.123.314.315.299.575-.016.261-.146.468-.391.621-.092.062-.177.115-.253.161-.077.046-.146.1-.207.161-.308.184-.506.384-.599.598-.092.215-.138.491-.138.828v3.634c0,1.595.016,3.174.046,4.738s.054,2.998.069,4.301c.015,1.304.038,2.369.069,3.197.029.828.046,1.334.046,1.518,0,.307-.207.568-.621.782-.414.215-.937.384-1.564.506-.629.123-1.25.184-1.863.184-.705,0-1.058-.337-1.058-1.012v-1.886h-11.729v2.116c0,.307-.207.568-.621.782-.414.215-.92.384-1.519.506-.598.123-1.204.184-1.816.184ZM28.117,41.69c-.767,0-1.15-.353-1.15-1.058,0-.123.016-.698.046-1.725.03-1.027.069-2.369.115-4.025.046-1.656.084-3.519.115-5.589.03-2.07.046-4.209.046-6.417v-9.614c0-.981-.039-1.763-.115-2.346-.077-.582-.177-.981-.299-1.196-.092-.276-.092-.46,0-.552.092-.122.245-.184.46-.184.398,0,1.02.046,1.863.138.843.092,1.686.2,2.529.322.844.123,1.449.23,1.817.322.368.092.521.337.46.736-.031.368-.246.583-.644.644-.614.092-.92.384-.92.874v25.116h26.771V13.216c0-.981-.039-1.763-.115-2.346s-.177-.981-.299-1.196c-.092-.245-.092-.429,0-.552.122-.123.276-.184.46-.184.398,0,1.02.054,1.863.161.843.107,1.687.215,2.53.322.843.108,1.448.207,1.816.299.215.031.353.123.414.276.062.154.092.307.092.46-.03.368-.261.583-.689.644-.614.092-.92.384-.92.874v5.474c0,2.791.022,5.451.068,7.981.047,2.53.1,4.807.161,6.831s.115,3.688.161,4.991.069,2.123.069,2.461-.23.628-.69.874c-.46.245-1.027.429-1.702.552s-1.35.184-2.023.184c-.798,0-1.196-.353-1.196-1.058v-1.748h-26.771v1.61c0,.306-.224.582-.667.828-.445.245-.997.429-1.656.552-.66.122-1.327.184-2.001.184ZM39.939,20.806h3.403v-7.36h-3.403v7.36ZM39.939,29.822h3.403v-7.636h-3.403v7.636ZM48.264,20.806h3.404v-7.36h-3.404v7.36ZM48.264,29.822h3.404v-7.636h-3.404v7.636Z"/>
    <path class="st0" d="M28.715,87.828c-.858,0-1.288-.414-1.288-1.242,0-.184.023-.859.069-2.024s.092-2.637.138-4.416c.046-1.778.092-3.68.139-5.704.046-2.024.068-3.971.068-5.842,0-3.25-.03-5.957-.092-8.119s-.184-3.503-.368-4.025c-.062-.153-.046-.276.046-.368.122-.122.276-.153.46-.092.368.092.904.276,1.61.552.705.276,1.449.568,2.23.874.782.307,1.465.583,2.048.828h6.025c.245-.95.468-2.093.667-3.427s.36-2.599.483-3.795h-10.396c-1.012,0-1.901.016-2.668.046-.767.031-1.549.092-2.346.184l-.552-1.978c1.502.184,3.342.307,5.52.368h27.462c.276,0,.49-.023.645-.069.153-.046.306-.161.46-.345.122-.184.313-.452.575-.805.26-.352.521-.705.781-1.058s.452-.59.575-.713c.245-.368.613-.444,1.104-.23.429.184.942.491,1.541.92.598.43,1.173.874,1.725,1.334s.95.859,1.196,1.196c.214.276.275.537.184.782-.092.246-.261.368-.506.368h-17.204c-1.043,1.319-2.185,2.622-3.427,3.91s-2.385,2.392-3.427,3.312h14.903c.338,0,.582-.122.736-.368.062-.153.207-.406.437-.759.23-.353.406-.636.529-.851.215-.368.521-.46.92-.276.43.154.966.384,1.61.69.644.307,1.272.614,1.886.92.613.307,1.088.568,1.426.782.398.215.567.537.507.966-.062.43-.322.721-.782.874-.185.031-.354.108-.506.23-.399.215-.599.66-.599,1.334v2.346c0,1.687.016,3.496.046,5.428s.069,3.834.115,5.704c.046,1.871.092,3.581.138,5.129.047,1.549.085,2.806.115,3.772s.046,1.51.046,1.633c0,.337-.237.644-.713.92-.476.276-1.073.483-1.794.621-.721.138-1.434.207-2.139.207-.828,0-1.242-.384-1.242-1.15v-1.242h-24.426v.874c0,.368-.238.682-.713.943-.477.26-1.074.467-1.794.621-.722.153-1.449.23-2.186.23ZM33.407,83.78h4.416v-24.15h-4.416v24.15ZM43.113,66.438h5.014v-6.808h-5.014v6.808ZM43.113,74.672h5.014v-6.854h-5.014v6.854ZM43.113,83.78h5.014v-7.728h-5.014v7.728ZM53.371,83.78h4.462v-24.15h-4.462v24.15Z"/>
    <path class="st0" d="M44.308,130.792c-.153-.154-.237-.33-.253-.529-.016-.199.038-.36.161-.483,3.036-.46,5.665-1.502,7.89-3.128,2.223-1.625,3.939-3.657,5.151-6.095,1.211-2.438,1.802-5.083,1.771-7.935-.031-2.974-.599-5.527-1.702-7.659-1.104-2.131-2.653-3.772-4.646-4.922s-4.37-1.709-7.13-1.679c.675.798,1.119,1.733,1.334,2.806.215,1.074.261,2.285.139,3.634-.185,2.484-.591,4.823-1.22,7.015-.629,2.193-1.388,4.179-2.276,5.957-.891,1.779-1.811,3.32-2.761,4.623-.95,1.304-1.84,2.323-2.668,3.059-.95.828-1.939,1.304-2.967,1.426-1.027.123-1.985-.398-2.875-1.564-.491-.674-1.02-1.295-1.587-1.863-.567-.567-1.097-1.18-1.587-1.84-.491-.659-.897-1.433-1.219-2.323-.322-.889-.499-1.978-.529-3.266-.062-2.606.368-5.06,1.288-7.36.92-2.3,2.215-4.331,3.887-6.095,1.671-1.763,3.611-3.174,5.819-4.232s4.569-1.648,7.084-1.771c2.637-.122,5.105.207,7.406.989,2.3.782,4.315,1.925,6.049,3.427,1.732,1.503,3.082,3.274,4.048,5.313.966,2.04,1.449,4.271,1.449,6.693,0,3.282-.775,6.226-2.323,8.832-1.549,2.607-3.818,4.7-6.808,6.279-2.99,1.58-6.632,2.476-10.926,2.691ZM36.167,120.718c.674-.46,1.434-1.257,2.277-2.392.843-1.134,1.655-2.507,2.438-4.117s1.464-3.373,2.047-5.29c.582-1.916.966-3.887,1.15-5.911,0-.061.015-.153.046-.276.062-.981.107-1.809.138-2.484.03-.674-.046-1.272-.229-1.794-1.81.215-3.481.821-5.015,1.817-1.533.997-2.867,2.285-4.002,3.864-1.135,1.58-1.993,3.389-2.575,5.428-.583,2.04-.828,4.225-.736,6.555.092,1.84.368,3.159.828,3.956.46.798,1.019,1.219,1.679,1.265.659.046,1.312-.161,1.955-.621Z"/>
    <path class="st0" d="M24.529,179.736c-.154-.123-.246-.276-.276-.46-.031-.184.016-.338.138-.46,2.668-.522,4.991-1.403,6.97-2.645,1.978-1.242,3.595-2.944,4.853-5.106,1.257-2.162,2.162-4.899,2.714-8.211h-1.702v1.104c0,.583-.452,1.043-1.356,1.38-.905.338-1.955.506-3.151.506-.92,0-1.38-.429-1.38-1.288,0-.245.038-1.111.115-2.599.076-1.487.153-3.442.229-5.865.076-2.422.115-5.167.115-8.234,0-2.913-.031-5.075-.092-6.486-.062-1.41-.169-2.315-.322-2.714-.062-.214-.016-.368.139-.46.092-.092.229-.107.413-.046.368.092.912.276,1.634.552.72.276,1.472.575,2.254.897.782.322,1.433.606,1.955.851h14.766c.368,0,.659-.153.874-.46.092-.153.23-.398.414-.736.184-.337.337-.613.46-.828.184-.368.536-.46,1.058-.276.43.123.967.33,1.61.621.644.292,1.288.591,1.932.897.645.307,1.165.583,1.564.828.368.215.529.529.483.943-.047.414-.3.713-.76.897-.123.062-.229.108-.321.138-.338.184-.568.384-.69.598-.123.215-.184.583-.184,1.104v1.472c0,1.319.015,2.745.046,4.278.03,1.534.068,3.052.114,4.554.047,1.503.093,2.883.139,4.14.046,1.258.084,2.292.115,3.105.029.813.046,1.281.046,1.403,0,.583-.468,1.051-1.403,1.403-.936.353-1.986.529-3.151.529-.95,0-1.426-.429-1.426-1.288v-.92h-1.61v9.936c0,.736.461,1.15,1.381,1.242.582.031,1.317.039,2.208.023.889-.015,1.786-.053,2.69-.115.904-.061,1.648-.153,2.231-.276.521-.123.927-.283,1.219-.483.291-.199.529-.56.713-1.081.122-.368.299-.897.529-1.587.229-.69.475-1.426.735-2.208.261-.782.49-1.487.69-2.116.199-.628.329-1.05.391-1.265.153-.122.322-.161.507-.115.184.046.321.146.413.299-.03.215-.076.652-.138,1.311-.062.66-.123,1.38-.184,2.162-.062.782-.123,1.495-.185,2.139-.062.644-.107,1.089-.138,1.334-.031.522.199.874.69,1.058.582.215,1.034.522,1.356.92.322.399.483.936.483,1.61s-.223,1.265-.667,1.771c-.445.506-1.266.881-2.461,1.127-.859.184-1.948.337-3.267.46-1.318.122-2.698.207-4.14.253s-2.806.069-4.094.069-2.331-.031-3.128-.092c-1.043-.092-1.833-.353-2.369-.782-.537-.43-.806-1.089-.806-1.978v-13.616h-2.023c-.645,3.374-1.595,6.126-2.853,8.257-1.258,2.132-2.768,3.795-4.53,4.991-1.764,1.196-3.711,2.054-5.843,2.576s-4.378.874-6.738,1.058ZM37.224,147.26h16.238v-5.428h-16.238v5.428ZM37.224,154.206h16.238v-5.566h-16.238v5.566ZM37.224,161.474h16.238v-5.888h-16.238v5.888Z"/>
    <path class="st0" d="M25.31,225.69c-.46-.184-.582-.476-.367-.874,3.312-1.779,5.987-4.04,8.026-6.785,2.039-2.744,3.572-6.064,4.601-9.959,1.026-3.894,1.679-8.448,1.955-13.662h-8.925c-1.012,0-1.901.023-2.668.069s-1.549.115-2.346.207l-.552-2.024c1.502.184,3.357.307,5.565.368h10.719v-4.002c0-1.134-.046-2.031-.139-2.691-.092-.659-.199-1.127-.321-1.403-.093-.214-.108-.414-.046-.598.092-.153.275-.23.552-.23.337,0,.828.039,1.472.115.645.077,1.341.161,2.093.253.751.092,1.449.184,2.094.276.644.092,1.119.184,1.426.276.429.092.613.368.552.828-.031.43-.292.675-.782.736-.705.092-1.058.43-1.058,1.012v5.428h9.706c.306,0,.544-.023.713-.069.168-.046.329-.176.483-.391.152-.184.375-.475.667-.874.291-.398.582-.789.874-1.173.291-.383.498-.651.62-.805.276-.398.675-.49,1.196-.276.49.184,1.073.522,1.748,1.012.674.491,1.318.989,1.932,1.495.613.506,1.059.897,1.334,1.173.245.276.314.56.207.851s-.299.437-.574.437h-20.7c-.154,2.454-.384,4.738-.69,6.854h8.648c.368,0,.644-.138.828-.414.184-.276.359-.536.528-.782.169-.245.346-.506.529-.782.245-.368.582-.46,1.012-.276.46.154,1.035.414,1.726.782.689.368,1.372.744,2.047,1.127.674.384,1.211.713,1.61.989.306.215.437.529.391.943s-.238.667-.575.759c-.307.092-.583.184-.828.276-.368.123-.637.307-.805.552-.169.246-.284.614-.345,1.104-.276,3.466-.667,6.379-1.174,8.74-.506,2.362-1.127,4.278-1.862,5.75-.736,1.472-1.61,2.599-2.622,3.381-1.012.782-2.162,1.334-3.45,1.656-1.288.322-2.729.529-4.324.621,0-1.411-.169-2.5-.506-3.266-.338-.766-.904-1.38-1.702-1.84s-1.901-.874-3.312-1.242c-.185-.398-.092-.705.275-.92.398.062,1.035.154,1.909.276.874.123,1.786.23,2.737.322.95.092,1.717.138,2.3.138.736,0,1.418-.199,2.047-.598.629-.398,1.211-1.165,1.748-2.3.536-1.134,1.004-2.798,1.403-4.991.398-2.192.736-5.067,1.012-8.625h-9.521c-1.166,6.042-3.312,10.902-6.44,14.582-3.128,3.68-7.345,6.501-12.65,8.464Z"/>
  </g>
  <g>
    <path class="st1" d="M1.862,5.806c0-.087.054-.13.16-.13.087,0,.131.043.131.13,0,.406.046.67.14.79.093.12.25.18.47.18h5.48c.119,0,.225-.017.314-.05s.16-.118.21-.255.075-.368.075-.695c0-.087.05-.13.15-.13.086,0,.129.043.129.13,0,.061-.003.354-.01.88-.006.527-.01,1.23-.01,2.11,0,.84.004,1.485.01,1.935.007.45.01.698.01.745,0,.167-.076.254-.229.261-.046,0-.146.005-.3.015s-.323.019-.51.025c-.188.006-.352.013-.495.02s-.229.01-.255.01c-.02,0-.047-.005-.08-.015s-.051-.038-.051-.085.006-.084.016-.11.041-.054.096-.08c.105-.047.242-.109.409-.189s.333-.182.5-.306c.167-.123.307-.273.42-.449.113-.177.171-.389.171-.636v-1.71c0-.06-.014-.109-.041-.149-.026-.04-.083-.061-.17-.061h-2.689c-.08,0-.12.044-.12.13v.62c0,.273.056.483.17.63.113.146.248.259.405.335.156.077.305.142.445.195.039.014.07.03.094.05.023.021.035.054.035.101,0,.046-.016.078-.05.095-.033.017-.069.025-.11.025-.047,0-.138-.002-.274-.006-.137-.003-.286-.006-.45-.01-.163-.003-.312-.005-.445-.005h-1.22c-.033,0-.066-.005-.1-.015-.034-.01-.05-.039-.05-.085,0-.047.013-.08.039-.101.027-.02.064-.04.11-.06.12-.047.264-.106.431-.18.166-.074.314-.184.444-.33.13-.147.195-.36.195-.641v-.62c0-.033-.015-.063-.045-.09s-.062-.04-.095-.04h-2.561c-.146,0-.266.023-.355.07s-.154.146-.194.3-.06.387-.06.7c0,.087-.044.13-.131.13-.106,0-.16-.043-.16-.13,0-.066.006-.259.016-.575s.015-.682.015-1.095c0-.42-.005-.771-.015-1.055-.01-.284-.016-.459-.016-.525Z"/>
    <path class="st1" d="M1.862,14.356c0-.087.054-.13.16-.13.087,0,.131.043.131.13,0,.347.036.597.109.75s.23.23.471.23h5.539c.221,0,.37-.072.45-.216.08-.143.12-.398.12-.765,0-.087.047-.13.141-.13.093,0,.139.043.139.13,0,.113-.003.262-.01.445-.006.183-.012.378-.015.585-.003.206-.005.396-.005.569,0,.167.002.355.005.565s.009.41.015.6c.007.19.01.339.01.445,0,.1-.046.15-.139.15-.094,0-.141-.051-.141-.15,0-.354-.04-.604-.12-.755s-.229-.225-.45-.225H2.733c-.24,0-.397.079-.471.239s-.109.407-.109.74c0,.1-.044.15-.131.15-.106,0-.16-.051-.16-.15,0-.106.004-.255.01-.445.008-.189.014-.39.021-.6s.011-.398.011-.565c0-.173-.004-.363-.011-.569-.007-.207-.013-.402-.021-.585-.006-.184-.01-.332-.01-.445Z"/>
    <path class="st1" d="M1.862,20.507c0-.087.054-.131.16-.131.087,0,.131.044.131.131,0,.373.046.625.14.755.093.13.25.194.47.194h5.48c.199,0,.35-.06.449-.18.101-.12.15-.36.15-.72,0-.087.05-.13.15-.13.086,0,.129.043.129.13,0,.053-.003.308-.01.765-.006.457-.01,1.128-.01,2.015,0,.841.004,1.477.01,1.91.007.434.01.681.01.74,0,.153-.076.233-.229.24-.06.013-.158.023-.295.03-.137.006-.282.013-.435.02-.154.007-.291.012-.41.015-.12.004-.197.005-.23.005-.026,0-.055-.006-.084-.02-.031-.014-.046-.043-.046-.09s.005-.082.015-.105c.011-.023.039-.045.086-.064.18-.08.371-.182.574-.306.203-.123.379-.286.525-.489.146-.204.221-.469.221-.795v-1.551c0-.06-.014-.109-.041-.149-.026-.04-.083-.061-.17-.061h-2.74c-.026,0-.055.014-.084.04-.031.027-.045.057-.045.09v.511c0,.279.06.493.18.64.119.146.26.255.42.325s.297.128.41.175c.053.021.092.038.115.055.022.017.034.052.034.105,0,.047-.017.078-.05.095s-.066.025-.1.025c-.054,0-.148-.002-.285-.005-.137-.004-.285-.007-.445-.011-.16-.003-.307-.005-.439-.005-.127,0-.279.002-.455.005-.178.004-.337.007-.48.011-.144.003-.238.005-.285.005-.1,0-.15-.04-.15-.12,0-.073.044-.123.131-.15.127-.047.275-.106.445-.18s.319-.184.449-.33c.131-.146.195-.36.195-.64v-.511c0-.086-.051-.13-.15-.13h-2.89c-.127,0-.19.067-.19.2v1.351c0,.319.059.59.176.81.116.22.263.401.439.545s.354.255.53.335.325.14.444.18c.061.021.094.042.101.065s.007.059,0,.105v.01c-.007.053-.023.083-.05.09-.027.007-.057.01-.09.01-.027,0-.11-.002-.25-.005-.141-.003-.303-.007-.485-.01-.184-.004-.354-.007-.511-.01-.156-.004-.264-.006-.324-.006-.087,0-.16-.024-.221-.074-.06-.051-.09-.122-.09-.216,0-.046.004-.149.01-.31.008-.16.012-.424.016-.79s.005-.88.005-1.54c0-.813-.005-1.481-.015-2.005s-.016-.821-.016-.895Z"/>
    <path class="st1" d="M1.862,29.306c0-.094.044-.141.131-.141.105,0,.16.047.16.141,0,.359.043.606.129.74.087.133.244.199.471.199h5.51c.193,0,.338-.052.436-.154.096-.104.145-.339.145-.705,0-.087.053-.13.16-.13.086,0,.13.043.13.13,0,.06-.003.229-.011.51-.006.28-.01.6-.01.96,0,.24.002.467.006.68.003.214.006.396.01.545.003.15.005.242.005.275,0,.093-.044.14-.13.14-.107,0-.16-.047-.16-.14,0-.367-.049-.608-.145-.725-.098-.117-.242-.176-.436-.176H2.372c-.133,0-.199.07-.199.21v1.551c0,.326.094.614.279.864.188.25.419.464.695.641.277.177.549.314.815.415.054.02.089.046.104.08.018.033.021.062.016.09-.007.053-.025.086-.055.1-.031.014-.062.021-.096.021h-.25c-.146,0-.322-.002-.525-.005-.203-.004-.398-.007-.584-.011-.188-.003-.327-.008-.42-.015-.088-.007-.157-.033-.211-.08-.053-.047-.08-.117-.08-.21,0-.047.002-.17.006-.37.003-.2.004-.5.004-.9v-3.05c0-.427,0-.769-.004-1.024-.004-.257-.006-.409-.006-.455Z"/>
    <path class="st1" d="M1.862,38.126c0-.093.047-.14.141-.14s.14.047.14.14c0,.347.052.58.155.7s.255.18.455.18h5.49c.193,0,.342-.057.445-.17.103-.113.154-.356.154-.729,0-.087.047-.13.141-.13.093,0,.139.043.139.13,0,.06-.004.231-.014.515-.011.283-.016.615-.016.995,0,.44.005.788.016,1.045.01.257.014.452.014.585,0,.42-.064.83-.194,1.23-.13.399-.339.76-.625,1.08-.286.319-.661.574-1.125.765s-1.028.285-1.694.285c-.641,0-1.19-.095-1.65-.285-.461-.19-.836-.446-1.125-.771-.29-.323-.504-.683-.641-1.079-.137-.397-.205-.806-.205-1.226,0-.133.004-.33.01-.59.008-.26.011-.613.011-1.06,0-.374-.003-.695-.011-.966-.006-.27-.01-.438-.01-.505ZM2.173,40.426v.591c0,.272.051.54.154.8s.281.496.531.71c.25.213.588.383,1.014.51.428.127.964.19,1.611.19.673,0,1.227-.056,1.659-.165.434-.11.772-.262,1.015-.455.244-.193.414-.412.511-.655s.146-.498.146-.765v-.761c0-.046-.012-.091-.035-.135-.023-.043-.082-.064-.176-.064H2.372c-.146,0-.213.066-.199.199Z"/>
    <path class="st1" d="M1.743,55.265c0-.307.038-.597.115-.87.076-.273.158-.508.244-.704.087-.197.146-.336.18-.415.033-.067.047-.137.041-.21-.008-.074-.041-.137-.101-.19l-.01-.01c0-.007-.012-.022-.035-.045-.023-.023-.092-.096-.205-.216-.066-.066-.085-.13-.055-.189.03-.061.081-.09.155-.09h1.949c.08,0,.127.045.141.135s-.01.145-.07.165c-.373.127-.707.32-1,.58s-.521.571-.686.935c-.163.363-.244.755-.244,1.176,0,.346.07.628.209.845.141.217.318.378.535.484.217.107.432.16.646.16.286,0,.519-.08.694-.239.178-.16.32-.37.431-.631.11-.26.205-.548.285-.864.08-.317.167-.632.26-.945s.216-.6.365-.86c.149-.26.351-.47.601-.63s.567-.24.954-.24c.46,0,.845.112,1.155.335.311.224.545.522.705.896s.24.776.24,1.21c0,.22-.025.443-.075.67s-.11.437-.181.63c-.069.193-.135.34-.194.44-.087.16-.087.283,0,.37.066.066.123.136.17.21.054.053.065.109.034.17-.029.06-.088.09-.174.09h-1.711c-.086,0-.14-.042-.16-.125-.02-.084.014-.142.101-.175.327-.147.63-.332.91-.556.28-.223.507-.479.68-.77s.261-.608.261-.955c0-.287-.062-.54-.186-.76-.123-.221-.285-.394-.484-.521-.201-.126-.424-.189-.67-.189-.281,0-.504.081-.671.245-.167.163-.3.378-.399.645-.101.267-.188.562-.26.885-.074.323-.156.646-.246.965-.09.32-.211.613-.365.881-.152.267-.357.481-.614.645s-.592.245-1.005.245c-.474,0-.881-.113-1.221-.34s-.598-.537-.774-.931c-.177-.393-.265-.84-.265-1.34Z"/>
    <path class="st1" d="M1.743,64.315c0-.673.138-1.269.414-1.785.277-.517.691-.92,1.246-1.21.553-.29,1.242-.435,2.069-.435.807,0,1.49.155,2.05.465.561.31.986.725,1.28,1.245.294.52.44,1.093.44,1.72,0,.354-.066.665-.2.936-.134.27-.247.472-.341.604-.093.134-.1.254-.02.36.061.073.115.133.165.18s.089.09.115.13c.054.061.066.127.04.2-.027.073-.08.11-.16.11h-1.88c-.08,0-.13-.047-.149-.141-.021-.093.002-.156.069-.189.319-.127.635-.29.944-.49.311-.2.567-.44.771-.72.204-.28.306-.607.306-.98,0-.326-.119-.645-.355-.955-.236-.31-.607-.566-1.109-.77-.504-.204-1.159-.306-1.966-.306-.606,0-1.12.061-1.54.181s-.756.28-1.01.479c-.254.2-.438.426-.551.676s-.17.505-.17.765c0,.613.143,1.115.426,1.505s.708.719,1.275.985c.06.033.102.076.125.13.023.053.018.104-.016.149-.027.047-.063.082-.109.105-.047.023-.098.024-.15.005-.607-.233-1.094-.592-1.46-1.075s-.55-1.108-.55-1.875Z"/>
    <path class="st1" d="M1.782,75.265c0-.261.065-.472.195-.636.131-.163.302-.296.516-.399.213-.104.446-.188.699-.255.254-.067.507-.129.76-.186.254-.057.487-.125.701-.205.213-.08.385-.185.515-.314s.194-.302.194-.516v-.779c0-.087-.039-.13-.119-.13h-2.48c-.133,0-.246.018-.34.055-.094.036-.162.115-.205.235-.043.119-.064.303-.064.55,0,.086-.051.13-.15.13-.033,0-.064-.012-.096-.035-.029-.023-.045-.055-.045-.095,0-.067.006-.231.016-.495s.015-.578.015-.945c0-.347-.005-.645-.015-.895s-.016-.412-.016-.485c0-.087.047-.13.141-.13.1,0,.15.043.15.13,0,.247.023.424.069.53.047.106.115.173.205.2.09.026.202.04.335.04h5.48c.119,0,.223-.016.31-.045.087-.03.155-.098.205-.2.05-.104.075-.272.075-.505,0-.047.015-.082.045-.105.029-.023.062-.035.095-.035.101,0,.149.047.149.141,0,.046-.004.198-.014.455-.011.256-.016.558-.016.904,0,.554.005,1.014.016,1.38.01.367.014.67.014.91,0,.407-.061.778-.184,1.115-.124.337-.319.608-.586.815-.267.206-.617.31-1.05.31-.286,0-.53-.057-.729-.17-.201-.113-.365-.257-.496-.43-.129-.174-.234-.358-.314-.556-.08-.196-.144-.382-.189-.555-.021-.066-.047-.102-.08-.105-.033-.003-.057.009-.07.035-.08.247-.209.445-.385.596-.178.149-.377.268-.6.354-.225.087-.453.158-.686.215-.233.057-.449.111-.645.165-.197.054-.355.12-.476.2s-.181.19-.181.33c0,.06.016.12.045.18.031.061.082.123.156.19.039.033.066.063.08.09.013.026.002.06-.031.1-.025.033-.057.049-.09.045-.033-.003-.072-.015-.119-.034-.146-.067-.303-.202-.465-.405-.164-.203-.246-.455-.246-.755ZM5.692,71.975v.939c0,.493.134.87.4,1.13.267.261.67.391,1.21.391.446,0,.81-.108,1.09-.325s.421-.545.421-.985v-1.069c0-.054-.012-.102-.035-.146-.023-.043-.082-.064-.176-.064h-2.77c-.027,0-.057.013-.09.04-.033.026-.051.057-.051.09Z"/>
    <path class="st1" d="M1.862,79.195c0-.087.054-.13.16-.13.087,0,.131.043.131.13,0,.373.046.625.14.755.093.13.25.195.47.195h5.48c.199,0,.35-.061.449-.18.101-.12.15-.36.15-.721,0-.087.05-.13.15-.13.086,0,.129.043.129.13,0,.054-.003.309-.01.766-.006.456-.01,1.128-.01,2.015,0,.84.004,1.477.01,1.91.007.433.01.68.01.74,0,.153-.076.232-.229.239-.06.014-.158.023-.295.03s-.282.014-.435.021c-.154.006-.291.011-.41.015-.12.003-.197.005-.23.005-.026,0-.055-.007-.084-.02-.031-.014-.046-.044-.046-.091,0-.046.005-.081.015-.104.011-.023.039-.045.086-.065.18-.08.371-.182.574-.305s.379-.287.525-.49.221-.468.221-.795v-1.55c0-.061-.014-.11-.041-.15-.026-.04-.083-.06-.17-.06h-2.74c-.026,0-.055.013-.084.04-.031.026-.045.057-.045.09v.51c0,.28.06.493.18.641.119.146.26.255.42.324.16.07.297.129.41.176.053.02.092.038.115.055.022.017.034.052.034.104,0,.047-.017.079-.05.096s-.066.024-.1.024c-.054,0-.148,0-.285-.005-.137-.003-.285-.007-.445-.01-.16-.004-.307-.005-.439-.005-.127,0-.279,0-.455.005-.178.003-.337.007-.48.01-.144.004-.238.005-.285.005-.1,0-.15-.04-.15-.12,0-.073.044-.123.131-.149.127-.047.275-.106.445-.18.17-.074.319-.184.449-.33.131-.147.195-.36.195-.641v-.51c0-.087-.051-.13-.15-.13h-2.89c-.127,0-.19.066-.19.2v1.35c0,.32.059.59.176.811.116.22.263.401.439.545.177.143.354.255.53.335s.325.14.444.18c.061.02.094.042.101.065.007.022.007.058,0,.104v.01c-.007.054-.023.084-.05.09-.027.007-.057.011-.09.011-.027,0-.11-.002-.25-.005-.141-.004-.303-.007-.485-.011-.184-.003-.354-.007-.511-.01-.156-.003-.264-.005-.324-.005-.087,0-.16-.025-.221-.075-.06-.05-.09-.121-.09-.215,0-.047.004-.15.01-.31.008-.16.012-.424.016-.79.004-.367.005-.881.005-1.54,0-.813-.005-1.482-.015-2.005-.01-.523-.016-.822-.016-.896Z"/>
    <path class="st1" d="M1.862,87.985c0-.087.054-.13.16-.13.087,0,.131.043.131.13,0,.373.046.625.14.755.093.13.25.195.47.195h5.48c.199,0,.35-.061.449-.18.101-.12.15-.36.15-.721,0-.087.05-.13.15-.13.086,0,.129.043.129.13,0,.054-.003.309-.01.766-.006.456-.01,1.128-.01,2.015,0,.84.004,1.477.01,1.91.007.433.01.68.01.74,0,.153-.076.232-.229.239-.06.014-.158.023-.295.03s-.282.014-.435.021c-.154.006-.291.011-.41.015-.12.003-.197.005-.23.005-.026,0-.055-.007-.084-.02-.031-.014-.046-.044-.046-.091,0-.046.005-.081.015-.104.011-.023.039-.045.086-.065.18-.08.371-.182.574-.305s.379-.287.525-.49.221-.468.221-.795v-1.55c0-.061-.014-.11-.041-.15-.026-.04-.083-.06-.17-.06h-2.74c-.026,0-.055.013-.084.04-.031.026-.045.057-.045.09v.51c0,.28.06.493.18.641.119.146.26.255.42.324.16.07.297.129.41.176.053.02.092.038.115.055.022.017.034.052.034.104,0,.047-.017.079-.05.096s-.066.024-.1.024c-.054,0-.148,0-.285-.005-.137-.003-.285-.007-.445-.01-.16-.004-.307-.005-.439-.005-.127,0-.279,0-.455.005-.178.003-.337.007-.48.01-.144.004-.238.005-.285.005-.1,0-.15-.04-.15-.12,0-.073.044-.123.131-.149.127-.047.275-.106.445-.18.17-.074.319-.184.449-.33.131-.147.195-.36.195-.641v-.51c0-.087-.051-.13-.15-.13h-2.89c-.127,0-.19.066-.19.2v1.35c0,.32.059.59.176.811.116.22.263.401.439.545.177.143.354.255.53.335s.325.14.444.18c.061.02.094.042.101.065.007.022.007.058,0,.104v.01c-.007.054-.023.084-.05.09-.027.007-.057.011-.09.011-.027,0-.11-.002-.25-.005-.141-.004-.303-.007-.485-.011-.184-.003-.354-.007-.511-.01-.156-.003-.264-.005-.324-.005-.087,0-.16-.025-.221-.075-.06-.05-.09-.121-.09-.215,0-.047.004-.15.01-.31.008-.16.012-.424.016-.79.004-.367.005-.881.005-1.54,0-.813-.005-1.482-.015-2.005-.01-.523-.016-.822-.016-.896Z"/>
    <path class="st1" d="M1.833,102.565v-.13c-.007-.127-.004-.224.01-.29s.07-.127.17-.18c.141-.08.348-.204.625-.37.277-.167.597-.363.96-.59.363-.228.745-.466,1.146-.716.399-.25.793-.496,1.18-.739.387-.244.742-.469,1.064-.676.324-.206.594-.38.811-.52s.352-.227.404-.26c.014-.007.02-.022.016-.045-.004-.023-.021-.035-.055-.035H3.503c-.507,0-.858.098-1.055.295-.197.196-.295.428-.295.695,0,.033-.012.064-.035.095s-.059.045-.105.045-.084-.015-.109-.045c-.027-.03-.041-.062-.041-.095,0-.067.006-.204.016-.41.01-.207.015-.457.015-.75,0-.347-.005-.608-.015-.785s-.016-.302-.016-.375c0-.087.051-.13.15-.13.094,0,.141.043.141.13,0,.28.1.508.299.685.201.177.547.266,1.041.266h4.66c.239,0,.414-.054.524-.16s.165-.297.165-.57c0-.087.05-.13.15-.13.086,0,.129.043.129.13,0,.054-.003.231-.01.535-.006.304-.01.701-.01,1.195,0,.113-.017.196-.05.25-.033.053-.09.103-.17.149-.047.026-.173.106-.38.24s-.465.3-.775.5c-.31.2-.645.417-1.005.65s-.72.466-1.08.699-.693.448-1,.646c-.307.196-.558.36-.755.49s-.312.205-.345.225c-.06.04-.08.078-.06.115.02.036.057.055.109.055h3.891c.486,0,.834-.092,1.045-.274.209-.184.314-.436.314-.756,0-.086.05-.13.15-.13.086,0,.129.044.129.13,0,.073-.004.217-.014.431-.011.213-.016.467-.016.76,0,.286.005.533.016.74.01.206.014.343.014.41,0,.1-.043.149-.129.149-.101,0-.15-.05-.15-.149,0-.254-.102-.472-.305-.655s-.555-.275-1.055-.275h-3.801c-.354,0-.651.014-.895.04-.244.026-.473.047-.686.061-.073.006-.135-.019-.185-.075s-.079-.222-.085-.495Z"/>
  </g>
</svg>