<?xml version="1.0" encoding="UTF-8"?>
<svg id="_レイヤー_1" data-name="レイヤー_1" xmlns="http://www.w3.org/2000/svg" version="1.1" viewBox="0 0 146 92">
  <!-- Generator: Adobe Illustrator 29.0.1, SVG Export Plug-In . SVG Version: 2.1.0 Build 192)  -->
  <defs>
    <style>
      .st0 {
        fill: #141414;
      }

      .st1 {
        fill: #9c8334;
      }
    </style>
  </defs>
  <g>
    <path class="st0" d="M61.812,43.928c-.769,0-1.152-.353-1.152-1.056,0-.161.016-.608.048-1.344.032-.737.072-1.664.12-2.784.048-1.12.088-2.304.12-3.552h-4.608c-1.056,0-1.984.017-2.783.048-.801.032-1.616.096-2.448.192l-.576-2.112c1.567.192,3.504.32,5.808.384h4.656v-5.664h-3.023v1.104c0,.32-.225.6-.672.84-.449.24-1.009.425-1.681.552-.672.128-1.328.192-1.968.192-.768,0-1.152-.352-1.152-1.056,0-.128.016-.576.048-1.344s.072-1.72.12-2.856c.048-1.136.088-2.344.12-3.624.031-1.279.048-2.479.048-3.6,0-2.08-.032-3.568-.096-4.464-.064-.896-.176-1.584-.336-2.064-.032-.192.016-.352.144-.48.128-.127.288-.16.48-.096.384.096.903.256,1.56.48.656.224,1.328.464,2.017.72.688.256,1.271.497,1.752.72h10.032c.288,0,.527-.112.72-.336.127-.192.264-.399.408-.624.144-.223.312-.448.504-.672.096-.127.216-.216.359-.264.145-.048.328-.024.553.072.352.128.808.32,1.368.576.559.257,1.119.528,1.68.816.56.288,1,.544,1.32.768.255.192.375.464.359.816-.017.353-.185.608-.504.768-.257.128-.416.225-.479.288-.288.225-.449.641-.48,1.248l.384-.048,3.12-.336c-.257-3.168-.4-6.704-.432-10.608,0-1.568-.048-2.656-.145-3.264-.096-.607-.176-1.024-.239-1.248-.097-.127-.097-.271,0-.432.063-.16.207-.24.432-.24.512.032,1.191.104,2.04.216.848.113,1.68.24,2.496.384.815.144,1.416.28,1.8.408.415.096.592.353.528.768-.032.416-.257.656-.673.72-.287.032-.504.088-.647.168-.145.08-.216.264-.216.552-.129,2.336-.2,4.504-.216,6.504-.017,2,.023,3.849.119,5.544l3.505-.384c.287-.032.511-.08.672-.144.159-.063.304-.208.432-.432.16-.319.408-.799.744-1.44.336-.64.6-1.12.792-1.44.224-.416.576-.528,1.056-.336.704.32,1.52.809,2.448,1.464.928.656,1.615,1.224,2.064,1.704.255.256.352.521.287.792-.064.272-.224.424-.479.456l-11.472,1.2c.159,1.984.367,3.752.624,5.304.255,1.553.56,2.937.911,4.152.32-.799.616-1.632.889-2.496.271-.864.52-1.776.744-2.736.159-.607.247-1.12.264-1.536.016-.416.04-.72.072-.912,0-.352.207-.463.624-.336.224.064.688.208,1.392.432.703.225,1.447.464,2.232.72.783.256,1.399.48,1.848.672.319.128.448.384.384.768-.032.128-.112.256-.24.384s-.304.176-.527.144c-.32-.031-.545.048-.672.24-.129.192-.272.512-.433.96-.608,1.76-1.265,3.36-1.968,4.8-.704,1.44-1.473,2.769-2.304,3.984.415.608.848,1.152,1.296,1.632.447.48.912.944,1.392,1.392.544.448.984.672,1.32.672s.632-.256.888-.768c.224-.48.496-1.111.816-1.896.319-.784.64-1.576.96-2.376.319-.799.56-1.408.72-1.824.48-.224.8-.144.96.24-.064.32-.152.824-.264,1.512-.112.688-.225,1.424-.336,2.208-.112.784-.216,1.512-.312,2.184-.096.672-.16,1.152-.191,1.44-.097.736-.104,1.296-.024,1.68.08.384.36.848.84,1.392.448.544.68,1.16.696,1.848.016.688-.248,1.288-.792,1.8-.608.607-1.592.728-2.952.36-1.36-.368-2.696-1.048-4.008-2.04-.896-.705-1.736-1.472-2.521-2.304-.784-.832-1.496-1.759-2.136-2.784-1.952,1.856-4.136,3.336-6.552,4.44-2.417,1.104-5.097,1.992-8.04,2.664-.448-.224-.545-.544-.288-.96,2.656-.928,5.088-2.176,7.296-3.744s4.128-3.52,5.76-5.856c-1.504-3.648-2.544-8.623-3.119-14.928l-3.12.336-.48.048c.031,1.473.063,2.96.096,4.464.032,1.504.072,2.8.12,3.888.048,1.088.072,1.745.072,1.968,0,.32-.216.6-.647.84-.433.24-.977.424-1.633.552s-1.304.192-1.943.192c-.769,0-1.152-.368-1.152-1.104v-.72h-3.12v5.664h3.456c.288,0,.512-.016.672-.048.16-.032.304-.16.433-.384.255-.352.583-.792.983-1.32s.696-.904.889-1.128c.255-.384.624-.432,1.104-.144.64.353,1.344.856,2.112,1.512.768.656,1.359,1.241,1.775,1.752.224.288.288.568.192.84-.096.272-.272.408-.528.408h-11.088c.031,1.728.072,3.281.12,4.656s.072,2.208.072,2.496c0,.319-.232.6-.696.84-.464.24-1.032.424-1.704.552-.672.127-1.344.192-2.016.192ZM55.956,10.808c-.672.128-1.256.048-1.752-.24-.496-.288-.776-.784-.84-1.488-.032-1.408-.264-2.736-.696-3.984-.432-1.248-.968-2.288-1.607-3.12-.032-.256.023-.456.168-.6.144-.144.327-.216.552-.216,1.888.608,3.456,1.424,4.704,2.448,1.248,1.025,1.92,2.289,2.016,3.792.064.993-.152,1.769-.647,2.328-.497.561-1.128.92-1.896,1.08ZM57.972,19.784h3.023v-5.28h-3.023v5.28ZM57.972,26.6h3.023v-5.328h-3.023v5.328ZM62.868,10.376c-.704.064-1.304-.072-1.8-.408s-.729-.856-.696-1.56c.097-2.944-.4-5.408-1.487-7.392.031-.256.127-.448.287-.576.16-.127.336-.16.528-.096,1.729.768,3.145,1.712,4.248,2.832,1.104,1.12,1.656,2.48,1.656,4.08,0,.992-.265,1.744-.792,2.256-.528.512-1.176.8-1.944.864ZM66.036,19.784h3.12v-5.28h-3.12v5.28ZM66.036,26.6h3.12v-5.328h-3.12v5.328ZM66.948,11.768c-.225.032-.408-.007-.552-.12-.145-.112-.232-.264-.265-.456.544-.928,1.08-2.215,1.608-3.864.528-1.648.952-3.319,1.272-5.016.063-.352.111-.655.144-.912.031-.255.048-.448.048-.576,0-.256.031-.416.097-.48.127-.127.287-.16.479-.096.48.161,1.088.392,1.824.696.735.304,1.488.616,2.256.936.768.32,1.407.624,1.92.912.319.128.415.384.288.768-.032.192-.128.312-.288.36-.16.048-.32.072-.479.072-.32-.032-.553-.007-.696.072-.145.081-.312.249-.504.504-1.024,1.28-2.208,2.576-3.553,3.888-1.344,1.312-2.544,2.417-3.6,3.312ZM90.564,10.184c-.545.161-1.072.128-1.584-.096-.513-.223-.849-.655-1.008-1.296-.225-.991-.593-2.047-1.104-3.168-.512-1.12-1.185-1.968-2.016-2.544-.225-.48-.097-.816.384-1.008,1.088.128,2.176.353,3.264.672,1.088.32,2.023.776,2.809,1.368.783.592,1.255,1.384,1.416,2.376.191,1.024.048,1.856-.433,2.496-.479.641-1.056,1.041-1.728,1.2Z"/>
    <path class="st0" d="M53.556,91.784c-.801,0-1.2-.368-1.2-1.104,0-.128.023-1.032.072-2.712.048-1.68.104-3.936.168-6.768.063-2.832.119-6.048.168-9.648.048-3.6.071-7.384.071-11.352,0-2.592-.023-4.632-.071-6.12-.049-1.488-.104-2.592-.168-3.312-.064-.72-.161-1.24-.288-1.56-.064-.223-.032-.384.096-.48.128-.127.288-.16.48-.096.672.128,1.552.376,2.64.744,1.087.368,2.048.729,2.88,1.08h6.288c.319,0,.512-.08.576-.24.159-.256.319-.504.479-.744.16-.24.304-.456.433-.648.191-.288.479-.368.863-.24.544.192,1.272.488,2.185.888.912.4,1.623.728,2.136.984.384.192.576.488.576.888s-.209.696-.624.888c-.128.032-.24.096-.336.192-.288.224-.433.624-.433,1.2,0,.864.008,1.776.024,2.736.016.96.031,1.88.048,2.76.016.88.031,1.616.048,2.208.016.592.024.92.024.984,0,.48-.44.864-1.32,1.152-.88.288-1.8.432-2.76.432-.768,0-1.152-.352-1.152-1.056v-.576h-7.344v27.888c0,.319-.24.607-.72.864-.48.256-1.064.448-1.752.576-.688.127-1.385.192-2.088.192ZM58.116,55.592h7.344v-3.648h-7.344v3.648ZM58.116,60.824h7.344v-3.792h-7.344v3.792ZM59.221,67.784l-.528-1.872c1.248.128,2.768.208,4.56.24h5.232c.479,0,.8-.144.96-.432.16-.256.408-.6.744-1.032.336-.432.567-.744.696-.936.223-.319.527-.384.911-.192.32.192.704.48,1.152.864.448.384.888.784,1.32,1.2.432.417.744.768.936,1.056.16.224.199.44.12.648-.08.208-.216.312-.408.312h-11.664c-1.664.032-3.008.08-4.031.144ZM86.484,91.784c-.192-1.601-.48-2.784-.864-3.552-.384-.768-.992-1.312-1.824-1.632-.096,1.121-.64,2.023-1.632,2.712-.992.688-2.496,1.176-4.512,1.464-.225-1.601-.576-2.784-1.056-3.552-.48-.768-1.345-1.216-2.593-1.344-.128-.16-.185-.336-.168-.528.016-.192.088-.336.217-.432h3.888c.768,0,1.152-.336,1.152-1.008v-12.192h-5.185c-.032.032-.064.056-.096.072-.032.017-.064.041-.097.072-.352.256-.527.72-.527,1.392,0,.288.016.696.048,1.224.031.528.063,1.017.096,1.464.032.448.048.72.048.816,0,.416-.384.752-1.151,1.008-.769.256-1.568.384-2.4.384-.672,0-1.008-.32-1.008-.96v-.288h-4.128v.24c0,.256-.16.48-.48.672-.32.192-.704.353-1.151.48.831.384,1.584.888,2.256,1.512s1.008,1.433,1.008,2.424c0,.512-.12.936-.36,1.272-.239.336-.536.584-.888.744l2.208-.192c.063-.448.145-1.136.24-2.064.096-.928.159-1.776.191-2.544.032-.16.049-.312.049-.456v-.408c0-.16.063-.304.191-.432.097-.064.24-.064.433,0,.447.096,1.008.232,1.68.408.672.176,1.327.344,1.968.504.64.161,1.104.305,1.393.432.223.032.304.24.239.624-.064.288-.208.432-.432.432s-.408.024-.552.072c-.145.048-.345.168-.601.36-.448.449-1,.953-1.655,1.512-.656.56-1.225,1.032-1.704,1.416,1.216-.096,2.335-.2,3.359-.312,1.024-.112,1.792-.184,2.305-.216.415.224.495.544.239.96-.607.192-1.456.504-2.544.936-1.088.432-2.231.896-3.432,1.392s-2.304.96-3.312,1.392c-1.008.432-1.735.744-2.184.936-.288.127-.456.256-.504.384-.048.127-.057.319-.024.576.064.256-.048.432-.336.528-.32.127-.544.096-.672-.096-.191-.353-.456-.856-.792-1.512-.336-.655-.664-1.32-.983-1.992-.32-.672-.561-1.168-.721-1.488-.096-.192-.112-.336-.048-.432.063-.032.12-.064.168-.096.048-.031.12-.048.216-.048l.96-.096c.704-.096,1.601-.192,2.688-.288-.32-.096-.568-.264-.744-.504-.176-.24-.248-.536-.216-.888.159-1.056.224-1.936.191-2.64-.032-.704-.224-1.328-.575-1.872,0-.032.016-.048.048-.048h-.672c-.672,0-1.009-.304-1.009-.912,0-.16.024-.736.072-1.728.048-.992.072-2.144.072-3.456,0-.832-.017-1.591-.048-2.28-.032-.688-.08-1.16-.145-1.416-.032-.16,0-.288.097-.384.127-.063.239-.08.336-.048.319.064.783.216,1.392.456.607.24,1.216.488,1.824.744.607.256,1.071.48,1.392.672h3.072c.319,0,.544-.127.672-.384.063-.127.176-.328.336-.6.16-.271.271-.472.336-.6.16-.288.433-.368.816-.24.544.161,1.216.44,2.016.84.8.4,1.44.728,1.92.984l.145.144h4.656v-2.304c0-1.472-.113-2.432-.337-2.88-.096-.192-.112-.368-.048-.528s.208-.224.433-.192c.384,0,.943.041,1.68.12.735.08,1.479.168,2.232.264.751.096,1.303.192,1.655.288.319.064.48.304.48.72-.032.353-.257.561-.672.624-.513.096-.769.384-.769.864v2.832c.064-.063.112-.127.145-.192.096-.16.271-.448.527-.864.256-.416.448-.72.576-.912.224-.352.512-.352.864,0,.16.192.415.504.768.936s.656.824.912,1.176v-7.968h-7.775v.24c0,.48-.449.857-1.345,1.128-.896.272-1.823.408-2.783.408-.769,0-1.152-.352-1.152-1.056,0-.319.023-1.288.072-2.904.048-1.615.071-3.544.071-5.784,0-1.152-.032-2.167-.096-3.048-.064-.88-.144-1.528-.24-1.944-.064-.256-.048-.432.048-.528.128-.128.305-.16.528-.096.736.161,1.632.44,2.688.84,1.056.4,1.951.776,2.688,1.128h6.624c.256,0,.448-.096.576-.288.096-.192.208-.416.336-.672.128-.255.256-.496.384-.72.16-.32.464-.432.912-.336.416.096.92.272,1.512.528.592.256,1.184.521,1.776.792.592.272,1.08.521,1.464.744.448.224.655.552.624.984-.032.432-.272.728-.72.888-.192.064-.32.128-.384.192-.385.288-.576.768-.576,1.44v5.136c0,2.369.016,4.76.048,7.176.031,2.417.079,4.736.144,6.96.064,2.225.12,4.224.168,6,.049,1.776.088,3.24.12,4.392.032,1.152.049,1.856.049,2.112,0,1.409-.473,2.624-1.416,3.648-.944,1.024-2.745,1.744-5.4,2.16ZM64.692,75.464h4.128v-3.888h-4.128v3.888ZM76.116,80.888c-.512.032-.96-.088-1.344-.36-.384-.271-.545-.68-.48-1.224.16-1.216.176-2.359.048-3.432-.128-1.072-.4-1.927-.815-2.568,0-.224.072-.4.216-.528.145-.128.312-.176.504-.144,1.344.672,2.448,1.48,3.312,2.424.863.944,1.216,2.12,1.056,3.528-.096.705-.4,1.248-.912,1.632-.512.384-1.04.608-1.584.672ZM79.764,55.592h7.775v-3.504h-7.775v3.504ZM79.764,60.824h7.775v-3.792h-7.775v3.792ZM83.796,85.208h2.353c.928,0,1.392-.416,1.392-1.248v-12.24h-3.792v6.048c0,1.632.008,3.096.024,4.392.016,1.296.023,2.312.023,3.048Z"/>
  </g>
  <g>
    <path class="st1" d="M28.153,5.756c0-.093.046-.14.14-.14.093,0,.14.047.14.14,0,.347.052.58.155.7.103.12.255.18.455.18h5.489c.201,0,.351-.058.451-.175.1-.117.149-.358.149-.725,0-.086.046-.13.14-.13s.141.043.141.13c0,.06-.006.231-.016.515-.01.283-.015.615-.015.995,0,.7.005,1.27.015,1.71s.016.73.016.87c0,.394-.07.735-.211,1.025-.139.29-.331.515-.574.675-.244.16-.521.24-.835.24-.327,0-.604-.069-.83-.205-.227-.137-.411-.312-.556-.525-.143-.214-.258-.437-.344-.67-.027-.066-.057-.1-.091-.1-.033,0-.057.03-.069.09-.027.18-.077.368-.15.565-.074.197-.179.381-.314.555-.137.173-.311.315-.521.425s-.466.165-.765.165c-.44,0-.809-.11-1.105-.33-.297-.22-.52-.525-.67-.915s-.225-.845-.225-1.365c0-.074,0-.154.004-.24.004-.086.006-.205.006-.355s.002-.355.005-.615c.003-.26.005-.6.005-1.02,0-.387-.004-.712-.01-.975-.007-.264-.01-.429-.01-.495ZM28.452,8.076v1.05c0,.533.16.925.48,1.175s.727.375,1.221.375c.459,0,.845-.132,1.154-.395.311-.263.465-.678.465-1.245v-1.06c0-.034-.014-.062-.039-.085-.027-.023-.057-.035-.09-.035h-2.98c-.061,0-.11.015-.15.045s-.061.088-.061.175ZM32.123,7.986v1.07c0,.914.543,1.37,1.63,1.37.393,0,.717-.093.97-.28.253-.187.38-.514.38-.98v-1.11c0-.046-.012-.091-.035-.135s-.081-.065-.174-.065h-2.631c-.026,0-.057.013-.09.04-.033.026-.05.057-.05.09Z"/>
    <path class="st1" d="M28.153,14.906c0-.087.043-.13.129-.13.107,0,.16.043.16.13,0,.233.042.417.125.55.084.133.242.253.476.36.106.053.286.131.54.235.253.103.557.223.91.36s.729.282,1.13.435c.399.153.8.307,1.2.46.399.153.771.295,1.115.425.343.13.638.24.885.33.246.09.413.152.5.185.086.033.143.072.17.115.026.043.039.118.039.225s-.013.183-.039.23c-.027.046-.084.086-.17.12-.134.053-.351.139-.65.255-.3.116-.646.251-1.04.405s-.806.313-1.235.48-.848.328-1.254.485c-.407.157-.775.298-1.105.425-.33.126-.586.227-.766.3-.307.12-.521.249-.645.385-.123.136-.186.268-.186.395,0,.086-.053.13-.16.13-.086,0-.129-.043-.129-.13,0-.067,0-.204.004-.41.004-.207.006-.483.006-.83,0-.287-.002-.56-.006-.82-.003-.26-.004-.424-.004-.49,0-.086.043-.13.129-.13.107,0,.16.043.16.13,0,.213.035.362.105.445.07.083.153.125.25.125s.178-.017.245-.05c.013-.007.071-.027.175-.06s.23-.075.38-.125c.15-.05.304-.102.46-.155.156-.054.295-.1.415-.14.073-.027.116-.053.13-.08.014-.026.021-.063.021-.11v-2.46c0-.034-.003-.06-.011-.08-.006-.02-.033-.037-.08-.05-.139-.034-.305-.082-.494-.145-.19-.063-.373-.119-.551-.165-.176-.047-.321-.07-.435-.07-.247,0-.409.062-.489.185s-.121.295-.121.515c0,.086-.053.13-.16.13-.086,0-.129-.043-.129-.13,0-.067,0-.192.004-.375.004-.184.006-.422.006-.715,0-.26-.002-.49-.006-.69-.003-.2-.004-.337-.004-.41ZM30.952,17.056v2.17c0,.027.006.055.016.085.01.03.049.035.115.015.16-.053.355-.12.585-.2.229-.08.472-.167.726-.26.252-.093.496-.182.729-.265s.437-.157.61-.22c.173-.063.289-.105.35-.125.033-.014.053-.032.061-.055.006-.023-.008-.042-.041-.055-.047-.013-.162-.057-.345-.13-.184-.073-.403-.162-.66-.265-.257-.103-.521-.208-.79-.315-.27-.106-.514-.202-.73-.285-.216-.083-.375-.142-.475-.175-.1-.026-.15,0-.15.08Z"/>
    <path class="st1" d="M28.153,26.256c0-.087.046-.13.14-.13.101,0,.149.043.149.13,0,.373.054.623.16.75.107.126.257.19.45.19h5.841c.139,0,.209-.07.209-.21v-.6c0-.253-.059-.47-.175-.65-.116-.18-.263-.33-.44-.45-.176-.12-.352-.217-.524-.29s-.319-.13-.44-.17c-.039-.014-.062-.033-.07-.06-.006-.027-.006-.063,0-.11v-.02c.008-.04.022-.063.046-.07.022-.007.048-.01.075-.01.026,0,.113.003.26.01.146.006.312.015.5.025.187.01.359.018.52.025.16.006.271.01.33.01.153,0,.23.087.23.26,0,.033-.004.176-.01.43-.008.253-.012.595-.016,1.025-.004.43-.005.925-.005,1.485s0,1.055.005,1.485c.004.43.008.775.016,1.035.006.26.01.407.01.44,0,.16-.08.243-.24.25-.047,0-.148.005-.305.015-.157.01-.33.018-.521.025-.19.006-.36.013-.51.02-.149.006-.238.01-.265.01-.041,0-.068-.003-.086-.01-.016-.007-.027-.037-.035-.09,0-.007-.003-.017-.01-.03,0-.027.002-.05.006-.07.003-.02.031-.043.084-.07.113-.053.258-.118.431-.195s.347-.173.521-.29c.173-.117.319-.262.439-.435s.18-.387.18-.64v-.66c0-.06-.012-.112-.035-.155-.023-.043-.081-.065-.174-.065h-5.841c-.113,0-.217.019-.31.055-.094.037-.167.12-.221.25-.053.13-.08.332-.08.605,0,.1-.049.15-.149.15-.094,0-.14-.05-.14-.15,0-.067.004-.232.015-.495.01-.263.015-.602.015-1.015s-.005-.755-.015-1.025c-.011-.27-.015-.441-.015-.515Z"/>
    <path class="st1" d="M28.153,35.256c0-.087.046-.13.14-.13.101,0,.149.043.149.13,0,.373.054.623.16.75.107.126.257.19.45.19h5.841c.139,0,.209-.07.209-.21v-.6c0-.253-.059-.47-.175-.65-.116-.18-.263-.33-.44-.45-.176-.12-.352-.217-.524-.29s-.319-.13-.44-.17c-.039-.014-.062-.033-.07-.06-.006-.027-.006-.063,0-.11v-.02c.008-.04.022-.063.046-.07.022-.007.048-.01.075-.01.026,0,.113.003.26.01.146.006.312.015.5.025.187.01.359.018.52.025.16.006.271.01.33.01.153,0,.23.087.23.26,0,.033-.004.176-.01.43-.008.253-.012.595-.016,1.025-.004.43-.005.925-.005,1.485s0,1.055.005,1.485c.004.43.008.775.016,1.035.006.26.01.407.01.44,0,.16-.08.243-.24.25-.047,0-.148.005-.305.015-.157.01-.33.018-.521.025-.19.006-.36.013-.51.02-.149.006-.238.01-.265.01-.041,0-.068-.003-.086-.01-.016-.007-.027-.037-.035-.09,0-.007-.003-.017-.01-.03,0-.027.002-.05.006-.07.003-.02.031-.043.084-.07.113-.053.258-.118.431-.195s.347-.173.521-.29c.173-.117.319-.262.439-.435s.18-.387.18-.64v-.66c0-.06-.012-.112-.035-.155-.023-.043-.081-.065-.174-.065h-5.841c-.113,0-.217.019-.31.055-.094.037-.167.12-.221.25-.053.13-.08.332-.08.605,0,.1-.049.15-.149.15-.094,0-.14-.05-.14-.15,0-.067.004-.232.015-.495.01-.263.015-.602.015-1.015s-.005-.755-.015-1.025c-.011-.27-.015-.441-.015-.515Z"/>
    <path class="st1" d="M28.153,42.806c0-.093.043-.14.129-.14.107,0,.16.047.16.14,0,.36.044.606.131.74.086.133.242.2.47.2h5.51c.193,0,.339-.052.435-.155.098-.104.146-.338.146-.705,0-.087.054-.13.16-.13.087,0,.13.043.13.13,0,.06-.004.23-.01.51-.007.28-.01.6-.01.96,0,.24,0,.467.004.68.004.213.008.395.011.545s.005.242.005.275c0,.093-.043.14-.13.14-.106,0-.16-.047-.16-.14,0-.367-.048-.608-.146-.725-.096-.117-.241-.175-.435-.175h-5.89c-.134,0-.2.07-.2.21v1.55c0,.327.093.615.28.865.186.25.418.463.695.64.275.177.548.315.814.415.053.02.088.046.105.08.016.033.021.063.015.09-.007.053-.025.086-.056.1-.029.013-.061.02-.095.02h-.25c-.146,0-.321-.002-.524-.005-.203-.003-.398-.007-.586-.01-.186-.003-.326-.008-.42-.015-.086-.006-.156-.033-.209-.08-.055-.047-.08-.117-.08-.21,0-.046,0-.17.004-.37.004-.2.006-.5.006-.9v-3.05c0-.427-.002-.769-.006-1.025-.003-.257-.004-.409-.004-.455Z"/>
    <path class="st1" d="M28.153,51.636c0-.087.053-.13.16-.13.086,0,.129.043.129.13,0,.373.047.625.141.755s.25.195.47.195h5.479c.201,0,.351-.06.451-.18.1-.12.149-.36.149-.72,0-.087.05-.13.149-.13.088,0,.131.043.131.13,0,.053-.004.308-.01.765-.008.457-.01,1.128-.01,2.015,0,.84.002,1.477.01,1.91.006.433.01.68.01.74,0,.153-.077.233-.23.24-.06.013-.158.023-.295.03-.137.006-.281.013-.436.02-.152.006-.289.011-.409.015s-.196.005-.229.005c-.027,0-.056-.006-.086-.02-.029-.014-.045-.043-.045-.09,0-.046.006-.082.016-.105s.038-.045.084-.065c.181-.08.372-.182.576-.305.203-.123.378-.287.524-.49.146-.204.22-.468.22-.795v-1.55c0-.06-.014-.11-.039-.15-.027-.04-.084-.06-.17-.06h-2.74c-.027,0-.056.013-.086.04-.029.027-.045.057-.045.09v.51c0,.28.061.493.18.64.121.146.261.255.421.325.159.07.296.128.409.175.054.02.092.038.115.055s.035.052.035.105c0,.047-.017.079-.05.095s-.067.025-.101.025c-.053,0-.148-.001-.284-.005-.137-.003-.285-.007-.445-.01-.159-.003-.307-.005-.44-.005-.126,0-.277.001-.455.005-.176.003-.336.007-.479.01s-.238.005-.284.005c-.101,0-.15-.04-.15-.12,0-.073.043-.123.13-.15.126-.047.274-.106.444-.18.17-.074.32-.184.451-.33.129-.147.194-.36.194-.64v-.51c0-.086-.05-.13-.149-.13h-2.891c-.127,0-.189.067-.189.2v1.35c0,.32.058.59.174.81.117.22.264.401.44.545.177.143.354.255.53.335.176.08.324.14.445.18.06.02.093.042.1.065.006.023.006.058,0,.105v.01c-.007.053-.023.083-.05.09-.026.007-.058.01-.091.01-.025,0-.109-.002-.25-.005-.139-.003-.301-.007-.484-.01s-.354-.007-.51-.01c-.156-.003-.266-.005-.325-.005-.087,0-.16-.025-.22-.075-.061-.05-.09-.122-.09-.215,0-.046.003-.15.01-.31.006-.16.012-.424.015-.79.003-.367.005-.88.005-1.54,0-.813-.005-1.482-.015-2.005-.011-.523-.015-.822-.015-.895Z"/>
  </g>
</svg>