<?xml version="1.0" encoding="UTF-8"?>
<svg id="_レイヤー_1" data-name="レイヤー_1" xmlns="http://www.w3.org/2000/svg" version="1.1" viewBox="0 0 146 187">
  <!-- Generator: Adobe Illustrator 29.0.1, SVG Export Plug-In . SVG Version: 2.1.0 Build 192)  -->
  <defs>
    <style>
      .st0 {
        fill: #141414;
      }

      .st1 {
        fill: #9c8334;
      }
    </style>
  </defs>
  <g>
    <path class="st0" d="M50.85,40.764l-.576-2.064c1.567.192,3.504.32,5.808.384h12.912v-7.872h-9.744c-1.056,0-1.984.016-2.784.048-.8.032-1.616.096-2.448.192l-.576-2.064c1.567.192,3.488.32,5.76.384h9.792v-7.872h-7.824v1.2c0,.384-.248.712-.744.984-.496.272-1.128.488-1.896.648-.768.161-1.536.24-2.304.24-.929,0-1.392-.432-1.392-1.296,0-.288.04-1.12.12-2.496.08-1.375.16-3.144.24-5.304.08-2.16.12-4.536.12-7.128,0-2.304-.041-4.104-.12-5.4-.08-1.296-.185-2.12-.312-2.472-.032-.16,0-.288.096-.384.096-.127.256-.16.48-.096.48.096,1.12.296,1.92.6.8.305,1.624.632,2.472.984.847.353,1.528.672,2.04.96h19.872c.384,0,.672-.16.864-.48.096-.16.248-.416.456-.768.208-.352.375-.64.504-.864.192-.384.544-.48,1.056-.288.48.128,1.048.344,1.704.648.655.305,1.303.617,1.944.936.64.32,1.167.608,1.584.864.384.224.576.552.576.984s-.24.744-.72.936c-.224.096-.416.192-.576.288-.48.32-.72.944-.72,1.872,0,1.568.024,3.216.072,4.944.048,1.728.104,3.368.168,4.92.064,1.553.12,2.849.168,3.888.048,1.04.072,1.656.072,1.848,0,.384-.256.713-.768.984-.512.272-1.145.488-1.896.648-.752.16-1.512.24-2.28.24-.929,0-1.392-.416-1.392-1.248v-1.392h-7.728v7.872h6.576c.512,0,.912-.16,1.2-.48.16-.192.368-.463.624-.816.256-.352.52-.711.792-1.08.271-.367.456-.616.552-.744.288-.384.672-.464,1.152-.24.448.192.991.521,1.632.984.64.464,1.248.944,1.824,1.44.576.497.991.888,1.248,1.176.223.256.288.521.192.792-.096.272-.272.408-.528.408h-15.264v7.872h9.36c.352,0,.607-.031.768-.096.16-.064.336-.208.528-.432.16-.192.384-.487.672-.888.288-.399.583-.808.888-1.224.304-.416.52-.704.648-.864.352-.384.784-.463,1.296-.24.512.192,1.12.536,1.824,1.032.704.497,1.375,1.008,2.016,1.536.64.528,1.087.953,1.344,1.272.256.288.328.583.216.888-.113.304-.296.456-.552.456h-37.776c-1.056,0-1.984.016-2.784.048-.8.031-1.616.096-2.448.192ZM61.17,11.628h7.824v-7.248h-7.824v7.248ZM61.17,20.46h7.824v-7.392h-7.824v7.392ZM74.85,11.628h7.728v-7.248h-7.728v7.248ZM74.85,20.46h7.728v-7.392h-7.728v7.392Z"/>
    <path class="st0" d="M70.818,87.612c-.16-.161-.248-.344-.264-.552-.017-.208.04-.375.168-.504,3.168-.48,5.911-1.567,8.232-3.264,2.32-1.696,4.111-3.816,5.376-6.36,1.264-2.544,1.879-5.304,1.848-8.28-.032-3.104-.624-5.768-1.776-7.992-1.152-2.224-2.768-3.936-4.848-5.136-2.081-1.2-4.56-1.784-7.44-1.752.704.833,1.168,1.809,1.392,2.928.224,1.121.271,2.384.144,3.792-.192,2.592-.616,5.033-1.272,7.32-.656,2.289-1.448,4.361-2.376,6.216-.928,1.856-1.889,3.464-2.88,4.824-.992,1.361-1.92,2.424-2.784,3.192-.992.864-2.024,1.361-3.096,1.488-1.073.128-2.072-.416-3-1.632-.512-.704-1.064-1.352-1.656-1.944-.592-.592-1.145-1.231-1.656-1.92-.512-.688-.936-1.496-1.272-2.424-.336-.928-.521-2.064-.552-3.408-.064-2.719.384-5.28,1.344-7.68.96-2.4,2.312-4.52,4.056-6.36,1.744-1.84,3.768-3.312,6.072-4.416,2.304-1.104,4.768-1.72,7.392-1.848,2.751-.128,5.328.216,7.728,1.032,2.4.816,4.503,2.009,6.312,3.576,1.808,1.568,3.216,3.416,4.224,5.544,1.008,2.128,1.512,4.457,1.512,6.984,0,3.424-.809,6.497-2.424,9.216-1.616,2.721-3.984,4.904-7.104,6.552-3.12,1.648-6.92,2.583-11.4,2.808ZM62.322,77.1c.704-.48,1.496-1.312,2.376-2.496.879-1.183,1.728-2.616,2.544-4.296.816-1.68,1.527-3.52,2.136-5.52.607-2,1.008-4.056,1.2-6.168,0-.063.016-.16.048-.288.064-1.023.112-1.888.144-2.592.031-.704-.048-1.328-.24-1.872-1.888.224-3.632.856-5.232,1.896-1.601,1.04-2.992,2.384-4.176,4.032-1.184,1.648-2.081,3.536-2.688,5.664-.608,2.129-.864,4.409-.768,6.84.096,1.92.384,3.296.864,4.128.48.833,1.063,1.272,1.752,1.32.688.048,1.368-.168,2.04-.648Z"/>
    <path class="st0" d="M57.954,138.684c-.128-1.728-.425-3.008-.888-3.84-.464-.832-1.352-1.488-2.664-1.968-.64,1.088-1.328,2.104-2.064,3.048-.736.943-1.52,1.848-2.352,2.712-.224.031-.4-.024-.528-.168-.128-.144-.192-.312-.192-.504,1.312-2.208,2.407-4.72,3.288-7.536.879-2.815,1.543-6.184,1.992-10.104.448-3.919.672-8.632.672-14.136h-.528c-1.568.032-2.976.096-4.224.192l-.48-1.92c1.28.128,2.848.225,4.704.288h2.064v-4.8c0-1.087-.048-1.944-.144-2.568-.096-.624-.24-1.096-.432-1.416-.096-.192-.096-.368,0-.528.096-.16.271-.24.528-.24.416,0,1.032.048,1.848.144.816.096,1.632.2,2.448.312.816.112,1.416.216,1.8.312.384.096.543.353.48.768-.033.384-.257.608-.672.672-.544.096-.816.4-.816.912v6.432h1.2c.576,0,.991-.192,1.248-.576.223-.352.463-.751.72-1.2.256-.448.48-.832.672-1.152.288-.416.672-.496,1.152-.24.672.384,1.44.912,2.304,1.584.864.672,1.504,1.28,1.92,1.824.224.288.296.56.216.816-.08.256-.249.384-.504.384h-10.368c0,2.592-.096,4.992-.288,7.2h2.544c.352,0,.607-.127.768-.384.064-.128.168-.296.312-.504.144-.208.28-.391.408-.552.223-.288.511-.368.864-.24.32.096.728.272,1.224.528.496.256,1,.512,1.512.768.511.256.912.464,1.2.624.384.224.568.512.552.864-.017.353-.233.624-.648.816-.128.032-.24.096-.336.192-.288.192-.432.561-.432,1.104-.032.608-.064,1.193-.096,1.752-.032.561-.08,1.112-.144,1.656l2.88-.768v-3.456c0-1.792-.112-2.863-.336-3.216-.096-.256-.096-.448,0-.576.032-.127.176-.192.432-.192.416,0,.992.048,1.728.144.736.096,1.479.208,2.232.336.751.128,1.32.24,1.704.336.384.096.543.336.48.72-.032.384-.256.608-.672.672-.545.032-.816.32-.816.864v3.12l2.976-.768v-6.48c0-.799-.032-1.44-.096-1.92-.064-.48-.144-.832-.24-1.056-.096-.223-.112-.384-.048-.48.063-.192.208-.288.432-.288.416,0,1,.048,1.752.144.751.096,1.512.201,2.28.312.768.113,1.344.216,1.728.312.352.065.528.32.528.768-.032.353-.256.561-.672.624-.544.096-.816.4-.816.912v5.904l1.824-.528c.352-.064.64-.288.864-.672.096-.224.184-.416.264-.576.08-.16.168-.352.264-.576.16-.384.48-.496.96-.336.416.128.928.312,1.536.552.607.24,1.216.497,1.824.768.607.272,1.104.521,1.488.744.256.128.376.384.36.768-.016.384-.2.656-.552.816-.032.033-.08.057-.144.072-.064.017-.112.056-.144.12-.448.32-.672.912-.672,1.776v5.232c0,1.824-.464,3.137-1.392,3.936-.929.8-2.352,1.312-4.272,1.536-.128-1.312-.36-2.264-.696-2.856-.336-.592-.824-1-1.464-1.224,0,.608.016,1.248.048,1.92.031.672.048,1.344.048,2.016,0,.288-.208.544-.624.768-.417.224-.936.4-1.56.528-.624.128-1.24.192-1.848.192-.736,0-1.104-.336-1.104-1.008,0-1.216.024-2.408.072-3.576.048-1.167.072-2.2.072-3.096v-4.512l-2.976.768v12.144c0,.48.112.809.336.984.223.176.64.296,1.248.36.608.032,1.392.057,2.352.072.96.017,1.984.017,3.072,0,1.087-.016,2.136-.072,3.144-.168,1.008-.096,1.864-.208,2.568-.336.832-.16,1.399-.376,1.704-.648.304-.271.552-.679.744-1.224.192-.576.399-1.224.624-1.944.224-.72.432-1.408.624-2.064.192-.655.336-1.159.432-1.512.384-.256.688-.192.912.192,0,.384-.017.936-.048,1.656-.032.72-.064,1.416-.096,2.088-.032.672-.064,1.136-.096,1.392-.032.448.008.76.12.936.112.176.328.344.648.504.448.16.808.432,1.08.816.271.384.408.864.408,1.44,0,.833-.281,1.472-.84,1.92-.56.448-1.4.799-2.52,1.056-1.024.223-2.32.399-3.888.528-1.568.127-3.224.216-4.968.264-1.744.048-3.416.048-5.016,0-1.601-.048-2.96-.12-4.08-.216-1.185-.128-2.016-.376-2.496-.744-.48-.368-.72-1-.72-1.896v-14.352l-2.976.768c-.257,3.264-.632,5.984-1.128,8.16-.496,2.177-1.12,3.905-1.872,5.184-.752,1.28-1.688,2.208-2.808,2.784-1.121.576-2.433.912-3.936,1.008ZM58.002,132.204c.896,0,1.56-.096,1.992-.288.432-.192.792-.688,1.08-1.488.255-.672.504-1.664.744-2.976.24-1.312.464-2.744.672-4.296.208-1.552.367-3.064.48-4.536.111-1.472.168-2.736.168-3.792h-3.216c-.384,3.712-1,6.953-1.848,9.72-.849,2.768-1.88,5.24-3.096,7.416.352.032.816.08,1.392.144.576.064,1.12.096,1.632.096ZM68.85,112.956c-.48,0-.72-.223-.72-.672.896-1.184,1.768-2.624,2.616-4.32.847-1.696,1.591-3.504,2.232-5.424.64-1.92,1.104-3.792,1.392-5.616.031-.224.055-.448.072-.672.016-.223.04-.432.072-.624.063-.224.144-.352.24-.384.032-.031.127-.048.288-.048.512.096,1.224.28,2.136.552.912.272,1.815.552,2.712.84.896.288,1.536.512,1.92.672.224.128.304.384.24.768-.128.353-.32.544-.576.576-.417.032-.72.104-.912.216-.192.112-.384.376-.576.792-.416.896-.896,1.776-1.44,2.64-.544.864-1.121,1.697-1.728,2.496h7.584c.576,0,.976-.175,1.2-.528.224-.352.552-.856.984-1.512.432-.655.744-1.096.936-1.32.288-.384.672-.463,1.152-.24.448.257.984.624,1.608,1.104.624.48,1.215.968,1.776,1.464.56.497.967.92,1.224,1.272.223.256.295.521.216.792-.08.272-.249.408-.504.408h-17.28c-1.152,1.376-2.328,2.64-3.528,3.792-1.2,1.152-2.312,2.145-3.336,2.976ZM83.25,124.38h1.632c.448,0,.784-.088,1.008-.264.223-.175.336-.52.336-1.032v-6.336l-2.976.768v6.864Z"/>
    <path class="st0" d="M50.85,154.284l-.576-1.92c.96.096,1.872.168,2.736.216.864.048,1.824.088,2.88.12h5.616c.48,0,.832-.175,1.056-.528.16-.224.463-.624.912-1.2.448-.576.784-1.008,1.008-1.296.288-.352.656-.416,1.104-.192.448.224.952.544,1.512.96.56.416,1.096.84,1.608,1.272.511.432.896.809,1.152,1.128.224.224.288.497.192.816-.096.32-.272.48-.528.48h-13.584c-1.216,0-2.225.008-3.024.024-.8.017-1.488.056-2.064.12ZM52.387,148.332l-.528-1.968c1.248.161,2.736.272,4.464.336h4.8c.48,0,.816-.144,1.008-.432.192-.256.448-.592.768-1.008.319-.416.592-.768.816-1.056.256-.416.607-.48,1.056-.192.512.32,1.12.792,1.824,1.416.703.624,1.264,1.176,1.68,1.656.192.225.24.456.144.696-.096.24-.272.36-.528.36h-11.52c-1.632.032-2.96.096-3.984.192ZM53.394,185.916c-.992,0-1.488-.448-1.488-1.344,0-.224.032-.785.096-1.68.064-.896.12-2.023.168-3.384.048-1.36.072-2.824.072-4.392s-.017-2.896-.048-3.984c-.032-1.088-.096-1.776-.192-2.064-.064-.224-.032-.4.096-.528.127-.127.304-.16.528-.096.416.128.96.312,1.632.552.672.24,1.36.504,2.064.792.704.288,1.312.544,1.824.768h3.408c.352,0,.607-.127.768-.384.128-.224.264-.456.408-.696.144-.24.28-.472.408-.696.192-.352.496-.463.912-.336.352.096.856.272,1.512.528.655.256,1.328.521,2.016.792.688.272,1.224.521,1.608.744.319.16.472.456.456.888-.017.432-.216.729-.6.888-.096.032-.24.112-.432.24-.384.352-.576.88-.576,1.584,0,.64.016,1.392.048,2.256.031.864.064,1.704.096,2.52.031.816.063,1.52.096,2.112.032.593.048.936.048,1.032,0,.608-.432,1.096-1.296,1.464-.864.368-1.904.552-3.12.552-.992,0-1.488-.448-1.488-1.344v-.624h-4.656v1.824c0,.607-.425,1.096-1.272,1.464-.849.367-1.88.552-3.096.552ZM52.674,160.332l-.528-1.92c1.279.161,2.784.272,4.512.336h4.512c.48,0,.816-.144,1.008-.432.192-.256.439-.592.744-1.008.304-.416.568-.784.792-1.104.288-.352.64-.4,1.056-.144.512.32,1.128.792,1.848,1.416.72.624,1.288,1.176,1.704,1.656.192.224.232.456.12.696-.112.24-.28.36-.504.36h-11.28c-1.632.032-2.96.081-3.984.144ZM52.674,166.236l-.528-1.968c1.279.161,2.784.272,4.512.336h4.512c.48,0,.816-.144,1.008-.432.192-.256.439-.592.744-1.008.304-.416.568-.768.792-1.056.256-.416.607-.48,1.056-.192.512.32,1.128.792,1.848,1.416.72.624,1.288,1.176,1.704,1.656.192.224.232.456.12.696-.112.24-.28.36-.504.36h-11.28c-1.632.033-2.96.096-3.984.192ZM57.763,180.636h4.656v-8.64h-4.656v8.64ZM63.57,186.636c-.16-.128-.264-.288-.312-.48-.048-.192-.008-.353.12-.48,2.944-.704,5.568-1.704,7.872-3s4.336-2.952,6.096-4.968c-1.185-1.6-2.136-3.384-2.856-5.352-.72-1.968-1.161-4.12-1.32-6.456-.8,0-1.464.016-1.992.048-.528.032-1.017.08-1.464.144l-.528-1.968c.736.096,1.479.161,2.232.192.751.032,1.64.064,2.664.096h9.168c.416,0,.672-.112.768-.336.096-.16.224-.343.384-.552.16-.208.304-.424.432-.648.192-.288.496-.367.912-.24.448.161,1.032.424,1.752.792.72.368,1.447.744,2.184,1.128.736.384,1.312.704,1.728.96.319.224.439.544.36.96-.08.417-.344.656-.792.72-.128.032-.24.056-.336.072-.096.017-.192.041-.288.072-.48.16-.896.576-1.248,1.248-1.568,3.264-3.28,6.016-5.136,8.256,1.695.672,3.504,1.192,5.424,1.56,1.92.368,3.855.6,5.808.696-1.056.896-2.009,2.009-2.856,3.336-.849,1.328-1.448,2.503-1.8,3.528-4.192-1.121-7.696-2.896-10.512-5.328-2.24,1.728-4.712,3.048-7.416,3.96-2.705.912-5.72,1.591-9.048,2.04ZM68.562,163.5c-.192-.031-.344-.12-.456-.264-.112-.144-.152-.312-.12-.504.928-.96,1.672-1.936,2.232-2.928.56-.992.968-2.224,1.224-3.696.256-1.472.384-3.392.384-5.76,0-1.279-.057-2.432-.168-3.456-.113-1.023-.249-1.744-.408-2.16-.096-.16-.08-.304.048-.432.064-.127.208-.16.432-.096.416.096.967.264,1.656.504.688.24,1.399.497,2.136.768.736.272,1.344.536,1.824.792h2.304c.352,0,.624-.16.816-.48.064-.127.152-.295.264-.504.112-.208.232-.408.36-.6.127-.319.384-.416.768-.288.416.128.936.312,1.56.552.624.24,1.248.497,1.872.768.624.272,1.144.536,1.56.792.288.16.424.4.408.72-.016.32-.168.561-.456.72-.161.032-.305.112-.432.24-.288.161-.488.36-.6.6-.112.24-.168.584-.168,1.032v4.992c0,.32.08.528.24.624.16.096.384.161.672.192.672,0,1.296-.048,1.872-.144.255-.064.472-.176.648-.336.175-.16.36-.511.552-1.056.192-.576.4-1.248.624-2.016.224-.768.432-1.488.624-2.16.192-.672.319-1.12.384-1.344.16-.127.336-.168.528-.12s.336.152.432.312c0,.32-.017.816-.048,1.488-.032.672-.056,1.344-.072,2.016-.017.672-.041,1.168-.072,1.488-.032.384.024.672.168.864s.376.353.696.48c.511.192.919.504,1.224.936.304.432.456.888.456,1.368,0,.704-.184,1.28-.552,1.728-.368.448-1.016.816-1.944,1.104-.576.16-1.4.288-2.472.384-1.072.096-2.168.152-3.288.168-1.121.017-2.064.008-2.832-.024-1.121-.064-1.904-.264-2.352-.6-.448-.336-.672-.904-.672-1.704v-10.752h-3.408v2.064c0,2.561-.36,4.697-1.08,6.408-.72,1.712-1.712,3.137-2.976,4.272-1.265,1.136-2.729,2.152-4.392,3.048ZM79.699,174.492c1.503-2.4,2.815-5.28,3.936-8.64h-9.168c.256,1.856.848,3.504,1.776,4.944.928,1.44,2.08,2.672,3.456,3.696Z"/>
  </g>
  <g>
    <path class="st1" d="M27.655,4.678c0-.086.053-.13.16-.13.086,0,.13.043.13.13,0,.407.046.67.14.79.093.12.25.18.47.18h5.48c.12,0,.225-.017.315-.05.09-.034.16-.119.21-.255.05-.137.075-.368.075-.695,0-.087.05-.13.15-.13.087,0,.13.043.13.13,0,.06-.003.354-.01.88-.007.527-.01,1.23-.01,2.11,0,.84.003,1.485.01,1.935.006.45.01.698.01.745,0,.167-.077.253-.23.26-.046,0-.146.005-.3.015-.153.01-.323.019-.51.025-.187.006-.352.013-.495.02-.144.006-.229.01-.255.01-.02,0-.047-.005-.08-.015-.034-.01-.05-.038-.05-.085,0-.046.005-.083.015-.11.01-.027.042-.054.095-.08.106-.047.243-.11.41-.19s.333-.182.5-.305c.167-.123.307-.273.42-.45.113-.177.17-.389.17-.635v-1.71c0-.06-.014-.11-.04-.15-.027-.04-.083-.06-.17-.06h-2.69c-.08,0-.12.043-.12.13v.62c0,.273.056.483.17.63.113.146.248.258.405.335s.305.142.445.195c.04.013.071.03.095.05s.035.053.035.1c0,.046-.017.078-.05.095-.033.016-.07.025-.11.025-.047,0-.138-.002-.275-.005s-.287-.006-.45-.01c-.163-.003-.312-.005-.445-.005h-1.22c-.033,0-.066-.005-.1-.015-.034-.01-.05-.039-.05-.085,0-.047.013-.08.04-.1s.063-.04.11-.06c.12-.046.264-.106.43-.18.167-.074.315-.184.445-.33.13-.147.195-.36.195-.64v-.62c0-.033-.015-.063-.045-.09-.03-.027-.062-.04-.095-.04h-2.56c-.146,0-.265.023-.355.07-.09.047-.155.147-.195.3s-.06.387-.06.7c0,.087-.043.13-.13.13-.107,0-.16-.043-.16-.13,0-.066.005-.258.015-.575.01-.317.015-.682.015-1.095,0-.42-.005-.771-.015-1.055-.01-.284-.015-.458-.015-.525Z"/>
    <path class="st1" d="M27.655,13.088c0-.087.043-.13.13-.13.106,0,.16.043.16.13,0,.233.042.417.125.55.083.133.242.253.475.36.106.053.287.131.54.235.253.103.556.223.91.36s.73.282,1.13.435l1.2.46c.4.153.771.295,1.115.425.343.13.638.24.885.33.247.09.414.152.5.185s.144.072.17.115c.027.043.04.118.04.225s-.013.183-.04.23c-.026.046-.083.086-.17.12-.133.053-.35.139-.65.255-.3.116-.647.251-1.04.405-.394.153-.805.313-1.235.48-.43.167-.849.328-1.255.485-.407.157-.775.298-1.105.425-.33.126-.585.227-.765.3-.307.12-.522.249-.645.385-.124.136-.185.268-.185.395,0,.086-.054.13-.16.13-.086,0-.13-.043-.13-.13,0-.067.001-.204.005-.41s.005-.483.005-.83c0-.287-.001-.56-.005-.82-.003-.26-.005-.424-.005-.49,0-.086.043-.13.13-.13.106,0,.16.043.16.13,0,.213.035.362.105.445.07.083.153.125.25.125s.178-.017.245-.05c.013-.007.071-.027.175-.06s.23-.075.38-.125c.15-.05.303-.102.46-.155.157-.054.295-.1.415-.14.073-.027.117-.053.13-.08.013-.026.02-.063.02-.11v-2.46c0-.034-.003-.06-.01-.08s-.033-.037-.08-.05c-.14-.034-.305-.082-.495-.145-.19-.063-.373-.119-.55-.165-.177-.047-.322-.07-.435-.07-.247,0-.41.062-.49.185s-.12.295-.12.515c0,.086-.054.13-.16.13-.086,0-.13-.043-.13-.13,0-.067.001-.192.005-.375.003-.184.005-.422.005-.715,0-.26-.001-.49-.005-.69-.003-.2-.005-.337-.005-.41ZM30.454,15.238v2.17c0,.027.005.055.015.085.01.03.048.035.115.015.16-.053.355-.12.585-.2.23-.08.471-.167.725-.26.253-.093.496-.182.73-.265.233-.083.437-.157.61-.22.173-.063.29-.105.35-.125.033-.014.053-.032.06-.055.006-.023-.007-.042-.04-.055-.047-.013-.162-.057-.345-.13-.184-.073-.403-.162-.66-.265-.256-.103-.52-.208-.79-.315-.27-.106-.513-.202-.73-.285-.216-.083-.375-.142-.475-.175-.1-.026-.15,0-.15.08Z"/>
    <path class="st1" d="M27.535,26.548c0-.673.138-1.269.415-1.785s.691-.92,1.245-1.21c.553-.29,1.243-.435,2.07-.435.807,0,1.49.155,2.05.465.56.31.986.725,1.28,1.245s.44,1.093.44,1.72c0,.353-.066.665-.2.935-.134.27-.247.472-.34.605s-.1.253-.02.36c.06.073.115.133.165.18.05.046.088.09.115.13.053.06.066.126.04.2-.027.073-.08.11-.16.11h-1.88c-.08,0-.13-.047-.15-.14s.003-.157.07-.19c.32-.126.635-.29.945-.49.31-.2.567-.44.77-.72.204-.28.305-.607.305-.98,0-.327-.119-.645-.355-.955-.237-.31-.607-.567-1.11-.77-.503-.204-1.159-.305-1.965-.305-.606,0-1.12.06-1.54.18-.42.12-.756.28-1.01.48-.253.2-.437.425-.55.675s-.17.505-.17.765c0,.613.142,1.115.425,1.505.283.39.708.718,1.275.985.06.033.102.077.125.13s.018.104-.015.15c-.027.047-.063.082-.11.105-.047.023-.097.025-.15.005-.607-.234-1.094-.592-1.46-1.075-.367-.483-.55-1.108-.55-1.875Z"/>
    <path class="st1" d="M27.655,32.178c0-.087.053-.13.16-.13.086,0,.13.043.13.13,0,.346.037.596.11.75.073.153.23.23.47.23h5.54c.22,0,.37-.072.45-.215.08-.143.12-.398.12-.765,0-.087.046-.13.14-.13.093,0,.14.043.14.13,0,.113-.003.261-.01.445-.007.183-.012.378-.015.585s-.005.396-.005.57c0,.167.001.355.005.565.003.21.008.41.015.6.006.19.01.338.01.445,0,.1-.046.15-.14.15-.094,0-.14-.05-.14-.15,0-.354-.04-.605-.12-.755-.08-.15-.23-.225-.45-.225h-5.54c-.24,0-.397.08-.47.24s-.11.407-.11.74c0,.1-.043.15-.13.15-.107,0-.16-.05-.16-.15,0-.107.003-.255.01-.445.007-.19.014-.39.02-.6.007-.21.01-.398.01-.565,0-.173-.003-.363-.01-.57-.006-.207-.013-.402-.02-.585-.006-.184-.01-.332-.01-.445Z"/>
    <path class="st1" d="M27.655,38.338c0-.093.043-.14.13-.14.106,0,.16.047.16.14,0,.36.043.606.13.74.086.133.243.2.47.2h5.51c.193,0,.338-.052.435-.155.097-.104.145-.338.145-.705,0-.087.053-.13.16-.13.086,0,.13.043.13.13,0,.06-.003.23-.01.51-.006.28-.01.6-.01.96,0,.24.001.467.005.68s.007.395.01.545c.003.15.005.242.005.275,0,.093-.043.14-.13.14-.107,0-.16-.047-.16-.14,0-.367-.048-.608-.145-.725-.097-.117-.242-.175-.435-.175h-5.89c-.133,0-.2.07-.2.21v1.55c0,.327.093.615.28.865s.418.463.695.64c.276.177.548.315.815.415.053.02.088.046.105.08.017.033.021.063.015.09-.007.053-.025.086-.055.1-.03.013-.062.02-.095.02h-.25c-.146,0-.322-.002-.525-.005-.203-.003-.398-.007-.585-.01s-.327-.008-.42-.015c-.087-.006-.157-.033-.21-.08-.054-.047-.08-.117-.08-.21,0-.046.001-.17.005-.37.003-.2.005-.5.005-.9v-3.05c0-.427-.001-.769-.005-1.025-.003-.257-.005-.409-.005-.455Z"/>
    <path class="st1" d="M27.655,47.148c0-.087.053-.13.16-.13.086,0,.13.043.13.13,0,.346.037.596.11.75.073.153.23.23.47.23h5.54c.22,0,.37-.072.45-.215.08-.143.12-.398.12-.765,0-.087.046-.13.14-.13.093,0,.14.043.14.13,0,.113-.003.261-.01.445-.007.183-.012.378-.015.585s-.005.396-.005.57c0,.167.001.355.005.565.003.21.008.41.015.6.006.19.01.338.01.445,0,.1-.046.15-.14.15-.094,0-.14-.05-.14-.15,0-.354-.04-.605-.12-.755-.08-.15-.23-.225-.45-.225h-5.54c-.24,0-.397.08-.47.24s-.11.407-.11.74c0,.1-.043.15-.13.15-.107,0-.16-.05-.16-.15,0-.107.003-.255.01-.445.007-.19.014-.39.02-.6.007-.21.01-.398.01-.565,0-.173-.003-.363-.01-.57-.006-.207-.013-.402-.02-.585-.006-.184-.01-.332-.01-.445Z"/>
    <path class="st1" d="M27.655,54.757c0-.087.046-.13.14-.13.1,0,.15.043.15.13,0,.373.053.623.16.75.106.126.256.19.45.19h5.84c.14,0,.21-.07.21-.21v-.6c0-.253-.059-.47-.175-.65-.117-.18-.263-.33-.44-.45s-.352-.217-.525-.29-.32-.13-.44-.17c-.04-.014-.063-.033-.07-.06-.006-.027-.006-.063,0-.11v-.02c.007-.04.022-.063.045-.07.023-.007.048-.01.075-.01s.113.003.26.01c.146.006.313.015.5.025.187.01.36.018.52.025.16.006.27.01.33.01.153,0,.23.087.23.26,0,.033-.003.176-.01.43-.007.253-.012.595-.015,1.025-.003.43-.005.925-.005,1.485s.001,1.055.005,1.485c.003.43.008.775.015,1.035.006.26.01.407.01.44,0,.16-.08.243-.24.25-.047,0-.148.005-.305.015-.157.01-.33.018-.52.025-.19.006-.36.013-.51.02-.15.006-.238.01-.265.01-.04,0-.068-.003-.085-.01-.017-.007-.028-.037-.035-.09,0-.007-.003-.017-.01-.03,0-.027.001-.05.005-.07s.032-.043.085-.07c.113-.053.257-.118.43-.195s.347-.173.52-.29.32-.262.44-.435.18-.387.18-.64v-.66c0-.06-.012-.112-.035-.155-.023-.043-.082-.065-.175-.065h-5.84c-.113,0-.217.019-.31.055s-.167.12-.22.25c-.054.13-.08.332-.08.605,0,.1-.05.15-.15.15-.094,0-.14-.05-.14-.15,0-.067.005-.232.015-.495.01-.263.015-.602.015-1.015s-.005-.755-.015-1.025c-.01-.27-.015-.441-.015-.515Z"/>
    <path class="st1" d="M27.655,64.097c0-.093.043-.14.13-.14.106,0,.16.047.16.14,0,.293.035.512.105.655.07.144.218.215.445.215h1.97c.1,0,.176-.003.23-.01.053-.007.123-.037.21-.09.053-.034.163-.097.33-.19.167-.094.363-.204.59-.33.227-.127.461-.26.705-.4.243-.14.479-.273.705-.4.227-.127.417-.237.57-.33.233-.134.408-.249.525-.345s.195-.197.235-.3c.04-.104.06-.239.06-.405,0-.086.05-.13.15-.13.093,0,.14.043.14.13,0,.073-.005.22-.015.44-.01.22-.015.454-.015.7,0,.2.001.415.005.645s.008.433.015.61c.006.177.01.278.01.305,0,.1-.046.15-.14.15-.1,0-.15-.05-.15-.15,0-.213-.05-.358-.15-.435-.1-.077-.25-.062-.45.045-.187.093-.417.213-.69.36-.273.147-.554.295-.84.445s-.542.287-.765.41c-.224.123-.375.208-.455.255-.034.02-.052.038-.055.055s.019.039.065.065c.106.066.27.163.49.29.22.127.458.264.715.41s.501.282.735.405c.233.123.417.215.55.275.233.1.433.08.6-.06.167-.14.25-.367.25-.68,0-.086.05-.13.15-.13.093,0,.14.043.14.13,0,.073-.005.22-.015.44-.01.22-.015.487-.015.8,0,.293.005.538.015.735.01.197.015.328.015.395,0,.1-.046.15-.14.15-.1,0-.15-.05-.15-.15,0-.26-.087-.488-.26-.685s-.407-.382-.7-.555c-.073-.046-.21-.126-.41-.24-.2-.113-.434-.245-.7-.395s-.539-.302-.815-.455c-.277-.153-.532-.29-.765-.41-.073-.04-.148-.073-.225-.1-.077-.027-.165-.04-.265-.04h-1.99c-.233,0-.383.062-.45.185-.067.123-.1.318-.1.585,0,.093-.054.14-.16.14-.086,0-.13-.046-.13-.14,0-.087.006-.235.02-.445.013-.21.02-.521.02-.935,0-.393-.007-.716-.02-.97-.014-.253-.02-.427-.02-.52Z"/>
  </g>
</svg>