<?xml version="1.0" encoding="UTF-8"?>
<svg id="_レイヤー_1" data-name="レイヤー_1" xmlns="http://www.w3.org/2000/svg" version="1.1" viewBox="0 0 146 92">
  <!-- Generator: Adobe Illustrator 29.0.1, SVG Export Plug-In . SVG Version: 2.1.0 Build 192)  -->
  <defs>
    <style>
      .st0 {
        fill: #141414;
      }

      .st1 {
        fill: #9c8334;
      }
    </style>
  </defs>
  <g>
    <path class="st0" d="M59.25,43.696c-.864,0-1.296-.4-1.296-1.2,0-.128.024-.64.072-1.536.048-.896.104-2,.168-3.312.064-1.312.12-2.664.168-4.056.048-1.392.088-2.647.12-3.768-.833.544-1.584,1.04-2.256,1.488-.672.449-1.217.816-1.632,1.104-.225.128-.353.272-.384.432-.032.161-.032.353,0,.576.064.256-.064.448-.384.576-.32.065-.528.017-.624-.144-.225-.448-.512-1.063-.864-1.848-.353-.784-.688-1.584-1.008-2.4-.32-.816-.561-1.464-.72-1.944-.032-.16-.032-.304,0-.432.032-.064.127-.128.288-.192l1.296-.384c.768-.224,1.704-.496,2.808-.816,1.104-.32,2.28-.656,3.528-1.008v-11.52h-2.976c-.608,1.792-1.305,3.513-2.088,5.16-.784,1.648-1.625,3.113-2.52,4.392-.192.096-.376.104-.552.024-.176-.08-.296-.199-.36-.36.223-.928.448-2.104.672-3.528.224-1.423.416-2.935.576-4.536.16-1.6.279-3.168.36-4.704.08-1.536.088-2.88.024-4.032-.032-.448-.08-.832-.144-1.152,0-.192.048-.336.144-.432.127-.063.256-.079.384-.048.384.032.96.12,1.728.264s1.552.296,2.352.456c.8.16,1.456.32,1.968.48.288.032.399.24.336.624,0,.288-.161.464-.48.528-.32,0-.561.288-.72.864-.16.768-.344,1.536-.552,2.304-.208.768-.425,1.521-.648,2.256h2.496V3.424c0-.672-.032-1.2-.096-1.584-.064-.384-.144-.688-.24-.912-.128-.16-.128-.304,0-.432.096-.127.256-.192.48-.192.544,0,1.184.064,1.92.192.735.128,1.471.264,2.208.408.735.144,1.359.296,1.872.456.32.064.48.288.48.672-.032.353-.24.56-.624.624-.352.032-.592.12-.72.264-.128.144-.192.408-.192.792v8.112c.127-.031.255-.144.384-.336.16-.256.416-.696.768-1.32.352-.624.624-1.096.816-1.416.319-.48.688-.528,1.104-.144.384.32.848.768,1.392,1.344.544.576,1.024,1.104,1.44,1.584.607-1.696,1.12-3.399,1.536-5.112.416-1.711.688-3.32.816-4.824.031-.16.056-.312.072-.456s.024-.28.024-.408c0-.16.063-.271.192-.336.063-.064.175-.096.336-.096.607.096,1.384.288,2.328.576.943.288,1.864.592,2.76.912.896.32,1.567.593,2.016.816.127.032.208.136.24.312.032.176.016.344-.048.504-.128.288-.336.432-.624.432-.512-.032-.88.16-1.104.576-.512,1.121-1.08,2.24-1.704,3.36-.624,1.121-1.272,2.225-1.944,3.312h12.672c.256,0,.448-.096.576-.288.127-.224.295-.488.504-.792.208-.304.376-.552.504-.744.224-.256.528-.319.912-.192.64.224,1.448.56,2.424,1.008.976.449,1.816.88,2.52,1.296.256.161.36.425.312.792-.048.368-.216.617-.504.744-.096.032-.185.064-.264.096-.081.032-.152.08-.216.144-.224.128-.376.32-.456.576-.08.257-.12.561-.12.912,0,4.672-.168,8.648-.504,11.928-.336,3.28-.848,6-1.536,8.16-.688,2.16-1.536,3.864-2.544,5.112-1.008,1.248-2.184,2.16-3.528,2.736-1.344.576-2.864.943-4.56,1.104-.032-1.344-.176-2.393-.432-3.144-.257-.751-.705-1.352-1.344-1.8-.641-.448-1.584-.832-2.832-1.152-.192-.416-.096-.736.288-.96.544.064,1.32.168,2.328.312,1.008.144,2.056.216,3.144.216.832,0,1.6-.36,2.304-1.08.704-.72,1.336-1.984,1.896-3.792.56-1.808.992-4.312,1.296-7.512.304-3.199.456-7.279.456-12.24h-.864c-.768,5.76-2.096,10.584-3.984,14.472-1.889,3.888-4.296,7.073-7.224,9.552-2.928,2.48-6.312,4.488-10.152,6.024-.449-.161-.593-.464-.432-.912,3.168-1.696,5.832-3.832,7.992-6.408,2.16-2.576,3.92-5.728,5.28-9.456,1.36-3.728,2.392-8.152,3.096-13.272h-1.392c-.768,3.744-1.865,6.992-3.288,9.744-1.424,2.752-3.104,5.112-5.04,7.08-1.937,1.968-4.056,3.656-6.36,5.064-.48-.096-.672-.367-.576-.816,3.072-2.4,5.352-5.432,6.84-9.096,1.488-3.664,2.472-7.656,2.952-11.976h-1.104c-1.184,1.76-2.432,3.416-3.744,4.968-1.312,1.553-2.672,2.936-4.08,4.152-.224,0-.408-.063-.552-.192-.144-.127-.2-.288-.168-.48.704-.928,1.392-2.056,2.064-3.384.672-1.328,1.312-2.76,1.92-4.296h-5.28v10.08c1.408-.416,2.695-.792,3.864-1.128,1.168-.336,2.04-.568,2.616-.696.448.128.592.416.432.864-.704.384-1.68.953-2.928,1.704-1.248.752-2.576,1.577-3.984,2.472v5.208c0,1.744.007,3.344.024,4.8.016,1.457.024,2.664.024,3.624v1.728c0,.511-.456.928-1.368,1.248-.912.319-1.928.48-3.048.48Z"/>
    <path class="st0" d="M51.234,59.248l-.528-1.92c.96.096,1.864.168,2.712.216.848.048,1.816.072,2.904.072h5.616c.48,0,.832-.16,1.056-.48.16-.224.424-.576.792-1.056.367-.48.679-.879.936-1.2.255-.352.592-.4,1.008-.144.576.353,1.231.848,1.968,1.488.735.641,1.296,1.185,1.68,1.632.224.224.28.488.168.792-.112.304-.296.456-.552.456h-12.672c-1.216,0-2.224.008-3.024.024-.8.016-1.488.056-2.064.12ZM52.243,53.248l-.528-1.968c1.248.161,2.736.272,4.464.336h4.656c.448,0,.799-.144,1.056-.432.192-.255.416-.552.672-.888.256-.336.496-.648.72-.936.255-.416.607-.48,1.056-.192.448.32.984.752,1.608,1.296.624.544,1.144,1.056,1.56,1.536.192.225.24.456.144.696-.096.24-.272.36-.528.36h-10.896c-1.632.032-2.96.096-3.984.192ZM67.555,71.68l-.144-.624h-10.896c-1.632.032-2.96.081-3.984.144l-.528-1.92c1.28.161,2.784.272,4.512.336h4.656c.48,0,.816-.144,1.008-.432.192-.255.423-.552.696-.888.271-.336.52-.664.744-.984.288-.352.64-.399,1.056-.144.448.288.968.696,1.56,1.224.592.528,1.096,1.017,1.512,1.464.448.032,1.023.072,1.728.12.704.048,1.408.072,2.112.072h1.44l1.488-9.216h-.912c-1.664.032-3.008.081-4.032.144l-.576-1.824c1.279.128,2.815.208,4.608.24h1.152l1.008-6.336h-2.928c-1.664.032-3.008.096-4.032.192l-.528-1.872c1.248.128,2.768.208,4.56.24h14.064c.512,0,.864-.16,1.056-.48.192-.256.463-.631.816-1.128.352-.496.592-.856.72-1.08.288-.352.64-.416,1.056-.192.384.192.816.497,1.296.912.48.416.944.833,1.392,1.248.448.417.784.768,1.008,1.056.192.224.248.464.168.72-.081.256-.232.384-.456.384h-12.768l-.96,6.336h2.928c.288,0,.496-.127.624-.384.096-.16.24-.384.432-.672.192-.288.352-.544.48-.768.192-.32.448-.416.768-.288.448.128,1,.336,1.656.624.656.288,1.32.584,1.992.888.672.305,1.216.584,1.632.84.224.128.32.344.288.648-.032.305-.176.536-.432.696-.065.032-.144.072-.24.12s-.176.104-.24.168c-.32.224-.528.449-.624.672-.096.225-.144.545-.144.96v6.96c.096-.096.175-.192.24-.288.16-.256.408-.648.744-1.176.336-.528.568-.904.696-1.128.288-.416.656-.448,1.104-.096.48.384,1.08.912,1.8,1.584.72.672,1.24,1.232,1.56,1.68.192.224.247.456.168.696-.081.24-.249.36-.504.36h-23.568c-1.664.032-3.008.096-4.032.192ZM52.53,65.344l-.528-1.968c1.28.16,2.784.272,4.512.336h4.32c.416,0,.751-.127,1.008-.384.192-.256.416-.56.672-.912.255-.352.496-.672.72-.96.288-.384.64-.448,1.056-.192.448.32.984.752,1.608,1.296.624.544,1.144,1.056,1.56,1.536.224.224.28.456.168.696-.112.24-.28.36-.504.36h-10.608c-1.632.032-2.96.096-3.984.192ZM53.682,91.696c-.864,0-1.296-.4-1.296-1.2,0-.192.024-.744.072-1.656s.096-2.04.144-3.384c.048-1.344.072-2.719.072-4.128v-2.856c0-.976-.016-1.832-.048-2.568-.032-.736-.08-1.184-.144-1.344-.064-.223-.032-.384.096-.48.096-.096.256-.127.48-.096.543.16,1.328.424,2.352.792,1.023.368,1.92.712,2.688,1.032h3.36c.352,0,.607-.127.768-.384.127-.192.24-.384.336-.576s.208-.4.336-.624c.16-.288.448-.367.864-.24.288.064.735.216,1.344.456.607.24,1.231.496,1.872.768.64.272,1.135.521,1.488.744.256.161.384.432.384.816s-.176.656-.528.816c-.032.032-.064.056-.096.072-.032.017-.064.041-.096.072-.353.225-.528.641-.528,1.248,0,.576.016,1.385.048,2.424.032,1.04.064,2.104.096,3.192.031,1.088.063,2.024.096,2.808.032.784.048,1.224.048,1.32,0,.319-.225.616-.672.888-.448.271-1.008.496-1.68.672-.672.175-1.36.264-2.064.264-.864,0-1.296-.401-1.296-1.2v-1.392h-4.128v1.968c0,.543-.448.976-1.344,1.296-.896.319-1.904.48-3.024.48ZM58.05,86.512h4.128v-9.264h-4.128v9.264ZM72.21,91.696c-.864,0-1.296-.4-1.296-1.2,0-.192.024-.776.072-1.752.048-.976.096-2.224.144-3.744.048-1.519.072-3.127.072-4.824,0-1.408-.024-2.664-.072-3.768-.048-1.104-.152-1.896-.312-2.376-.064-.192-.048-.352.048-.48.063-.127.223-.16.48-.096.48.096,1.12.264,1.92.504.799.24,1.6.488,2.4.744.799.257,1.44.497,1.92.72h7.104c.288,0,.496-.112.624-.336.096-.16.24-.4.432-.72.192-.319.352-.592.48-.816.192-.319.463-.416.816-.288.448.128,1.008.344,1.68.648.672.305,1.352.617,2.04.936.688.32,1.24.608,1.656.864.256.128.368.353.336.672-.032.32-.176.56-.432.72-.096.033-.184.072-.264.12-.081.048-.152.104-.216.168-.576.417-.864.96-.864,1.632,0,.704.024,1.6.072,2.688.048,1.088.096,2.176.144,3.264.048,1.088.096,2.033.144,2.832.048.8.072,1.28.072,1.44,0,.352-.249.672-.744.96-.497.288-1.104.504-1.824.648-.72.144-1.448.216-2.184.216-.864,0-1.296-.4-1.296-1.2v-1.824h-8.352v1.872c0,.352-.248.664-.744.936-.497.271-1.112.48-1.848.624-.736.144-1.472.216-2.208.216ZM77.01,86.608h8.352v-9.696h-8.352v9.696ZM78.546,70.048h5.232v-9.216h-3.792l-1.44,9.216Z"/>
  </g>
  <g>
    <path class="st1" d="M27.535,8.628c0-.307.039-.597.115-.87s.158-.508.245-.705c.086-.197.146-.335.18-.415.033-.067.047-.137.04-.21-.007-.074-.04-.137-.1-.19l-.01-.01c0-.007-.012-.022-.035-.045-.023-.023-.092-.095-.205-.215-.066-.066-.085-.13-.055-.19.03-.06.082-.09.155-.09h1.95c.08,0,.126.045.14.135.014.09-.01.145-.07.165-.374.127-.707.32-1,.58-.293.26-.521.572-.685.935s-.245.755-.245,1.175c0,.346.07.628.21.845.14.217.318.378.535.485.217.107.432.16.645.16.287,0,.519-.08.695-.24.177-.16.32-.37.43-.63.11-.26.205-.548.285-.865.08-.317.167-.632.26-.945.093-.313.215-.6.365-.86.15-.26.35-.47.6-.63s.568-.24.955-.24c.46,0,.845.112,1.155.335.31.224.545.522.705.895.16.374.24.777.24,1.21,0,.22-.025.443-.075.67-.05.227-.11.437-.18.63s-.135.34-.195.44c-.087.16-.087.283,0,.37.066.066.123.136.17.21.053.053.065.11.035.17-.03.06-.088.09-.175.09h-1.71c-.087,0-.14-.042-.16-.125s.014-.142.1-.175c.327-.147.63-.332.91-.555.28-.223.506-.48.68-.77s.26-.608.26-.955c0-.287-.062-.54-.185-.76s-.285-.394-.485-.52c-.2-.126-.423-.19-.67-.19-.28,0-.503.082-.67.245-.167.163-.3.378-.4.645-.1.267-.187.562-.26.885-.074.323-.155.645-.245.965-.09.32-.212.613-.365.88-.153.267-.358.481-.615.645-.257.163-.592.245-1.005.245-.474,0-.88-.113-1.22-.34s-.598-.537-.775-.93c-.177-.393-.265-.84-.265-1.34Z"/>
    <path class="st1" d="M27.655,15.568c0-.087.046-.13.14-.13.1,0,.15.043.15.13,0,.373.053.623.16.75.106.126.256.19.45.19h5.84c.14,0,.21-.07.21-.21v-.6c0-.253-.059-.47-.175-.65-.117-.18-.263-.33-.44-.45s-.352-.217-.525-.29-.32-.13-.44-.17c-.04-.014-.063-.033-.07-.06-.006-.027-.006-.063,0-.11v-.02c.007-.04.022-.063.045-.07.023-.007.048-.01.075-.01s.113.003.26.01c.146.006.313.015.5.025.187.01.36.018.52.025.16.006.27.01.33.01.153,0,.23.087.23.26,0,.033-.003.176-.01.43-.007.253-.012.595-.015,1.025-.003.43-.005.925-.005,1.485s.001,1.055.005,1.485c.003.43.008.775.015,1.035.006.26.01.407.01.44,0,.16-.08.243-.24.25-.047,0-.148.005-.305.015-.157.01-.33.018-.52.025-.19.006-.36.013-.51.02-.15.006-.238.01-.265.01-.04,0-.068-.003-.085-.01-.017-.007-.028-.037-.035-.09,0-.007-.003-.017-.01-.03,0-.027.001-.05.005-.07s.032-.043.085-.07c.113-.053.257-.118.43-.195s.347-.173.52-.29.32-.262.44-.435.18-.387.18-.64v-.66c0-.06-.012-.112-.035-.155-.023-.043-.082-.065-.175-.065h-5.84c-.113,0-.217.019-.31.055s-.167.12-.22.25c-.054.13-.08.332-.08.605,0,.1-.05.15-.15.15-.094,0-.14-.05-.14-.15,0-.067.005-.232.015-.495.01-.263.015-.602.015-1.015s-.005-.755-.015-1.025c-.01-.27-.015-.441-.015-.515Z"/>
    <path class="st1" d="M27.535,26.548c0-.647.157-1.219.47-1.715.313-.497.751-.885,1.315-1.165.563-.28,1.218-.42,1.965-.42.76,0,1.42.146,1.98.44s.995.688,1.305,1.185.465,1.055.465,1.675-.155,1.178-.465,1.675-.745.892-1.305,1.185-1.22.44-1.98.44c-.747,0-1.401-.142-1.965-.425-.563-.284-1.002-.672-1.315-1.165-.313-.494-.47-1.063-.47-1.71ZM27.905,26.548c0,.36.105.683.315.97s.562.513,1.055.68c.493.167,1.163.25,2.01.25.854,0,1.527-.083,2.02-.25.493-.167.847-.394,1.06-.68s.32-.61.32-.97-.106-.684-.32-.97-.567-.513-1.06-.68c-.493-.167-1.167-.25-2.02-.25-.847,0-1.517.083-2.01.25-.494.167-.845.394-1.055.68s-.315.61-.315.97Z"/>
    <path class="st1" d="M27.575,38.188c0-.26.065-.472.195-.635.13-.163.301-.296.515-.4s.447-.188.7-.255c.253-.067.506-.128.76-.185s.487-.125.7-.205.385-.185.515-.315c.13-.13.195-.302.195-.515v-.78c0-.087-.04-.13-.12-.13h-2.48c-.133,0-.247.018-.34.055s-.162.115-.205.235c-.043.12-.065.303-.065.55,0,.086-.05.13-.15.13-.034,0-.065-.012-.095-.035-.03-.023-.045-.055-.045-.095,0-.067.005-.231.015-.495.01-.263.015-.578.015-.945,0-.347-.005-.645-.015-.895-.01-.25-.015-.412-.015-.485,0-.087.046-.13.14-.13.1,0,.15.043.15.13,0,.247.023.423.07.53.047.106.115.173.205.2.09.026.202.04.335.04h5.48c.12,0,.224-.015.31-.045.086-.03.155-.097.205-.2.05-.104.075-.272.075-.505,0-.047.015-.082.045-.105.03-.023.062-.035.095-.035.1,0,.15.046.15.14,0,.046-.005.198-.015.455-.01.256-.015.558-.015.905,0,.553.005,1.013.015,1.38.01.367.015.67.015.91,0,.407-.062.778-.185,1.115-.124.337-.319.608-.585.815-.267.207-.617.31-1.05.31-.287,0-.53-.057-.73-.17s-.365-.256-.495-.43c-.13-.174-.235-.358-.315-.555s-.144-.382-.19-.555c-.02-.066-.047-.102-.08-.105s-.057.008-.07.035c-.08.247-.208.445-.385.595-.177.15-.376.268-.6.355-.224.086-.452.158-.685.215-.233.057-.449.111-.645.165-.197.053-.355.12-.475.2-.12.08-.18.19-.18.33,0,.06.015.12.045.18.03.06.082.123.155.19.04.033.066.063.08.09.013.027.003.06-.03.1-.026.033-.057.048-.09.045s-.073-.015-.12-.035c-.146-.067-.302-.202-.465-.405-.164-.203-.245-.455-.245-.755ZM31.485,34.898v.94c0,.493.133.87.4,1.13.267.26.67.39,1.21.39.447,0,.81-.108,1.09-.325.28-.217.42-.545.42-.985v-1.07c0-.054-.012-.102-.035-.145s-.082-.065-.175-.065h-2.77c-.027,0-.057.013-.09.04-.033.026-.05.057-.05.09Z"/>
    <path class="st1" d="M27.655,43.918c0-.093.043-.14.13-.14.106,0,.16.047.16.14,0,.293.035.512.105.655.07.144.218.215.445.215h1.97c.1,0,.176-.003.23-.01.053-.007.123-.037.21-.09.053-.034.163-.097.33-.19.167-.094.363-.204.59-.33.227-.127.461-.26.705-.4.243-.14.479-.273.705-.4.227-.127.417-.237.57-.33.233-.134.408-.249.525-.345s.195-.197.235-.3c.04-.104.06-.239.06-.405,0-.086.05-.13.15-.13.093,0,.14.043.14.13,0,.073-.005.22-.015.44-.01.22-.015.454-.015.7,0,.2.001.415.005.645s.008.433.015.61c.006.177.01.278.01.305,0,.1-.046.15-.14.15-.1,0-.15-.05-.15-.15,0-.213-.05-.358-.15-.435-.1-.077-.25-.062-.45.045-.187.093-.417.213-.69.36-.273.147-.554.295-.84.445s-.542.287-.765.41c-.224.123-.375.208-.455.255-.034.02-.052.038-.055.055s.019.039.065.065c.106.066.27.163.49.29.22.127.458.264.715.41s.501.282.735.405c.233.123.417.215.55.275.233.1.433.08.6-.06.167-.14.25-.367.25-.68,0-.086.05-.13.15-.13.093,0,.14.043.14.13,0,.073-.005.22-.015.44-.01.22-.015.487-.015.8,0,.293.005.538.015.735.01.197.015.328.015.395,0,.1-.046.15-.14.15-.1,0-.15-.05-.15-.15,0-.26-.087-.488-.26-.685s-.407-.382-.7-.555c-.073-.046-.21-.126-.41-.24-.2-.113-.434-.245-.7-.395s-.539-.302-.815-.455c-.277-.153-.532-.29-.765-.41-.073-.04-.148-.073-.225-.1-.077-.027-.165-.04-.265-.04h-1.99c-.233,0-.383.062-.45.185-.067.123-.1.318-.1.585,0,.093-.054.14-.16.14-.086,0-.13-.046-.13-.14,0-.087.006-.235.02-.445.013-.21.02-.521.02-.935,0-.393-.007-.716-.02-.97-.014-.253-.02-.427-.02-.52Z"/>
  </g>
</svg>