<?xml version="1.0" encoding="UTF-8"?>
<svg xmlns="http://www.w3.org/2000/svg" version="1.1" viewBox="0 0 325.53 92">
  <!-- Generator: Adobe Illustrator 29.5.1, SVG Export Plug-In . SVG Version: 2.1.0 Build 141)  -->
  <defs>
    <style>
      .st0 {
        fill: #141414;
      }

      .st1 {
        fill: #9c8334;
      }

      .st2 {
        display: none;
      }
    </style>
  </defs>
  <g id="original_japanese_header" class="st2">
    <g>
      <path class="st0" d="M149.34,43.7c-.86,0-1.3-.4-1.3-1.2,0-.13.02-.64.07-1.54s.1-2,.17-3.31.12-2.66.17-4.06.09-2.65.12-3.77c-.83.54-1.58,1.04-2.26,1.49-.67.45-1.22.82-1.63,1.1-.22.13-.35.27-.38.43-.03.16-.03.35,0,.58.06.26-.06.45-.38.58-.32.06-.53.02-.62-.14-.22-.45-.51-1.06-.86-1.85-.35-.78-.69-1.58-1.01-2.4s-.56-1.46-.72-1.94c-.03-.16-.03-.3,0-.43.03-.06.13-.13.29-.19l1.3-.38c.77-.22,1.7-.5,2.81-.82s2.28-.66,3.53-1.01v-11.52h-2.98c-.61,1.79-1.31,3.51-2.09,5.16-.78,1.65-1.62,3.11-2.52,4.39-.19.1-.38.1-.55.02s-.3-.2-.36-.36c.22-.93.45-2.1.67-3.53.22-1.42.42-2.93.58-4.54.16-1.6.28-3.17.36-4.7.08-1.54.09-2.88.02-4.03-.03-.45-.08-.83-.14-1.15,0-.19.05-.34.14-.43.13-.06.26-.08.38-.05.38.03.96.12,1.73.26s1.55.3,2.35.46,1.46.32,1.97.48c.29.03.4.24.34.62,0,.29-.16.46-.48.53-.32,0-.56.29-.72.86-.16.77-.34,1.54-.55,2.3-.21.77-.42,1.52-.65,2.26h2.5V3.42c0-.67-.03-1.2-.1-1.58s-.14-.69-.24-.91c-.13-.16-.13-.3,0-.43.1-.13.26-.19.48-.19.54,0,1.18.06,1.92.19.74.13,1.47.26,2.21.41.74.14,1.36.3,1.87.46.32.06.48.29.48.67-.03.35-.24.56-.62.62-.35.03-.59.12-.72.26-.13.14-.19.41-.19.79v8.11c.13-.03.26-.14.38-.34.16-.26.42-.7.77-1.32s.62-1.1.82-1.42c.32-.48.69-.53,1.1-.14.38.32.85.77,1.39,1.34s1.02,1.1,1.44,1.58c.61-1.7,1.12-3.4,1.54-5.11.42-1.71.69-3.32.82-4.82.03-.16.06-.31.07-.46s.02-.28.02-.41c0-.16.06-.27.19-.34.06-.06.18-.1.34-.1.61.1,1.38.29,2.33.58.94.29,1.86.59,2.76.91s1.57.59,2.02.82c.13.03.21.14.24.31.03.18.02.34-.05.5-.13.29-.34.43-.62.43-.51-.03-.88.16-1.1.58-.51,1.12-1.08,2.24-1.7,3.36-.62,1.12-1.27,2.22-1.94,3.31h12.67c.26,0,.45-.1.58-.29.13-.22.29-.49.5-.79.21-.3.38-.55.5-.74.22-.26.53-.32.91-.19.64.22,1.45.56,2.42,1.01.98.45,1.82.88,2.52,1.3.26.16.36.43.31.79-.05.37-.22.62-.5.74-.1.03-.18.06-.26.1-.08.03-.15.08-.22.14-.22.13-.38.32-.46.58-.08.26-.12.56-.12.91,0,4.67-.17,8.65-.5,11.93-.34,3.28-.85,6-1.54,8.16s-1.54,3.86-2.54,5.11c-1.01,1.25-2.18,2.16-3.53,2.74s-2.86.94-4.56,1.1c-.03-1.34-.18-2.39-.43-3.14-.26-.75-.71-1.35-1.34-1.8-.64-.45-1.58-.83-2.83-1.15-.19-.42-.1-.74.29-.96.54.06,1.32.17,2.33.31s2.06.22,3.14.22c.83,0,1.6-.36,2.3-1.08s1.34-1.98,1.9-3.79c.56-1.81.99-4.31,1.3-7.51.3-3.2.46-7.28.46-12.24h-.86c-.77,5.76-2.1,10.58-3.98,14.47-1.89,3.89-4.3,7.07-7.22,9.55-2.93,2.48-6.31,4.49-10.15,6.02-.45-.16-.59-.46-.43-.91,3.17-1.7,5.83-3.83,7.99-6.41,2.16-2.58,3.92-5.73,5.28-9.46s2.39-8.15,3.1-13.27h-1.39c-.77,3.74-1.86,6.99-3.29,9.74-1.42,2.75-3.1,5.11-5.04,7.08-1.94,1.97-4.06,3.66-6.36,5.06-.48-.1-.67-.37-.58-.82,3.07-2.4,5.35-5.43,6.84-9.1,1.49-3.66,2.47-7.66,2.95-11.98h-1.1c-1.18,1.76-2.43,3.42-3.74,4.97-1.31,1.55-2.67,2.94-4.08,4.15-.22,0-.41-.06-.55-.19-.14-.13-.2-.29-.17-.48.7-.93,1.39-2.06,2.06-3.38.67-1.33,1.31-2.76,1.92-4.3h-5.28v10.08c1.41-.42,2.69-.79,3.86-1.13,1.17-.34,2.04-.57,2.62-.7.45.13.59.42.43.86-.7.38-1.68.95-2.93,1.7-1.25.75-2.58,1.58-3.98,2.47v5.21c0,1.74,0,3.34.02,4.8.02,1.46.02,2.66.02,3.62v1.73c0,.51-.46.93-1.37,1.25-.91.32-1.93.48-3.05.48h0Z"/>
      <path class="st0" d="M141.33,59.25l-.53-1.92c.96.1,1.86.17,2.71.22s1.82.07,2.9.07h5.62c.48,0,.83-.16,1.06-.48.16-.22.42-.58.79-1.06.37-.48.68-.88.94-1.2.25-.35.59-.4,1.01-.14.58.35,1.23.85,1.97,1.49.74.64,1.3,1.19,1.68,1.63.22.22.28.49.17.79s-.3.46-.55.46h-12.67c-1.22,0-2.22,0-3.02.02s-1.49.06-2.06.12ZM142.34,53.25l-.53-1.97c1.25.16,2.74.27,4.46.34h4.66c.45,0,.8-.14,1.06-.43.19-.26.42-.55.67-.89.26-.34.5-.65.72-.94.26-.42.61-.48,1.06-.19.45.32.98.75,1.61,1.3.62.54,1.14,1.06,1.56,1.54.19.22.24.46.14.7-.1.24-.27.36-.53.36h-10.9c-1.63.03-2.96.1-3.98.19ZM157.65,71.68l-.14-.62h-10.9c-1.63.03-2.96.08-3.98.14l-.53-1.92c1.28.16,2.78.27,4.51.34h4.66c.48,0,.82-.14,1.01-.43.19-.25.42-.55.7-.89.27-.34.52-.66.74-.98.29-.35.64-.4,1.06-.14.45.29.97.7,1.56,1.22.59.53,1.1,1.02,1.51,1.46.45.03,1.02.07,1.73.12.7.05,1.41.07,2.11.07h1.44l1.49-9.22h-.91c-1.66.03-3.01.08-4.03.14l-.58-1.82c1.28.13,2.82.21,4.61.24h1.15l1.01-6.34h-2.93c-1.66.03-3.01.1-4.03.19l-.53-1.87c1.25.13,2.77.21,4.56.24h14.06c.51,0,.86-.16,1.06-.48.19-.26.46-.63.82-1.13.35-.5.59-.86.72-1.08.29-.35.64-.42,1.06-.19.38.19.82.5,1.3.91.48.42.94.83,1.39,1.25.45.42.78.77,1.01,1.06.19.22.25.46.17.72-.08.26-.23.38-.46.38h-12.77l-.96,6.34h2.93c.29,0,.5-.13.62-.38.1-.16.24-.38.43-.67.19-.29.35-.54.48-.77.19-.32.45-.42.77-.29.45.13,1,.34,1.66.62.66.29,1.32.58,1.99.89.67.31,1.22.58,1.63.84.22.13.32.34.29.65-.03.31-.18.54-.43.7-.07.03-.14.07-.24.12s-.18.1-.24.17c-.32.22-.53.45-.62.67-.1.22-.14.54-.14.96v6.96c.1-.1.18-.19.24-.29.16-.26.41-.65.74-1.18.34-.53.57-.9.7-1.13.29-.42.66-.45,1.1-.1.48.38,1.08.91,1.8,1.58s1.24,1.23,1.56,1.68c.19.22.25.46.17.7-.08.24-.25.36-.5.36h-23.57c-1.66.03-3.01.1-4.03.19h0ZM142.62,65.34l-.53-1.97c1.28.16,2.78.27,4.51.34h4.32c.42,0,.75-.13,1.01-.38.19-.26.42-.56.67-.91.26-.35.5-.67.72-.96.29-.38.64-.45,1.06-.19.45.32.98.75,1.61,1.3.62.54,1.14,1.06,1.56,1.54.22.22.28.46.17.7s-.28.36-.5.36h-10.61c-1.63.03-2.96.1-3.98.19ZM143.78,91.7c-.86,0-1.3-.4-1.3-1.2,0-.19.02-.74.07-1.66s.1-2.04.14-3.38.07-2.72.07-4.13v-2.86c0-.98-.02-1.83-.05-2.57s-.08-1.18-.14-1.34c-.06-.22-.03-.38.1-.48.1-.1.26-.13.48-.1.54.16,1.33.42,2.35.79,1.02.37,1.92.71,2.69,1.03h3.36c.35,0,.61-.13.77-.38.13-.19.24-.38.34-.58s.21-.4.34-.62c.16-.29.45-.37.86-.24.29.06.74.22,1.34.46.61.24,1.23.5,1.87.77.64.27,1.14.52,1.49.74.26.16.38.43.38.82s-.18.66-.53.82c-.03.03-.06.06-.1.07-.03.02-.06.04-.1.07-.35.22-.53.64-.53,1.25s.02,1.39.05,2.42c.03,1.04.06,2.1.1,3.19.03,1.09.06,2.02.1,2.81.03.78.05,1.22.05,1.32,0,.32-.22.62-.67.89-.45.27-1.01.5-1.68.67-.67.18-1.36.26-2.06.26-.86,0-1.3-.4-1.3-1.2v-1.39h-4.13v1.97c0,.54-.45.98-1.34,1.3-.9.32-1.9.48-3.02.48ZM148.14,86.51h4.13v-9.26h-4.13v9.26ZM162.3,91.7c-.86,0-1.3-.4-1.3-1.2,0-.19.02-.78.07-1.75s.1-2.22.14-3.74c.05-1.52.07-3.13.07-4.82,0-1.41-.02-2.66-.07-3.77s-.15-1.9-.31-2.38c-.06-.19-.05-.35.05-.48.06-.13.22-.16.48-.1.48.1,1.12.26,1.92.5.8.24,1.6.49,2.4.74.8.26,1.44.5,1.92.72h7.1c.29,0,.5-.11.62-.34.1-.16.24-.4.43-.72.19-.32.35-.59.48-.82.19-.32.46-.42.82-.29.45.13,1.01.34,1.68.65.67.31,1.35.62,2.04.94.69.32,1.24.61,1.66.86.26.13.37.35.34.67-.03.32-.18.56-.43.72-.1.03-.18.07-.26.12-.08.05-.15.1-.22.17-.58.42-.86.96-.86,1.63s.02,1.6.07,2.69c.05,1.09.1,2.18.14,3.26s.1,2.03.14,2.83c.05.8.07,1.28.07,1.44,0,.35-.25.67-.74.96-.5.29-1.1.5-1.82.65-.72.14-1.45.22-2.18.22-.86,0-1.3-.4-1.3-1.2v-1.82h-8.35v1.87c0,.35-.25.66-.74.94-.5.27-1.11.48-1.85.62s-1.47.22-2.21.22h0ZM167.1,86.61h8.35v-9.7h-8.35v9.7ZM168.64,70.05h5.23v-9.22h-3.79l-1.44,9.22Z"/>
    </g>
    <g>
      <path class="st1" d="M117.63,8.63c0-.31.04-.6.11-.87s.16-.51.25-.7c.09-.2.15-.34.18-.41.03-.07.05-.14.04-.21,0-.07-.04-.14-.1-.19h-.01s-.01-.03-.03-.06c-.02-.02-.09-.09-.2-.22-.07-.07-.08-.13-.06-.19.03-.06.08-.09.16-.09h1.95c.08,0,.13.05.14.14s-.01.14-.07.16c-.37.13-.71.32-1,.58-.29.26-.52.57-.68.93s-.25.75-.25,1.17c0,.35.07.63.21.85s.32.38.53.48c.22.11.43.16.65.16.29,0,.52-.08.69-.24.18-.16.32-.37.43-.63s.2-.55.28-.86c.08-.32.17-.63.26-.95s.22-.6.36-.86.35-.47.6-.63c.25-.16.57-.24.95-.24.46,0,.85.11,1.15.34.31.22.54.52.71.89.16.37.24.78.24,1.21,0,.22-.03.44-.08.67s-.11.44-.18.63-.13.34-.19.44c-.09.16-.09.28,0,.37.07.07.12.14.17.21.05.05.06.11.03.17s-.09.09-.17.09h-1.71c-.09,0-.14-.04-.16-.12s.01-.14.1-.18c.33-.15.63-.33.91-.56.28-.22.51-.48.68-.77s.26-.61.26-.95c0-.29-.06-.54-.19-.76s-.28-.39-.49-.52-.42-.19-.67-.19c-.28,0-.5.08-.67.24s-.3.38-.4.64c-.1.27-.19.56-.26.88-.07.32-.16.64-.25.97-.09.32-.21.61-.36.88s-.36.48-.61.65c-.26.16-.59.24-1,.24-.47,0-.88-.11-1.22-.34s-.6-.54-.77-.93c-.18-.39-.26-.84-.27-1.34Z"/>
      <path class="st1" d="M117.75,15.57c0-.09.05-.13.14-.13.1,0,.15.04.15.13,0,.37.05.62.16.75.11.13.26.19.45.19h5.84c.14,0,.21-.07.21-.21v-.6c0-.25-.06-.47-.17-.65-.12-.18-.26-.33-.44-.45s-.35-.22-.53-.29-.32-.13-.44-.17c-.04-.01-.06-.03-.07-.06,0-.03,0-.06,0-.11v-.02s.02-.06.04-.07.05-.01.08-.01.11,0,.26.01c.15,0,.31.02.5.02.19.01.36.02.52.02.16,0,.27.01.33.01.15,0,.23.09.23.26,0,.03,0,.18,0,.43,0,.25-.01.6-.01,1.02,0,.43,0,.92,0,1.49s0,1.06,0,1.49c0,.43,0,.77.01,1.03,0,.26,0,.41,0,.44,0,.16-.08.24-.24.25-.05,0-.15,0-.31.01s-.33.02-.52.02c-.19,0-.36.01-.51.02-.15,0-.24.01-.26.01-.04,0-.07,0-.08-.01s-.03-.04-.03-.09c0,0,0-.02,0-.03,0-.03,0-.05,0-.07s.03-.04.08-.07c.11-.05.26-.12.43-.19s.35-.17.52-.29.32-.26.44-.43.18-.39.18-.64v-.66c0-.06-.01-.11-.03-.16-.02-.04-.08-.07-.17-.07h-5.84c-.11,0-.22.02-.31.06s-.17.12-.22.25c-.05.13-.08.33-.08.6,0,.1-.05.15-.15.15-.09,0-.14-.05-.14-.15,0-.07,0-.23.01-.5s.01-.6.01-1.01,0-.75-.01-1.02-.01-.44-.02-.52Z"/>
      <path class="st1" d="M117.63,26.55c0-.65.16-1.22.47-1.72.31-.5.75-.89,1.32-1.17.56-.28,1.22-.42,1.97-.42s1.42.15,1.98.44.99.69,1.31,1.18.47,1.06.47,1.67-.15,1.18-.47,1.67-.74.89-1.31,1.18-1.22.44-1.98.44-1.4-.14-1.97-.42c-.56-.28-1-.67-1.32-1.16-.31-.49-.47-1.06-.47-1.71ZM118,26.55c0,.36.1.68.32.97s.56.51,1.06.68,1.16.25,2.01.25,1.53-.08,2.02-.25.85-.39,1.06-.68.32-.61.32-.97-.11-.68-.32-.97-.57-.51-1.06-.68-1.17-.25-2.02-.25-1.52.08-2.01.25c-.49.17-.84.39-1.06.68s-.32.61-.31.97Z"/>
      <path class="st1" d="M117.67,38.19c0-.26.07-.47.19-.63s.3-.3.51-.4.45-.19.7-.26.51-.13.76-.19.49-.12.7-.21.39-.19.51-.31c.13-.13.19-.3.19-.51v-.78c0-.09-.04-.13-.12-.13h-2.48c-.13,0-.25.02-.34.06s-.16.12-.2.24-.07.3-.07.55c0,.09-.05.13-.15.13-.03,0-.07-.01-.09-.03-.03-.02-.05-.06-.05-.1,0-.07,0-.23.01-.49.01-.26.01-.58.01-.94,0-.35,0-.65-.01-.9s-.01-.41-.01-.49c0-.09.05-.13.14-.13.1,0,.15.04.15.13,0,.25.02.42.07.53.05.11.11.17.2.2.09.03.2.04.33.04h5.48c.12,0,.22-.01.31-.04.09-.03.15-.1.21-.2.05-.1.08-.27.08-.51,0-.05.01-.08.04-.1s.06-.03.1-.03c.1,0,.15.05.15.14,0,.05,0,.2-.01.46,0,.26-.01.56-.01.9,0,.55,0,1.01.01,1.38s.01.67.01.91c0,.41-.06.78-.19,1.12-.12.34-.32.61-.58.81-.27.21-.62.31-1.05.31-.29,0-.53-.06-.73-.17s-.37-.26-.5-.43-.24-.36-.32-.56-.14-.38-.19-.56c-.02-.07-.05-.1-.08-.1s-.06,0-.07.03c-.08.25-.21.44-.39.6s-.38.27-.6.35c-.22.09-.45.16-.68.22s-.45.11-.65.17c-.2.05-.35.12-.48.2s-.18.19-.18.33c0,.06.01.12.05.18s.08.12.16.19c.04.03.07.06.08.09.01.03,0,.06-.03.1-.03.03-.06.05-.09.04s-.07-.01-.12-.03c-.15-.07-.3-.2-.47-.4-.16-.2-.25-.46-.25-.76ZM121.58,34.9v.94c0,.49.13.87.4,1.13.27.26.67.39,1.21.39.45,0,.81-.11,1.09-.33s.42-.54.42-.99v-1.07c0-.05-.01-.1-.03-.15s-.08-.06-.17-.06h-2.77s-.06.01-.09.04c-.03.03-.05.06-.05.09Z"/>
      <path class="st1" d="M117.75,43.92c0-.09.04-.14.13-.14.11,0,.16.05.16.14,0,.29.03.51.1.65.07.14.22.22.44.22h1.97c.1,0,.18,0,.23,0,.05,0,.12-.04.21-.09.05-.03.16-.1.33-.19.17-.09.36-.2.59-.33.23-.13.46-.26.71-.4.24-.14.48-.27.71-.4.23-.13.42-.24.57-.33.23-.13.41-.25.53-.35s.19-.2.24-.3c.04-.1.06-.24.06-.4,0-.09.05-.13.15-.13.09,0,.14.04.14.13,0,.07,0,.22-.01.44,0,.22-.01.45-.01.7,0,.2,0,.42,0,.65s0,.43.01.61c0,.18,0,.28,0,.31,0,.1-.05.15-.14.15-.1,0-.15-.05-.15-.15,0-.21-.05-.36-.15-.44-.1-.08-.25-.06-.45.04-.19.09-.42.21-.69.36s-.55.29-.84.44-.54.29-.76.41c-.22.12-.38.21-.45.26-.03.02-.05.04-.06.06s.02.04.07.06c.11.07.27.16.49.29.22.13.46.26.71.41s.5.28.74.4c.23.12.42.22.55.28.23.1.43.08.6-.06.17-.14.25-.37.25-.68,0-.09.05-.13.15-.13.09,0,.14.04.14.13,0,.07,0,.22-.01.44,0,.22-.01.49-.01.8,0,.29,0,.54.01.74,0,.2.01.33.01.4,0,.1-.05.15-.14.15-.1,0-.15-.05-.15-.15,0-.26-.09-.49-.26-.69s-.41-.38-.7-.56c-.07-.05-.21-.13-.41-.24-.2-.11-.43-.24-.7-.4s-.54-.3-.82-.46c-.28-.15-.53-.29-.76-.41-.07-.04-.15-.07-.23-.1-.08-.03-.17-.04-.26-.04h-1.99c-.23,0-.38.06-.45.19-.07.12-.1.32-.1.58,0,.09-.05.14-.16.14-.09,0-.13-.05-.13-.14,0-.09,0-.24.02-.44.01-.21.02-.52.02-.94s0-.72-.02-.97c-.01-.25-.02-.43-.02-.52h0Z"/>
    </g>
  </g>
  <g id="English_titles">
    <g>
      <path class="st0" d="M34.2,36.35c-1.15-3.41-2.8-7.25-6.98-7.25-2.58,0-4.72,2.14-4.72,5.33s1.92,4.83,6.15,7.25c5.27,2.86,9.01,5.88,9.01,11.32,0,5.99-4.83,10.71-12.52,10.71-1.81,0-3.46-.27-4.94-.66-1.43-.44-2.42-.82-3.24-1.15-.49-1.48-1.1-5.6-1.48-8.79l1.87-.6c1.04,3.35,3.79,9.06,8.79,9.06,3.08,0,5.05-2.25,5.05-5.55s-2.09-5.27-5.99-7.53c-4.89-2.8-8.9-5.88-8.9-11.15,0-5.71,4.17-10.33,11.75-10.33,2.91,0,5.6.82,6.98,1.32.17,2.09.55,4.45,1.04,7.69l-1.87.33Z"/>
      <path class="st0" d="M71.56,45.09c0,11.59-6.92,18.62-15.99,18.62-9.56,0-15.77-7.8-15.77-18.24,0-8.95,5.22-18.46,16.26-18.46,8.84,0,15.49,7.2,15.49,18.07ZM47.77,44.32c0,9.34,2.86,17.25,8.68,17.25,4.17,0,7.09-5.16,7.09-15.05,0-10.66-2.97-17.36-8.19-17.36-4.67,0-7.58,6.43-7.58,15.16Z"/>
      <path class="st0" d="M104.24,54.26c-.66,2.42-1.76,6.26-2.58,8.13-1.37.38-5.44,1.32-8.84,1.32-12.85,0-17.8-9.23-17.8-17.8,0-11.15,7.47-18.9,19.17-18.9,3.46,0,6.81.82,8.29,1.15.38,3.02.66,5.49.93,8.46l-1.87.38c-1.7-5.93-4.83-7.8-8.46-7.8-6.21,0-10.11,7.42-10.11,15.6,0,9.83,4.45,16.64,10.38,16.64,3.9,0,6.65-2.97,9.01-7.86l1.87.66Z"/>
      <path class="st0" d="M105.84,63v-1.81c3.63-.33,4.07-.82,4.07-5.22v-21.15c0-4.5-.38-4.94-4.07-5.27v-1.81h15.16v1.81c-3.68.33-4.06.77-4.06,5.27v21.15c0,4.34.38,4.89,4.06,5.22v1.81h-15.16Z"/>
      <path class="st0" d="M139.56,63v-1.81c2.91-.38,3.19-1.04,2.31-3.74-.49-1.65-1.15-3.85-1.81-5.66h-9.39c-.44,1.37-1.04,3.19-1.65,5.33-.82,2.91-.6,3.57,3.08,4.07v1.81h-11.37v-1.81c3.13-.33,3.96-.93,5.44-5.11l10.33-28.45,2.58-.6c3.24,9.5,6.21,18.9,9.56,28.34,1.7,4.89,2.36,5.49,5.38,5.82v1.81h-14.45ZM135.5,37.07h-.17c-1.43,4.06-2.53,7.96-3.84,11.92h7.69l-3.68-11.92Z"/>
      <path class="st0" d="M180.98,54.15c-.38,2.2-1.37,7.47-1.76,8.84h-24.44v-1.81c4.17-.33,4.61-.77,4.61-5.16v-21.2c0-4.56-.38-4.94-4.12-5.27v-1.81h15.27v1.81c-3.74.33-4.12.71-4.12,5.27v21.31c0,2.64.22,3.74,1.21,4.23.88.38,2.2.44,3.74.44,2.2,0,3.9-.38,5.11-1.81.93-1.04,1.81-2.8,2.69-5.27l1.81.44Z"/>
      <path class="st0" d="M181.64,63v-1.81c3.62-.33,4.06-.82,4.06-5.22v-21.15c0-4.5-.38-4.94-4.06-5.27v-1.81h15.16v1.81c-3.68.33-4.07.77-4.07,5.27v21.15c0,4.34.38,4.89,4.07,5.22v1.81h-15.16Z"/>
      <path class="st0" d="M227.18,53.44c-.38,2.31-1.32,7.58-1.87,9.56h-26.04l-.5-.88c5.66-9.78,13.07-23.18,18.29-32.19h-5.44c-5.11,0-6.04.66-6.87,1.76-.66.93-1.37,2.53-1.98,5.11l-1.76-.11c.22-3.74.55-7.58.6-10.33h1.43c.77,1.26,1.43,1.37,2.91,1.37h19.5l.44.77c-6.04,10.55-11.92,20.93-18.02,31.92,1.65.22,3.02.33,6.04.33,3.68,0,6.81-.38,8.18-1.76,1.21-1.21,2.14-2.86,3.19-5.93l1.87.38Z"/>
      <path class="st0" d="M228.28,63v-1.81c3.62-.33,4.06-.82,4.06-5.22v-21.15c0-4.5-.38-4.94-4.06-5.27v-1.81h15.16v1.81c-3.68.33-4.07.77-4.07,5.27v21.15c0,4.34.38,4.89,4.07,5.22v1.81h-15.16Z"/>
      <path class="st0" d="M279.64,29.43c-2.86.17-3.79.99-4.01,2.97-.22,1.7-.55,4.45-.55,9.23v21.92h-2.69l-19.5-26.64h-.16v12.03c0,4.56.27,7.42.44,9.06.27,2.09,1.15,3.02,4.94,3.24v1.76h-12.52v-1.76c2.91-.17,3.9-1.1,4.17-3.19.17-1.7.49-4.56.49-9.12v-11.48c0-3.63-.05-4.61-.93-5.82-.93-1.32-2.03-1.98-4.23-2.2v-1.7h9.39l17.91,23.51h.22v-9.61c0-4.78-.27-7.53-.49-9.23-.28-1.92-1.32-2.75-4.83-2.97v-1.7h12.36v1.7Z"/>
      <path class="st0" d="M310.13,47.78c-2.47.55-2.8.71-2.8,4.06v4.83c0,1.98.05,3.68.33,5.22-3.02.77-6.92,1.81-10.99,1.81-11.32,0-18.02-7.31-18.02-17.8,0-12.47,9.01-18.9,19.17-18.9,3.79,0,7.14.88,9.01,1.32.16,1.92.44,4.72.82,8.51l-1.87.38c-1.65-5.88-4.89-8.08-8.84-8.08-5.6,0-10.38,5.71-10.38,15.66,0,8.57,3.62,16.7,10.55,16.7.93,0,1.76-.17,2.31-.6.66-.44.93-1.37.93-2.91v-5.99c0-3.35-.33-3.74-5.33-4.23v-1.76h15.11v1.76Z"/>
    </g>
  </g>
</svg>