<?xml version="1.0" encoding="UTF-8"?>
<svg id="_レイヤー_1" data-name="レイヤー_1" xmlns="http://www.w3.org/2000/svg" version="1.1" viewBox="0 0 146 235">
  <!-- Generator: Adobe Illustrator 29.0.1, SVG Export Plug-In . SVG Version: 2.1.0 Build 192)  -->
  <defs>
    <style>
      .st0 {
        fill: #141414;
      }

      .st1 {
        fill: #9c8334;
      }
    </style>
  </defs>
  <g>
    <path class="st0" d="M105.184,39.381c-.544.032-1.136-.144-1.776-.528-.64-.384-1.192-.896-1.655-1.536-.465-.64-.713-1.296-.744-1.968-.032-1.408-.168-3.176-.408-5.304-.24-2.128-.521-4.375-.84-6.744-2.88.641-5.104,1.328-6.672,2.064-1.057.48-1.92.881-2.592,1.2-.673.32-1.312.497-1.921.528-.384,0-.832-.144-1.344-.432-.512-.288-1.136-.752-1.872-1.392-.608-.512-1.031-1-1.271-1.464-.24-.463-.393-1.047-.456-1.752.159-.448.463-.56.912-.336.447.449,1.087.68,1.92.696.832.016,1.999-.088,3.504-.312,1.056-.16,2.439-.392,4.152-.696,1.711-.304,3.463-.616,5.256-.936-.161-1.279-.336-2.544-.528-3.792s-.384-2.463-.576-3.648c-.736.192-1.408.393-2.016.6-.608.208-1.185.424-1.729.648-.896.353-1.655.665-2.279.936-.624.272-1.192.44-1.704.504-.641.064-1.257-.112-1.849-.528-.592-.416-1.12-.943-1.584-1.584-.464-.64-.824-1.28-1.08-1.92.064-.48.32-.688.769-.624.544.384,1.207.6,1.992.648.783.048,1.783-.04,3-.264.831-.16,1.775-.336,2.832-.528,1.056-.192,2.127-.384,3.216-.576-.192-1.023-.36-1.976-.504-2.856-.145-.88-.297-1.624-.456-2.232-.225-1.216-.552-2.064-.984-2.544-.432-.48-1.112-.704-2.04-.672-.384-.288-.432-.608-.144-.96.768-.384,1.64-.607,2.616-.672.976-.063,1.911.017,2.808.24.896.224,1.584.576,2.063,1.056.448.384.712.761.792,1.128.08.368.04.856-.119,1.464-.129.608-.192,1.216-.192,1.824s.063,1.424.192,2.448c.031.161.048.329.048.504,0,.176.016.344.048.504l1.248-.24c.672-.127,1.368-.36,2.088-.696s1.304-.711,1.752-1.128c.512-.416,1.168-.56,1.968-.432.704.128,1.393.329,2.064.6.672.272,1.279.584,1.824.936.511.288.815.665.911,1.128.097.464-.008.864-.312,1.2-.305.336-.809.473-1.512.408-.449-.032-1.08-.024-1.896.024-.815.048-1.656.104-2.52.168-.801.032-1.641.104-2.521.216-.88.113-1.784.249-2.712.408.192,1.088.399,2.28.624,3.576.224,1.296.464,2.601.72,3.912.576-.127,1.136-.24,1.681-.336.543-.096,1.023-.175,1.439-.24,1.408-.288,2.496-.607,3.265-.96.768-.352,1.439-.784,2.016-1.296.512-.511,1.392-.64,2.64-.384.832.16,1.681.44,2.544.84.864.4,1.552.824,2.064,1.272.384.32.615.704.696,1.152.079.449.007.84-.217,1.176s-.624.504-1.199.504c-.576-.031-1.385-.04-2.425-.024-1.04.017-2.152.056-3.336.12-1.312.064-2.704.168-4.176.312s-2.976.344-4.512.6c.384,1.92.76,3.785,1.128,5.592.367,1.808.703,3.4,1.008,4.776.304,1.376.536,2.417.696,3.12.191.672.127,1.408-.192,2.208-.32.799-.863,1.231-1.632,1.296Z"/>
    <path class="st0" d="M110.465,72.405c-.641.128-1.312-.016-2.017-.432-.704-.416-1.12-1.056-1.248-1.92-.064-.416-.136-.799-.216-1.152-.08-.352-.168-.751-.264-1.2-.16-.799-.4-1.951-.72-3.456-.32-1.503-.656-3.112-1.009-4.824-.352-1.711-.656-3.288-.911-4.728-.929.256-1.776.512-2.544.768-.769.256-1.425.512-1.969.768-.832.416-1.528.736-2.088.96-.561.224-1.064.336-1.512.336-.545,0-1.088-.24-1.632-.72-.545-.48-.992-1.063-1.345-1.752-.352-.688-.544-1.335-.575-1.944.159-.288.384-.352.672-.192.64.768,2.111.944,4.416.528.64-.127,1.512-.295,2.616-.504,1.104-.208,2.279-.424,3.527-.648-.16-.864-.312-1.632-.456-2.304-.144-.672-.28-1.184-.408-1.536-.256-.832-.521-1.416-.792-1.752s-.743-.535-1.416-.6c-.224-.288-.208-.543.049-.768.64-.192,1.416-.288,2.328-.288s1.783.176,2.615.528c.448.161.712.4.792.72.08.32.072.672-.023,1.056-.161.672-.129,1.728.096,3.168.031.192.072.384.12.576s.088.417.12.672c1.248-.223,2.416-.424,3.504-.6,1.087-.176,1.968-.312,2.64-.408.704-.096,1.32-.24,1.849-.432.527-.192.967-.48,1.319-.864.48-.544.992-.624,1.536-.24.544.353,1.184.833,1.92,1.44.736.608,1.312,1.136,1.729,1.584.288.353.384.705.288,1.056-.129.384-.4.576-.816.576-.479.032-.888.144-1.224.336s-.681.416-1.032.672c-.672.512-1.457,1.073-2.353,1.68-.896.608-1.775,1.184-2.64,1.728-.864.544-1.584.977-2.16,1.296-.353-.064-.496-.256-.432-.576.352-.448.76-1.016,1.224-1.704.464-.688.92-1.392,1.368-2.112s.784-1.336,1.008-1.848c.256-.511.08-.751-.527-.72-.864.096-1.937.264-3.217.504-1.28.24-2.479.488-3.6.744.256,1.248.56,2.6.912,4.056.352,1.457.72,2.896,1.104,4.32.385,1.424.769,2.729,1.152,3.912.384,1.184.752,2.16,1.104,2.928.352.704.432,1.4.239,2.088-.191.688-.56,1.097-1.104,1.224Z"/>
    <path class="st0" d="M89.345,118.054c-.448-.192-.593-.528-.432-1.008,3.136-1.375,6.016-3.223,8.64-5.544,2.623-2.32,4.912-4.92,6.864-7.8,1.951-2.88,3.456-5.808,4.512-8.784.384-1.023.031-1.488-1.056-1.392-1.633.065-3.297.225-4.992.48-1.696.257-3.24.561-4.632.912-1.393.353-2.457.705-3.192,1.056-.704.32-1.312.56-1.824.72-.512.161-1.04.24-1.584.24-.736,0-1.487-.295-2.256-.888-.768-.592-1.4-1.312-1.896-2.16-.497-.848-.744-1.672-.744-2.472.031-.192.159-.312.384-.36.224-.048.415-.008.576.12.447.48,1.032.792,1.752.936.72.144,1.752.168,3.096.072.512-.032,1.352-.104,2.521-.216,1.167-.112,2.472-.24,3.911-.384,1.44-.144,2.832-.28,4.177-.408,1.344-.128,2.464-.24,3.359-.336.769-.096,1.416-.231,1.944-.408.528-.176.952-.456,1.272-.84.255-.288.543-.423.863-.408.319.017.64.104.96.264.607.32,1.399.816,2.376,1.488.976.672,1.784,1.312,2.425,1.92.352.32.504.704.455,1.152-.048.449-.328.8-.84,1.056-.448.256-.832.641-1.151,1.152-.32.513-.593,1.025-.816,1.536-1.505,3.137-3.464,6.032-5.88,8.688-2.417,2.657-5.208,4.968-8.376,6.936-3.168,1.968-6.641,3.528-10.416,4.68ZM95.392,85.941c-.768,0-1.48-.208-2.136-.624-.656-.416-1.2-.943-1.632-1.584-.433-.64-.744-1.264-.937-1.872.096-.48.384-.656.864-.528.479.48,1.056.752,1.728.816.673.064,1.552.064,2.641,0,.799-.063,1.815-.16,3.048-.288,1.231-.128,2.487-.328,3.768-.6,1.28-.271,2.353-.616,3.217-1.032.511-.256,1.199-.288,2.063-.096,1.696.448,2.808,1.016,3.336,1.704.528.688.624,1.289.288,1.8-.336.512-.952.768-1.848.768-.736,0-1.632.041-2.688.12-1.056.081-2.152.168-3.288.264s-2.2.208-3.191.336c-.992.128-1.793.257-2.4.384-.672.128-1.208.232-1.608.312-.4.08-.808.12-1.224.12Z"/>
    <path class="st0" d="M85.36,158.613c-.448-.224-.56-.544-.336-.96,2.208-1.024,4.513-2.376,6.912-4.056,2.4-1.68,4.735-3.631,7.008-5.856,2.272-2.224,4.328-4.647,6.168-7.272,1.84-2.624,3.304-5.376,4.393-8.256.384-.96.096-1.423-.864-1.392-.479.032-.984.081-1.512.144-.528.064-1.08.144-1.656.24-.832.096-1.68.192-2.544.288-.864.096-1.632.128-2.304.096-1.185,1.76-2.576,3.488-4.177,5.184-1.6,1.696-3.248,3.24-4.943,4.632-1.696,1.392-3.312,2.537-4.849,3.432-.448-.064-.64-.319-.575-.768,1.087-.896,2.208-2.04,3.359-3.432,1.152-1.392,2.256-2.904,3.312-4.536,1.056-1.632,1.992-3.271,2.808-4.92.816-1.647,1.416-3.175,1.8-4.584.353-1.12.504-1.992.456-2.616s-.44-1.111-1.176-1.464c-.096-.16-.112-.336-.048-.528.063-.192.176-.319.336-.384.703-.032,1.479.08,2.328.336.848.256,1.647.624,2.399,1.104s1.32,1.04,1.704,1.68c.8,1.312.816,2.288.048,2.928-.287.256-.521.48-.695.672-.177.192-.36.449-.552.768.96,0,1.991-.072,3.096-.216,1.104-.144,2.04-.295,2.808-.456.576-.16,1.12-.36,1.632-.6.512-.24.928-.52,1.248-.84.576-.64,1.231-.736,1.969-.288.352.192.815.497,1.392.912.576.416,1.159.848,1.752,1.296.592.449,1.048.833,1.368,1.152.512.449.688.929.528,1.44-.161.513-.513.881-1.057,1.104-.96.417-1.712,1.232-2.256,2.448-1.952,3.968-4.456,7.504-7.512,10.608-3.057,3.104-6.456,5.736-10.2,7.896s-7.601,3.848-11.568,5.064Z"/>
    <path class="st0" d="M84.112,199.221c-.479-.224-.607-.56-.384-1.008,3.456-1.6,6.904-3.712,10.344-6.336,3.439-2.624,6.504-5.664,9.192-9.12-.992-.96-2.057-1.84-3.192-2.64-1.136-.799-2.393-1.488-3.768-2.064-.064-.192-.064-.392,0-.6.063-.208.192-.343.384-.408,1.279.224,2.68.56,4.2,1.008,1.52.448,3.016,1.024,4.488,1.728.863-1.312,1.655-2.68,2.376-4.104.72-1.423,1.336-2.872,1.848-4.344.319-.928.048-1.375-.816-1.344-.352.032-.736.072-1.151.12-.416.048-.849.104-1.296.168-.929.128-1.865.24-2.809.336-.944.096-1.736.064-2.376-.096-1.12,1.632-2.479,3.305-4.08,5.016-1.601,1.712-3.271,3.288-5.016,4.728s-3.416,2.592-5.016,3.456c-.225-.032-.385-.127-.48-.288-.096-.16-.128-.336-.096-.528,1.151-1.024,2.304-2.224,3.456-3.6,1.151-1.375,2.239-2.815,3.264-4.32,1.023-1.504,1.936-3.008,2.736-4.512.799-1.504,1.423-2.896,1.872-4.176.384-1.12.56-1.975.527-2.568-.032-.592-.353-1.128-.96-1.608-.064-.224-.048-.424.048-.6.097-.175.224-.28.385-.312.831.032,1.8.264,2.903.696,1.104.432,2.072,1.145,2.904,2.136.48.544.72,1.056.72,1.536s-.176.896-.527,1.248c-.225.224-.417.424-.576.6-.16.176-.32.392-.48.648.832-.032,1.712-.096,2.641-.192.928-.096,1.743-.192,2.447-.288.736-.096,1.328-.248,1.776-.456.448-.208.864-.504,1.248-.888.576-.607,1.216-.704,1.92-.288.64.417,1.376.936,2.208,1.56s1.567,1.241,2.208,1.848c.416.353.592.76.528,1.224-.064.464-.416.824-1.057,1.08-.448.192-.832.48-1.151.864-.32.384-.624.864-.912,1.44-.704,1.504-1.48,2.944-2.328,4.32-.849,1.376-1.752,2.705-2.712,3.984.479.384.928.784,1.344,1.2.416.417.784.849,1.104,1.296.672.896,1.008,1.808,1.008,2.736s-.2,1.728-.601,2.4-.888,1.104-1.464,1.296c-.479.161-.952.128-1.416-.096-.464-.224-.872-.688-1.224-1.392-.32-.607-.664-1.208-1.032-1.8-.368-.591-.744-1.159-1.128-1.704-2.976,3.041-6.328,5.64-10.056,7.8-3.729,2.16-7.721,3.896-11.977,5.208Z"/>
    <path class="st0" d="M102.257,234.616c-.416,0-.864-.128-1.344-.384-.48-.256-.889-.589-1.225-.999-.336-.41-.488-.845-.456-1.306.064-.768.16-2.502.288-5.203.128-2.701.192-6.099.192-10.195v-7.104c0-1.817-.032-3.2-.097-4.147-.064-.947-.176-1.619-.336-2.016-.16-.396-.496-.633-1.008-.71-.16-.051-.256-.173-.288-.365s.048-.339.24-.441c.256-.128.584-.23.984-.307.399-.077.808-.102,1.224-.077,1.312.052,2.688.551,4.128,1.498.703.487.784,1.088.24,1.805-.225.256-.4.57-.528.94-.128.372-.224.902-.288,1.594s-.112,1.626-.144,2.803v4.531c0,3.098.048,5.914.144,8.448.097,2.535.192,4.615.288,6.24.097,1.626.145,2.63.145,3.014,0,.793-.225,1.389-.672,1.786-.449.397-.944.595-1.488.595Z"/>
    <path class="st0" d="M45.184,39.669c-.16-.161-.248-.344-.264-.552-.017-.208.039-.375.168-.504,3.168-.48,5.911-1.567,8.231-3.264,2.32-1.696,4.111-3.816,5.376-6.36,1.264-2.544,1.88-5.304,1.849-8.28-.032-3.104-.624-5.768-1.776-7.992-1.152-2.224-2.769-3.936-4.848-5.136-2.081-1.2-4.561-1.784-7.44-1.752.703.833,1.168,1.809,1.392,2.928.224,1.121.271,2.384.145,3.792-.192,2.592-.616,5.033-1.272,7.32-.656,2.289-1.448,4.361-2.376,6.216-.928,1.856-1.889,3.464-2.88,4.824-.992,1.361-1.92,2.424-2.784,3.192-.992.864-2.023,1.361-3.096,1.488-1.072.128-2.072-.416-3-1.632-.512-.704-1.064-1.352-1.656-1.944-.592-.592-1.145-1.231-1.655-1.92-.513-.688-.937-1.496-1.272-2.424-.336-.928-.521-2.064-.552-3.408-.064-2.719.384-5.28,1.344-7.68.96-2.4,2.312-4.52,4.056-6.36,1.744-1.84,3.769-3.312,6.072-4.416s4.768-1.72,7.393-1.848c2.751-.128,5.327.216,7.728,1.032s4.504,2.009,6.312,3.576c1.808,1.568,3.217,3.416,4.225,5.544,1.008,2.128,1.512,4.457,1.512,6.984,0,3.424-.809,6.497-2.424,9.216-1.616,2.721-3.984,4.904-7.104,6.552-3.119,1.648-6.92,2.583-11.399,2.808ZM36.688,29.157c.703-.48,1.495-1.312,2.376-2.496.88-1.183,1.728-2.616,2.544-4.296.816-1.68,1.527-3.52,2.136-5.52.607-2,1.009-4.056,1.2-6.168,0-.063.016-.16.048-.288.064-1.023.112-1.888.145-2.592.031-.704-.048-1.328-.24-1.872-1.889.224-3.632.856-5.232,1.896-1.601,1.04-2.992,2.384-4.176,4.032-1.184,1.648-2.08,3.536-2.688,5.664-.608,2.129-.864,4.409-.769,6.84.097,1.92.384,3.296.864,4.128.479.833,1.063,1.272,1.752,1.32.688.048,1.368-.168,2.04-.648Z"/>
    <path class="st0" d="M29.848,88.835c0-1.35-.131-2.392-.392-3.128s-.721-1.311-1.38-1.725-1.571-.774-2.736-1.081c-.216-.429-.108-.72.321-.874.582.092,1.342.207,2.277.345.935.138,1.832.207,2.691.207s1.54-.368,2.047-1.104c.506-.736.896-2.008,1.173-3.818.275-1.809.49-4.339.644-7.59h-3.357l-.046.92c-.031.307-.276.552-.736.736s-1.02.299-1.679.345c-.66.046-1.296.039-1.909-.023-.338-.061-.599-.184-.782-.368-.184-.184-.246-.429-.184-.736.122-.674.253-1.579.391-2.714.138-1.134.283-2.323.437-3.565.153-1.242.261-2.384.322-3.427.062-1.073.084-1.87.069-2.392-.016-.521-.054-.966-.115-1.334-.031-.153,0-.276.092-.368.093-.061.23-.061.414,0,.613.154,1.41.43,2.393.828.98.399,1.809.767,2.483,1.104h2.576v-7.774h-4.002c-1.81.031-3.312.108-4.508.23l-.552-1.978c1.38.184,3.065.307,5.06.368h3.496c.214,0,.398-.092.552-.276.062-.122.177-.337.345-.644.169-.306.3-.536.392-.69.214-.306.506-.398.874-.276.398.092.889.261,1.472.506.582.246,1.173.499,1.771.759.598.261,1.081.514,1.448.759.307.184.452.453.438.805-.016.353-.177.591-.483.713-.092.031-.199.077-.321.138-.308.184-.515.376-.621.575-.108.2-.161.499-.161.897,0,.614.015,1.342.046,2.185.03.844.069,1.687.115,2.53.046.844.084,1.564.114,2.162s.047.959.047,1.081c0,.307-.23.583-.69.828-.46.246-1.027.43-1.702.552-.675.123-1.334.184-1.978.184-.768,0-1.15-.352-1.15-1.058v-1.196h-2.944c-.062.644-.131,1.449-.207,2.415-.076.966-.153,1.963-.229,2.99-.077,1.028-.146,1.955-.207,2.783h2.898c.244,0,.429-.092.552-.276.061-.153.176-.368.345-.644.168-.276.299-.49.391-.644.153-.245.398-.322.736-.23.368.092.858.292,1.472.598.613.307,1.22.621,1.817.943.598.322,1.05.591,1.357.805.245.184.359.43.345.736-.016.307-.192.521-.529.644-.123.062-.215.123-.275.184-.46.276-.706.798-.736,1.564-.276,4.048-.736,7.284-1.38,9.706-.645,2.423-1.626,4.163-2.944,5.221s-3.144,1.587-5.474,1.587ZM44.108,89.065c-.338.122-.583.046-.736-.23-.245-.43-.552-1.051-.92-1.863-.368-.813-.721-1.64-1.058-2.484-.338-.843-.583-1.479-.736-1.909v-.046c-.062-.184-.062-.306,0-.368.062-.122.199-.184.414-.184h1.656c.705,0,1.771-.03,3.197-.092,1.426-.061,2.967-.107,4.623-.138v-6.026h-3.772v1.242c0,.307-.215.583-.644.828-.431.246-.967.437-1.61.575-.645.138-1.288.207-1.932.207-.768,0-1.15-.368-1.15-1.104,0-.184.03-.743.092-1.679.062-.935.122-2.047.185-3.335.061-1.288.092-2.56.092-3.818,0-1.134-.023-2.131-.069-2.99-.046-.858-.146-1.548-.299-2.07-.062-.184-.046-.322.046-.414.092-.092.276-.122.552-.092.368.062.89.207,1.564.437.674.23,1.364.476,2.07.736.705.261,1.257.483,1.655.667h3.221v-3.036c0-.674-.023-1.211-.069-1.61-.046-.398-.115-.705-.207-.92-.951.215-1.825.414-2.622.598-.798.184-1.472.353-2.024.506-.338.092-.56.2-.667.322-.107.123-.146.307-.114.552,0,.338-.123.552-.368.644-.338.123-.568.046-.69-.23-.153-.306-.384-.797-.689-1.472-.308-.674-.614-1.387-.92-2.139-.308-.751-.537-1.341-.69-1.771-.031-.153-.031-.276,0-.368.122-.123.245-.184.368-.184h4.416c.368-1.104.674-2.284.92-3.542.245-1.257.398-2.453.46-3.588.03-.337.046-.613.046-.828v-.644c-.062-.184-.062-.322,0-.414.092-.122.245-.168.46-.138.398.062.936.161,1.61.299.674.138,1.387.299,2.139.483.751.184,1.441.353,2.07.506.628.154,1.096.292,1.402.414.307.123.43.368.368.736-.062.307-.292.46-.689.46-.308,0-.575.046-.806.138-.229.092-.468.307-.713.644-.767.951-1.609,1.917-2.529,2.898-.92.982-1.779,1.84-2.576,2.576h10.396c-1.195-1.38-2.515-2.514-3.956-3.404-.153-.398-.03-.69.368-.874,2.79.368,5.121.982,6.992,1.84,1.87.859,3.036,2.101,3.496,3.726.306,1.043.26,1.909-.138,2.599-.399.69-.905,1.158-1.519,1.403-.46.184-.913.223-1.356.115-.445-.107-.79-.406-1.035-.897-.583-1.196-1.228-2.284-1.933-3.266-.858.215-1.855.46-2.989.736-1.136.276-2.301.552-3.496.828.644.062,1.265.146,1.862.253.599.107,1.051.192,1.357.253.214.031.353.123.414.276.061.154.092.307.092.46-.031.368-.261.583-.689.644-.522.092-.782.384-.782.874v3.542h3.45c.275,0,.46-.092.552-.276.092-.153.199-.337.322-.552.122-.214.229-.398.321-.552.185-.276.444-.368.782-.276.613.154,1.372.43,2.277.828.904.399,1.633.767,2.185,1.104.307.184.452.422.438.713-.017.292-.192.545-.529.759-.123.062-.2.108-.23.138-.367.215-.552.552-.552,1.012,0,.736.016,1.557.046,2.461.03.905.069,1.764.115,2.576.046.813.084,1.511.115,2.093.03.583.046.92.046,1.012,0,.307-.215.583-.645.828-.43.246-.966.437-1.609.575-.645.138-1.288.207-1.933.207-.767,0-1.149-.368-1.149-1.104v-.736h-4.002v5.888c.705-.03,1.395-.053,2.069-.069.675-.015,1.304-.038,1.887-.069-.859-1.502-1.856-2.744-2.99-3.726-.031-.184.007-.352.115-.506.106-.153.253-.245.437-.276,2.698.675,4.938,1.671,6.716,2.99,1.778,1.319,2.729,2.929,2.853,4.83.061,1.042-.169,1.87-.69,2.484-.521.613-1.135.981-1.84,1.104-.491.092-.959.038-1.403-.161-.444-.2-.743-.544-.896-1.035-.368-1.442-.874-2.836-1.519-4.186-1.104.307-2.368.667-3.795,1.081-1.426.414-2.852.828-4.277,1.242s-2.737.79-3.934,1.127c-1.195.337-2.115.598-2.76.782-.675.214-.997.582-.966,1.104.061.368-.077.613-.414.736ZM46.776,74.345h3.772v-8.05h-3.772v8.05ZM55.516,74.345h4.002v-8.05h-4.002v8.05Z"/>
    <path class="st0" d="M33.574,134.789c-.798,0-1.196-.368-1.196-1.104,0-.123.016-.644.047-1.564.029-.92.068-2.1.114-3.542.046-1.441.1-3.005.161-4.692s.107-3.358.139-5.014c.029-1.656.046-3.158.046-4.508v-3.312c-1.319,1.932-2.668,3.696-4.049,5.29-1.38,1.595-2.668,2.929-3.863,4.002-.491,0-.736-.214-.736-.644,1.012-1.41,2.031-3.082,3.059-5.014s2.001-3.994,2.922-6.187c.92-2.192,1.717-4.4,2.392-6.624.674-2.223,1.15-4.347,1.426-6.371.062-.429.1-.805.115-1.127.015-.322.007-.575-.023-.759,0-.276.03-.475.093-.598.122-.122.275-.153.46-.092.582.123,1.326.307,2.23.552.904.246,1.817.499,2.737.759.92.261,1.64.499,2.162.713.153.031.253.123.299.276.046.154.038.307-.023.46-.03.154-.1.299-.207.437-.107.138-.237.207-.391.207-.398-.03-.683.016-.851.138-.169.123-.33.384-.483.782-.307.89-.667,1.794-1.081,2.714-.414.92-.836,1.825-1.265,2.714v30.498c0,.49-.453.881-1.357,1.173-.904.291-1.863.437-2.875.437ZM48.938,134.053c-1.135-.154-1.955-.483-2.461-.989s-.759-1.25-.759-2.231v-33.258c0-.828-.046-1.51-.139-2.047-.092-.536-.199-.943-.321-1.219-.093-.214-.093-.414,0-.598.122-.153.291-.214.506-.184.184,0,.598.046,1.242.138.644.092,1.356.192,2.139.299.782.108,1.487.207,2.116.299.628.092,1.019.169,1.173.23.429.123.613.399.552.828-.031.43-.276.675-.736.736-.398.031-.689.146-.874.345-.184.2-.275.56-.275,1.081v14.996c1.318-1.257,2.683-2.813,4.094-4.669,1.41-1.855,2.576-3.718,3.496-5.589.153-.398.306-.736.46-1.012.062-.214.153-.337.276-.368.122-.03.26,0,.414.092.092.031.367.192.827.483.46.292.997.644,1.61,1.058s1.219.828,1.817,1.242c.598.414,1.119.775,1.563,1.081.444.307.697.491.759.552.307.246.338.522.093.828-.154.276-.384.368-.69.276-.43-.122-.759-.161-.989-.115-.229.046-.514.192-.851.437-1.994,1.564-4.071,2.967-6.233,4.209-2.162,1.242-4.378,2.354-6.646,3.335v13.156c0,.736.46,1.15,1.38,1.242.766.062,1.633.092,2.599.092s1.925-.03,2.875-.092,1.778-.168,2.484-.322c.582-.153,1.004-.337,1.265-.552.261-.214.498-.659.713-1.334.122-.337.283-.843.483-1.518.199-.674.414-1.395.644-2.162.23-.766.438-1.464.621-2.093.185-.628.307-1.035.368-1.219.368-.276.69-.23.966.138,0,.215-.03.637-.092,1.265-.062.629-.123,1.334-.184,2.116-.062.782-.123,1.511-.185,2.185-.062.675-.107,1.166-.138,1.472-.031.583.168.966.598,1.15.613.215,1.127.567,1.541,1.058.414.491.621,1.058.621,1.702,0,.675-.223,1.272-.667,1.794-.444.521-1.296.904-2.553,1.15-.767.153-1.84.283-3.22.391-1.38.107-2.853.184-4.416.23-1.564.046-3.052.061-4.462.046-1.411-.016-2.546-.069-3.404-.161Z"/>
  </g>
  <g>
    <path class="st1" d="M1.776,13.025c0-.26.064-.472.195-.635.129-.163.301-.296.514-.4.214-.104.447-.188.701-.255.253-.067.506-.128.76-.185.253-.057.486-.125.699-.205.214-.08.385-.185.516-.315.13-.13.195-.302.195-.515v-.78c0-.087-.041-.13-.121-.13h-2.479c-.134,0-.247.018-.34.055s-.161.115-.205.235c-.044.12-.065.303-.065.55,0,.086-.049.13-.149.13-.034,0-.065-.012-.095-.035-.03-.023-.045-.055-.045-.095,0-.067.004-.231.015-.495.01-.263.015-.578.015-.945,0-.347-.005-.645-.015-.895-.011-.25-.015-.412-.015-.485,0-.087.046-.13.14-.13.101,0,.149.043.149.13,0,.247.023.423.07.53s.115.173.205.2c.09.026.201.04.335.04h5.479c.121,0,.225-.015.311-.045.086-.03.155-.097.205-.2.05-.104.075-.272.075-.505,0-.047.015-.082.045-.105.03-.023.062-.035.095-.035.1,0,.15.046.15.14,0,.046-.006.198-.016.455-.01.256-.015.558-.015.905,0,.553.005,1.013.015,1.38s.016.67.016.91c0,.407-.062.778-.186,1.115-.123.337-.318.608-.584.815-.268.207-.617.31-1.051.31-.287,0-.529-.057-.73-.17-.199-.113-.364-.256-.494-.43-.131-.174-.235-.358-.315-.555s-.144-.382-.19-.555c-.02-.066-.047-.102-.08-.105s-.057.008-.069.035c-.08.247-.208.445-.386.595-.176.15-.376.268-.6.355-.223.086-.451.158-.685.215s-.448.111-.646.165c-.196.053-.354.12-.475.2-.12.08-.18.19-.18.33,0,.06.015.12.045.18.029.06.082.123.154.19.041.033.066.063.08.09.014.027.004.06-.029.1-.027.033-.057.048-.09.045s-.074-.015-.121-.035c-.146-.067-.301-.202-.465-.405-.163-.203-.244-.455-.244-.755ZM5.686,9.735v.94c0,.493.133.87.399,1.13.267.26.67.39,1.21.39.447,0,.811-.108,1.09-.325.28-.217.42-.545.42-.985v-1.07c0-.054-.012-.102-.035-.145s-.081-.065-.174-.065h-2.771c-.026,0-.058.013-.091.04-.033.026-.049.057-.049.09Z"/>
    <path class="st1" d="M1.856,16.955c0-.087.053-.13.16-.13.086,0,.129.043.129.13,0,.373.047.625.141.755s.25.195.47.195h5.479c.201,0,.351-.06.451-.18.1-.12.149-.36.149-.72,0-.087.05-.13.149-.13.088,0,.131.043.131.13,0,.053-.004.308-.01.765-.008.457-.01,1.128-.01,2.015,0,.84.002,1.477.01,1.91.006.433.01.68.01.74,0,.153-.077.233-.23.24-.06.013-.158.023-.295.03-.137.006-.281.013-.436.02-.152.006-.289.011-.409.015s-.196.005-.229.005c-.027,0-.056-.006-.086-.02-.029-.014-.045-.043-.045-.09,0-.046.006-.082.016-.105s.038-.045.084-.065c.181-.08.372-.182.576-.305.203-.123.378-.287.524-.49.146-.204.22-.468.22-.795v-1.55c0-.06-.014-.11-.039-.15-.027-.04-.084-.06-.17-.06h-2.74c-.027,0-.056.013-.086.04-.029.027-.045.057-.045.09v.51c0,.28.061.493.18.64.121.146.261.255.421.325.159.07.296.128.409.175.054.02.092.038.115.055s.035.052.035.105c0,.047-.017.079-.05.095s-.067.025-.101.025c-.053,0-.148-.001-.284-.005-.137-.003-.285-.007-.445-.01-.159-.003-.307-.005-.44-.005-.126,0-.277.001-.455.005-.176.003-.336.007-.479.01s-.238.005-.284.005c-.101,0-.15-.04-.15-.12,0-.073.043-.123.13-.15.126-.047.274-.106.444-.18.17-.074.32-.184.451-.33.129-.147.194-.36.194-.64v-.51c0-.086-.05-.13-.149-.13h-2.891c-.127,0-.189.067-.189.2v1.35c0,.32.058.59.174.81.117.22.264.401.44.545.177.143.354.255.53.335.176.08.324.14.445.18.06.02.093.042.1.065.006.023.006.058,0,.105v.01c-.007.053-.023.083-.05.09-.026.007-.058.01-.091.01-.025,0-.109-.002-.25-.005-.139-.003-.301-.007-.484-.01s-.354-.007-.51-.01c-.156-.003-.266-.005-.325-.005-.087,0-.16-.025-.22-.075-.061-.05-.09-.122-.09-.215,0-.046.003-.15.01-.31.006-.16.012-.424.015-.79.003-.367.005-.88.005-1.54,0-.813-.005-1.482-.015-2.005-.011-.523-.015-.822-.015-.895Z"/>
    <path class="st1" d="M1.856,25.725c0-.087.053-.13.16-.13.086,0,.129.043.129.13,0,.346.037.596.11.75.073.153.229.23.47.23h5.541c.219,0,.369-.072.449-.215.08-.143.12-.398.12-.765,0-.087.046-.13.14-.13s.141.043.141.13c0,.113-.004.261-.01.445-.008.183-.012.378-.016.585s-.005.396-.005.57c0,.167,0,.355.005.565.004.21.008.41.016.6.006.19.01.338.01.445,0,.1-.047.15-.141.15s-.14-.05-.14-.15c0-.354-.04-.605-.12-.755-.08-.15-.23-.225-.449-.225H2.725c-.24,0-.396.08-.47.24s-.11.407-.11.74c0,.1-.043.15-.129.15-.107,0-.16-.05-.16-.15,0-.107.003-.255.01-.445.006-.19.014-.39.02-.6.007-.21.01-.398.01-.565,0-.173-.003-.363-.01-.57-.006-.207-.014-.402-.02-.585-.007-.184-.01-.332-.01-.445Z"/>
    <path class="st1" d="M1.826,37.665v-.13c-.007-.126-.003-.223.01-.29.014-.066.069-.126.17-.18.14-.08.349-.204.625-.37.276-.167.597-.363.96-.59.363-.227.745-.465,1.145-.715.4-.25.794-.497,1.181-.74.387-.244.741-.469,1.065-.675.322-.207.593-.38.81-.52.216-.14.352-.227.405-.26.014-.007.018-.022.015-.045-.003-.023-.021-.035-.056-.035H3.496c-.507,0-.858.098-1.056.295-.196.197-.295.428-.295.695,0,.033-.012.065-.035.095-.023.03-.058.045-.104.045-.046,0-.083-.015-.11-.045-.026-.03-.039-.062-.039-.095,0-.067.004-.204.015-.41.01-.207.015-.457.015-.75,0-.347-.005-.608-.015-.785-.011-.177-.015-.302-.015-.375,0-.086.049-.13.149-.13.093,0,.14.043.14.13,0,.28.101.508.301.685.199.177.547.265,1.039.265h4.66c.24,0,.416-.054.525-.16s.165-.297.165-.57c0-.087.05-.13.149-.13.088,0,.131.043.131.13,0,.053-.004.231-.01.535-.008.304-.01.702-.01,1.195,0,.113-.018.196-.051.25-.033.053-.09.103-.17.15-.047.026-.174.106-.38.24-.207.133-.466.3-.774.5-.311.2-.646.417-1.006.65-.359.233-.72.466-1.08.7-.359.233-.693.448-1,.645s-.559.36-.755.49-.312.205-.345.225c-.061.04-.08.078-.061.115.021.037.057.055.11.055h3.89c.486,0,.836-.092,1.045-.275.211-.184.315-.435.315-.755,0-.086.05-.13.149-.13.088,0,.131.043.131.13,0,.073-.006.217-.016.43s-.015.467-.015.76c0,.287.005.534.015.74s.016.343.016.41c0,.1-.043.15-.131.15-.1,0-.149-.05-.149-.15,0-.253-.102-.472-.306-.655-.203-.183-.555-.275-1.055-.275h-3.8c-.353,0-.651.013-.896.04-.242.026-.471.046-.684.06-.074.006-.136-.019-.186-.075-.051-.057-.078-.222-.085-.495Z"/>
    <path class="st1" d="M1.856,41.995c0-.086.053-.13.16-.13.086,0,.129.043.129.13,0,.407.047.67.141.79.094.12.25.18.47.18h5.479c.121,0,.226-.017.315-.05.091-.034.16-.119.21-.255.051-.137.075-.368.075-.695,0-.087.05-.13.149-.13.088,0,.131.043.131.13,0,.06-.004.354-.01.88-.008.527-.01,1.23-.01,2.11,0,.84.002,1.485.01,1.935.006.45.01.698.01.745,0,.167-.077.253-.23.26-.047,0-.146.005-.3.015-.153.01-.323.019-.51.025-.187.006-.353.013-.495.02-.144.006-.229.01-.255.01-.021,0-.047-.005-.08-.015-.034-.01-.05-.038-.05-.085,0-.046.005-.083.015-.11.011-.027.042-.054.095-.08.107-.047.244-.11.41-.19s.334-.182.5-.305c.166-.123.307-.273.42-.45.113-.177.17-.389.17-.635v-1.71c0-.06-.014-.11-.039-.15-.027-.04-.084-.06-.17-.06h-2.691c-.079,0-.119.043-.119.13v.62c0,.273.057.483.17.63s.248.258.404.335c.157.077.306.142.445.195.041.013.072.03.096.05s.035.053.035.1c0,.046-.018.078-.051.095-.033.016-.07.025-.109.025-.047,0-.139-.002-.275-.005s-.287-.006-.45-.01-.312-.005-.444-.005h-1.221c-.033,0-.066-.005-.1-.015-.033-.01-.051-.039-.051-.085,0-.047.014-.08.041-.1.026-.02.062-.04.109-.06.12-.046.264-.106.43-.18.167-.074.315-.184.445-.33.131-.147.195-.36.195-.64v-.62c0-.033-.016-.063-.045-.09-.03-.027-.062-.04-.096-.04h-2.56c-.146,0-.265.023-.354.07-.09.047-.155.147-.195.3s-.061.387-.061.7c0,.087-.043.13-.129.13-.107,0-.16-.043-.16-.13,0-.066.004-.258.015-.575.01-.317.015-.682.015-1.095,0-.42-.005-.771-.015-1.055-.011-.284-.015-.458-.015-.525Z"/>
    <path class="st1" d="M1.735,54.005c0-.647.157-1.219.471-1.715.312-.497.752-.885,1.314-1.165.564-.28,1.219-.42,1.965-.42.761,0,1.42.146,1.98.44s.995.688,1.305,1.185c.311.497.465,1.055.465,1.675s-.154,1.178-.465,1.675c-.31.497-.744.892-1.305,1.185s-1.22.44-1.98.44c-.746,0-1.4-.142-1.965-.425-.562-.284-1.002-.672-1.314-1.165-.313-.494-.471-1.063-.471-1.71ZM2.106,54.005c0,.36.104.683.314.97s.562.513,1.055.68c.494.167,1.164.25,2.01.25.854,0,1.527-.083,2.021-.25.493-.167.847-.394,1.06-.68.214-.287.32-.61.32-.97s-.106-.684-.32-.97c-.213-.287-.566-.513-1.06-.68-.493-.167-1.167-.25-2.021-.25-.846,0-1.516.083-2.01.25-.493.167-.845.394-1.055.68s-.314.61-.314.97Z"/>
    <path class="st1" d="M1.776,65.645c0-.26.064-.472.195-.635.129-.163.301-.296.514-.4.214-.104.447-.188.701-.255.253-.067.506-.128.76-.185.253-.057.486-.125.699-.205.214-.08.385-.185.516-.315.13-.13.195-.302.195-.515v-.78c0-.087-.041-.13-.121-.13h-2.479c-.134,0-.247.018-.34.055s-.161.115-.205.235c-.044.12-.065.303-.065.55,0,.086-.049.13-.149.13-.034,0-.065-.012-.095-.035-.03-.023-.045-.055-.045-.095,0-.067.004-.231.015-.495.01-.263.015-.578.015-.945,0-.347-.005-.645-.015-.895-.011-.25-.015-.412-.015-.485,0-.087.046-.13.14-.13.101,0,.149.043.149.13,0,.247.023.423.07.53s.115.173.205.2c.09.026.201.04.335.04h5.479c.121,0,.225-.015.311-.045.086-.03.155-.097.205-.2.05-.104.075-.272.075-.505,0-.047.015-.082.045-.105.03-.023.062-.035.095-.035.1,0,.15.046.15.14,0,.046-.006.198-.016.455-.01.256-.015.558-.015.905,0,.553.005,1.013.015,1.38s.016.67.016.91c0,.407-.062.778-.186,1.115-.123.337-.318.608-.584.815-.268.207-.617.31-1.051.31-.287,0-.529-.057-.73-.17-.199-.113-.364-.256-.494-.43-.131-.174-.235-.358-.315-.555s-.144-.382-.19-.555c-.02-.066-.047-.102-.08-.105s-.057.008-.069.035c-.08.247-.208.445-.386.595-.176.15-.376.268-.6.355-.223.086-.451.158-.685.215s-.448.111-.646.165c-.196.053-.354.12-.475.2-.12.08-.18.19-.18.33,0,.06.015.12.045.18.029.06.082.123.154.19.041.033.066.063.08.09.014.027.004.06-.029.1-.027.033-.057.048-.09.045s-.074-.015-.121-.035c-.146-.067-.301-.202-.465-.405-.163-.203-.244-.455-.244-.755ZM5.686,62.355v.94c0,.493.133.87.399,1.13.267.26.67.39,1.21.39.447,0,.811-.108,1.09-.325.28-.217.42-.545.42-.985v-1.07c0-.054-.012-.102-.035-.145s-.081-.065-.174-.065h-2.771c-.026,0-.058.013-.091.04-.033.026-.049.057-.049.09Z"/>
    <path class="st1" d="M1.735,73.145c0-.673.139-1.269.416-1.785.276-.517.691-.92,1.244-1.21.554-.29,1.244-.435,2.07-.435.807,0,1.49.155,2.051.465.56.31.986.725,1.279,1.245s.439,1.093.439,1.72c0,.353-.066.665-.199.935-.134.27-.247.472-.34.605-.094.133-.1.253-.021.36.06.073.115.133.165.18.051.046.088.09.115.13.053.06.066.126.04.2-.026.073-.08.11-.16.11h-1.88c-.08,0-.13-.047-.15-.14-.02-.093.004-.157.07-.19.32-.126.635-.29.945-.49.31-.2.566-.44.77-.72s.305-.607.305-.98c0-.327-.118-.645-.354-.955-.237-.31-.606-.567-1.11-.77-.503-.204-1.158-.305-1.965-.305-.606,0-1.119.06-1.54.18-.42.12-.757.28-1.01.48-.253.2-.437.425-.55.675s-.17.505-.17.765c0,.613.141,1.115.425,1.505.283.39.708.718,1.274.985.061.033.102.077.125.13s.019.104-.015.15c-.026.047-.063.082-.11.105s-.096.025-.149.005c-.606-.234-1.094-.592-1.46-1.075-.367-.483-.551-1.108-.551-1.875Z"/>
    <path class="st1" d="M1.856,78.794c0-.087.053-.13.16-.13.086,0,.129.043.129.13,0,.373.047.625.141.755s.25.195.47.195h5.479c.201,0,.351-.06.451-.18.1-.12.149-.36.149-.72,0-.087.05-.13.149-.13.088,0,.131.043.131.13,0,.053-.004.308-.01.765-.008.457-.01,1.128-.01,2.015,0,.84.002,1.477.01,1.91.006.433.01.68.01.74,0,.153-.077.233-.23.24-.06.013-.158.023-.295.03-.137.006-.281.013-.436.02-.152.006-.289.011-.409.015s-.196.005-.229.005c-.027,0-.056-.006-.086-.02-.029-.014-.045-.043-.045-.09,0-.046.006-.082.016-.105s.038-.045.084-.065c.181-.08.372-.182.576-.305.203-.123.378-.287.524-.49.146-.204.22-.468.22-.795v-1.55c0-.06-.014-.11-.039-.15-.027-.04-.084-.06-.17-.06h-2.74c-.027,0-.056.013-.086.04-.029.027-.045.057-.045.09v.51c0,.28.061.493.18.64.121.146.261.255.421.325.159.07.296.128.409.175.054.02.092.038.115.055s.035.052.035.105c0,.047-.017.079-.05.095s-.067.025-.101.025c-.053,0-.148-.001-.284-.005-.137-.003-.285-.007-.445-.01-.159-.003-.307-.005-.44-.005-.126,0-.277.001-.455.005-.176.003-.336.007-.479.01s-.238.005-.284.005c-.101,0-.15-.04-.15-.12,0-.073.043-.123.13-.15.126-.047.274-.106.444-.18.17-.074.32-.184.451-.33.129-.147.194-.36.194-.64v-.51c0-.086-.05-.13-.149-.13h-2.891c-.127,0-.189.067-.189.2v1.35c0,.32.058.59.174.81.117.22.264.401.44.545.177.143.354.255.53.335.176.08.324.14.445.18.06.02.093.042.1.065.006.023.006.058,0,.105v.01c-.007.053-.023.083-.05.09-.026.007-.058.01-.091.01-.025,0-.109-.002-.25-.005-.139-.003-.301-.007-.484-.01s-.354-.007-.51-.01c-.156-.003-.266-.005-.325-.005-.087,0-.16-.025-.22-.075-.061-.05-.09-.122-.09-.215,0-.046.003-.15.01-.31.006-.16.012-.424.015-.79.003-.367.005-.88.005-1.54,0-.813-.005-1.482-.015-2.005-.011-.523-.015-.822-.015-.895Z"/>
    <path class="st1" d="M1.856,87.484c0-.087.053-.13.16-.13.086,0,.129.043.129.13,0,.28.102.506.306.68.203.173.548.26,1.034.26h4.66c.24,0,.416-.055.525-.165s.165-.302.165-.575c0-.086.046-.13.14-.13s.141.043.141.13c0,.06-.004.267-.01.62-.008.354-.01.773-.01,1.26,0,.227-.088.37-.261.43-.04.013-.173.06-.399.14s-.506.178-.836.295-.676.24-1.039.37-.709.253-1.035.37c-.327.116-.599.215-.815.295s-.339.123-.364.13c-.207.073-.188.16.059.26.041.013.166.058.375.135.211.077.475.17.791.28.316.11.651.225,1.005.345.353.12.688.235,1.005.345.316.11.586.203.811.28.223.077.357.122.404.135.2.06.301.207.301.44,0,.486.002.893.01,1.22.006.327.01.513.01.56,0,.086-.047.13-.141.13s-.14-.043-.14-.13c0-.247-.052-.418-.155-.515s-.252-.145-.445-.145H2.786c-.213,0-.373.04-.48.12-.106.08-.16.24-.16.48,0,.086-.043.13-.129.13-.107,0-.16-.043-.16-.13,0-.066.004-.198.015-.395.01-.197.015-.448.015-.755,0-.193-.002-.395-.005-.605s-.009-.392-.015-.545c-.007-.153-.01-.253-.01-.3,0-.1.053-.15.16-.15.086,0,.129.05.129.15,0,.307.049.517.146.63.097.113.262.17.495.17h5.63c.046,0,.069-.017.069-.05,0-.033-.013-.057-.039-.07-.021-.007-.146-.052-.381-.135-.232-.083-.536-.19-.91-.32-.373-.13-.781-.271-1.225-.425s-.885-.307-1.324-.46c-.44-.154-.844-.293-1.211-.42-.366-.127-.776-.267-1.229-.42-.054-.02-.085-.038-.095-.055-.01-.017-.016-.042-.016-.075,0-.053.03-.093.09-.12.014-.006.131-.052.351-.135.22-.083.51-.193.87-.33.359-.137.753-.285,1.18-.445.427-.16.854-.322,1.28-.485.427-.163.817-.313,1.175-.45.356-.137.646-.247.87-.33s.339-.128.345-.135c.02-.006.027-.021.02-.045-.006-.023-.023-.035-.049-.035H3.496c-.507,0-.858.1-1.056.3-.196.2-.295.433-.295.7,0,.1-.043.15-.129.15-.107,0-.16-.05-.16-.15,0-.067.004-.202.015-.405.01-.203.015-.452.015-.745,0-.347-.005-.608-.015-.785-.011-.177-.015-.302-.015-.375Z"/>
    <path class="st1" d="M1.856,98.455c0-.087.053-.13.16-.13.086,0,.129.043.129.13,0,.373.047.625.141.755s.25.195.47.195h5.479c.201,0,.351-.06.451-.18.1-.12.149-.36.149-.72,0-.087.05-.13.149-.13.088,0,.131.043.131.13,0,.053-.004.308-.01.765-.008.457-.01,1.128-.01,2.015,0,.84.002,1.477.01,1.91.006.433.01.68.01.74,0,.153-.077.233-.23.24-.06.013-.158.023-.295.03-.137.006-.281.013-.436.02-.152.006-.289.011-.409.015s-.196.005-.229.005c-.027,0-.056-.006-.086-.02-.029-.014-.045-.043-.045-.09,0-.046.006-.082.016-.105s.038-.045.084-.065c.181-.08.372-.182.576-.305.203-.123.378-.287.524-.49.146-.204.22-.468.22-.795v-1.55c0-.06-.014-.11-.039-.15-.027-.04-.084-.06-.17-.06h-2.74c-.027,0-.056.013-.086.04-.029.027-.045.057-.045.09v.51c0,.28.061.493.18.64.121.146.261.255.421.325.159.07.296.128.409.175.054.02.092.038.115.055s.035.052.035.105c0,.047-.017.079-.05.095s-.067.025-.101.025c-.053,0-.148-.001-.284-.005-.137-.003-.285-.007-.445-.01-.159-.003-.307-.005-.44-.005-.126,0-.277.001-.455.005-.176.003-.336.007-.479.01s-.238.005-.284.005c-.101,0-.15-.04-.15-.12,0-.073.043-.123.13-.15.126-.047.274-.106.444-.18.17-.074.32-.184.451-.33.129-.147.194-.36.194-.64v-.51c0-.086-.05-.13-.149-.13h-2.891c-.127,0-.189.067-.189.2v1.35c0,.32.058.59.174.81.117.22.264.401.44.545.177.143.354.255.53.335.176.08.324.14.445.18.06.02.093.042.1.065.006.023.006.058,0,.105v.01c-.007.053-.023.083-.05.09-.026.007-.058.01-.091.01-.025,0-.109-.002-.25-.005-.139-.003-.301-.007-.484-.01s-.354-.007-.51-.01c-.156-.003-.266-.005-.325-.005-.087,0-.16-.025-.22-.075-.061-.05-.09-.122-.09-.215,0-.046.003-.15.01-.31.006-.16.012-.424.015-.79.003-.367.005-.88.005-1.54,0-.813-.005-1.482-.015-2.005-.011-.523-.015-.822-.015-.895Z"/>
    <path class="st1" d="M1.826,113.034v-.13c-.007-.126-.003-.223.01-.29.014-.066.069-.126.17-.18.14-.08.349-.204.625-.37.276-.167.597-.363.96-.59.363-.227.745-.465,1.145-.715.4-.25.794-.497,1.181-.74.387-.244.741-.469,1.065-.675.322-.207.593-.38.81-.52.216-.14.352-.227.405-.26.014-.007.018-.022.015-.045-.003-.023-.021-.035-.056-.035H3.496c-.507,0-.858.098-1.056.295-.196.197-.295.428-.295.695,0,.033-.012.065-.035.095-.023.03-.058.045-.104.045-.046,0-.083-.015-.11-.045-.026-.03-.039-.062-.039-.095,0-.067.004-.204.015-.41.01-.207.015-.457.015-.75,0-.347-.005-.608-.015-.785-.011-.177-.015-.302-.015-.375,0-.086.049-.13.149-.13.093,0,.14.043.14.13,0,.28.101.508.301.685.199.177.547.265,1.039.265h4.66c.24,0,.416-.054.525-.16s.165-.297.165-.57c0-.087.05-.13.149-.13.088,0,.131.043.131.13,0,.053-.004.231-.01.535-.008.304-.01.702-.01,1.195,0,.113-.018.196-.051.25-.033.053-.09.103-.17.15-.047.026-.174.106-.38.24-.207.133-.466.3-.774.5-.311.2-.646.417-1.006.65-.359.233-.72.466-1.08.7-.359.233-.693.448-1,.645s-.559.36-.755.49-.312.205-.345.225c-.061.04-.08.078-.061.115.021.037.057.055.11.055h3.89c.486,0,.836-.092,1.045-.275.211-.184.315-.435.315-.755,0-.086.05-.13.149-.13.088,0,.131.043.131.13,0,.073-.006.217-.016.43s-.015.467-.015.76c0,.287.005.534.015.74s.016.343.016.41c0,.1-.043.15-.131.15-.1,0-.149-.05-.149-.15,0-.253-.102-.472-.306-.655-.203-.183-.555-.275-1.055-.275h-3.8c-.353,0-.651.013-.896.04-.242.026-.471.046-.684.06-.074.006-.136-.019-.186-.075-.051-.057-.078-.222-.085-.495Z"/>
    <path class="st1" d="M1.856,118.765c0-.087.046-.13.14-.13.101,0,.149.043.149.13,0,.373.054.623.16.75.107.126.257.19.45.19h5.841c.139,0,.209-.07.209-.21v-.6c0-.253-.059-.47-.175-.65-.116-.18-.263-.33-.44-.45-.176-.12-.352-.217-.524-.29s-.319-.13-.44-.17c-.039-.014-.062-.033-.07-.06-.006-.027-.006-.063,0-.11v-.02c.008-.04.022-.063.046-.07.022-.007.048-.01.075-.01.026,0,.113.003.26.01.146.006.312.015.5.025.187.01.359.018.52.025.16.006.271.01.33.01.153,0,.23.087.23.26,0,.033-.004.176-.01.43-.008.253-.012.595-.016,1.025-.004.43-.005.925-.005,1.485s0,1.055.005,1.485c.004.43.008.775.016,1.035.006.26.01.407.01.44,0,.16-.08.243-.24.25-.047,0-.148.005-.305.015-.157.01-.33.018-.521.025-.19.006-.36.013-.51.02-.149.006-.238.01-.265.01-.041,0-.068-.003-.086-.01-.016-.007-.027-.037-.035-.09,0-.007-.003-.017-.01-.03,0-.027.002-.05.006-.07.003-.02.031-.043.084-.07.113-.053.258-.118.431-.195s.347-.173.521-.29c.173-.117.319-.262.439-.435s.18-.387.18-.64v-.66c0-.06-.012-.112-.035-.155-.023-.043-.081-.065-.174-.065H2.756c-.113,0-.217.019-.31.055-.094.037-.167.12-.221.25-.053.13-.08.332-.08.605,0,.1-.049.15-.149.15-.094,0-.14-.05-.14-.15,0-.067.004-.232.015-.495.01-.263.015-.602.015-1.015s-.005-.755-.015-1.025c-.011-.27-.015-.441-.015-.515Z"/>
  </g>
</svg>