<?xml version="1.0" encoding="UTF-8"?>
<svg id="_レイヤー_1" data-name="レイヤー_1" xmlns="http://www.w3.org/2000/svg" version="1.1" viewBox="0 0 146 92">
  <!-- Generator: Adobe Illustrator 29.0.1, SVG Export Plug-In . SVG Version: 2.1.0 Build 192)  -->
  <defs>
    <style>
      .st0 {
        fill: #141414;
      }

      .st1 {
        fill: #9c8334;
      }
    </style>
  </defs>
  <g>
    <path class="st0" d="M53.25,41.536c-.8,0-1.448-.225-1.944-.672-.497-.449-.8-.984-.912-1.608-.112-.624-.032-1.239.24-1.848.271-.607.744-1.057,1.416-1.344,1.248-.576,2.248-1.16,3-1.753.751-.591,1.344-1.303,1.776-2.136.432-.831.76-1.855.984-3.072.384-.319.72-.304,1.008.049.64,3.743.448,6.743-.576,9-1.025,2.256-2.688,3.384-4.992,3.384ZM52.05,28.432c-.448-.224-.544-.543-.288-.96,1.824-.672,3.535-1.471,5.136-2.399,1.6-.928,3.007-2.104,4.224-3.528,1.216-1.424,2.184-3.208,2.904-5.352.72-2.144,1.096-4.752,1.128-7.824h-9.936c-1.696.032-3.056.096-4.08.191l-.528-1.871c1.248.128,2.768.208,4.56.239h13.968v-1.872c0-1.119-.041-1.999-.12-2.64-.08-.64-.185-1.088-.312-1.344-.128-.224-.144-.416-.048-.576.096-.16.271-.24.528-.24.319,0,.808.032,1.464.096.656.064,1.36.145,2.112.24.751.097,1.447.192,2.088.288.64.096,1.12.177,1.44.24.416.128.592.416.528.864-.032.416-.272.656-.72.72-.705.032-1.056.353-1.056.96v3.264h9.552c.288,0,.52-.023.696-.071.175-.049.343-.185.504-.408.16-.192.376-.472.648-.84.271-.368.552-.736.84-1.104.288-.367.48-.632.576-.792.288-.352.688-.432,1.2-.24.448.192,1,.521,1.656.984.656.464,1.28.952,1.872,1.464.592.513,1.016.912,1.272,1.2.256.288.328.568.216.84-.113.272-.296.408-.552.408h-13.824v3.359c0,2.337.031,4.312.096,5.929.064,1.616.096,2.632.096,3.048,0,1.472-.473,2.72-1.416,3.744-.944,1.024-2.744,1.728-5.4,2.111-.225-1.375-.513-2.439-.864-3.191-.353-.752-.84-1.279-1.464-1.584-.624-.304-1.48-.487-2.568-.552-.128-.16-.185-.328-.168-.505.016-.175.104-.327.264-.455h4.896c.736,0,1.104-.337,1.104-1.009v-10.896h-3.6c-.064,3.456-.6,6.336-1.608,8.64-1.008,2.304-2.36,4.185-4.056,5.641-1.696,1.456-3.656,2.624-5.88,3.504-2.225.88-4.584,1.64-7.08,2.279ZM51.618,23.584c-.48-.096-.688-.367-.624-.816.896-.768,1.768-1.823,2.616-3.168.848-1.344,1.616-2.8,2.304-4.367.688-1.568,1.224-3.04,1.608-4.416.064-.16.112-.32.144-.48.031-.16.064-.319.096-.479.063-.16.111-.256.144-.288.096-.064.24-.064.432,0,.384.096.976.288,1.776.575.8.288,1.592.576,2.376.864.784.288,1.335.513,1.656.672.127.064.2.177.216.336.016.161-.008.32-.072.48-.128.257-.305.368-.528.336-.32-.063-.561-.048-.72.048-.161.096-.353.32-.576.672-1.472,2.177-3.16,4.112-5.064,5.809-1.904,1.696-3.833,3.104-5.784,4.224ZM64.867,43.264c-.96-.16-1.656-.432-2.088-.815-.432-.384-.648-1.024-.648-1.92v-9.168c0-1.312-.112-2.208-.336-2.688-.096-.191-.096-.352,0-.479.032-.128.176-.192.432-.192.543.032,1.248.112,2.112.24.864.128,1.711.28,2.544.456.832.176,1.456.328,1.872.456.32.064.48.288.48.672-.032.353-.24.56-.624.624-.416.032-.704.112-.864.24-.161.128-.24.432-.24.911v5.856c0,.32.072.552.216.696.144.144.439.232.888.264.544.032,1.231.048,2.064.048s1.712-.023,2.64-.072c.928-.048,1.792-.111,2.592-.191s1.44-.168,1.92-.265c.448-.096.823-.239,1.128-.432.304-.192.568-.528.792-1.008.16-.384.367-.952.624-1.704.256-.752.496-1.495.72-2.232.224-.735.368-1.231.432-1.487.16-.128.336-.176.528-.145.192.032.336.129.432.288,0,.257-.017.729-.048,1.416-.032.688-.064,1.36-.096,2.017-.032.656-.064,1.111-.096,1.367-.032.353.016.608.144.769.127.16.399.32.816.479.448.161.855.456,1.224.889.368.432.552.968.552,1.607,0,.672-.248,1.264-.744,1.776-.497.512-1.352.896-2.568,1.152-1.056.223-2.36.399-3.912.527-1.552.128-3.161.216-4.824.265-1.665.048-3.216.048-4.656,0-1.44-.049-2.576-.12-3.408-.217ZM75.906,35.2c-.576.128-1.12.088-1.632-.12-.512-.208-.848-.616-1.008-1.224-.353-1.408-.864-2.641-1.536-3.696-.672-1.057-1.601-1.952-2.784-2.688-.224-.415-.096-.72.384-.912,1.408.129,2.776.377,4.104.744,1.328.368,2.432.921,3.312,1.656.88.736,1.368,1.696,1.464,2.88.064.929-.144,1.68-.624,2.256s-1.04.944-1.68,1.104ZM89.922,23.152c-.64.191-1.264.185-1.872-.024-.608-.208-1.024-.664-1.248-1.368-.576-2.016-1.353-3.896-2.328-5.64-.977-1.744-2.201-3.16-3.672-4.248-.128-.48.031-.769.48-.864,2.848.672,5.271,1.593,7.272,2.76,2,1.169,3.208,2.761,3.624,4.776.288,1.28.175,2.304-.336,3.072-.512.768-1.152,1.28-1.92,1.536ZM91.362,40.48c-.576.063-1.112-.049-1.608-.337-.497-.287-.824-.799-.984-1.535-.32-1.824-.936-3.576-1.848-5.257-.912-1.68-2.072-3.079-3.48-4.199-.096-.448.08-.736.528-.864,1.695.353,3.279.888,4.752,1.607,1.471.721,2.704,1.593,3.696,2.616.992,1.024,1.584,2.208,1.776,3.553.192,1.28-.032,2.304-.672,3.071-.641.769-1.36,1.216-2.16,1.345Z"/>
    <path class="st0" d="M89.827,73.696c-.544.128-1.073.096-1.584-.097-.512-.191-.881-.56-1.104-1.104-.576-1.6-1.353-3.151-2.328-4.656-.977-1.504-2.12-2.752-3.432-3.744-.064-.479.112-.751.528-.815.64.128,1.28.271,1.92.432.64.16,1.264.368,1.872.624.352-.8.655-1.536.912-2.208h-28.8c.16,2.08-.208,3.792-1.104,5.136-.896,1.345-2.064,2.017-3.504,2.017-.833,0-1.472-.192-1.92-.576-.449-.384-.729-.848-.84-1.393-.112-.543-.064-1.087.144-1.632.208-.543.552-.96,1.032-1.248,1.12-.672,2.047-1.503,2.784-2.496.736-.991,1.152-2.367,1.248-4.128.288-.384.607-.432.96-.144.256.512.456,1.024.6,1.536s.264,1.008.36,1.488h4.224c-.161-.256-.24-.56-.24-.912,0-1.024-.176-2.08-.528-3.168-.353-1.088-.848-2-1.488-2.736v-.24c-.8,0-1.568-.008-2.304-.023-.736-.017-1.44-.04-2.112-.072-.353-.352-.368-.688-.048-1.008,1.855-.097,3.896-.271,6.12-.528,2.224-.256,4.48-.567,6.768-.936,2.288-.368,4.472-.809,6.552-1.32,2.08-.512,3.919-1.072,5.52-1.68.288-.128.567-.24.84-.337.271-.096.52-.207.744-.336.063-.063.12-.096.168-.096.048,0,.087-.016.12-.048.096,0,.208.032.336.096.543.225,1.279.576,2.208,1.057.928.479,1.848.952,2.76,1.416s1.576.824,1.992,1.079c.255.129.391.288.408.48.016.192-.024.368-.12.528-.192.384-.528.496-1.008.336-.32-.064-.632-.104-.936-.12-.304-.016-.68.008-1.128.072-.512.032-1.048.08-1.608.144-.561.064-1.112.128-1.656.192.8.288,1.6.592,2.4.912.799.319,1.359.56,1.68.72.288.128.384.384.288.768-.032.32-.256.449-.672.384-.32-.031-.561.009-.72.12-.16.113-.368.297-.624.553-.704.768-1.528,1.584-2.472,2.447-.944.864-1.848,1.616-2.712,2.257h5.856c.255,0,.432-.024.528-.072s.208-.168.336-.36c.16-.256.328-.52.504-.792.176-.271.328-.52.456-.744.256-.447.64-.512,1.152-.191.416.256.912.6,1.488,1.031.576.433,1.144.864,1.704,1.297.559.432,1,.808,1.32,1.128.448.416.592.88.432,1.392-.161.448-.528.656-1.104.624-.384-.031-.768-.04-1.152-.024-.384.017-.768.057-1.152.12-1.088.192-2.096.545-3.024,1.057.992.479,1.864,1.04,2.616,1.68.751.641,1.288,1.408,1.608,2.304.448,1.248.408,2.272-.12,3.072s-1.176,1.296-1.944,1.488ZM90.306,91.744c-3.072-.225-6-.672-8.784-1.344-2.784-.673-5.216-1.697-7.296-3.072-3.2,1.728-6.752,2.888-10.656,3.479-3.904.592-8.144.889-12.72.889-.128-.129-.2-.288-.216-.48-.016-.191.04-.353.168-.479,3.936-.353,7.576-1.001,10.92-1.944,3.343-.943,6.343-2.439,9-4.488-1.376-1.632-2.352-3.552-2.928-5.76-2.112,2.112-4.4,3.84-6.864,5.184-2.465,1.345-5.024,2.448-7.68,3.312-.48-.224-.608-.528-.384-.912,1.632-.8,3.223-1.855,4.776-3.168,1.552-1.312,2.959-2.784,4.224-4.416,1.264-1.632,2.28-3.328,3.048-5.088-.449-.192-.761-.456-.936-.792-.176-.336-.264-.775-.264-1.32v-5.664c0-1.151-.096-1.888-.288-2.208-.128-.159-.128-.336,0-.527.128-.192.288-.256.48-.192.416.032.968.112,1.656.24.688.128,1.375.264,2.064.408.688.144,1.24.28,1.656.407.352.129.496.353.432.673,0,.352-.192.527-.576.527-.32.032-.528.112-.624.24-.096.128-.144.416-.144.864v2.832c0,.288.063.496.192.624.127.128.4.224.816.288.544.064,1.304.088,2.28.071.976-.016,1.944-.056,2.904-.12.96-.063,1.711-.144,2.256-.239.448-.097.816-.256,1.104-.48.288-.224.544-.56.768-1.008.127-.319.28-.769.456-1.344.175-.576.352-1.145.528-1.704.176-.56.296-1,.36-1.32.16-.16.343-.224.552-.192.208.032.36.129.456.288v3.601c0,.736.24,1.232.72,1.487,1.023.417,1.536,1.009,1.536,1.776,0,.704-.192,1.257-.576,1.656-.384.4-1.073.729-2.064.983-1.088.257-2.48.44-4.176.553-1.696.112-3.344.168-4.944.168-.256.384-.521.752-.792,1.104-.272.353-.552.704-.84,1.057h6.816c.352,0,.592-.097.72-.288.127-.16.295-.376.504-.648.208-.271.408-.535.6-.792.256-.352.576-.432.96-.24.416.192.96.473,1.632.841.672.368,1.352.752,2.04,1.151.688.4,1.24.761,1.656,1.08.448.288.607.688.48,1.2-.064.192-.185.368-.36.528-.176.16-.393.224-.648.191-.48,0-.84.08-1.08.24-.24.16-.521.448-.84.864-1.217,1.601-2.592,3.04-4.128,4.319,2.176.449,4.536.713,7.08.792,2.544.081,5.08.12,7.608.12h1.344c-1.056.769-1.944,1.761-2.664,2.977s-1.16,2.287-1.32,3.216ZM57.666,73.984c-.929,0-1.601-.304-2.016-.912-.416-.607-.568-1.288-.456-2.04.112-.752.456-1.32,1.032-1.704.928-.64,1.728-1.44,2.4-2.4s1.087-2.176,1.248-3.647c.352-.352.688-.352,1.008,0,.736,1.984,1.112,3.784,1.128,5.399.016,1.616-.336,2.904-1.056,3.864-.72.96-1.816,1.44-3.288,1.44ZM65.971,60.688h5.232c-.161-.256-.24-.56-.24-.912,0-1.024-.176-2.08-.528-3.168-.353-1.088-.848-2-1.488-2.736-.032-.096-.016-.208.048-.336v-.048c-1.185.032-2.352.064-3.504.096-1.152.032-2.273.064-3.36.096,1.216.417,2.28,1.032,3.192,1.849.912.815,1.368,1.864,1.368,3.144,0,.801-.24,1.473-.72,2.017ZM72.834,82.528c1.472-1.44,2.8-3.072,3.984-4.896h-8.016c.415,1.089.967,2.032,1.656,2.832.688.801,1.48,1.488,2.376,2.064ZM76.098,68.848c-.449.161-.905.177-1.368.048-.464-.127-.824-.463-1.08-1.008-.416-.928-.912-1.759-1.488-2.496-.576-.735-1.312-1.312-2.208-1.728-.224-.448-.113-.752.336-.912,1.152-.063,2.288-.016,3.408.144,1.12.161,2.064.488,2.832.984.768.497,1.216,1.192,1.344,2.088.096.704-.041,1.312-.408,1.824-.368.513-.824.864-1.368,1.056ZM75.378,60.688h3.456c.352-1.088.664-2.32.936-3.696.271-1.376.456-2.592.552-3.648.032-.159.048-.352.048-.576-1.568.129-3.152.257-4.752.385-1.601.128-3.2.224-4.8.288,1.375.416,2.592,1.04,3.648,1.871,1.056.833,1.584,1.953,1.584,3.36,0,.833-.224,1.505-.672,2.017Z"/>
  </g>
  <g>
    <path class="st1" d="M27.653,5.688c0-.093.043-.14.13-.14.106,0,.16.047.16.14,0,.36.043.606.13.74.086.133.243.2.47.2h5.51c.193,0,.338-.052.435-.155.097-.104.145-.338.145-.705,0-.087.053-.13.16-.13.086,0,.13.043.13.13,0,.06-.003.23-.01.51-.006.28-.01.6-.01.96,0,.24.001.467.005.68s.007.395.01.545c.003.15.005.242.005.275,0,.093-.043.14-.13.14-.107,0-.16-.047-.16-.14,0-.367-.048-.608-.145-.725-.097-.117-.242-.175-.435-.175h-5.89c-.133,0-.2.07-.2.21v1.55c0,.327.093.615.28.865s.418.463.695.64c.276.177.548.315.815.415.053.02.088.046.105.08.017.033.021.063.015.09-.007.053-.025.086-.055.1-.03.013-.062.02-.095.02h-.25c-.146,0-.322-.002-.525-.005-.203-.003-.398-.007-.585-.01s-.327-.008-.42-.015c-.087-.006-.157-.033-.21-.08-.054-.047-.08-.117-.08-.21,0-.046.001-.17.005-.37.003-.2.005-.5.005-.9v-3.05c0-.427-.001-.769-.005-1.025-.003-.257-.005-.409-.005-.455Z"/>
    <path class="st1" d="M27.533,17.958c0-.647.157-1.219.47-1.715.313-.497.751-.885,1.315-1.165.563-.28,1.218-.42,1.965-.42.76,0,1.42.146,1.98.44s.995.688,1.305,1.185.465,1.055.465,1.675-.155,1.178-.465,1.675-.745.892-1.305,1.185-1.22.44-1.98.44c-.747,0-1.401-.142-1.965-.425-.563-.284-1.002-.672-1.315-1.165-.313-.494-.47-1.063-.47-1.71ZM27.903,17.958c0,.36.105.683.315.97s.562.513,1.055.68c.493.167,1.163.25,2.01.25.854,0,1.527-.083,2.02-.25.493-.167.847-.394,1.06-.68s.32-.61.32-.97-.106-.684-.32-.97-.567-.513-1.06-.68c-.493-.167-1.167-.25-2.02-.25-.847,0-1.517.083-2.01.25-.494.167-.845.394-1.055.68s-.315.61-.315.97Z"/>
    <path class="st1" d="M27.533,27.638c0-.12.07-.207.21-.26.027-.006.148-.05.365-.13.216-.08.497-.185.84-.315s.718-.27,1.125-.42.813-.3,1.22-.45c.406-.15.783-.29,1.13-.42s.633-.237.86-.32c.227-.083.356-.132.39-.145.373-.133.623-.278.75-.435.126-.157.19-.342.19-.555,0-.033.015-.063.045-.09.03-.027.062-.04.095-.04.106,0,.16.043.16.13,0,.047-.003.138-.01.275-.007.137-.014.293-.02.47-.007.177-.01.348-.01.515,0,.193.003.405.01.635.006.23.013.434.02.61.006.176.01.281.01.315,0,.086-.053.13-.16.13-.034,0-.065-.012-.095-.035-.03-.023-.045-.055-.045-.095,0-.534-.224-.73-.67-.59-.067.02-.222.073-.465.16-.244.086-.535.19-.875.31-.34.12-.695.245-1.065.375-.37.13-.718.251-1.045.365s-.602.21-.825.29c-.224.08-.355.124-.395.13-.02.006-.03.016-.03.03,0,.013.003.023.01.03.06.02.195.063.405.13.21.066.462.148.755.245.293.097.605.2.935.31.33.11.652.215.965.315.313.1.588.187.825.26s.408.123.515.15c.293.073.526.037.7-.11.173-.147.26-.377.26-.69,0-.047.015-.083.045-.11.03-.026.062-.04.095-.04.04,0,.077.013.11.04.033.027.05.063.05.11,0,.06-.006.193-.02.4-.014.207-.02.463-.02.77,0,.293.006.54.02.74.013.2.02.33.02.39,0,.1-.053.15-.16.15-.034,0-.065-.013-.095-.04-.03-.026-.045-.063-.045-.11,0-.28-.087-.501-.26-.665-.174-.164-.42-.305-.74-.425-.093-.034-.262-.094-.505-.18-.244-.086-.535-.188-.875-.305-.34-.117-.702-.242-1.085-.375-.384-.134-.765-.265-1.145-.395-.38-.13-.73-.25-1.05-.36-.32-.11-.585-.2-.795-.27-.21-.07-.338-.115-.385-.135-.16-.067-.24-.157-.24-.27Z"/>
    <path class="st1" d="M27.653,33.838c0-.087.053-.13.16-.13.086,0,.13.043.13.13,0,.373.046.625.14.755.093.13.25.195.47.195h5.48c.2,0,.35-.06.45-.18.1-.12.15-.36.15-.72,0-.087.05-.13.15-.13.087,0,.13.043.13.13,0,.053-.003.308-.01.765-.007.457-.01,1.128-.01,2.015,0,.84.003,1.477.01,1.91.006.433.01.68.01.74,0,.153-.077.233-.23.24-.06.013-.158.023-.295.03-.137.006-.282.013-.435.02-.153.006-.29.011-.41.015-.12.003-.197.005-.23.005-.027,0-.055-.006-.085-.02-.03-.014-.045-.043-.045-.09,0-.046.005-.082.015-.105.01-.023.039-.045.085-.065.18-.08.372-.182.575-.305.203-.123.378-.287.525-.49.146-.204.22-.468.22-.795v-1.55c0-.06-.014-.11-.04-.15-.027-.04-.083-.06-.17-.06h-2.74c-.027,0-.055.013-.085.04-.03.027-.045.057-.045.09v.51c0,.28.06.493.18.64.12.146.26.255.42.325.16.07.296.128.41.175.053.02.092.038.115.055.023.017.035.052.035.105,0,.047-.017.079-.05.095s-.067.025-.1.025c-.053,0-.148-.001-.285-.005-.137-.003-.285-.007-.445-.01-.16-.003-.307-.005-.44-.005-.126,0-.278.001-.455.005s-.336.007-.48.01-.238.005-.285.005c-.1,0-.15-.04-.15-.12,0-.073.043-.123.13-.15.126-.047.275-.106.445-.18.17-.074.32-.184.45-.33.13-.147.195-.36.195-.64v-.51c0-.086-.05-.13-.15-.13h-2.89c-.127,0-.19.067-.19.2v1.35c0,.32.058.59.175.81.117.22.263.401.44.545.177.143.354.255.53.335.176.08.325.14.445.18.06.02.093.042.1.065.006.023.006.058,0,.105v.01c-.007.053-.023.083-.05.09-.027.007-.057.01-.09.01-.026,0-.11-.002-.25-.005-.14-.003-.302-.007-.485-.01-.184-.003-.354-.007-.51-.01-.156-.003-.265-.005-.325-.005-.087,0-.16-.025-.22-.075-.06-.05-.09-.122-.09-.215,0-.046.003-.15.01-.31.007-.16.012-.424.015-.79.003-.367.005-.88.005-1.54,0-.813-.005-1.482-.015-2.005-.01-.523-.015-.822-.015-.895Z"/>
  </g>
</svg>