<?xml version="1.0" encoding="UTF-8"?>
<svg id="_レイヤー_1" data-name="レイヤー_1" xmlns="http://www.w3.org/2000/svg" version="1.1" viewBox="0 0 146 188">
  <!-- Generator: Adobe Illustrator 29.0.1, SVG Export Plug-In . SVG Version: 2.1.0 Build 192)  -->
  <defs>
    <style>
      .st0 {
        fill: #141414;
      }

      .st1 {
        fill: #9c8334;
      }
    </style>
  </defs>
  <g>
    <path class="st0" d="M54.365,43.656c-.192-1.408-.432-2.488-.72-3.24s-.704-1.304-1.248-1.656c-.544-.352-1.328-.592-2.352-.72-.32-.384-.304-.72.048-1.008h4.272c.511,0,.855-.087,1.032-.264s.264-.456.264-.84v-9.984c-.417.288-.8.552-1.152.792-.353.24-.656.456-.912.648-.353.224-.48.561-.384,1.008.064.224-.064.4-.384.528-.288.128-.497.08-.624-.144-.224-.384-.512-.943-.864-1.68-.353-.736-.696-1.488-1.032-2.256s-.584-1.36-.744-1.776c-.064-.127-.064-.224,0-.288.032-.064.127-.127.288-.192l.912-.24c.64-.16,1.384-.343,2.232-.552.848-.208,1.735-.424,2.664-.648v-9.168h-1.632c-1.568.032-2.864.08-3.888.144l-.528-1.92c1.344.161,2.8.272,4.368.336h1.68V3.96c0-.864-.032-1.52-.096-1.968-.064-.448-.16-.768-.288-.96-.096-.256-.113-.448-.048-.576.096-.16.271-.24.528-.24.448,0,1.071.048,1.872.144.8.096,1.592.208,2.376.336.784.128,1.4.256,1.848.384.352.064.528.304.528.72-.033.224-.113.384-.24.48-.128.096-.272.161-.432.192-.672.032-1.008.384-1.008,1.056v7.008h.192c.224,0,.376-.031.456-.096.08-.064.184-.176.312-.336.16-.256.368-.616.624-1.08.256-.463.48-.856.672-1.176.288-.416.656-.448,1.104-.096.448.32,1.024.8,1.728,1.44.704.641,1.248,1.184,1.632,1.632.256.257.328.512.216.768-.113.256-.312.384-.6.384h-6.336v7.92c.799-.192,1.543-.376,2.232-.552.688-.175,1.288-.328,1.8-.456v-2.016c0-1.184-.016-2.144-.048-2.88-.032-.735-.096-1.216-.192-1.44-.064-.16-.048-.288.048-.384.064-.16.192-.208.384-.144.352.064.84.2,1.464.408.624.208,1.255.432,1.896.672.64.24,1.152.456,1.536.648h1.488c.319,0,.544-.112.672-.336.064-.16.184-.376.36-.648.175-.271.295-.488.36-.648.192-.288.48-.367.864-.24.384.096.856.264,1.416.504.56.24,1.112.488,1.656.744.543.256.976.48,1.296.672.319.161.48.408.48.744s-.192.584-.576.744c-.096.032-.176.064-.24.096-.064.032-.128.08-.192.144-.225.128-.376.312-.456.552-.081.24-.12.552-.12.936,0,.288.007.768.024,1.44.016.672.04,1.304.072,1.896.031.592.048.968.048,1.128,0,.288-.208.536-.624.744-.417.208-.929.369-1.536.48-.608.113-1.2.168-1.776.168-.672,0-1.008-.32-1.008-.96v-.576h-2.544v1.68c0,.288-.2.537-.6.744-.401.208-.896.368-1.488.48-.592.113-1.176.168-1.752.168-.672,0-1.008-.304-1.008-.912,0-.192.007-.568.024-1.128.016-.559.04-1.255.072-2.088-.576.32-1.208.688-1.896,1.104-.688.417-1.4.848-2.136,1.296v1.632c0,.833.007,1.816.024,2.952.016,1.136.04,2.312.072,3.528.032,1.216.056,2.368.072,3.456.016,1.088.031,1.984.048,2.688.016.704.024,1.12.024,1.248,0,1.408-.496,2.575-1.488,3.504-.992.928-2.688,1.584-5.088,1.968ZM75.725,43.656c-.8,0-1.2-.368-1.2-1.104,0-.128.008-.512.024-1.152.016-.641.04-1.423.072-2.352.032-.928.064-1.912.096-2.952.031-1.04.048-2.008.048-2.904-2.048,2.112-4.28,3.944-6.696,5.496-2.417,1.552-4.809,2.839-7.176,3.864-.448-.064-.608-.353-.48-.864,1.472-.929,2.952-2.128,4.44-3.6,1.488-1.472,2.864-3.064,4.128-4.776,1.264-1.711,2.312-3.384,3.144-5.016h-3.984c-1.056,0-1.984.017-2.784.048-.8.032-1.616.096-2.448.192l-.576-2.112c1.567.192,3.504.32,5.808.384h6.624v-.144c0-1.6-.128-2.624-.384-3.072-.096-.192-.113-.384-.048-.576.096-.16.256-.24.48-.24.416,0,1.032.048,1.848.144.816.096,1.632.208,2.448.336.816.128,1.416.24,1.8.336.416.096.592.353.528.768-.032.384-.272.608-.72.672-.545.096-.816.4-.816.912v.864h5.52c.512,0,.896-.144,1.152-.432.192-.256.496-.656.912-1.2.416-.543.704-.928.864-1.152.256-.319.592-.384,1.008-.192.384.16.856.456,1.416.888.56.432,1.096.881,1.608,1.344.511.464.879.84,1.104,1.128.192.224.256.464.192.72-.064.257-.225.384-.48.384h-12.72c1.12,1.409,2.479,2.664,4.08,3.768,1.6,1.104,3.295,2.024,5.088,2.76,1.792.737,3.52,1.312,5.184,1.728-.704.384-1.4.896-2.088,1.536-.688.641-1.296,1.312-1.824,2.016-.528.703-.92,1.327-1.176,1.872-2.081-1.248-4.008-2.992-5.784-5.232-1.776-2.239-3.128-4.671-4.056-7.296v2.832c0,1.217.016,2.537.048,3.96.031,1.424.063,2.681.096,3.768.032,1.087.048,1.76.048,2.016,0,.319-.225.607-.672.864-.448.256-1.008.448-1.68.576-.672.127-1.344.192-2.016.192ZM70.349,11.832c-.704,0-1.056-.336-1.056-1.008,0-.288.016-.991.048-2.112.031-1.12.048-2.32.048-3.6,0-1.184-.024-2.071-.072-2.664-.048-.592-.104-.984-.168-1.176-.032-.16,0-.288.096-.384.127-.127.256-.16.384-.096.352.064.864.2,1.536.408.672.208,1.36.432,2.064.672.704.24,1.248.456,1.632.648h6.096c.319,0,.56-.127.72-.384.063-.16.184-.384.36-.672.175-.288.312-.512.408-.672.16-.32.463-.416.912-.288.384.128.88.312,1.488.552.607.24,1.208.497,1.8.768.592.272,1.063.521,1.416.744.319.192.48.473.48.84s-.208.632-.624.792c-.192.064-.336.128-.432.192-.448.256-.672.768-.672,1.536,0,.384.008.873.024,1.464.016.592.04,1.136.072,1.632.031.497.048.824.048.984,0,.288-.224.544-.672.768-.449.224-.992.4-1.632.528-.641.128-1.28.192-1.92.192-.704,0-1.056-.336-1.056-1.008v-.672h-7.104v.528c0,.288-.225.544-.672.768-.448.224-.992.4-1.632.528-.641.128-1.28.192-1.92.192ZM69.485,19.896h2.544v-4.704h-2.544v4.704ZM74.573,8.328h7.104V3.96h-7.104v4.368ZM79.853,23.256c-.641,0-.96-.319-.96-.96,0-.288.016-.824.048-1.608.032-.784.048-2.056.048-3.816,0-2.4-.096-3.84-.288-4.32-.032-.192,0-.336.096-.432.064-.063.192-.096.384-.096.352.064.84.2,1.464.408.624.208,1.255.432,1.896.672.64.24,1.152.456,1.536.648h1.728c.288,0,.528-.112.72-.336.064-.16.176-.376.336-.648.16-.271.288-.488.384-.648.16-.288.448-.367.864-.24.352.096.808.264,1.368.504.56.24,1.12.488,1.68.744.56.256,1,.48,1.32.672.288.161.432.408.432.744s-.192.584-.576.744c-.064.032-.136.064-.216.096-.081.032-.152.08-.216.144-.384.256-.576.752-.576,1.488,0,.288.007.776.024,1.464.016.688.04,1.344.072,1.968.032.624.048,1.016.048,1.176,0,.256-.208.488-.624.696-.417.208-.92.368-1.512.48-.592.113-1.176.168-1.752.168-.672,0-1.008-.304-1.008-.912v-.72h-2.832v.528c0,.288-.208.536-.624.744-.417.208-.92.368-1.512.48-.592.112-1.176.168-1.752.168ZM83.741,19.896h2.832v-4.704h-2.832v4.704Z"/>
    <path class="st0" d="M56.573,91.704c-.833,0-1.248-.384-1.248-1.152,0-.128.016-.672.048-1.632.032-.96.072-2.191.12-3.696.048-1.503.096-3.144.144-4.92.048-1.776.088-3.528.12-5.256.031-1.728.048-3.295.048-4.704v-2.88c-.929,1.184-1.88,2.304-2.856,3.36-.977,1.056-1.96,2.048-2.952,2.976-.48,0-.72-.224-.72-.672.991-1.344,1.936-2.936,2.832-4.776.896-1.84,1.72-3.832,2.472-5.976.751-2.144,1.384-4.304,1.896-6.48.512-2.176.88-4.272,1.104-6.288.032-.224.056-.439.072-.648.016-.208.04-.408.072-.6,0-.127.064-.224.192-.288h.24c.607.096,1.392.272,2.352.528.96.256,1.927.528,2.904.816.976.288,1.752.544,2.328.768.16.032.256.152.288.36.031.208.016.392-.048.552-.064.353-.256.528-.576.528-.417-.032-.72.024-.912.168s-.368.44-.528.888c-.417,1.152-.849,2.265-1.296,3.336-.448,1.073-.944,2.121-1.488,3.144v30.816c0,.352-.24.655-.72.912-.48.256-1.072.456-1.776.6-.704.144-1.409.216-2.112.216ZM75.053,91.608c-.896,0-1.344-.417-1.344-1.248,0-.128.008-.552.024-1.272.016-.72.04-1.616.072-2.688.031-1.072.056-2.208.072-3.408.016-1.2.032-2.344.048-3.432.016-1.088.024-2,.024-2.736v-16.8h-.576c-1.601,2.561-3.304,4.808-5.112,6.744-1.809,1.937-3.608,3.688-5.4,5.256-.513.064-.768-.144-.768-.624,1.344-1.792,2.592-3.88,3.744-6.264,1.152-2.383,2.152-4.896,3-7.536.848-2.64,1.448-5.224,1.8-7.752.031-.223.055-.432.072-.624.016-.192.04-.399.072-.624.063-.16.112-.256.144-.288.031-.064.16-.096.384-.096.607.096,1.384.281,2.328.552.943.272,1.888.552,2.832.84.943.288,1.72.56,2.328.816.16.032.264.144.312.336.048.192.04.368-.024.528-.128.352-.353.528-.672.528-.32-.032-.576.024-.768.168s-.384.44-.576.888c-.833,2.016-1.776,3.92-2.832,5.712h10.8c.512,0,.864-.16,1.056-.48.223-.352.543-.864.96-1.536.416-.672.72-1.168.912-1.488.319-.512.768-.576,1.344-.192.448.288.96.672,1.536,1.152.576.48,1.128.968,1.656,1.464.528.497.919.888,1.176,1.176.255.32.336.624.24.912-.096.288-.288.432-.576.432h-13.584v8.496h4.176c.48,0,.816-.16,1.008-.48.192-.32.48-.776.864-1.368.384-.592.655-1.032.816-1.32.288-.416.688-.464,1.2-.144.416.256.888.608,1.416,1.056.528.449,1.032.905,1.512,1.368.48.464.832.84,1.056,1.128.224.256.288.521.192.792-.096.272-.272.408-.528.408h-11.712v8.496h5.28c.512,0,.864-.176,1.056-.528.16-.223.36-.528.6-.912.24-.384.48-.775.72-1.176.24-.4.424-.696.552-.888.319-.511.768-.576,1.344-.192.448.256.96.632,1.536,1.128.576.497,1.128.984,1.656,1.464.528.48.919.88,1.176,1.2.255.288.336.584.24.888-.096.304-.288.456-.576.456h-13.536c.031,1.312.072,2.696.12,4.152.048,1.457.087,2.72.12,3.792.032,1.072.048,1.704.048,1.896,0,.384-.257.712-.768.984-.512.271-1.152.488-1.92.648s-1.553.24-2.352.24Z"/>
    <path class="st0" d="M50.573,139.608c-.48-.192-.608-.497-.384-.912,3.456-1.856,6.248-4.216,8.376-7.08,2.128-2.863,3.728-6.328,4.8-10.392,1.072-4.063,1.752-8.815,2.04-14.256h-9.312c-1.056,0-1.985.024-2.784.072-.8.048-1.616.12-2.448.216l-.576-2.112c1.567.192,3.504.32,5.808.384h11.184v-4.176c0-1.184-.048-2.12-.144-2.808-.096-.688-.208-1.176-.336-1.464-.096-.224-.112-.432-.048-.624.096-.16.288-.24.576-.24.352,0,.864.041,1.536.12.672.08,1.399.168,2.184.264.784.096,1.512.192,2.184.288.672.096,1.168.192,1.488.288.448.096.64.384.576.864-.032.448-.304.704-.816.768-.736.096-1.104.449-1.104,1.056v5.664h10.128c.32,0,.568-.024.744-.072.175-.048.343-.184.504-.408.16-.192.392-.496.696-.912.304-.416.607-.823.912-1.224.304-.399.52-.679.648-.84.288-.416.704-.511,1.248-.288.512.192,1.12.544,1.824,1.056.704.512,1.375,1.032,2.016,1.56.64.528,1.104.936,1.392,1.224.256.288.328.584.216.888-.113.305-.312.456-.6.456h-21.6c-.16,2.561-.4,4.944-.72,7.152h9.024c.384,0,.672-.144.864-.432.192-.288.376-.56.552-.816.175-.256.36-.528.552-.816.256-.384.607-.48,1.056-.288.48.16,1.08.432,1.8.816.72.384,1.432.776,2.136,1.176.704.4,1.264.744,1.68,1.032.319.224.456.552.408.984s-.248.696-.6.792c-.32.096-.608.192-.864.288-.384.128-.665.32-.84.576-.176.257-.296.641-.36,1.152-.288,3.616-.696,6.656-1.224,9.12-.528,2.465-1.176,4.464-1.944,6-.768,1.536-1.68,2.712-2.736,3.528s-2.256,1.392-3.6,1.728c-1.344.336-2.849.552-4.512.648,0-1.472-.176-2.608-.528-3.408-.353-.799-.944-1.44-1.776-1.92-.833-.48-1.984-.912-3.456-1.296-.192-.416-.096-.736.288-.96.416.064,1.08.161,1.992.288.912.128,1.864.24,2.856.336.991.096,1.792.144,2.4.144.768,0,1.479-.208,2.136-.624.656-.416,1.264-1.216,1.824-2.4.56-1.184,1.048-2.92,1.464-5.208.416-2.288.768-5.288,1.056-9h-9.936c-1.217,6.304-3.456,11.376-6.72,15.216-3.264,3.84-7.664,6.784-13.2,8.832Z"/>
    <path class="st0" d="M55.853,187.656c-.896,0-1.616-.161-2.16-.48-.544-.32-.816-.833-.816-1.536,0-.32.024-.664.072-1.032.048-.368.12-.76.216-1.176.096-.703.192-1.471.288-2.304.096-.832.096-1.68,0-2.544-.224-1.855-1.296-3.184-3.216-3.984-.161-.448-.017-.736.432-.864,1.024.256,1.816.312,2.376.168.56-.144,1.063-.616,1.512-1.416.384-.704.912-1.624,1.584-2.76.672-1.136,1.399-2.368,2.184-3.696.784-1.327,1.576-2.656,2.376-3.984.799-1.328,1.528-2.527,2.184-3.6.655-1.072,1.176-1.912,1.56-2.52.192-.063.384-.063.576,0,.192.064.304.192.336.384-.256.512-.648,1.36-1.176,2.544-.528,1.184-1.121,2.561-1.776,4.128-.656,1.568-1.28,3.168-1.872,4.8-.593,1.632-1.08,3.185-1.464,4.656-.384,1.472-.576,2.688-.576,3.648,0,1.088.127,2.128.384,3.12.256.992.52,1.937.792,2.832.271.896.456,1.76.552,2.592.096.864-.272,1.584-1.104,2.16-.833.576-1.92.864-3.264.864ZM56.525,164.808c-.608.161-1.184.12-1.728-.12-.544-.24-.896-.712-1.056-1.416-.257-1.152-.648-2.296-1.176-3.432-.528-1.135-1.289-1.992-2.28-2.568-.096-.192-.113-.384-.048-.576.063-.192.175-.319.336-.384,2.176-.032,4,.304,5.472,1.008,1.472.704,2.368,1.856,2.688,3.456.224,1.088.088,1.976-.408,2.664-.497.688-1.097,1.145-1.8,1.368ZM61.709,153.144c-.608.224-1.2.24-1.776.048s-.992-.624-1.248-1.296c-.416-1.28-1.04-2.479-1.872-3.6-.833-1.12-1.76-1.936-2.784-2.448-.225-.48-.144-.799.24-.96,1.472-.16,2.872-.087,4.2.216,1.327.304,2.463.776,3.408,1.416.944.64,1.528,1.44,1.752,2.4.288,1.088.208,2-.24,2.736-.449.737-1.008,1.232-1.68,1.488ZM65.309,187.752c-.128.031-.28.04-.456.024-.176-.017-.296-.088-.36-.216-.128-.288-.329-.744-.6-1.368-.272-.624-.56-1.304-.864-2.04-.305-.736-.593-1.44-.864-2.112-.272-.672-.473-1.2-.6-1.584-.032-.224-.016-.4.048-.528.096-.16.255-.24.48-.24.255-.032.511-.048.768-.048.255,0,.543-.016.864-.048l5.184-.24c.416-.992.888-2.232,1.416-3.72.528-1.488,1.032-3.04,1.512-4.656.48-1.616.848-3.128,1.104-4.536h-5.232c-1.056,0-1.984.017-2.784.048-.8.032-1.616.096-2.448.192l-.576-2.112c1.6.224,3.536.368,5.808.432h6.192v-9.504h-3.12c-1.056,0-1.985.024-2.784.072-.8.048-1.616.12-2.448.216l-.576-2.112c1.6.192,3.536.32,5.808.384h3.12v-4.848c0-1.152-.048-2.064-.144-2.736-.096-.672-.208-1.152-.336-1.44-.096-.256-.112-.448-.048-.576.096-.192.288-.288.576-.288.448,0,1.144.064,2.088.192.943.128,1.888.256,2.832.384.943.128,1.64.257,2.088.384.256.032.416.136.48.312.064.176.096.36.096.552-.032.449-.288.705-.768.768-.736.064-1.104.4-1.104,1.008v6.288h4.224c.288,0,.52-.024.696-.072.176-.048.328-.168.456-.36.256-.352.583-.776.984-1.272.4-.496.712-.904.936-1.224.319-.416.72-.48,1.2-.192.384.224.832.544,1.344.96.512.416,1.016.84,1.512,1.272.496.432.872.809,1.128,1.128.224.256.288.521.192.792-.096.272-.272.408-.528.408h-12.144v9.504h5.52c.288,0,.511-.024.672-.072.16-.048.319-.184.48-.408.256-.352.6-.808,1.032-1.368.432-.56.76-1,.984-1.32.352-.384.751-.432,1.2-.144.416.224.903.552,1.464.984.56.432,1.111.88,1.656,1.344.544.464.944.873,1.2,1.224.224.257.295.521.216.792-.08.272-.248.408-.504.408h-13.392c-1.472,2.432-3.056,4.792-4.752,7.08-1.696,2.288-3.264,4.2-4.704,5.736,1.696-.096,3.416-.184,5.16-.264,1.744-.079,3.4-.16,4.968-.24,1.567-.08,2.911-.136,4.032-.168-.672-1.184-1.416-2.312-2.232-3.384-.816-1.072-1.721-2.04-2.712-2.904-.032-.192.007-.368.12-.528.111-.16.264-.256.456-.288,3.008,1.056,5.632,2.352,7.872,3.888,2.24,1.536,3.712,3.344,4.416,5.424.544,1.568.624,2.848.24,3.84-.384.992-.977,1.664-1.776,2.016-.672.319-1.337.384-1.992.192-.656-.192-1.112-.656-1.368-1.392-.32-.928-.672-1.848-1.056-2.76-.384-.912-.8-1.816-1.248-2.712-1.217.32-2.696.736-4.44,1.248-1.745.513-3.552,1.056-5.424,1.632-1.872.576-3.608,1.128-5.208,1.656-1.601.528-2.864.984-3.792,1.368-.384.16-.632.304-.744.432-.112.127-.152.367-.12.72.063.288-.128.528-.576.72Z"/>
  </g>
  <g>
    <path class="st1" d="M26.777,9.33c0-.673.138-1.269.415-1.785s.691-.92,1.245-1.21c.553-.29,1.243-.435,2.07-.435.807,0,1.49.155,2.05.465.56.31.986.725,1.28,1.245s.44,1.093.44,1.72c0,.353-.066.665-.2.935-.134.27-.247.472-.34.605s-.1.253-.02.36c.06.073.115.133.165.18.05.046.088.09.115.13.053.06.066.126.04.2-.027.073-.08.11-.16.11h-1.88c-.08,0-.13-.047-.15-.14s.003-.157.07-.19c.32-.126.635-.29.945-.49.31-.2.567-.44.77-.72.204-.28.305-.607.305-.98,0-.327-.119-.645-.355-.955-.237-.31-.607-.567-1.11-.77-.503-.204-1.159-.305-1.965-.305-.606,0-1.12.06-1.54.18-.42.12-.756.28-1.01.48-.253.2-.437.425-.55.675s-.17.505-.17.765c0,.613.142,1.115.425,1.505.283.39.708.718,1.275.985.06.033.102.077.125.13s.018.104-.015.15c-.027.047-.063.082-.11.105-.047.023-.097.025-.15.005-.607-.234-1.094-.592-1.46-1.075-.367-.483-.55-1.108-.55-1.875Z"/>
    <path class="st1" d="M26.777,18.42c0-.647.157-1.219.47-1.715.313-.497.751-.885,1.315-1.165.563-.28,1.218-.42,1.965-.42.76,0,1.42.146,1.98.44s.995.688,1.305,1.185.465,1.055.465,1.675-.155,1.178-.465,1.675-.745.892-1.305,1.185-1.22.44-1.98.44c-.747,0-1.401-.142-1.965-.425-.563-.284-1.002-.672-1.315-1.165-.313-.494-.47-1.063-.47-1.71ZM27.148,18.42c0,.36.105.683.315.97s.562.513,1.055.68c.493.167,1.163.25,2.01.25.854,0,1.527-.083,2.02-.25.493-.167.847-.394,1.06-.68s.32-.61.32-.97-.106-.684-.32-.97-.567-.513-1.06-.68c-.493-.167-1.167-.25-2.02-.25-.847,0-1.517.083-2.01.25-.494.167-.845.394-1.055.68s-.315.61-.315.97Z"/>
    <path class="st1" d="M26.868,30.55v-.13c-.007-.126-.003-.223.01-.29.014-.066.07-.126.17-.18.14-.08.348-.204.625-.37.277-.167.597-.363.96-.59.363-.227.745-.465,1.145-.715s.793-.497,1.18-.74c.387-.244.742-.469,1.065-.675s.593-.38.81-.52c.216-.14.352-.227.405-.26.014-.007.019-.022.015-.045-.003-.023-.021-.035-.055-.035h-4.66c-.507,0-.858.098-1.055.295s-.295.428-.295.695c0,.033-.012.065-.035.095-.023.03-.058.045-.105.045-.046,0-.083-.015-.11-.045-.027-.03-.04-.062-.04-.095,0-.067.005-.204.015-.41.01-.207.015-.457.015-.75,0-.347-.005-.608-.015-.785-.01-.177-.015-.302-.015-.375,0-.086.05-.13.15-.13.093,0,.14.043.14.13,0,.28.1.508.3.685.2.177.547.265,1.04.265h4.66c.24,0,.415-.054.525-.16s.165-.297.165-.57c0-.087.05-.13.15-.13.087,0,.13.043.13.13,0,.053-.003.231-.01.535-.007.304-.01.702-.01,1.195,0,.113-.017.196-.05.25-.033.053-.09.103-.17.15-.047.026-.173.106-.38.24-.207.133-.465.3-.775.5-.31.2-.645.417-1.005.65-.36.233-.72.466-1.08.7-.36.233-.693.448-1,.645s-.558.36-.755.49-.312.205-.345.225c-.06.04-.08.078-.06.115s.057.055.11.055h3.89c.486,0,.835-.092,1.045-.275.21-.184.315-.435.315-.755,0-.086.05-.13.15-.13.087,0,.13.043.13.13,0,.073-.005.217-.015.43-.01.213-.015.467-.015.76,0,.287.005.534.015.74.01.207.015.343.015.41,0,.1-.043.15-.13.15-.1,0-.15-.05-.15-.15,0-.253-.102-.472-.305-.655-.203-.183-.555-.275-1.055-.275h-3.8c-.353,0-.651.013-.895.04-.243.026-.472.046-.685.06-.074.006-.135-.019-.185-.075-.05-.057-.079-.222-.085-.495Z"/>
    <path class="st1" d="M26.898,36.28c0-.087.046-.13.14-.13.1,0,.15.043.15.13,0,.373.053.623.16.75.106.126.256.19.45.19h5.84c.14,0,.21-.07.21-.21v-.6c0-.253-.059-.47-.175-.65-.117-.18-.263-.33-.44-.45s-.352-.217-.525-.29-.32-.13-.44-.17c-.04-.014-.063-.033-.07-.06-.006-.027-.006-.063,0-.11v-.02c.007-.04.022-.063.045-.07.023-.007.048-.01.075-.01s.113.003.26.01c.146.006.313.015.5.025.187.01.36.018.52.025.16.006.27.01.33.01.153,0,.23.087.23.26,0,.033-.003.176-.01.43-.007.253-.012.595-.015,1.025-.003.43-.005.925-.005,1.485s.001,1.055.005,1.485c.003.43.008.775.015,1.035.006.26.01.407.01.44,0,.16-.08.243-.24.25-.047,0-.148.005-.305.015-.157.01-.33.018-.52.025-.19.006-.36.013-.51.02-.15.006-.238.01-.265.01-.04,0-.068-.003-.085-.01-.017-.007-.028-.037-.035-.09,0-.007-.003-.017-.01-.03,0-.027.001-.05.005-.07s.032-.043.085-.07c.113-.053.257-.118.43-.195s.347-.173.52-.29.32-.262.44-.435.18-.387.18-.64v-.66c0-.06-.012-.112-.035-.155-.023-.043-.082-.065-.175-.065h-5.84c-.113,0-.217.019-.31.055s-.167.12-.22.25c-.054.13-.08.332-.08.605,0,.1-.05.15-.15.15-.094,0-.14-.05-.14-.15,0-.067.005-.232.015-.495.01-.263.015-.602.015-1.015s-.005-.755-.015-1.025c-.01-.27-.015-.441-.015-.515Z"/>
    <path class="st1" d="M26.817,49.12c0-.26.065-.472.195-.635.13-.163.301-.296.515-.4s.447-.188.7-.255c.253-.067.506-.128.76-.185s.487-.125.7-.205.385-.185.515-.315c.13-.13.195-.302.195-.515v-.78c0-.087-.04-.13-.12-.13h-2.48c-.133,0-.247.018-.34.055s-.162.115-.205.235c-.043.12-.065.303-.065.55,0,.086-.05.13-.15.13-.034,0-.065-.012-.095-.035-.03-.023-.045-.055-.045-.095,0-.067.005-.231.015-.495.01-.263.015-.578.015-.945,0-.347-.005-.645-.015-.895-.01-.25-.015-.412-.015-.485,0-.087.046-.13.14-.13.1,0,.15.043.15.13,0,.247.023.423.07.53.047.106.115.173.205.2.09.026.202.04.335.04h5.48c.12,0,.224-.015.31-.045.086-.03.155-.097.205-.2.05-.104.075-.272.075-.505,0-.047.015-.082.045-.105.03-.023.062-.035.095-.035.1,0,.15.046.15.14,0,.046-.005.198-.015.455-.01.256-.015.558-.015.905,0,.553.005,1.013.015,1.38.01.367.015.67.015.91,0,.407-.062.778-.185,1.115-.124.337-.319.608-.585.815-.267.207-.617.31-1.05.31-.287,0-.53-.057-.73-.17s-.365-.256-.495-.43c-.13-.174-.235-.358-.315-.555s-.144-.382-.19-.555c-.02-.066-.047-.102-.08-.105s-.057.008-.07.035c-.08.247-.208.445-.385.595-.177.15-.376.268-.6.355-.224.086-.452.158-.685.215-.233.057-.449.111-.645.165-.197.053-.355.12-.475.2-.12.08-.18.19-.18.33,0,.06.015.12.045.18.03.06.082.123.155.19.04.033.066.063.08.09.013.027.003.06-.03.1-.026.033-.057.048-.09.045s-.073-.015-.12-.035c-.146-.067-.302-.202-.465-.405-.164-.203-.245-.455-.245-.755ZM30.728,45.83v.94c0,.493.133.87.4,1.13.267.26.67.39,1.21.39.447,0,.81-.108,1.09-.325.28-.217.42-.545.42-.985v-1.07c0-.054-.012-.102-.035-.145s-.082-.065-.175-.065h-2.77c-.027,0-.057.013-.09.04-.033.026-.05.057-.05.09Z"/>
    <path class="st1" d="M26.777,56.49c0-.647.157-1.219.47-1.715.313-.497.751-.885,1.315-1.165.563-.28,1.218-.42,1.965-.42.76,0,1.42.146,1.98.44s.995.688,1.305,1.185.465,1.055.465,1.675-.155,1.178-.465,1.675-.745.892-1.305,1.185-1.22.44-1.98.44c-.747,0-1.401-.142-1.965-.425-.563-.284-1.002-.672-1.315-1.165-.313-.494-.47-1.063-.47-1.71ZM27.148,56.49c0,.36.105.683.315.97s.562.513,1.055.68c.493.167,1.163.25,2.01.25.854,0,1.527-.083,2.02-.25.493-.167.847-.394,1.06-.68s.32-.61.32-.97-.106-.684-.32-.97-.567-.513-1.06-.68c-.493-.167-1.167-.25-2.02-.25-.847,0-1.517.083-2.01.25-.494.167-.845.394-1.055.68s-.315.61-.315.97Z"/>
    <path class="st1" d="M26.898,62.84c0-.093.043-.14.13-.14.106,0,.16.047.16.14,0,.36.043.606.13.74.086.133.243.2.47.2h5.51c.193,0,.338-.052.435-.155.097-.104.145-.338.145-.705,0-.087.053-.13.16-.13.086,0,.13.043.13.13,0,.06-.003.23-.01.51-.006.28-.01.6-.01.96,0,.24.001.467.005.68s.007.395.01.545c.003.15.005.242.005.275,0,.093-.043.14-.13.14-.107,0-.16-.047-.16-.14,0-.367-.048-.608-.145-.725-.097-.117-.242-.175-.435-.175h-5.89c-.133,0-.2.07-.2.21v1.55c0,.327.093.615.28.865s.418.463.695.64c.276.177.548.315.815.415.053.02.088.046.105.08.017.033.021.063.015.09-.007.053-.025.086-.055.1-.03.013-.062.02-.095.02h-.25c-.146,0-.322-.002-.525-.005-.203-.003-.398-.007-.585-.01s-.327-.008-.42-.015c-.087-.006-.157-.033-.21-.08-.054-.047-.08-.117-.08-.21,0-.046.001-.17.005-.37.003-.2.005-.5.005-.9v-3.05c0-.427-.001-.769-.005-1.025-.003-.257-.005-.409-.005-.455Z"/>
    <path class="st1" d="M26.777,74.619c0-.307.039-.597.115-.87s.158-.508.245-.705c.086-.197.146-.335.18-.415.033-.067.047-.137.04-.21-.007-.074-.04-.137-.1-.19l-.01-.01c0-.007-.012-.022-.035-.045-.023-.023-.092-.095-.205-.215-.066-.066-.085-.13-.055-.19.03-.06.082-.09.155-.09h1.95c.08,0,.126.045.14.135.014.09-.01.145-.07.165-.374.127-.707.32-1,.58-.293.26-.521.572-.685.935s-.245.755-.245,1.175c0,.346.07.628.21.845.14.217.318.378.535.485.217.107.432.16.645.16.287,0,.519-.08.695-.24.177-.16.32-.37.43-.63.11-.26.205-.548.285-.865.08-.317.167-.632.26-.945.093-.313.215-.6.365-.86.15-.26.35-.47.6-.63s.568-.24.955-.24c.46,0,.845.112,1.155.335.31.224.545.522.705.895.16.374.24.777.24,1.21,0,.22-.025.443-.075.67-.05.227-.11.437-.18.63s-.135.34-.195.44c-.087.16-.087.283,0,.37.066.066.123.136.17.21.053.053.065.11.035.17-.03.06-.088.09-.175.09h-1.71c-.087,0-.14-.042-.16-.125s.014-.142.1-.175c.327-.147.63-.332.91-.555.28-.223.506-.48.68-.77s.26-.608.26-.955c0-.287-.062-.54-.185-.76s-.285-.394-.485-.52c-.2-.126-.423-.19-.67-.19-.28,0-.503.082-.67.245-.167.163-.3.378-.4.645-.1.267-.187.562-.26.885-.074.323-.155.645-.245.965-.09.32-.212.613-.365.88-.153.267-.358.481-.615.645-.257.163-.592.245-1.005.245-.474,0-.88-.113-1.22-.34s-.598-.537-.775-.93c-.177-.393-.265-.84-.265-1.34Z"/>
  </g>
</svg>