<?xml version="1.0" encoding="UTF-8"?>
<svg id="_レイヤー_1" data-name="レイヤー_1" xmlns="http://www.w3.org/2000/svg" version="1.1" viewBox="0 0 200 200">
  <!-- Generator: Adobe Illustrator 29.0.1, SVG Export Plug-In . SVG Version: 2.1.0 Build 192)  -->
  <defs>
    <style>
      .st0 {
        fill: #fff;
      }

      .st1 {
        fill: none;
        stroke: #fff;
        stroke-width: 12.209px;
      }

      .st2 {
        fill: #d3c393;
      }

      .st3 {
        fill: #9c8334;
      }
    </style>
  </defs>
  <g>
    <path class="st0" d="M189.24,137.213l-21.348-21.348c3.415-9.417,5.183-19.342,5.171-29.328.025-23.113-8.979-44.849-25.336-61.198C131.387,8.987,109.675-.012,86.612-.012c-.049.004-.094,0-.131,0C63.384-.012,41.668,8.991,25.348,25.328,8.983,41.68-.016,63.405,0,86.497c-.025,23.113,8.979,44.853,25.336,61.206,16.332,16.353,38.036,25.352,61.079,25.352h.086c10.363-.033,19.956-1.744,29.369-5.167l21.344,21.34c6.948,6.952,16.189,10.784,26.019,10.784s19.071-3.832,26.007-10.776c14.347-14.338,14.347-37.684,0-52.023Z"/>
    <rect class="st1" x="80.591" y="48.44" width="11.879" height="76.165" rx="5.939" ry="5.939"/>
    <rect class="st1" x="48.448" y="80.583" width="76.165" height="11.879" rx="5.939" ry="5.939"/>
  </g>
  <g>
    <path class="st2" d="M20.961,86.518c-.014,16.747,6.427,33.6,19.203,46.371,12.771,12.781,29.629,19.217,46.366,19.203,11.681.015,23.391-3.194,33.759-9.432l31.757,31.757c6.176,6.181,16.197,6.181,22.372,0,6.181-6.181,6.181-16.197,0-22.377l-31.752-31.752c6.234-10.373,9.447-22.078,9.432-33.769.019-16.733-6.422-33.59-19.202-46.361-12.771-12.781-29.624-19.217-46.366-19.207-16.737-.01-33.595,6.427-46.366,19.207-12.776,12.771-19.222,29.629-19.202,46.361ZM33.023,86.517c.026-13.742,5.194-27.337,15.673-37.828,10.491-10.478,24.086-15.647,37.834-15.673,13.749.026,27.337,5.195,37.834,15.673,10.478,10.491,15.647,24.086,15.673,37.828-.026,13.755-5.195,27.343-15.673,37.841-10.498,10.478-24.086,15.647-37.834,15.673-13.749-.026-27.343-5.194-37.828-15.673-10.485-10.497-15.653-24.085-15.679-37.841Z"/>
    <rect class="st2" x="80.591" y="48.44" width="11.879" height="76.165" rx="5.939" ry="5.939"/>
    <rect class="st2" x="48.448" y="80.583" width="76.165" height="11.879" rx="5.939" ry="5.939"/>
  </g>
  <g>
    <path class="st3" d="M20.961,86.518c-.014,16.747,6.427,33.6,19.203,46.371,12.771,12.781,29.629,19.217,46.366,19.203,11.681.015,23.391-3.194,33.759-9.432l31.757,31.757c6.176,6.181,16.197,6.181,22.372,0,6.181-6.181,6.181-16.197,0-22.377l-31.752-31.752c6.234-10.373,9.447-22.078,9.432-33.769.019-16.733-6.422-33.59-19.202-46.361-12.771-12.781-29.624-19.217-46.366-19.207-16.737-.01-33.595,6.427-46.366,19.207-12.776,12.771-19.222,29.629-19.202,46.361ZM33.023,86.517c.026-13.742,5.194-27.337,15.673-37.828,10.491-10.478,24.086-15.647,37.834-15.673,13.749.026,27.337,5.195,37.834,15.673,10.478,10.491,15.647,24.086,15.673,37.828-.026,13.755-5.195,27.343-15.673,37.841-10.498,10.478-24.086,15.647-37.834,15.673-13.749-.026-27.343-5.194-37.828-15.673-10.485-10.497-15.653-24.085-15.679-37.841Z"/>
    <rect class="st3" x="80.591" y="48.44" width="11.879" height="76.165" rx="5.939" ry="5.939"/>
    <rect class="st3" x="48.448" y="80.583" width="76.165" height="11.879" rx="5.939" ry="5.939"/>
  </g>
</svg>