<?xml version="1.0" encoding="UTF-8"?>
<svg id="_レイヤー_1" data-name="レイヤー_1" xmlns="http://www.w3.org/2000/svg" version="1.1" viewBox="0 0 54 44">
  <!-- Generator: Adobe Illustrator 29.0.1, SVG Export Plug-In . SVG Version: 2.1.0 Build 192)  -->
  <defs>
    <style>
      .st0 {
        fill: #fff;
      }
    </style>
  </defs>
  <g>
    <path class="st0" d="M3.073,42.723c-.866-.383-1.586-.986-2.162-1.807-.575-.821-.863-1.851-.863-3.09,0-.924.217-1.837.649-2.737s1.05-1.635,1.852-2.206c.802-.57,1.724-.855,2.767-.855.285,0,.564.035.84.103.275.069.58.163.915.28.079.02.212.059.398.118s.335.088.442.088c.148,0,.288-.034.421-.103.132-.069.272-.167.421-.295l.574,2.478.029.148c0,.049-.039.093-.117.133-.02.01-.045.015-.074.015-.049,0-.098-.03-.147-.089-.314-.452-.622-.843-.922-1.173-.3-.329-.669-.609-1.106-.841-.438-.231-.941-.347-1.512-.347-.836,0-1.482.342-1.94,1.025-.457.684-.757,1.421-.899,2.213-.143.792-.215,1.453-.215,1.984,0,1.033.168,1.916.502,2.648.334.733.768,1.284,1.299,1.652s1.096.553,1.696.553c.846,0,1.526-.211,2.043-.634s.991-.983,1.424-1.682c.049-.049.093-.074.133-.074.02,0,.054.015.103.044.06.04.089.088.089.147l-.029.088c-.354.708-.858,1.35-1.513,1.925-.654.576-1.482.863-2.485.863-.876,0-1.745-.192-2.61-.576Z"/>
    <path class="st0" d="M11.083,43.107c-.039,0-.066-.015-.081-.044-.015-.029-.022-.074-.022-.133,0-.108.035-.162.104-.162h.177c.345,0,.635-.086.87-.258.236-.172.354-.509.354-1.01v-7.716c0-.846-.408-1.269-1.225-1.269h-.177c-.039,0-.066-.015-.081-.044-.015-.029-.022-.074-.022-.133,0-.098.035-.147.104-.147h5.001c.069,0,.104.054.104.163s-.034.162-.104.162h-.162c-.826,0-1.239.423-1.239,1.269v7.952c0,.354.105.59.316.708.212.118.544.192.996.222l.325.015.397-.015c.866-.04,1.609-.313,2.229-.819s1.165-1.094,1.637-1.763c.03-.039.069-.059.119-.059.029,0,.063.01.103.03.069.029.104.069.104.118l-.015.074-.413,1.106c-.364.983-.581,1.569-.649,1.755h-8.748Z"/>
    <path class="st0" d="M24.905,42.65c-.816-.433-1.486-1.074-2.014-1.925-.525-.851-.789-1.871-.789-3.062,0-1.18.264-2.195.789-3.046.527-.851,1.197-1.495,2.014-1.933.816-.438,1.648-.656,2.494-.656.836,0,1.662.219,2.479.656.816.438,1.487,1.082,2.014,1.933.525.851.789,1.866.789,3.046,0,1.19-.264,2.211-.789,3.062-.526.851-1.197,1.492-2.014,1.925-.816.433-1.643.649-2.479.649-.846,0-1.678-.216-2.494-.649ZM28.918,42.281c.442-.383.791-.964,1.047-1.741s.384-1.731.384-2.862-.126-2.085-.376-2.862c-.251-.777-.598-1.357-1.04-1.741s-.949-.575-1.52-.575c-.581,0-1.092.191-1.534.575-.443.384-.792.964-1.048,1.741-.256.777-.384,1.731-.384,2.862s.126,2.085.377,2.862c.25.777.6,1.357,1.047,1.741.447.384.957.575,1.527.575s1.076-.191,1.52-.575Z"/>
    <path class="st0" d="M36.176,42.709c-.128-.059-.251-.088-.369-.088-.147,0-.295.047-.442.14-.147.094-.329.249-.546.465l-.679-2.877-.029-.147c0-.02.013-.039.036-.059.025-.02.05-.034.074-.044.025-.009.042-.02.052-.029.02-.01.05-.015.089-.015s.094.04.162.118c.502.708,1.076,1.301,1.727,1.777.648.477,1.41.716,2.286.716.63,0,1.136-.16,1.52-.479.384-.32.575-.779.575-1.379,0-.748-.418-1.293-1.254-1.638-.384-.167-.865-.339-1.445-.516-.099-.03-.345-.113-.738-.251-.393-.138-.742-.285-1.047-.442-.551-.285-.965-.654-1.24-1.106-.275-.453-.412-.969-.412-1.549,0-.462.107-.944.324-1.446.217-.501.592-.932,1.129-1.291.535-.359,1.241-.539,2.117-.539.314,0,.617.035.906.103.291.069.643.177,1.055.325.168.059.305.088.414.088.146,0,.285-.039.412-.118.129-.079.271-.207.429-.384l.752,2.552.03.118c0,.049-.045.093-.133.133-.06.02-.104.029-.133.029-.05,0-.1-.034-.148-.103-.117-.197-.329-.465-.634-.804-.306-.339-.718-.659-1.239-.959-.521-.3-1.102-.45-1.74-.45-.562,0-.992.113-1.291.339-.301.227-.5.478-.598.752-.099.275-.148.517-.148.723,0,.295.074.561.222.796.147.236.364.433.649.59.266.147.632.3,1.1.457.467.158.744.251.833.28.128.04.394.128.796.266.404.138.743.271,1.019.398,1.327.61,1.991,1.529,1.991,2.759,0,.629-.152,1.2-.457,1.711s-.752.917-1.342,1.217c-.591.3-1.294.45-2.11.45-.718,0-1.559-.197-2.522-.59Z"/>
    <path class="st0" d="M53.953,40.201c0,.029-.024.103-.073.221l-.988,2.685h-8.911c-.079,0-.118-.059-.118-.177,0-.098.039-.147.118-.147h.162c.816,0,1.225-.428,1.225-1.283v-7.716c0-.846-.408-1.269-1.225-1.269h-.162c-.079,0-.118-.059-.118-.177,0-.098.039-.147.118-.147h8.586c.196.354.401.728.612,1.121.211.394.361.684.45.871l.015.059c0,.049-.029.088-.089.118-.039.02-.073.029-.103.029-.06,0-.104-.015-.133-.044-.404-.422-.969-.816-1.697-1.18s-1.445-.546-2.154-.546h-.25c-.403,0-.716.018-.938.052-.221.035-.396.116-.523.244-.127.128-.191.334-.191.62v3.658h1.136c.531,0,.89-.004,1.077-.015.423-.01.758-.162,1.003-.457.246-.295.369-.625.369-.989,0-.039.015-.066.044-.081s.074-.022.133-.022c.068,0,.115.007.141.022.023.015.037.042.037.081v3.452c0,.04-.014.066-.037.081-.025.015-.072.022-.141.022-.059,0-.104-.007-.133-.022-.029-.015-.044-.042-.044-.081,0-.364-.123-.693-.369-.988-.245-.295-.58-.447-1.003-.458-.188-.009-.546-.015-1.077-.015h-1.136v4.013c0,.344.104.578.31.701.206.123.541.199,1.003.229.099.01.231.015.398.015.197,0,.364-.005.502-.015.875-.04,1.617-.313,2.228-.819s1.151-1.094,1.623-1.763c.029-.039.073-.059.132-.059.03,0,.064.01.104.03.06.02.089.069.089.147Z"/>
  </g>
  <rect class="st0" x="2.133" y="8.358" width="49.932" height="4" rx="2" ry="2" transform="translate(5.177 -8.644) rotate(20)"/>
  <rect class="st0" x="2.133" y="8.358" width="49.932" height="4" rx="2" ry="2" transform="translate(5.177 -8.644) rotate(20)"/>
  <rect class="st0" x="2.133" y="8.358" width="49.932" height="4" rx="2" ry="2" transform="translate(56.106 10.823) rotate(160)"/>
</svg>