<?xml version="1.0" encoding="UTF-8"?>
<svg id="_レイヤー_1" data-name="レイヤー_1" xmlns="http://www.w3.org/2000/svg" version="1.1" viewBox="0 0 54 44">
  <!-- Generator: Adobe Illustrator 29.0.1, SVG Export Plug-In . SVG Version: 2.1.0 Build 192)  -->
  <defs>
    <style>
      .st0 {
        fill: #9c8334;
      }
    </style>
  </defs>
  <rect class="st0" x="2.034" y="2.882" width="49.932" height="4" rx="2" ry="2"/>
  <rect class="st0" x="2.034" y="14.23" width="49.932" height="4" rx="2" ry="2"/>
  <g>
    <path class="st0" d="M2.896,43.306c-.069,0-.104-.059-.104-.177,0-.098.034-.147.104-.147h.133c.324,0,.617-.12.877-.361.261-.241.391-.587.391-1.04v-8.011c0-.57-.422-.855-1.268-.855h-.133c-.069,0-.104-.054-.104-.162s.034-.163.104-.163h3.732l2.92,7.406,2.715-7.406h3.674c.068,0,.104.054.104.163,0,.118-.035.177-.104.177h-.162c-.354,0-.647.086-.879.258-.23.172-.346.509-.346,1.01l-.016,7.701c0,.855.414,1.283,1.24,1.283h.162c.068,0,.104.049.104.147,0,.118-.035.177-.104.177h-4.972c-.06,0-.089-.059-.089-.177,0-.098.029-.147.089-.147h.191c.807,0,1.21-.428,1.21-1.283l.015-7.922-3.511,9.53h-.443l-3.54-9.235v7.509c0,.453.133.799.397,1.04.266.241.557.361.871.361h.133c.068,0,.104.049.104.147,0,.118-.035.177-.104.177h-3.393Z"/>
    <path class="st0" d="M27.458,40.399c0,.029-.024.103-.074.221l-.988,2.685h-8.91c-.078,0-.118-.059-.118-.177,0-.098.04-.147.118-.147h.162c.816,0,1.225-.428,1.225-1.283v-7.716c0-.846-.408-1.269-1.225-1.269h-.162c-.078,0-.118-.059-.118-.177,0-.098.04-.147.118-.147h8.586c.197.354.4.728.612,1.121.212.394.361.684.45.871l.015.059c0,.049-.03.088-.089.118-.039.02-.074.029-.104.029-.059,0-.104-.015-.133-.044-.402-.422-.969-.816-1.695-1.18-.729-.364-1.446-.546-2.154-.546h-.251c-.403,0-.716.018-.937.052-.222.035-.396.116-.523.244-.129.128-.192.334-.192.62v3.658h1.136c.531,0,.891-.004,1.077-.015.423-.01.757-.162,1.003-.457.246-.295.369-.625.369-.989,0-.039.015-.066.044-.081.03-.015.073-.022.133-.022.069,0,.116.007.14.022.025.015.037.042.037.081v3.452c0,.04-.012.066-.037.081-.023.015-.07.022-.14.022-.06,0-.103-.007-.133-.022-.029-.015-.044-.042-.044-.081,0-.364-.123-.693-.369-.988s-.58-.447-1.003-.458c-.187-.009-.546-.015-1.077-.015h-1.136v4.013c0,.344.103.578.31.701.207.123.541.199,1.004.229.098.01.23.015.398.015.195,0,.363-.005.501-.015.875-.04,1.618-.313,2.228-.819s1.15-1.094,1.623-1.763c.029-.039.074-.059.133-.059.029,0,.063.01.104.03.059.02.088.069.088.147Z"/>
    <path class="st0" d="M28.624,43.306c-.06,0-.089-.059-.089-.177,0-.098.029-.147.089-.147h.133c.324,0,.617-.12.877-.361.261-.241.391-.587.391-1.04v-7.774c-.167-.325-.346-.568-.538-.73-.191-.162-.421-.273-.687-.332l-.176-.029c-.069-.02-.104-.074-.104-.162,0-.108.034-.163.104-.163h3.201l5.385,7.819v-6.107c0-.442-.131-.782-.392-1.018-.261-.236-.554-.359-.878-.369h-.133c-.068,0-.104-.054-.104-.162s.035-.163.104-.163h3.394c.068,0,.103.054.103.163s-.034.162-.103.162h-.147c-.324.01-.615.133-.871.369-.256.236-.383.576-.383,1.018v9.206h-1.137l-6.048-8.822v7.096c0,.453.13.799.391,1.04.261.241.554.361.878.361h.133c.068,0,.104.049.104.147,0,.118-.035.177-.104.177h-3.393Z"/>
    <path class="st0" d="M42.948,42.583c-.699-.61-1.048-1.535-1.048-2.774v-5.813c0-.501-.118-.838-.354-1.01-.235-.172-.531-.258-.885-.258h-.177c-.069,0-.104-.059-.104-.177,0-.108.034-.163.104-.163h4.972c.068,0,.104.054.104.163,0,.118-.035.177-.104.177h-.162c-.354,0-.647.086-.879.258-.23.172-.346.509-.346,1.01v5.252c0,.669.049,1.259.147,1.771s.337.957.716,1.335c.378.379.951.568,1.719.568,1.888,0,2.832-1.362,2.832-4.086v-4.735c0-.452-.128-.797-.384-1.033s-.546-.354-.87-.354h-.133c-.069,0-.104-.054-.104-.162s.034-.163.104-.163h3.393c.068,0,.104.054.104.163s-.035.162-.104.162h-.133c-.324,0-.617.118-.877.354-.262.236-.392.581-.392,1.033l-.029,5.164c0,1.367-.317,2.415-.952,3.142-.634.728-1.521,1.092-2.662,1.092-1.633,0-2.799-.305-3.496-.915Z"/>
  </g>
</svg>